<svg width="24" height="24" viewBox="0 0 24 24" fill="none" xmlns="http://www.w3.org/2000/svg">
<path d="M23.643 4.93732C22.808 5.30732 21.911 5.55732 20.968 5.67032C21.941 5.08811 22.669 4.17179 23.016 3.09232C22.1019 3.63531 21.1014 4.01752 20.058 4.22232C19.3564 3.47319 18.4271 2.97665 17.4143 2.8098C16.4016 2.64294 15.3621 2.81511 14.4572 3.29957C13.5524 3.78404 12.8328 4.55368 12.4102 5.48902C11.9875 6.42437 11.8855 7.47307 12.12 8.47232C10.2677 8.37932 8.45564 7.89787 6.80144 7.05923C5.14723 6.22058 3.68785 5.04348 2.51801 3.60432C2.11801 4.29432 1.88801 5.09432 1.88801 5.94632C1.88757 6.71332 2.07644 7.46856 2.43789 8.14505C2.79934 8.82154 3.32217 9.39836 3.96001 9.82432C3.22029 9.80078 2.49688 9.6009 1.85001 9.24132V9.30132C1.84994 10.3771 2.22204 11.4197 2.90319 12.2523C3.58434 13.0849 4.53258 13.6563 5.58701 13.8693C4.9008 14.055 4.18135 14.0824 3.48301 13.9493C3.78051 14.8749 4.36001 15.6843 5.14038 16.2642C5.92075 16.8441 6.86293 17.1655 7.83501 17.1833C6.18484 18.4787 4.1469 19.1814 2.04901 19.1783C1.67739 19.1784 1.30609 19.1567 0.937012 19.1133C3.06649 20.4825 5.54535 21.2091 8.07701 21.2063C16.647 21.2063 21.332 14.1083 21.332 7.95232C21.332 7.75232 21.327 7.55032 21.318 7.35032C22.2293 6.6913 23.0159 5.87522 23.641 4.94032L23.643 4.93732Z" fill="#D5D9DB"/>
</svg>
