<svg width="24" height="24" viewBox="0 0 24 24" fill="none" xmlns="http://www.w3.org/2000/svg">
<g clip-path="url(#clip0_86_596)">
<path fill-rule="evenodd" clip-rule="evenodd" d="M0 12.0672C0 18.0332 4.333 22.9942 10 24.0002V15.3332H7V12.0002H10V9.33324C10 6.33324 11.933 4.66724 14.667 4.66724C15.533 4.66724 16.467 4.80024 17.333 4.93324V8.00024H15.8C14.333 8.00024 14 8.73324 14 9.66724V12.0002H17.2L16.667 15.3332H14V24.0002C19.667 22.9942 24 18.0342 24 12.0672C24 5.43024 18.6 0.000244141 12 0.000244141C5.4 0.000244141 0 5.43024 0 12.0672Z" fill="#D5D9DB"/>
</g>
<defs>
<clipPath id="clip0_86_596">
<rect width="24" height="24" fill="white" transform="translate(0 0.000244141)"/>
</clipPath>
</defs>
</svg>
