<svg width="44" height="45" viewBox="0 0 44 45" fill="none" xmlns="http://www.w3.org/2000/svg">
<path fill-rule="evenodd" clip-rule="evenodd" d="M7.99238 9.77792C7.99604 9.77792 7.90438 9.87325 7.78888 9.98692C7.34521 10.4177 6.42671 11.3142 6.41745 13.1897C6.40288 15.8132 8.12804 20.6844 16.4349 28.9894C24.7032 37.2541 29.567 38.9994 32.196 38.9994H32.2345C34.11 38.9902 35.0047 38.0699 35.4374 37.6281C35.5694 37.4924 35.6757 37.3934 35.7509 37.3311C37.5769 35.4941 38.5119 34.1264 38.5028 33.2501C38.4899 32.3554 37.377 31.2976 35.8389 29.8346C35.3494 29.3689 34.8177 28.8629 34.2567 28.3019C32.8029 26.8517 32.0824 27.0993 30.4984 27.6566C28.3075 28.4247 25.3009 29.4697 20.6295 24.7966C15.9509 20.1216 16.9977 17.1186 17.764 14.9277C18.3177 13.3437 18.5707 12.6214 17.115 11.1657C16.5449 10.5974 16.0334 10.0584 15.5622 9.56342C14.1084 8.03442 13.0597 6.92892 12.1705 6.91608H12.1559C11.2777 6.91608 9.91371 7.85475 7.98321 9.78525C7.98871 9.77975 7.99054 9.77792 7.99238 9.77792ZM32.1979 41.7494C27.6292 41.7494 21.6727 38.1121 14.4915 30.9346C7.28288 23.7278 3.64004 17.7529 3.66739 13.1751C3.68404 10.1501 5.26988 8.60092 5.86571 8.01975C5.89688 7.98125 6.00321 7.87675 6.03988 7.84008C8.66888 5.20925 10.4417 4.14592 12.2054 4.1658C14.2532 4.19358 15.7107 5.72625 17.555 7.66775C18.0115 8.14808 18.5065 8.67058 19.0584 9.22058C21.735 11.8972 20.9724 14.0807 20.36 15.8334C19.6927 17.7456 19.1152 19.3956 22.5729 22.8533C26.0342 26.3109 27.6842 25.7334 29.589 25.0606C31.3435 24.4482 33.5215 23.6819 36.2019 26.3586C36.7445 26.9012 37.2597 27.3907 37.7345 27.8436C39.6852 29.6971 41.2252 31.1619 41.2512 33.2153C41.2729 34.9661 40.2095 36.7499 37.5842 39.3771L36.4219 38.5887L37.4045 39.5494C36.8234 40.1452 35.276 41.7329 32.2492 41.7494H32.1979Z" fill="#1A1A1A"/>
</svg>
