<svg width="94" height="54" viewBox="0 0 94 54" fill="none" xmlns="http://www.w3.org/2000/svg">
<path fill-rule="evenodd" clip-rule="evenodd" d="M27.5613 4.5C37.7965 4.5 46.1238 12.8902 46.1238 23.2043C46.1238 35.883 31.5978 48.375 27.5613 48.375C23.5248 48.375 8.99878 35.883 8.99878 23.2043C8.99878 12.8902 17.326 4.5 27.5613 4.5ZM27.5613 7.875C19.1868 7.875 12.3738 14.7532 12.3738 23.2043C12.3738 33.957 25.0278 44.433 27.5613 44.991C30.0948 44.4308 42.7488 33.9548 42.7488 23.2043C42.7488 14.7532 35.9358 7.875 27.5613 7.875ZM27.5635 15.75C31.5955 15.75 34.876 19.0305 34.876 23.0648C34.876 27.0968 31.5955 30.375 27.5635 30.375C23.5315 30.375 20.251 27.0968 20.251 23.0648C20.251 19.0305 23.5315 15.75 27.5635 15.75ZM27.5635 19.125C25.3923 19.125 23.626 20.8913 23.626 23.0648C23.626 25.236 25.3923 27 27.5635 27C29.7348 27 31.501 25.236 31.501 23.0648C31.501 20.8913 29.7348 19.125 27.5635 19.125Z" fill="#FF3131"/>
</svg>
