<svg width="1859" height="778" viewBox="0 0 1859 778" fill="none" xmlns="http://www.w3.org/2000/svg">
<g clip-path="url(#clip0_93_1558)">
<path opacity="0.5" d="M1123.46 30.2855L1122.13 30.7907L1120.98 32.9119L1119.7 33.2393L1119.88 34.5433L1119.45 34.909L1117.15 34.2883L1114.28 36.0737L1113.29 38.0268L1114.71 39.8474L1114.07 41.4127L1117.17 44.1542L1116.87 45.2075L1117.36 46.9186L1116.92 48.1401L1114.62 50.1084L1113.34 53.522L1113.07 53.773L1112.59 54.3363L1112.02 56.3331L1108.9 58.967L1110.31 60.4731L1109.39 62.2338L1111.33 63.3836L1110.85 67.7061L1113.31 73.1589L1112.87 75.0993L1116.27 75.259L1117.94 77.3501L1119.9 77.3568L1122.35 78.9795L1122.53 79.133L1122.59 79.272L1123.24 80.7249L1123.49 82.5774L1125.46 84.7634L1125.02 85.963L1126.19 88.3249L1127.72 88.1927L1128.93 90.7593L1130.3 91.7242L1130.5 93.655L1131.87 93.3546L1134.29 96.6427L1134.33 97.9978L1136.44 100.13L1136.82 101.405L1139.11 101.302L1140.44 102.757L1142.33 103.268L1142.94 104.182L1145.23 105.659L1148.24 104.948L1149.69 106.995L1150.2 106.008L1149.72 104.611L1150.53 103.316L1152.64 102.721L1152.83 102.379L1153.3 101.502L1153.53 101.048L1154.69 100.368L1155.69 100.689L1156.28 100.879L1156.37 100.908L1156.95 100.374L1157.23 100.155L1158.08 100.213L1160.03 100.524L1161.23 99.356L1162.02 97.3372L1161.85 96.0114L1161.76 95.1725L1162.38 94.9383L1162.83 97.9074L1162.95 98.2563L1162.42 100.146L1161.47 100.797L1161.68 101.989L1164.46 106.639L1165.88 110.42L1166.84 115.824L1166.56 116.358L1166.54 116.446L1166.29 116.985L1165.58 118.004L1164.88 119.335L1164.86 119.76L1164.9 119.964L1165.87 120.396L1167.42 120.987L1168.15 122.252L1169.55 120.306L1170.88 120.233L1173.67 122.587L1175.5 122.525L1178.36 124.596L1181 129.076L1182.38 133.686L1183.97 134.197L1185.9 136.157L1185.11 137.049L1186.57 139.506L1187.96 140.668L1189.01 140.814L1189.89 143.059L1192.13 144.614L1192.65 146.649L1192.89 151.081L1193.5 152.017L1191.46 158.11L1193.1 159.162L1193.86 160.34L1196.2 160.373L1197.54 161.428L1198.48 161.104L1199 163.139L1200.27 164.696L1200.07 166.188L1201.33 167.095L1200.72 169.289L1202.87 170.817L1203.85 172.689L1204.39 173.074L1205.5 174.056L1205.29 177.53L1204.8 183.066L1204.19 184.449L1202.2 185.056L1203.02 185.941L1200.96 187.865L1203.39 189.576L1203.43 191.36L1201.56 192.626L1201.6 194.409L1201.82 194.789L1203.93 193.817L1203.37 195.814L1203.82 196.487L1205.12 195.66L1206.53 195.682L1208.48 197.553L1212.87 198.025L1214.32 197.463L1215.68 199.143L1206.65 198.327L1207.69 199.594L1209.04 199.813L1210.62 201.063L1210.05 204.608L1211.16 203.725L1212.75 203.827L1213.17 202.693L1214.75 202.89L1215.14 203.014L1217.34 206.639L1217.65 207.143L1218.5 208.688L1219.98 213.734L1220.03 216.645L1218.56 219.929L1219.06 220.806L1218.47 221.026L1218.26 221.792L1218.15 222.189L1218.67 222.979L1219.7 223.191L1219.61 224.214L1217.91 225.319L1217.81 229.452L1217.05 231.814L1215.71 233.131L1213.93 233.709L1214.52 235.764L1215.53 236.832L1215.53 237.978L1216.08 238.66L1217.41 238.893L1217.3 239.267L1215.91 240.064L1214.5 244.299L1214.69 244.767L1215.47 244.613L1215.78 245.118L1215.24 247.741L1213.62 250.048L1210.75 250.371L1210.51 250.795L1211.19 252.594L1212.84 253.625L1213.62 253.471L1213.76 253.419L1214.56 252.095L1215.34 252.037L1217.84 253.052L1218.42 251.78L1219.93 251.428L1220.88 253L1222.89 253.526L1223.96 259.684L1225.18 260.29L1226.79 262.674L1226.25 263.435L1226.42 264.327L1227.35 264.838L1228.43 264.875L1228.42 264.56L1228.48 260.106L1231.13 260.215L1232.83 258.057L1232.62 256.865L1233.9 253.827L1235.12 252.571L1234.48 251.428L1234.97 251.159L1235.26 250.94L1236.09 251.422L1236.42 253.704L1238.37 254.427L1238.59 255.237L1238.85 256.161L1237.7 256.819L1237.29 257.931L1234.18 259.012L1234.21 259.241L1233.3 263.613L1231.88 264.522L1232.4 267.587L1232.96 268.696L1234.03 269.473L1233.02 271.109L1229.14 271.849L1228.79 272.766L1231.24 274.798L1230.81 275.903L1231.47 275.924L1232.18 274.476L1233.77 274.176L1234.26 273.588L1237.11 274.597L1239.17 274.137L1240.21 274.663L1241.48 277.054L1241.89 279.461L1244.1 279.979L1245.71 281.951L1246.32 281.719L1247.71 281.016L1248.55 281.813L1249.56 281.299L1250.11 282.434L1251.79 282.543L1256.36 285.465L1258.05 287.566L1259.72 296.522L1259.15 297.373L1258.8 303.194L1259.68 304.313L1259.75 305.578L1259.57 306.983L1257.75 307.736L1257.43 308.877L1257.9 311.422L1256.82 312.532L1256.95 313.2L1257.56 312.988L1258.06 313.865L1258.7 313.857L1259.55 313.938L1260.57 314.888L1259.75 315.961L1261.06 316.597L1262.55 315.524L1263.49 317.908L1263.16 319.546L1264.12 320.694L1265.12 320.606L1267.57 322.543L1267.1 323.514L1267.92 324.4L1267.61 325.139L1271.27 327.464L1270.42 328.122L1270.3 329.76L1270.72 330.923L1272.66 332.068L1274.83 336.597L1274.62 341.219L1272.94 344.101L1274.48 344.693L1275.73 345.307L1276.26 346.843L1275.29 347.56L1275.94 349.132L1278.27 350.813L1279.87 355.779L1283.48 358.301L1284.08 360.048L1286.12 361.635L1286.16 362.988L1287.3 364.311L1287.94 367.412L1287.58 369.811L1286.5 371.735L1286.02 376.055L1283.95 383.071L1284.72 382.601L1285.37 382.596L1285.99 382.698L1286.41 383.141L1284.98 383.62L1284.75 383.642L1284.07 384.571L1282.81 387.085L1279.58 398.203L1278.71 398.549L1278.25 399.858L1276.66 400.904L1277.45 403.025L1276.65 405.066L1274.8 407.056L1275.13 408.621L1274.75 411.824L1276.04 415.349L1275.64 415.963L1277.01 417.645L1276.75 419.332L1275.61 420.308L1275.43 421.3L1276 423.138L1276.19 423.628L1275.14 426.186L1276.03 430.634L1274.34 435.906L1274.85 438.248L1273.08 440.382L1273.59 442.008L1272.28 443.573L1272.66 444.509L1271.46 446.111L1272.56 447.61L1271.85 450.806L1272.45 451.406L1272.75 451.501L1276.34 452.151L1284.04 455.029L1285.85 454.678L1289.8 454.077L1293.54 454.968L1296.47 454.542L1300.12 453.013L1301.52 451.498L1303.58 450.7L1307.67 450.362L1313.76 452.101L1319.69 455.873L1320.8 457.686L1321.73 460.879L1322.93 463.156L1324.78 466.546L1325.95 472.333L1328.01 475.697L1330.56 477.02L1330.62 477.159L1331.46 478.765L1331.29 480.171L1331.08 482.402L1331.89 486.488L1332.88 487.119L1334.49 487.133L1335.69 486.372L1334.62 485.502L1334.87 484.644L1336.06 483.476L1337.01 483.994L1338.25 486.042L1339.66 485.251L1340.52 483.35L1339.95 479.627L1340.55 477.521L1342.43 482.286L1341.48 488.732L1340.83 489.888L1342.8 493.222L1345.22 494.216L1345.22 496.176L1345.7 496.739L1348.94 497.06L1351.25 498.112L1352.56 499.894L1352.18 502.046L1361.92 501.129L1362.96 501.655L1354.49 504.152L1352.99 504.174L1349.49 502.428L1349.62 500.819L1347.14 498.874L1341.79 497.252L1342.12 496.426L1341.71 495.577L1339.02 493.251L1337.9 491.125L1338.14 489.955L1338.91 489.486L1338.46 488.814L1332.3 491.095L1330.35 493.797L1329.47 496.218L1327.29 503.94L1327.18 503.903L1326.32 504.659L1324.56 504.404L1322.73 505.177L1322.2 506.255L1322.45 508.105L1322.14 508.412L1321.45 509.341L1316.41 511.552L1317.35 512.787L1323.67 514.504L1324.4 515.359L1324.88 518.219L1324.64 522.519L1322.41 527.71L1321.04 528.423L1318.75 528.428L1318.93 529.732L1320.91 530.368L1322.5 531.596L1322.88 534.826L1326.42 535.654L1328.16 536.019L1329.77 538.307L1334.16 541.149L1334.8 541.165L1335.89 542.664L1337.64 543.322L1339.68 545.22L1341.91 545.002L1346.64 548.913L1348.2 549.103L1349.84 550.134L1351.75 549.092L1355.97 548.274L1357.17 548.968L1357.31 550.043L1358.42 550.708L1358.22 552.105L1362.28 553.815L1370.11 557.379L1372.88 557.861L1375.35 560.21L1376.97 562.908L1379.96 564.897L1384.36 565.378L1385.98 564.556L1386.99 564.762L1389.47 566.707L1390.79 566.626L1391.1 568.591L1392.6 568.644L1393.79 570.486L1396.21 571.883L1399.37 571.748L1404.18 573.099L1405.22 574.68L1406.49 578.627L1407.72 579.212L1411.28 577.655L1416.69 578.362L1420.06 579.444L1432.1 579.981L1432.33 579.959L1442.56 581.879L1445.42 580.525L1451.28 584.582L1453.19 588.521L1456.48 589.458L1457.86 590.642L1461.77 591.37L1470.12 590.821L1471.54 591.493L1471.69 591.325L1476.44 590.577L1477.57 590.006L1477.8 589.551L1478.46 587.995L1482.09 588.849L1484.1 589.397L1486.44 588.38L1487.54 586.77L1494.3 583.411L1497.12 583.695L1500.68 585.581L1502.58 586.502L1506.99 586.983L1511.41 588.905L1515.3 588.501L1518.32 590.716L1523.66 592.023L1526.32 595.27L1527.3 595.247L1533.83 600.355L1536.72 603.896L1536.88 604.042L1539.18 604.685L1541.38 604.553L1543.88 606.409L1545.74 608.966L1550.59 611.673L1551.25 611.98L1554.23 611.691L1557.81 612.838L1563.3 612.114L1568.63 616.53L1570.98 621.137L1572.59 622.37L1573.59 622.282L1573.56 622.37L1575.15 622.473L1575.33 622.532L1576.36 623.892L1576.2 625.608L1575.94 628.015L1575.87 629.86L1574.71 632.403L1572.44 634.379L1570.66 637.234L1567.97 639.48L1566.46 654.81L1565.45 657.597L1564.51 658.635L1560.95 658.33L1559.33 659.054L1560.43 659.719L1562.13 659.858L1563.3 659.923L1565.76 660.712L1568.93 659.431L1569.58 662.464L1569.47 663.239L1568.9 666.386L1567.73 670.175L1565.15 671.332L1565.23 672.173L1566.18 673.408L1566.72 674.108L1569.82 676.157L1570.36 677.668L1569.01 683.266L1567.73 684.722L1565.91 683.947L1565.34 684.386L1572.74 690.278L1573.72 688.725L1577.95 691.33L1580.13 695.044L1581.01 698.028L1581.95 699.263L1581.41 703.469L1582.49 704.631L1582.74 704.924L1582.21 706.431L1584.42 710.035L1584.28 712.478L1585.33 714.487L1585.16 715.776L1589.19 721.016L1593.09 729.757L1597.34 732.271L1597.87 734.619L1600.19 735.891L1601.18 735.898L1601.72 735.137L1602.5 735.795L1604.26 735.64L1606.13 736.649L1606.59 738.47L1609.03 740.905L1610.32 739.761L1612.85 739.236L1614.69 738.772L1614.28 739.886L1612.53 740.377L1610.31 741.723L1610.59 742.24L1609.22 742.521L1611 746.943L1610.98 748.181L1614.29 761.71L1613.37 766.822L1613.4 767.144L1612.91 769.592L1616.3 775.159L1617.15 779.473L1617.46 781.346L1617.73 782.676L1618.2 783.757L1618.45 784.366L1619.62 785.579L1619.87 785.85L1623.1 790.837L1624.42 794.178L1625.1 805.931L1626.76 810.004L1628.9 812.344L1630.65 816.014L1631.34 816.665L1634 818.763L1636.92 824.055L1637.48 826.222L1637.85 830.288L1637.58 832.38L1636.89 835.269L1639.08 837.433L1639.32 837.725L1640.19 839.246L1641.17 841.023L1642.21 842.383L1646.07 843.215L1647.04 844.678L1647.97 845.285L1649.38 847.917L1652.14 850.359L1654.55 854.049L1653.75 855.755L1652.45 858.784L1650.28 860.048L1646.02 860.978L1643.67 860.533L1640.49 859.922L1638.07 860.486L1637.27 863.675L1638.76 869.128L1639.88 870.11L1640.98 870.058L1643.22 867.854L1645.66 867.204L1649.24 867.086L1649.91 867.105L1653.13 865.963L1654.96 866.336L1658.38 869.518L1658.39 870.981L1657.53 872.568L1654.83 873.666L1654.6 873.803L1654.02 875.392L1653.14 876.256L1652.56 876.79L1652.75 876.131L1653.22 873.674L1653.86 872.54L1654.34 871.64L1655.84 870.879L1656.26 871.325L1657.44 871.295L1657.38 870.345L1656.1 868.473L1654.41 867.501L1652.97 867.348L1650.54 868.65L1644.52 869.735L1642.32 871.847L1641.86 872.325L1640.04 872.245L1638.78 871.022L1637.67 869.927L1636.56 867.8L1635.59 863.134L1637.06 859.038L1637.95 858.27L1640.73 857.918L1643.57 858.948L1644.64 859.386L1647.26 858.866L1648.19 858.661L1648.04 856.101L1642.95 850.828L1640.32 845.631L1636.71 841.983L1636.79 839.401L1633.6 835.051L1633.45 830.216L1632.84 828.586L1630.21 826.378L1629.27 824.426L1628.56 823.885L1626.23 822.181L1625.88 821.136L1625.1 819.329L1624.65 818.993L1617.94 812.579L1616.84 811.485L1614.29 807.125L1613.55 805.547L1612.66 803.398L1613.53 800.662L1612.12 795.733L1612.15 793.663L1610.51 790.336L1610.71 788.844L1612.79 785.348L1612.75 785.121L1612.69 784.909L1612.35 783.029L1610.98 783.737L1610.06 785.407L1609.77 786.007L1609.78 786.058L1609.85 787.733L1609.38 788.009L1608.84 788.338L1607.23 789.304L1607.2 789.321L1606.46 790.425L1606.33 790.645L1605.83 793.571L1605.81 793.614L1605.73 794.09L1605.68 794.095L1604.32 794.595L1603.46 794.054L1603.43 794.066L1603.39 794.105L1602.75 794.376L1602.57 794.464L1602.58 794.61L1602.51 796L1602.92 797.089L1603.29 797.996L1603.98 799.773L1603.83 800.488L1603.7 801.309L1603.64 801.338L1602.8 801.763L1602.77 801.777L1602.44 800.927L1602.07 800.02L1601.94 800.747L1601.04 801.222L1600.2 799.182L1599.92 799.284L1599.92 799.306L1599.39 801.53L1600.55 802.166L1602.49 803.218L1604.06 804.059L1604.62 805.17L1604.33 805.58L1603.89 806.253L1603.86 806.29L1603.38 806.377L1602.22 806.646L1600.81 806.963L1600.74 809.311L1600.73 810.43L1600.74 810.481L1600.55 810.781L1600.51 810.862L1600.17 811.52L1600.12 811.527L1598.98 812.047L1596.67 813.101L1596.54 813.679L1599.47 814.641L1599.49 814.648L1598.6 816.377L1598.44 816.684L1598.44 816.704L1595.73 818.755L1595.16 820.152L1594.65 821.615L1593.91 822.193L1593.52 822.522L1592.59 823.349L1594.44 825.182L1595.36 827.463L1595.39 829.269L1595.47 832.692L1595.36 832.899L1595.18 833.272L1594.91 833.879L1594.89 833.872L1592.82 834.26L1590.46 835.848L1590.46 835.868L1590.23 836.395L1589.81 837.55L1589.8 840.756L1589.8 841.282L1589.79 843.264L1589.18 844.267L1589.05 844.559L1588.42 845.817L1588.25 846.146L1587.7 847.236L1586.95 847.88L1586.55 848.231L1586.64 849.482L1589.64 852.597L1589.72 852.67L1589.73 852.699L1589.75 852.706L1589.9 853.065L1590.33 853.92L1590.3 853.954L1589.07 855.761L1589.06 855.785L1589.18 857.021L1589.96 856.985L1591.28 863.842L1594.1 863.002L1597.65 870.768L1602.28 869.647L1601.57 874.109L1612.08 877.053L1614.79 887.064L1619.71 886.894L1623.17 892.575L1628.44 895.799L1624.57 902.931L1619.82 904.9L1617.66 913.253L1609.14 914.009L1610.66 915.91L1608.5 921.628L1612.32 927.977L1606.4 932.177L1608.02 937.171L1610.68 938.458L1612.06 935.407L1618.26 936.868L1619.33 931.112L1624.72 931.644L1627.57 933.418L1627.12 939.159L1635.46 945.309L1635.92 942.537L1642.32 941.648L1645.14 931.212L1648.09 932.279L1651.59 929.813L1657.78 932.442L1662.08 932.938L1665.88 945.167L1674.01 945.815L1674.09 949.333L1677.88 949.353L1670.57 955.718L1672.63 957.575L1669.89 964.21L1671.45 966.791L1673.15 968.414L1679.51 968.829L1684.08 967.233L1680.07 961.924L1679.76 953.76L1682.33 951.977L1687.31 959.56L1693.43 959.777L1698.29 962.869L1701.73 959.832L1704.03 960.907L1712.55 975.509L1719.33 978.327L1724.37 977.004L1726.78 983.329L1741.04 975.723L1746.44 975.38L1747.12 984.856L1743.79 988.572L1736.69 990.003L1735.7 993.492L1732.69 995.036L1736.81 997.244L1737.61 1000.21L1741.45 998.829L1742.87 1004.19L1744.93 1002.24L1747.16 1013.42L1751.12 1017.08L1756.68 1012.33L1759.51 1011.8L1760.76 1015.48L1762.87 1006.04L1767.41 1004.89L1769.16 1007.94L1769.78 1003.02L1774.11 1001.47L1774.14 996.806L1781.48 996.007L1789.14 1001.41L1791.38 998.512L1783.93 982.293L1785.26 980.661L1797.68 974.382L1795.92 971.301L1801.31 966.356L1796.49 958.878L1801.41 951.818L1796.1 949.158L1796.23 941.757L1793.14 936.243L1796.98 931.854L1796.33 925.733L1800.01 920.334L1800.2 915.419L1794.34 905.57L1799.5 902.584L1805.55 892.994L1805.19 886.631L1808.75 882.796L1816.23 880.029L1819.32 876.38L1816.9 874.216L1810.84 875.401L1809.38 868.668L1812.76 862.743L1821.69 858.717L1820.14 853.481L1822.14 851.754L1818.15 846.359L1820.21 839.052L1820.09 838.679L1824.62 834.96L1828.59 838.82L1830.72 837.783L1845.65 822.426L1848.94 826.067L1852.13 815.988L1860.1 808.401L1869.78 803.542L1871.46 795.32L1863.46 791.891L1862.83 789.105L1865.39 787.344L1867.29 788.601L1868.03 783.335L1879.53 778.197L1883.72 778.678L1883.9 773.785L1887.93 771.726L1887.14 764.583L1879.81 765.676L1880.69 757.533L1885.83 751.646L1886.12 748.297L1882.34 744.807L1884.82 737.948L1887.12 738.591L1887 734.006L1885.29 732.068L1877.32 733.482L1871.01 730.498L1868.94 716.459L1857.04 711.466L1857.1 707.373L1863.91 704.723L1864.31 700.21L1869.54 694.665L1870.49 693.677L1871.39 683.172L1880.47 682.425L1880.52 672.969L1883.93 668.651L1886.1 655.568L1887.42 652.737L1895.55 651.901L1894.98 649.348L1897.55 646.729L1894.9 646.525L1893.94 645.019L1896.25 644.038L1891.5 641.341L1895.16 636.46L1899.18 636.029L1897.62 628.085L1897.24 626.359L1894.31 627.145L1889.73 620.389L1886.01 620.917L1882.67 621.683L1873.97 627.196L1866.35 625.063L1854.84 626.442L1852.1 623.503L1845.32 630.277L1841.96 627.256L1839.35 618.885L1837.21 626.499L1835.19 623.267L1826.37 619.67L1823.12 612.813L1820.78 614.957L1822.19 611.102L1831.46 607.713L1846.08 595.706L1851.6 602.981L1858.9 603.598L1859.89 595.065L1858.93 591.621L1855 590.913L1854.28 588.097L1854.32 587.987L1855.5 587.292L1855.41 579.511L1856.87 577.06L1861.73 577.446L1865.6 582.133L1869.01 575.023L1872.2 573.676L1869.94 570.583L1871.65 564.885L1870.26 562.501L1873.5 559.114L1872.6 557.198L1876.9 553.481L1878.65 548.756L1885.35 556.411L1888.95 551.751L1889.42 545.849L1902.8 551.671L1901.97 545.45L1901.99 545.384L1896.7 543.375L1896.1 542.87L1895.08 542.232L1894.37 541.671L1892.61 537.993L1891.89 537.884L1891.56 538.708L1890.39 537.497L1889.07 537.597L1888.73 536.868L1888.53 536.064L1887.19 536.254L1886.75 537.357L1885.64 537.528L1886.64 535.458L1888.53 534.506L1890.03 534.893L1891.3 534.249L1891.84 534.637L1892.18 536.514L1892.84 536.821L1892.75 534.495L1892.13 533.269L1891.18 532.75L1888.55 533.27L1884.86 532.613L1883.01 532.329L1876.12 531.144L1870.19 528.837L1862.63 524.325L1859.15 520.911L1855.8 516.417L1853.65 511.349L1852.29 510.099L1851.32 510.099L1850.77 511.26L1853.03 513.543L1853.86 515.174L1853.56 515.913L1850.16 517.311L1848.71 518.928L1847.3 518.665L1846.83 519.879L1845.84 519.967L1844.96 519.28L1844.55 518L1840.11 517.407L1839.97 517.458L1839.63 518.287L1840.5 519.808L1839.14 520.832L1838.97 520.993L1838.85 522.2L1837.74 523.085L1835.53 524.03L1834 522.604L1835.06 520.766L1835.46 520.058L1835.49 519.971L1837.14 518.325L1838.72 518.112L1839.86 517.115L1839.92 516.919L1841.22 517.241L1841.31 516.122L1838.82 515.442L1837.14 514.902L1836.25 514.617L1834.1 514.954L1832.4 515.247L1829.92 515.694L1829.87 516.204L1829.86 517.018L1829.82 519.826L1828.11 520.52L1827.39 520.076L1826.41 518.518L1826.51 517.399L1827.26 517.019L1828.11 518.225L1828.26 516.19L1828.31 515.585L1828.33 515.497L1829.21 514.32L1829.19 513.688L1826.42 514.262L1825.2 513.655L1823.58 510.957L1823.96 510.05L1826.08 510.106L1825.52 509.092L1823.91 507.951L1824.39 506.24L1823.09 504.675L1823.18 503.556L1824.05 502.064L1827.05 503.238L1828.58 508.206L1830.39 511.277L1831.05 511.679L1832.14 512.366L1834.15 512.482L1834.95 511.904L1834.92 510.866L1833.62 511.261L1833.1 510.469L1834.66 508.796L1834.77 508.423L1835.48 506.258L1832.5 502.288L1830.67 501.484L1830.49 500.613L1831.72 500.481L1833.75 501.658L1835.47 504.7L1835.92 502.045L1833.83 499.076L1834.23 498.798L1836.87 500.984L1836.77 503.966L1837.64 504.653L1839.73 504.201L1840.24 503.528L1840.64 502.816L1842.1 503.813L1842.65 503.364L1842.8 502.481L1842 502.226L1842.07 501.194L1843.74 501.418L1844.44 503.512L1846 505.281L1845.99 501.829L1847.05 501.142L1849.34 501.038L1849.72 501.258L1848.96 503.525L1850.11 505.236L1851.22 505.901L1852.25 508.314L1853.09 506.908L1854.35 506.595L1854.78 505.49L1853.97 501.066L1854.45 498.206L1855.64 496.721L1858.32 495.594L1858.99 495.93L1860.96 496.966L1861.44 496.405L1860.84 493.509L1857.4 489.7L1856.82 486.716L1857.21 484.639L1858.07 483.883L1860.09 483.914L1860.37 483.38L1859.47 481.535L1859.86 479.46L1859.99 478.567L1857.47 476.416L1850.35 474.541L1846.79 472.99L1844.42 471.084L1843.73 469.305L1843.55 469.151L1840.11 465.344L1838.6 465.672L1837.24 467.53L1836.23 470.319L1826.96 469.113L1821.32 470.01L1819.23 472.043L1817.28 470.267L1814.76 471.54L1810.17 469.874L1808.03 469.807L1808.08 470.76L1807.06 470.936L1804.97 471.412L1801.26 470.029L1799.64 467.426L1796.47 466.41L1794.84 466.823L1793.76 465.731L1791.62 466.005L1780.93 464.941L1776.82 463.838L1773.69 465.009L1769.66 463.621L1766.16 463.432L1763.41 463.263L1760.67 462.598L1758.51 461.072L1756.15 461.461L1754.16 459.363L1752.22 454.695L1751.81 453.513L1751.76 451.414L1752.31 450.25L1754.13 450.213L1753.17 448.349L1753.28 447.142L1751.32 443.808L1750.83 440.853L1751.28 438.915L1751.38 438.205L1755.04 435.549L1756.86 435.607L1757.49 436.002L1758.46 436.433L1760.18 436.052L1761.31 436.608L1764.38 432.613L1765.32 430.426L1764.69 426.585L1762.97 422.711L1762.27 419.038L1760.21 415.677L1759.1 416.562L1759.07 420.094L1758.2 425.126L1757.38 426.421L1758.06 429.032L1757.51 430.195L1757.43 430.48L1757.66 431.175L1756.98 432.418L1744.92 440.08L1737.28 443.871L1718.11 452.171L1711.5 455.026L1702.75 457.004L1698.05 458.702L1692.11 459.187L1683.31 461.676L1675.92 462.63L1669.61 463.619L1665.84 462.816L1664.94 462.217L1662.36 462.94L1658.57 461.846L1644.4 461.654L1640.56 459.176L1640.31 458.569L1637.78 453.808L1637.69 453.684L1636.78 452.77L1635.06 450.76L1633.37 449.905L1631.12 446.79L1627.73 445.08L1624.87 442.609L1621.79 441.308L1614.71 440.806L1610.29 438.86L1608.64 434.789L1608.71 432.229L1607.7 431.593L1603.73 431.134L1597.85 428.313L1590.69 425.821L1581.78 421.071L1581.03 420.639L1578.97 419.141L1576.07 417.182L1575.62 416.509L1574.51 414.696L1574.54 413.46L1572.39 409.972L1572.17 407.698L1572.97 405.993L1570.56 398.876L1570.23 398.556L1569.74 399.142L1568.49 401.636L1568.43 404.13L1567.64 405.43L1567.04 404.496L1568.02 401.797L1568.13 399.464L1568.47 398.613L1569.17 398.43L1568.98 397.964L1568.36 397.862L1568.04 397.855L1563.9 394.565L1562.17 393.074L1560.05 390.622L1560.53 387.765L1560.18 386.719L1559.17 387.327L1558.46 387.1L1556.3 385.258L1553.8 385.698L1552.97 385.53L1550.5 385.163L1545.39 386.446L1545.15 387.302L1546.94 388.187L1547.55 389.098L1547.45 389.471L1546.92 390.98L1546.75 391.234L1543.61 394.273L1541.82 394.534L1541.62 395.619L1540.4 396.161L1540.4 398.457L1536.81 402.378L1534.84 403.205L1534.58 404.895L1533.81 405.7L1533.48 404.228L1532.57 404.031L1532.05 404.391L1528.54 407.216L1527.88 407.623L1526.88 407.397L1526.95 406.704L1527.17 405.219L1527.81 404.895L1529.31 404.136L1530.85 402.454L1533.01 398.577L1535.78 396.857L1537.11 394.794L1540.53 387.684L1541.04 384.712L1543.31 380.462L1544.97 382.241L1545.42 384.062L1545.9 384.311L1546.43 383.55L1545.81 380.742L1544.48 378.234L1544.34 375.294L1544.34 374.862L1542.49 372.615L1542.36 372.362L1541.13 369.071L1541.75 366.445L1541.9 365.558L1541.71 363.944L1541.46 363.337L1540.83 361.699L1537.7 354.041L1538.21 352.653L1537.61 350.569L1537.84 342.436L1539.79 334.018L1540.09 332.962L1540.96 331.808L1543.07 331.552L1544.32 331.33L1543.55 330.652L1544.08 329.891L1546.57 329.539L1547.15 328.171L1547.38 328.149L1549.06 328.259L1549.12 327.344L1546.91 325.605L1545.05 325.32L1542.4 322.483L1540.97 322.979L1540 322.55L1538.07 324.108L1536.78 319.867L1535.07 317.14L1535.6 312.525L1536.92 311.705L1537.05 310.813L1536 309.95L1535.97 309.721L1536.11 308.429L1538.35 305.51L1538.77 303.564L1541.3 302.7L1543.03 303.782L1543.86 304.262L1545.85 304.162L1547.26 304.11L1549.08 303.019L1549.86 304.826L1550.96 305.491L1553.85 306.324L1554.81 306.009L1554.62 305.539L1553.51 302.979L1552.03 301.358L1551.52 300.883L1551.62 300.51L1551.6 299.784L1553.3 299.493L1553.56 298.549L1551.53 296.941L1550.55 294.35L1551.49 292.163L1550.9 290.396L1551.02 288.472L1552.54 288.435L1552.78 286.022L1551.63 283.667L1550.29 283.046L1549.3 280.026L1548.27 279.478L1547.25 279.99L1546.13 279.844L1543.53 277.958L1542.71 274.367L1539.76 272.584L1537.34 269.63L1535.57 268.343L1532.92 263.115L1532.13 259.846L1531.39 254.008L1532.19 243.976L1532.98 240.377L1532.79 238.761L1533.18 237.02L1533.45 236.055L1534.75 234.102L1537.86 233.018L1536.14 231.1L1530.4 230.41L1526.74 225.072L1525.92 222.63L1524.54 222.496L1523.57 220.634L1519.87 222.244L1518.84 223.59L1514.82 224.477L1511.82 224.039L1510.34 224.69L1510.3 225.2L1508.86 221.941L1508.22 218.504L1505.05 219.353L1500.19 218.631L1495.2 221.814L1488.28 223.014L1487.48 224.004L1487.95 224.991L1488.9 224.676L1489.28 225.202L1487.95 231.858L1481.75 234.749L1481.81 235.295L1478.15 236.396L1476.09 238.342L1472.76 239.857L1466.85 238.27L1465.35 240.084L1466.6 245.584L1466.53 247.429L1467.28 249.008L1466.96 249.338L1465.78 248.958L1465.93 251.495L1465.47 251.561L1464.8 249.36L1465.64 247.144L1465.6 245.357L1463.96 242.03L1461.41 239.539L1459.18 239.445L1458.32 239.387L1456.37 238.759L1454.88 237.874L1454.14 236.273L1452.94 235.578L1451.57 235.879L1450.31 232.339L1449.35 232.652L1448.23 231.265L1446.68 230.673L1445.07 230.564L1438.49 232.183L1438.13 233.002L1438.5 233.645L1436.11 235.582L1434.65 235.833L1433.37 235.013L1431.55 234.957L1430.01 233.217L1428.34 234.549L1427 234.644L1426.25 235.434L1425.37 239.718L1423.6 239.465L1422.71 241.476L1423.66 243.858L1423.02 245.309L1420.7 247.482L1423.27 248.307L1424.5 247.025L1425.76 247.119L1425.92 248.416L1424.57 248.292L1424.62 249.241L1424.63 249.555L1424.45 249.497L1423.06 249.051L1419.57 249.915L1419.04 247.979L1415.52 246.752L1414.16 245.07L1413.36 244.815L1413.11 245.354L1413.58 246.658L1412.65 247.694L1412.32 246.563L1409.3 245.474L1408.12 246.24L1407.64 249.417L1407.25 250.009L1405.12 253.799L1405.9 254.793L1405.17 255.898L1403.86 255.167L1401.59 255.584L1401.14 256.467L1401.32 257.676L1401.49 258.663L1401.46 259.899L1401.32 265.787L1399.74 265.997L1397.49 264.75L1397.72 261.305L1399.14 260.829L1399.33 260.149L1399.86 259.074L1399.7 257.684L1399.66 257.048L1399.88 253.264L1402.77 252.519L1401.81 251.706L1404.35 251.159L1403.82 249.957L1405.21 249.257L1405.75 248.811L1406.13 247.901L1405.86 247.289L1405.8 247.15L1405.54 246.565L1403.63 246.047L1401.39 244.488L1400.39 244.6L1399.5 243.072L1398.27 242.15L1399.86 241.821L1400.66 242.508L1401.53 242.045L1401.45 241.184L1402.59 240.928L1403.36 240.145L1403.75 241.827L1404.71 242.658L1406.44 242.594L1407.36 241.957L1407.28 241.092L1406.36 239.434L1404.71 239.12L1404.04 238.499L1406.18 238.133L1407.72 239.558L1408.48 240.735L1408.24 241.589L1409.2 242.739L1410.78 244.799L1412 244.259L1412.61 242.897L1413.83 242.357L1414.42 240.682L1414.48 240.485L1414.16 239.666L1410.48 236.712L1408.56 233.917L1408.71 232.603L1411.81 230.391L1412.42 229.032L1408.2 227.556L1405.3 224.449L1405.08 226.365L1404.31 227.148L1405.43 228.223L1404.88 229.722L1402.72 231.303L1392.53 235.307L1390.99 235.861L1383.99 236.2L1380.62 235.119L1378.18 234.983L1376.95 233.63L1373.67 233.01L1370.94 231.607L1366.01 231.484L1359.67 229.139L1356.13 227.163L1355.75 226.944L1354.26 225.008L1353.41 222.654L1353.86 221.864L1353.69 220.16L1350.47 217.045L1350.97 215.626L1350.34 214.8L1345.91 214.838L1345.03 214.151L1344.9 212.337L1342.43 211.139L1338.36 207.63L1335.97 206.862L1328.14 207.172L1326.98 206.683L1325.66 205.226L1325.46 203.297L1324.18 203.605L1324.05 204.4L1322.94 204.571L1322.59 204.239L1320.35 201.873L1316.91 201.486L1313.85 200.098L1312.8 198.802L1311.11 198.38L1310.92 195.184L1309.85 194.746L1307.65 196.026L1306.04 202.163L1303.82 203.531L1303.48 204.76L1301.51 204.439L1300.69 201.258L1299.12 199.942L1295.71 198.225L1293.45 195.944L1291.71 195.264L1290.17 191.564L1290.33 190.562L1291.64 188.185L1292.66 186.524L1294.62 186.436L1294.7 185.002L1295.57 183.508L1292.78 183.452L1290.32 177.997L1290.55 176.396L1292.19 175.152L1291.53 173.696L1291.65 171.771L1292.55 171.224L1292.44 169.323L1296.29 168.261L1296.41 166.337L1293.99 163.479L1293.73 161.314L1295.45 160.931L1295.52 159.902L1293.31 158.571L1292.95 157.211L1293.48 153.744L1292.89 152.836L1290.72 153.599L1289.3 155.633L1288.23 156.006L1286.53 155.056L1283.55 155.342L1282.98 155.876L1278.95 154.488L1276.97 151.556L1276.78 149.94L1275.27 148.331L1275.28 147.181L1274.28 146.123L1273.89 144.534L1272.84 144.008L1272.28 142.584L1272.94 141.741L1271.7 140.412L1271.92 138.83L1271.06 137.311L1270.14 136.8L1269.41 138.217L1268.69 138.512L1266.63 139.622L1265.52 139.359L1263.19 137.68L1261.96 135.947L1260.96 133.329L1260.75 131.801L1261.31 130.233L1260.06 129.307L1260.22 127.586L1261.24 127.076L1262.3 122.848L1260.52 118.856L1261.62 116.91L1258.87 114.783L1258.62 114.176L1257.48 111.324L1256.47 110.688L1255.08 111.388L1254.13 113.263L1255.67 115.837L1256.62 115.113L1257.3 118.85L1258.14 119.644L1257.4 120.342L1257.31 121.461L1256.6 121.329L1255.9 121.103L1256.41 117.416L1253.48 116.284L1252.54 115.046L1251.79 115.429L1251.43 116.343L1251.07 117.162L1251.62 119.108L1250.68 124.739L1251.4 125.595L1250.85 127.906L1250.34 125.566L1249.65 124.503L1248.92 124.798L1246.56 130.167L1245.4 131.565L1245.59 132.033L1244.1 133.54L1244.26 132.536L1243.73 131.434L1242.87 131.375L1242.82 130.425L1242.07 129.657L1241.82 127.09L1240.88 126.569L1240.74 127.054L1240.55 125.438L1242.47 124.808L1243.38 122.709L1243.1 121.78L1241.85 121.283L1239 122.14L1238.46 121.752L1238.97 121.077L1241.33 120.376L1245.19 121.209L1246.19 120.382L1246.33 118.773L1245.08 115.546L1243.38 114.693L1241.86 114.73L1240.21 115.974L1236.67 115.866L1236.09 115.273L1237.97 114.322L1238.24 114.19L1239.17 115.016L1240.54 114.833L1243.92 111.972L1245 112.725L1245.27 114.056L1246.56 114.063L1247.14 113.938L1247.25 113.543L1247.26 112.732L1249.31 111.617L1249.78 110.31L1248.59 109.93L1246.85 110.399L1245.07 109.419L1242.79 106.824L1243.33 104.913L1242.73 103.167L1240.88 100.586L1241.34 100.111L1241.82 97.2486L1242.64 96.2705L1244.13 96.3431L1243.23 93.0377L1241.6 91.1733L1238.36 91.5672L1236.45 89.1858L1236.74 87.723L1240.41 88.4969L1244.27 87.7496L1243.79 87.1866L1242.41 87.1505L1241.49 85.8271L1243.64 86.2067L1244.98 87.1643L1247.02 86.4542L1247.37 87.4999L1247.93 87.7995L1248.42 87.212L1248.3 84.9983L1248.86 81.8533L1249.5 81.4362L1251.74 81.94L1252.27 80.8626L1253.67 80.4766L1253.45 78.5387L1255.12 77.6166L1253.66 75.4961L1254.32 73.9382L1253.82 72.6292L1254.39 70.9469L1253.6 69.9744L1252.97 69.5578L1251.14 68.7517L1250.16 67.3135L1249.83 65.7485L1250.54 64.8268L1250.42 63.642L1251.53 62.4422L1250.75 61.7842L1250.37 58.1181L1248.54 56.5997L1246.25 57.8511L1243.95 57.2084L1243.6 56.1604L1241.69 56.39L1240.42 55.5494L1238.65 55.294L1236.9 53.4882L1236.34 50.9141L1236.89 48.1712L1235.15 42.5404L1236.13 39.4077L1236.58 37.8081L1234.16 36.8143L1234 35.5177L1232.96 34.9717L1230.52 34.4972L1228.4 38.9131L1227.69 38.3744L1226.03 38.8723L1222.73 38.3395L1222.06 38.8641L1221.83 40.8484L1220.85 41.5874L1218.86 41.7856L1219.98 43.1747L1218.17 44.5796L1216.97 44.697L1215.76 44.7413L1215.02 46.5824L1215.95 50.614L1215.27 51.426L1215.7 52.1843L1215.76 53.5687L1214.07 54.9882L1212.81 55.9445L1213.36 57.0582L1210.61 58.7851L1208.48 59.0324L1208.74 62.0089L1205.71 65.1057L1197.43 70.343L1195.43 70.2047L1192.89 71.9045L1190.37 71.7152L1187.86 70.29L1187.41 69.6151L1186.3 69.6667L1185.67 70.4224L1184.03 70.5181L1182.92 71.7179L1181.17 72.1866L1179.19 72.6992L1177.8 71.2004L1175.06 71.684L1172.68 68.3133L1171.55 67.7579L1171.14 69.9009L1168.37 71.7156L1165.3 71.8777L1162.92 73.9117L1161.75 74.1585L1159.64 73.2911L1158.06 74.2205L1155.27 74.28L1149.28 71.4006L1148.21 70.9621L1147.51 68.8707L1148.32 68.2927L1148.57 67.0324L1145.09 62.9037L1145.77 61.6601L1147.12 60.6357L1149.85 58.6162L1150.32 57.402L1150.06 55.2351L1150.35 51.9096L1149.42 47.5635L1148.69 46.3737L1147.29 46.6668L1146.6 46.1332L1146.59 44.5754L1145.04 42.4038L1140.18 40.5332L1138.43 38.7274L1135.21 37.9072L1133.3 33.9681L1131.17 34.6248L1130.27 34.0277L1130.1 33.872L1129.79 32.3164L1127.12 31.0521L1125.29 29.1L1123.5 29.3618L1123.46 30.2855Z" stroke="#022A3A" stroke-opacity="0.5" stroke-width="2"/>
</g>
<defs>
<clipPath id="clip0_93_1558">
<rect width="1858.39" height="777.266" fill="white"/>
</clipPath>
</defs>
</svg>
