<svg width="44" height="44" viewBox="0 0 44 44" fill="none" xmlns="http://www.w3.org/2000/svg">
<path fill-rule="evenodd" clip-rule="evenodd" d="M22.4575 3.6665C30.7974 3.6665 37.5825 10.503 37.5825 18.907C37.5825 29.2378 25.7465 39.4165 22.4575 39.4165C19.1685 39.4165 7.33252 29.2378 7.33252 18.907C7.33252 10.503 14.1177 3.6665 22.4575 3.6665ZM22.4575 6.4165C15.6339 6.4165 10.0825 12.021 10.0825 18.907C10.0825 27.6685 20.3932 36.2045 22.4575 36.6592C24.5219 36.2027 34.8325 27.6667 34.8325 18.907C34.8325 12.021 29.2812 6.4165 22.4575 6.4165ZM22.4594 12.8332C25.7447 12.8332 28.4177 15.5062 28.4177 18.7933C28.4177 22.0787 25.7447 24.7498 22.4594 24.7498C19.174 24.7498 16.501 22.0787 16.501 18.7933C16.501 15.5062 19.174 12.8332 22.4594 12.8332ZM22.4594 15.5832C20.6902 15.5832 19.251 17.0223 19.251 18.7933C19.251 20.5625 20.6902 21.9998 22.4594 21.9998C24.2285 21.9998 25.6677 20.5625 25.6677 18.7933C25.6677 17.0223 24.2285 15.5832 22.4594 15.5832Z" fill="#1A1A1A"/>
</svg>
