<svg width="1638" height="681" viewBox="0 0 1638 681" fill="none" xmlns="http://www.w3.org/2000/svg">
<path opacity="0.2" d="M1635.34 511.193L1635.72 513.166L1634.05 516.203L1634.6 517.975L1632.93 518.805L1632.81 519.597L1635.23 521.818L1635.21 526.609L1633.63 529.34L1630.44 529.117L1629.05 531.118L1623.55 529.655L1622.52 530.845L1620.15 531.637L1619.03 533.133L1618.37 537.4L1615.28 541.634L1615.18 542.151L1614.87 543.167L1612.92 545.421L1612.09 551.199L1609.28 550.738L1607.87 553.222L1605.09 551.862L1600.33 555.866L1592.09 557.319L1590.13 559.393L1587.45 555.512L1583.76 555.215L1582.32 552.914L1578.62 551.329L1578.31 551.239L1578.1 551.279L1575.9 551.663L1573.53 552.849L1569.51 552.279L1568.41 553.75L1564.77 554.255L1563.81 552.353L1559.89 552.972L1557.75 552.133L1555.32 553.437L1554.67 551.578L1549.02 551.347L1547.39 552.38L1543.33 551.604L1541.54 552.166L1539.99 549.392L1537.31 548.989L1535.32 547.171L1533.79 547.18L1530.38 545.663L1529.02 541.56L1525.54 541.476L1526.34 540.098L1528.34 539.544L1529.27 537.556L1528.44 534.605L1528.7 534.103L1529.39 532.849L1529.76 532.22L1529.72 530.312L1528.61 529.39L1527.95 528.845L1527.85 528.761L1528.06 527.661L1528.12 527.15L1527.42 526.194L1525.63 524.15L1526.14 521.808L1527.95 519.266L1529.64 518.412L1530.69 517.845L1530.52 516.938L1526.68 518.771L1526.18 518.902L1524.34 521.035L1524.26 522.675L1522.7 523.378L1515.17 523.809L1509.67 525.156L1502.58 528.336L1502.15 529.085L1502.07 529.184L1501.61 529.909L1500.93 531.557L1499.86 533.439L1499.38 533.801L1499.1 533.916L1497.89 533.117L1496.06 531.77L1494.03 531.912L1495.31 528.722L1494.42 527.091L1489.6 525.688L1488.34 523.486L1483.8 521.764L1476.58 522.235L1470.13 524.284L1468.36 522.816L1464.63 522.107L1464.16 523.757L1460.19 523.99L1457.8 523.286L1456.86 522.166L1453.56 522.918L1450.09 521.519L1447.31 522.531L1441.89 525.782L1440.35 525.816L1434.64 533.075L1432.19 531.984L1430.25 532.028L1428.49 529.291L1426.27 528.554L1425.97 527.194L1423.18 528.206L1420.41 527.949L1418.79 529.371L1416.8 528.612L1414.66 531.089L1411.29 529.776L1408.35 530.107L1407.51 529.783L1405.53 529.255L1401.58 532.272L1395.4 537.267L1394.21 539.09L1394.94 541.909L1393.3 541.652L1392.53 545.606L1388.74 544.119L1386.6 545.491L1386.47 548.702L1384.33 550.072L1383.73 550.121L1383.33 546.863L1381.38 549.118L1380.26 549.117L1380.28 546.928L1379.23 545.287L1375.59 544.478L1371.83 539.694L1371.43 537.541L1368.45 537.275L1376.01 547.251L1373.76 547.045L1372.51 545.627L1369.88 544.76L1366.11 548.266L1366.34 546.246L1365.06 544.462L1366.1 543.066L1364.71 541.36L1364.28 541.003L1358.38 541.298L1357.57 541.342L1355.12 541.567L1348.07 543.846L1344.6 546.11L1341.79 550.46L1340.39 550.574L1340.56 551.436L1339.81 552.301L1339.42 552.749L1338.11 552.764L1337.1 551.718L1335.96 552.64L1335.9 555.523L1331.08 558.933L1328.85 561.717L1328.27 564.343L1328.89 566.895L1326.03 567.842L1324.03 567.498L1322.67 568.413L1321.46 568.306L1320.22 566.934L1319.86 567.355L1319.93 569.629L1315.96 574.673L1315.27 574.822L1314.88 573.772L1314.06 573.815L1311.35 576.544L1309.81 580.287L1311.52 583.923L1311.2 584.549L1308.57 585.177L1306.16 584.062L1305.76 583.012L1305.72 582.808L1306.7 580.817L1306.2 579.845L1303.18 577.72L1304.26 576.02L1303.57 573.958L1301.02 574.097L1298.93 572.149L1290.87 575.8L1289.26 574.849L1285.27 574.852L1284.76 576.091L1283.58 576.601L1282.31 575.923L1281.47 574.678L1281.85 574.44L1287.07 570.814L1285 567.782L1286.31 564.06L1287.87 563.357L1290.53 559.43L1291.12 556.99L1292.94 556.839L1292.9 556.039L1292.95 555.528L1291.77 554.933L1288.84 556.37L1286.55 554.645L1285.44 555.033L1284.16 555.463L1284.22 557.346L1283.21 558.718L1284.2 563.24L1283.91 563.381L1279.4 567.937L1279.37 570.337L1275.36 572.16L1273.65 572.39L1271.95 571.749L1270.75 574.239L1272.71 579.398L1271.89 580.549L1267.69 579.28L1266.7 580.673L1266.19 579.909L1267.39 577.923L1266.58 575.802L1266.91 574.759L1263.65 572.216L1262.68 569.419L1261.3 568.611L1257.55 569.032L1254.4 570.463L1252.18 568.273L1248.67 567.958L1248.5 567.053L1248.32 564.858L1246.76 564.501L1246.63 562.898L1244.89 563.157L1243.53 561.265L1236.74 558.224L1233.03 557.908L1221.22 563.083L1220.63 564.423L1214 569.477L1212.04 569.337L1210.5 570.269L1208.97 571.592L1209.41 574.342L1208.3 575.63L1204.94 577.101L1204.42 579.26L1203.53 579.634L1203.34 578.751L1201.94 578.866L1201.48 578.097L1200.77 577.166L1198.9 576.719L1198.23 578.545L1196.52 577.51L1196.7 574.895L1193.19 575.688L1191.5 577.392L1189.44 577.169L1188.82 575.93L1184.74 574.582L1183.93 575.912L1182.29 575.657L1181.64 576.608L1176.22 574.149L1176.07 575.681L1174.21 577.122L1172.54 577.558L1169.77 576.193L1162.83 577.245L1157.52 581.178L1155.34 585.454L1153.51 584.107L1151.88 583.135L1149.68 583.729L1149.54 585.444L1147.21 585.934L1143.52 584.531L1136.48 586.602L1130.86 584.366L1128.36 585.054L1125 583.924L1123.37 584.955L1120.97 584.667L1116.84 586.386L1114.27 588.714L1112.79 591.529L1108.03 595.53L1101.25 603.569L1101.24 602.278L1100.78 601.512L1100.21 600.868L1099.37 600.727L1099.85 602.785L1099.99 603.073L1099.39 604.619L1097.34 608.1L1086.56 620.769L1086.79 622.065L1085.58 623.66L1085.5 626.361L1082.42 627.119L1080.59 629.686L1079.59 633.452L1077.5 634.313L1074 637.316L1068.89 638.608L1068.45 639.565L1065.47 639.301L1063.66 640.943L1063.34 643.067L1062.3 644.071L1059.71 644.86L1059 645.034L1056.74 648.301L1050.84 650.811L1045.84 656.996L1042.7 658.268L1041.47 662.05L1039.18 662.746L1038.28 665.536L1036.9 665.833L1035.88 668.519L1033.31 668.429L1030.05 671.804L1028.9 671.575L1028.57 671.302L1025.18 667.595L1016.16 660.826L1015.25 658.413L1013.08 653.294L1009.29 649.596L1007.66 645.815L1006.79 640.29L1007.56 637.441L1007 634.379L1004.41 629.294L997.911 623.515L989.119 619.535L986.171 619.684L981.713 621.127L978.15 621.535L972.793 622.062L965.098 625.295L959.622 625.557L956.192 623.604L955.984 623.644L953.474 623.938L951.938 625.263L949.454 627.285L944.035 629.59L942.567 628.929L941.375 627.046L941.392 625.019L943.202 625.585L944.039 624.616L944.545 622.274L943.241 621.575L939.92 621.754L939.821 619.459L941.441 616.932L946.251 614.629L948.307 612.25L941.3 613.833L934.376 620.088L933.484 621.772L928.109 622.119L925.163 620.057L922.852 621.627L921.831 621.503L919.089 617.95L916.159 616.071L913.096 615.95L910.833 618.118L904.803 605.922L903.42 605.114L906.657 617.077L907.723 618.855L912.346 621.586L914.152 620.149L918.261 621.518L924.086 626.523L924.82 625.473L926.119 625.275L930.837 626.591L934.162 626.207L935.376 625.003L935.362 623.715L936.49 623.715L938.288 632.776L936.522 637.228L934.304 640.196L926.77 648.913L926.896 649.018L926.63 650.631L928.221 652.505L928.644 655.277L927.756 656.756L925.388 657.94L925.252 658.549L924.653 660.095L925.723 667.791L923.575 667.667L916.933 661.6L915.391 661.427L911.658 663.136L906.755 666.852L902.251 673.618L902.408 675.795L904.07 678.489L902.399 679.319L900.202 677.495L897.589 676.603L893.495 678.731L889.932 675.224L888.234 673.475L884.351 673.4L877.79 670.502L877.302 669.762L874.734 669.672L872.678 668.136L868.94 667.241L867.576 664.453L859.499 662.004L858.135 660.319L855.716 659.204L855.554 656.129L853.433 650.502L851.741 649.65L850.365 650.338L848.774 649.57L847.265 650.913L842.279 647.498L832.348 641.122L829.757 638.248L825.18 637.219L820.807 637.461L816.275 635.528L812.488 630.725L812.274 628.161L811.293 627.138L807.184 625.77L806.32 624.159L803.768 625.355L802.611 623.633L799.562 623.697L796.151 621.973L793.999 618.139L788.891 613.559L786.26 613.592L780.669 615.244L779.083 614.268L778.318 608.829L773.53 603.026L769.792 599.923L760.367 586.185L760.226 585.898L750.484 575.387L749.993 570.937L740.922 567.279L734.866 568.162L731.359 565.043L728.953 564.364L725.233 560.336L719.787 550.076L717.952 548.936L718.044 548.629L715.456 542.439L715.306 540.655L715.678 540.024L717.033 538.004L713.371 534.412L711.259 532.489L710.747 528.915L711.847 526.339L710.882 515.71L708.484 512.613L703.653 509.922L701.177 508.42L697.39 503.617L691.889 499.944L689.527 495.048L684.701 493.255L679.256 488.012L673.477 487.47L672.792 486.305L661.989 482.695L655.687 482.106L655.4 482.037L652.96 479.842L651.512 477.151L647.488 475.683L643.108 475.531L636.37 471.985L635.526 471.455L633.687 467.711L629.721 464.42L626.566 457.38L617.453 454.624L610.293 455.53L607.658 454.615L607.037 453.376L606.951 453.475L605.671 451.694L605.469 451.526L603.109 451.396L601.198 452.955L598.542 455.175L596.415 456.732L594.26 460.129L593.583 464.375L591.504 468.738L590.817 473.699L573.81 487.705L571.254 491.114L570.711 493.047L573.675 496.996L574.001 499.479L572.409 498.711L571.005 496.822L570.071 495.494L567.343 493.229L566.545 488.482L562.48 490.124L561.651 490.882L558.344 494.056L554.719 498.45L555.241 502.414L554.184 502.984L552.036 502.86L550.809 502.774L546.127 500.763L543.945 501.331L538.32 507.387L537.534 510.053L539.776 511.574L539.674 512.596L527.308 508.585L528.424 506.189L522.257 503.287L516.276 503.683L512.114 505.036L509.965 504.912L505.39 508.9L503.223 508.547L502.701 508.498L501.304 510.316L495.429 510.588L492.647 512.703L489.509 513.072L488.105 514.294L478.968 513.725L465.798 516.114L459.718 513.111L456.558 514.359L453.359 512.639L452.627 511.479L453.133 510.24L451.785 509.844L450.684 507.654L448.123 506.251L445.639 507.167L440.979 506.235L441.388 503.805L440.16 500.407L439.362 497.868L438.347 499.243L439.047 501.695L439.074 505.377L438.262 505.464L438.93 507.3L432.404 508.729L430.96 509.747L412.556 516.637L407.186 521.795L406.782 522.013L404.248 524.543L395.19 524.985L389.476 527.431L387.032 528.552L385.262 529.295L383.646 529.609L382.744 529.8L380.454 529.388L379.954 529.314L371.698 529.481L366.787 530.595L352.401 539.161L346.378 540.458L342.046 539.798L336.434 540.671L335.164 540.383L330.742 538.925L322.352 539.699L319.385 540.773L314.312 543.581L312.035 545.563L309.125 548.679L304.965 547.821L304.444 547.771L302.017 547.969L299.196 548.223L296.835 548.093L293.032 544.213L290.59 544.228L289.2 543.627L285.054 544.058L280.152 542.754L274.031 542.859L272.601 545.166L269.973 549.111L270.063 552.67L272.074 558.424L274.321 560.842L277.365 564.096L278.464 567.392L275.28 570.875L267.747 573.468L265.774 572.94L265.026 571.597L265.999 567.209L264.983 563.817L262.506 559.506L261.998 558.739L260.991 554.032L259.214 552.174L252.954 550.684L251.218 551.838L249.978 554.127L250.647 558.171L250.658 558.559L249.198 560.5L248.827 562.234L248.614 563.334L249.256 562.591L251.817 560.079L252.688 558.419L253.403 557.141L253.203 554.762L252.369 554.623L251.546 553.216L252.709 552.523L255.859 552.542L258.24 553.752L259.477 555.332L259.71 559.228L262.822 567.171L261.939 571.455L261.709 572.374L263.128 574.446L265.5 574.963L267.601 575.393L270.928 575.006L277.149 572.426L280.91 567.422L281.17 565.766L279.556 562.214L276.266 559.696L274.968 558.789L273.663 555.28L273.229 554.026L276.361 552.159L286.311 553.946L294.373 552.899L301.323 554.243L304.314 552.088L311.786 552.376L317.609 548.7L319.979 548.116L324.509 549.45L327.501 548.998L328.664 549.41L332.374 550.788L333.866 550.367L336.571 549.847L337.298 550.11L349.775 552.889L351.876 553.319L358.886 552.836L361.295 552.458L364.481 551.783L367.078 548.578L373.936 546.315L376.354 544.62L381.486 543.902L383.105 542.481L385.72 537.248L386.013 537.109L386.311 537.015L388.779 535.916L388.941 538.088L387.638 540.499L387.143 541.322L387.075 541.351L385.042 542.599L385.063 543.378L385.068 544.276L385.104 546.944L385.106 546.992L384.336 548.736L384.176 549.071L381.086 551.994L381.043 552.044L380.543 552.522L380.574 552.586L380.975 554.582L382.246 555.169L382.252 555.213L382.232 555.286L382.385 556.263L382.408 556.538L382.229 556.644L380.637 557.833L379.048 558.216L377.71 558.51L375.106 559.114L374.372 559.862L373.499 560.673L373.506 560.764L373.618 562.09L373.622 562.136L374.868 561.848L376.206 561.555L375.443 562.287L375.541 563.73L378.565 563.091L378.647 563.499L378.625 563.524L376.383 565.917L374.784 565.058L372.125 563.617L369.981 562.433L368.262 562.666L367.99 563.333L367.514 564.385L367.497 564.455L367.737 565.08L368.272 566.669L368.924 568.576L366.198 570.525L364.888 571.438L364.82 571.466L364.6 571.922L364.54 572.042L364.006 572.96L364.035 573.027L364.253 574.782L364.693 578.338L364.111 578.962L360.834 576.279L360.809 576.258L359.412 578.677L359.167 579.112L359.147 579.134L358.705 583.962L357.469 585.744L356.114 587.512L355.967 588.837L355.863 589.559L355.564 591.31L352.053 590.604L348.685 591.34L346.523 592.737L342.422 595.374L342.256 595.666L341.947 596.175L341.427 596.977L341.452 596.998L342.505 599.744L342.352 603.787L342.333 603.809L341.873 604.491L340.818 605.913L337.037 608.48L336.415 608.899L334.082 610.494L333.34 612.006L333.09 612.394L332.062 614.136L331.795 614.595L330.913 616.118L330.702 617.517L330.577 618.264L329.03 619.15L323.163 618.109L323.019 618.075L322.972 618.079L322.947 618.058L322.416 618.17L321.092 618.347L321.076 618.415L319.839 621.302L319.816 621.33L318.265 622.17L317.739 621.223L308.673 625.138L307.607 621.151L295.841 623.171L293.78 616.822L289.028 621.217L277.871 611.19L264.059 615.978L260.672 610.06L251.43 610.515L243.77 606.88L238.171 617.124L239.313 624.284L231.018 633.48L236.353 644.121L232.993 643.842L227.813 650.94L217.52 651.506L216.884 661.828L209.799 663.903L206.332 661.791L208.928 657.734L202.681 651.612L208.696 645.756L204.134 639.842L199.956 637.901L193.502 643.01L180.14 638.092L183.081 635.343L179.453 627.094L189.726 615.458L186.31 612.836L186.668 606.751L179.045 601.568L175.316 596.898L158.089 602.175L151.384 593.12L147.172 595.835L144.378 591.389L142.191 605.061L138.494 604.119L132.655 612.632L128.468 612.858L125.307 612.149L120.171 604.993L118.719 598.341L127.923 598.834L137.793 592.684L138.029 588.246L125.427 588.422L120.701 581.394L113.496 578.136L114.573 571.67L111.622 569.815L88.1456 571.432L79.8661 565.704L77.7492 558.718L68.5132 560.922L67.0882 538.079L63.5437 531.439L51.8498 538.194L49.8912 545.077L53.3899 554.581L49.9855 558.52L50.364 563.301L44.7476 560.213L40.6612 561.629L39.4842 556.015L32.1144 558.619L32.9076 554.64L18.0699 560.917L10.8521 559.18L12.4037 548.853L10.9606 545.102L5.70347 546.567L15.3162 536.549L13.3563 530.285L8.47739 530.66L13.8425 526.008L12.5106 519.67L17.9993 515.929L13.5767 506.642L1.59787 501.932L3.39133 496.996L27.9918 492.824L28.9491 489.96L27.2992 470.338L32.2269 469.956L34.1342 459.669L46.489 459.377L51.2381 447.96L58.2574 452.085L66.9117 446.036L75.6816 445.275L78.0612 437.251L85.7745 433.145L89.4653 424.508L95.1314 420.362L111.051 419.408L110.81 410.954L117.72 396.183L125.506 391.541L127.436 384.289L125.242 373.277L127.297 366.734L131.62 367.855L134.652 375.941L143.669 372.283L148.2 363.577L146.436 349.86L153.757 347.512L154.336 343.781L163.626 344.174L170.756 335.924L171.283 335.766L172.374 327.477L164.909 325.876L164.579 322.543L171.823 292.732L165.116 291.76L174.697 279.971L177.84 264.54L176.509 249.267L185.002 240.745L194.893 247.419L198.645 245.939L198.859 241.526L195.982 240.287L201.665 235.218L199.336 217.585L195.712 213.046L201.357 208.924L200.846 202.539L209.864 197.776L213.929 207.276L222.908 199.749L226.114 189.012L229.854 185.99L236.74 187.659L243.034 179.273L240.593 177.077L246.101 173.565L249.642 174.036L253.791 184.543L261.923 189.588L280.028 180.836L294.617 190.857L299.409 187.521L297.571 177.402L302.609 173.329L305.337 162.745L305.812 160.841L317.567 151.406L311.824 140.133L322.955 132.524L325.573 125.078L339.445 112.09L341.826 108.28L336.878 98.0461L340.311 96.6837L341.525 91.5648L343.7 94.5189L346.185 94.4544L345.655 90.9515L352.312 94.3919L355.407 86.1928L352.981 81.1202L363.507 76.6209L365.825 75.6947L367.035 79.7662L378.359 79.7631L380.454 84.5658L381.99 89.1125L381.833 103.749L389.914 111.011L396.69 125.655L402.169 126.544L399.111 139.918L405.142 141.473L416.936 137.865L409.506 146.462L414.799 146.26L425.488 153.767L435.967 152.131L435.145 156.596L438.67 151.864L435.905 138.251L439.408 111.462L426.78 110.766L420.721 102.669L430.081 94.7003L434.856 93.0902L438.556 97.1403L442.41 95.7436L442.517 95.6198L442.47 93.6663L451.731 87.5685L453.56 83.8962L449.558 78.4893L441.196 77.675L447.1 67.9826L446.366 63.1609L451.668 63.35L457.155 56.8003L460.986 56.5338L462.624 50.0218L465.544 49.5533L466.796 41.53L471.099 35.6986L457.157 33.9119L460.037 25.9631L466.666 20.7017L450.017 9.60081L457.973 5.61507L458.038 5.54079L464.277 10.1666L465.313 10.4734L466.806 11.1551L467.987 11.5446L473.625 10.6932L474.275 11.446L473.544 12.4935L475.832 12.9078L476.676 14.5405L477.786 14.3602L478.879 13.9486L479.636 15.6829L478.651 17.0734L479.264 18.5225L480.976 15.6887L480.726 12.7156L479.17 11.2538L479 9.24135L478.151 8.91924L475.685 10.0162L474.841 9.48635L477.655 7.73704L479.558 7.49188L480.862 8.19135L482.168 11.7L485.637 15.5156L487.328 17.4729L493.76 24.6365L500.815 29.7737L511.671 35.0796L518.248 36.4541L526.005 36.8135L533.561 35.2988L536.032 35.9033L536.738 37.043L535.769 38.6164L531.42 37.7762L528.886 38.0982L528.237 39.0491L529.067 44.1622L528.214 47.1563L529.559 48.6124L528.464 50.1292L529.085 51.3681L530.535 51.8483L532.346 51.3092L536.297 56.0734L536.337 56.2772L535.601 57.3297L533.175 57.5278L532.954 59.9405L532.888 60.2682L531.547 61.3677L531.318 63.3898L531.811 66.7345L534.616 67.4035L536.011 64.6855L536.556 63.6531L536.641 63.554L537.378 60.2933L536.479 58.2712L536.818 56.1229L537.008 55.9024L535.68 54.6293L536.935 53.6288L539.555 56.0169L541.424 57.5684L542.409 58.3859L543.585 61.1914L544.478 63.4212L545.764 66.7011L545.194 67.1598L544.236 67.8158L540.952 70.1102L541.381 72.6748L542.431 73.1673L544.984 73.0739L546.239 72.0735L546.139 70.8843L544.091 70.8442L546.386 69.0428L547.067 68.506L547.152 68.4069L547.903 66.4346L548.664 65.9557L550.007 69.6706L551.614 70.6217L555.988 70.38L556.782 69.21L555.169 66.7603L556.775 66.6085L559.302 67.5997L560.972 65.6674L563.767 65.9458L565.022 64.9454L566.152 62.7346L562.577 60.1459L555.591 62.3071L550.636 62.6193L549.682 62.1676L548.069 61.4242L546.469 59.1601L546.561 57.7479L547.81 56.9552L548.295 58.8038L549.611 58.7861L550.446 55.6118L550.81 55.1906L552.85 52.6295L559.716 52.9673L562.005 54.4843L563.162 53.9984L562.421 52.4471L559.55 51.0005L554.697 51.3965L557.505 48.7496L562.541 48.8453L562.577 48.1515L558.069 46.7925L554.615 49.2825L553.165 48.8021L552.174 45.984L552.595 44.8443L553.145 43.8071L550.903 42.887L551.033 41.884L551.967 41.0042L552.851 41.738L554.02 40.8366L552.533 39.0444L549.547 39.8891L546.316 39.462L550.41 36.7332L550.446 34.9341L548.897 32.1592L548.357 31.881L546.235 34.5871L543.369 34.5906L541.777 33.8225L538.172 34.5312L539.218 32.4171L538.671 30.6912L539.658 29.298L545.48 26.7276L548.506 23.8787L549.394 21.2963L548.771 17.2485L547.881 16.7226L545.221 15.2333L545.533 14.22L549.392 12.6157L556.408 13.6319L560.353 11.9284L562.525 9.81696L562.791 8.20416L561.275 5.84332L561.705 5.09438L564.539 4.67673L566.708 2.56766L567.67 1.70637L572.053 2.95817L579.466 9.83907L583.899 12.7908L587.88 14.0571L590.486 13.4508L590.799 13.5403L597.813 14.5591L598.527 16.5939L597.33 19.685L594.772 23.0967L602.964 33.041L606.023 40.3923L605.145 44.4705L608.673 45.3571L609.007 49.3364L614.331 53.4151L615.974 55.8807L614.809 56.5767L615.344 57.9146L616.312 60.76L620.652 64.0187L624.915 63.8551L628.425 66.7693L629.129 69.0167L631.209 69.4203L632.447 72.1538L641.516 83.894L645.82 87.8488L646.725 92.4723L651.307 96.1051L654.083 100.069L656.297 103.179L659.085 105.876L662.459 107.192L663.73 110.289L667.663 110.958L674.592 109.515L676.289 109.056L678.809 107.446L679.781 105.87L678.494 103.696L681.401 103.343L682.742 102.244L688.116 101.897L691.96 100.11L693.924 98.0385L694.689 97.3545L695.159 90.9377L693.761 88.8412L692.832 88.4105L691.614 87.6119L690.807 85.2829L689.323 84.3909L691.806 77.6029L693.705 74.7538L698.704 72.4323L704.532 71.3604L709.386 69.2581L714.859 68.9979L714.63 71.0199L710.476 73.8687L705.167 78.9072L704.23 80.895L700.649 82.1772L699.677 83.7532L699.399 84.0753L698.413 84.363L697.435 86.1467L697.192 106.453L698.297 118.474L702.489 147.652L703.946 157.711L707.998 169.584L709.423 176.468L713.192 183.851L716.673 196.185L720.945 205.646L724.385 213.862L728.087 217.659L729.452 218.238L730.487 221.858L734.545 225.444L745.121 241.966L750.856 244.514L751.757 244.326L759.23 243.509L759.442 243.514L761.186 243.856L764.815 244.273L767.064 245.586L772.387 245.751L776.884 248.377L781.888 249.765L785.677 252.357L791.442 260.291L796.967 263.937L802.988 262.642L805.957 260.511L807.448 261.196L810.887 265.497L818.517 270.171L826.694 276.618L838.817 283.32L839.872 283.856L843.148 285.085L847.579 286.934L848.707 286.934L851.655 286.786L853.096 285.77L858.784 285.513L861.638 283.968L863.065 281.664L873.237 278.828L873.857 278.964L873.522 280.004L871.487 283.463L868.582 285.519L867.622 287.484L869.167 287.452L871.638 284.142L874.313 282.15L875.071 281.073L874.778 280.107L875.468 279.961L876.039 280.605L876.282 280.977L883.19 283.222L886.223 284.08L890.663 284.613L893.687 281.767L895.179 281.346L895.203 283.025L895.986 283.675L899.741 284.75L901.053 288.051L901.851 288.884L904.095 291.507L906.304 298.537L905.469 299.503L903.12 298.106L901.596 298.113L901.232 298.534L899.832 300.354L899.657 300.758L898.36 306.876L899.355 309.187L898.224 310.295L898.475 312.162L895.763 313.996L893.75 321.344L894.211 324.323L892.4 325.967L892.013 327.518L893.994 326.733L894.893 327.65L894.849 328.554L894.069 334.926L894.07 336.029L895.071 337.03L895.837 336.394L897.431 334.951L897.349 333.943L897.147 331.567L898.009 328.411L901.012 322.778L901.023 318.148L902.492 314.943L908.396 305.251L911.532 302.276L914.899 296.221L911.586 295.688L909.102 296.604L908.461 296.242L908.968 295.003L912.741 293.498L916.675 293.062L920.251 290.882L920.763 290.541L924.768 290.926L925.16 290.873L929.949 289.699L932.601 286.881L933.54 285.996L935.586 284.933L936.486 284.745L938.882 284.181L950.217 281.757L951.48 280.044L954.384 279.093L963.825 272.336L972.347 263.328L973.377 262.137L974.104 260.192L972.868 257.506L972.215 255.853L973.583 256.227L974.09 254.989L972.693 251.787L973.882 250.009L973.741 249.721L972.383 247.829L973.42 247.03L977.094 248.25L978.786 250.207L984.074 251.065L984.533 253.144L985.749 253.945L985.316 257.457L991.268 255.59L995.742 255.432L1000.81 251.128L1000.81 248.917L1001.77 248.056L1003.56 248.601L1003.85 248.459L1005.28 247.263L1007.09 242.302L1009.08 240.252L1008.25 236.589L1005.71 235.415L1004.54 234.818L1003.2 232.396L1002.24 230.702L1002.2 227.689L999.491 228.209L997.899 227.44L994.802 224.7L994.475 223.322L995.17 223.171L999.009 222.443L1002 222.892L1002.94 223.115L1003.3 222.694L1004.17 222.137L1003.28 219.909L1004.2 218.844L1007.58 219.95L1011.36 219.04L1013.26 216.191L1015.78 215.481L1017.97 213.806L1016.9 211.982L1019.58 209.783L1023.2 209.257L1024.91 210.338L1029.2 209.09L1030.61 209.874L1030.74 211.474L1031.74 212.683L1035.86 214.234L1040.71 212.342L1044.97 214.389L1050.22 214.881L1053.04 215.941L1061.15 214.888L1065.59 213.213L1073.03 209.426L1084.3 200.495L1087.98 196.695L1090.02 195.63L1091.8 193.782L1092.74 192.692L1094.1 189.61L1093.11 185.086L1096.63 185.579L1101.64 191.781L1110.62 191.831L1114.1 190.856L1115.27 192.37L1118.17 192.021L1118.98 197.666L1118.13 199.945L1120.03 205.386L1122.74 208.573L1123.04 210.827L1122.47 211.286L1127.38 210.381L1131.91 208.4L1133.22 212.806L1137.62 217.95L1137.51 226.364L1141.14 235.46L1140.56 237.191L1139.05 237.429L1138.72 236.051L1137.83 236.032L1130.93 242.904L1132.05 252.507L1131.35 252.861L1132.72 258.047L1131.93 262.026L1132.57 267.155L1138.76 272.841L1137.72 276.058L1130.3 278.966L1128.18 280.523L1125.76 280.904L1125.61 281.539L1126.92 282.629L1123.81 284.472L1124.07 285.072L1127.16 284.106L1129.16 281.341L1131.3 279.967L1136.44 279.248L1141.24 280.263L1142.98 282.815L1143.67 283.772L1145.85 285.575L1147.98 286.621L1150.41 286.216L1152.1 287.068L1152.75 288.926L1157.86 287.588L1158.19 288.964L1160.65 289.18L1162.47 290.527L1163.78 292.332L1166.67 301.375L1165.97 302.446L1164.94 302.53L1164.39 306.878L1165.16 308.798L1167.07 309.653L1168.46 311.752L1171.65 312.183L1171.29 315.206L1172.16 316.862L1171.77 318.367L1167.35 322.824L1168.94 324.7L1167.21 327.351L1163.71 328.141L1162.46 330.042L1161.59 334.511L1158.74 332.141L1159.35 329.671L1158.32 328.259L1156.67 329.109L1157.81 330.605L1156.65 331.297L1156.27 331.535L1156.47 331.702L1158.01 332.981L1159.54 337.784L1162.21 336.855L1166.24 340.026L1169.22 340.289L1170.1 341.023L1169.65 341.749L1167.76 342.227L1167.22 344.157L1168.8 343.64L1172.29 346.325L1172.25 348.329L1168.84 351.419L1168.42 352.351L1165.51 357.885L1163.76 357.752L1162.99 359.495L1164.81 360.452L1165.98 363.465L1165.26 364.696L1163.7 365.447L1162.41 366.036L1160.97 367.052L1154.12 371.916L1155.02 373.936L1158.14 375.595L1162.04 372.582L1161.56 370.526L1162.23 369.758L1163.11 368.281L1164.87 367.355L1165.65 366.899L1169.96 363.621L1168.73 359.625L1170.39 360.109L1169.19 356.687L1170.99 356.353L1170.81 354.16L1170.94 353.159L1171.73 351.987L1172.66 351.821L1172.86 351.781L1173.74 351.618L1175.75 353.457L1179.23 354.852L1179.83 356.118L1182.28 355.94L1184.27 356.653L1183.5 354.528L1182.11 354.136L1182.01 352.736L1183.09 352.144L1182.56 350.599L1182.93 349.072L1180.65 349.949L1178.97 349.485L1177.78 347.397L1177.86 345.801L1178.94 345.204L1181.57 344.969L1183.15 346.659L1184.37 346.951L1183.24 344.142L1180.43 343.473L1178.49 343.516L1177.66 344.48L1175.59 344.26L1172 344.043L1171.75 342.178L1172.92 340.377L1172.66 338.512L1174.21 336.474L1174.4 336.251L1175.6 335.969L1181.78 337.952L1186.48 337.98L1187.93 336.759L1188.27 331.341L1189.44 329.544L1194.27 333.341L1200.05 334.273L1197.95 336.057L1197.58 337.583L1195.5 337.131L1194.13 338.97L1193.84 342.77L1196.55 357.954L1197.02 360.216L1201.73 368.719L1205.47 371.822L1207.42 374.59L1209.91 374.962L1213.04 378.322L1216.69 380.419L1220.44 386.123L1227.84 391.713L1232.76 394.303L1233.3 394.581L1236.67 394.791L1240.08 393.915L1240.68 392.76L1242.82 391.596L1248.85 392.9L1250.16 391.181L1251.6 391.271L1254.79 396.514L1256.24 396.994L1258.48 395.706L1261.7 397.654L1268.82 399.651L1271.47 401.853L1276.83 411.317L1278.25 412.284L1280.94 412.683L1283.37 411.383L1283.94 413.132L1283.09 413.913L1283.7 415.362L1284.35 415.514L1288.78 416.26L1291.75 420.001L1295.62 422.494L1297.92 422.696L1299.66 424.352L1303.57 422.03L1304.87 422.937L1304.96 426.544L1298.88 433.327L1298.89 437.033L1297.69 438.421L1299.51 440.483L1303.86 438.907L1306.56 439.7L1311.08 442.348L1315.43 443.19L1317.51 444.702L1323 443.562L1324.07 442.577L1325.92 439.134L1327.14 436.616L1325.82 434.238L1327.45 432.999L1328.58 430.786L1330.68 434.024L1338.93 432.569L1340.65 431.024L1340.92 428.1L1343.12 427.713L1345.31 426.036L1345.3 424.542L1347.63 423.155L1346.07 417.779L1348.25 416.104L1353.4 416.674L1356.15 415.252L1355.34 412.921L1356.51 412.022L1359.69 413.559L1361.57 412.899L1365.27 409.511L1366.78 409.478L1367.46 412.648L1366.1 415.937L1366.44 417.498L1368.8 418.733L1370.64 422.474L1370.43 423.574L1375.01 427.207L1379.92 427.198L1381.97 426.132L1384.97 426.624L1386.33 425.705L1388.3 426.03L1390.47 425.229L1391.85 426.037L1393.95 425.569L1394.46 424.12L1396.94 424.519L1398.65 422.996L1401.07 422.801L1402.35 423.479L1401.2 425.459L1401.39 426.551L1401.57 429.85L1402.7 430.955L1406.38 432.36L1409.33 432.42L1413.15 431.509L1415.11 430.543L1416.55 428.627L1418.56 429.363L1420.48 427.8L1420.34 426.202L1424.56 421.575L1430.57 420.485L1432.07 417.646L1436.6 419.188L1437.5 418.999L1441.69 418.058L1443.18 418.742L1443.37 420.935L1441.85 423.549L1437.69 423.796L1437.85 422.102L1432.94 424.276L1431.38 423.917L1431.1 425.347L1429.84 426.347L1430.52 427.075L1431.3 427.725L1435.28 424.177L1438.76 426.725L1440.91 426.847L1441 428.039L1440.19 429.188L1439.48 430.259L1436.78 431.169L1430.81 436.768L1429.27 436.595L1426.94 439.087L1430.08 437.818L1431.84 437.787L1432.03 438.88L1427.4 445.935L1426.6 448.418L1425.91 448.566L1425.22 451.524L1426.29 450.536L1427.98 450.286L1428.67 451.242L1429.83 450.549L1431.29 450.821L1434.5 449.063L1435.81 449.76L1435.34 450.307L1437.38 449.242L1436.73 446.486L1438.54 443.736L1439.85 443.33L1441.35 444.405L1442.41 448.44L1443.26 448.762L1443.69 447.62L1442.79 444.287L1438.99 440.407L1439.24 438.568L1441.04 437.131L1445.77 436.029L1448.01 437.345L1449.08 439.169L1448.81 442.092L1451.53 446.176L1452.65 446.384L1452.4 443.411L1452.37 443L1450.71 442.559L1449.93 440.804L1450.83 434.536L1449.15 433.867L1447.38 434.61L1446.43 433.099L1446.16 432.315L1446.54 431.869L1447.5 431.216L1447.32 427.913L1448.52 426.32L1449.83 427.41L1450.55 429.838L1453.01 431.157L1457.74 431.762L1459.61 429.604L1462.11 428.919L1466.51 429.043L1466.74 428.126L1469.77 425.275L1470.32 423.528L1469.15 421.828L1473.71 420.258L1477.11 420.694L1479.01 424.82L1483.22 425.169L1484.74 423.664L1481.13 419.951L1479.2 414.813L1480.22 414.937L1481.27 416.532L1483.5 416.557L1481.48 414.327L1479.37 413.51L1478.72 410.546L1477.23 410.967L1476.47 410.546L1476.8 409.503L1479.51 407.88L1482.81 404.709L1482.84 403.625L1480.61 401.389L1481.5 399.91L1480.93 397.955L1483.38 396.673L1483.25 393.966L1486.82 393.997L1488.18 391.975L1490.09 391.52L1491.66 389.504L1493.39 389.662L1494.34 390.068L1496.63 391.583L1499.05 391.595L1501.14 390.733L1501.71 389.167L1503.19 388.355L1503.8 386.095L1505.15 386.491L1509.76 384.017L1512.89 384.962L1513.09 388.653L1515.53 390.849L1517.02 390.425L1518.14 392.846L1520.06 393.679L1521.66 395.553L1525.07 396.172L1528.52 394.785L1531.36 391.951L1539.28 389.509L1542.27 385.855L1543.83 384.049L1546.78 386.111L1548.42 385.261L1549.82 386.047L1552.17 388.549L1548.5 394.557L1549.66 394.971L1550.28 397.316L1553.32 400.775L1553.19 401.981L1551.02 403.841L1550.86 405.581L1552.08 408.083L1549.62 407.87L1549.28 411.121L1550.02 412.627L1550.84 414.079L1549.21 416.42L1543.77 418.547L1543.3 419.99L1542.09 420.086L1540.42 421.124L1539.97 424.245L1539.77 426.494L1538.04 426.728L1538.01 431.337L1539.27 434.04L1535.57 436.115L1534.13 442.153L1533.98 456.071L1535.6 458.31L1535.45 462.654L1537.52 465.478L1541.03 467.287L1542.16 467.285L1542.91 468.628L1542.48 469.978L1543.57 471.985L1542.96 474.245L1543.68 476.673L1544.52 479.414L1547.3 479.854L1548.74 483.468L1554.45 483.577L1555.94 484.469L1553.7 486.655L1553.58 491.362L1555.64 495.109L1554.97 499.538L1555.53 501.102L1558.1 502.898L1558.15 505.495L1560.13 508.834L1567.9 513.588L1569.2 514.495L1572.18 513.653L1572.28 512.241L1573.58 510.935L1581 511.736L1581.98 509.953L1582.2 507.54L1582.59 502.718L1583.68 501.201L1586.43 499.777L1590.15 496.782L1595.97 494.417L1597.91 494.33L1598.58 496.209L1599.72 496.6L1601.57 495.367L1605.26 495.457L1611.02 499.684L1614.43 500.304L1617.75 503.439L1623.81 502.555L1624.58 505.576L1625.94 506.158L1626.26 506.245L1628.32 505.365L1631.77 507.501L1635.41 508.102L1636.41 510.413L1635.34 511.193Z" stroke="white" stroke-width="2"/>
</svg>
