<svg width="730" height="576" viewBox="0 0 730 576" fill="none" xmlns="http://www.w3.org/2000/svg">
<path opacity="0.5" d="M68.1598 520.221L59.0079 518.62L57.9986 518.706H57.9298V518.641L60.3153 513.255L46.4384 514.638L47.5393 509.162L45.4291 503.903L37.2406 508.881L36.8507 504.098L33.8459 499.489L35.1762 498.017L33.066 494.013L34.9698 492.26L34.8781 486.612L37.7681 484.469L35.1762 482.327L33.8688 474.904L29.075 478.02L24.4876 476.96L23.7765 474.32L25.8867 467.308L24.9692 466.334V466.226L26.3684 463.888L30.176 464.386L31.9651 461.551L33.2725 453.546L26.3684 451.986L19.3726 456.963L8.9821 441.857L1.29818 436.101L1 432.205L2.6056 434.824L7.39945 429.567L16.4825 428.873L19.1891 426.535V434.045L23.7765 427.23L27.6758 425.475L32.1715 433.569L35.4744 431.708L45.7502 436.296L53.3424 436.577L59.9483 444.089L62.8384 445.753L66.1413 447.311L72.1279 442.528L74.628 444.089L75.4308 442.639L78.9402 435.906L75.3391 434.35L73.2289 428.873L78.3209 427.812L76.4401 426.254L77.7245 425.172L80.2247 425.756L78.5273 422.64L79.7201 420.497L72.4261 417.381L71.9444 414.438L73.3436 401.974L71.3251 397.081L73.7335 388.511L65.5449 385.202L67.4487 375.44L66.8294 374.271L63.4347 367.736L64.2375 363.537L58.6409 359.166L59.6501 355.445L71.9444 354.383L77.5181 342.287L84.124 341.42L91.1198 345.012L93.2071 343.757L94.5145 339.645L92.2208 339.558L91.7162 332.635L96.1201 330.577L96.7164 327.461L93.5052 320.646L94.8127 313.026L101.304 316.142L103.896 309.912L100.707 306.88L101.808 302.4L97.8174 301.621L88.5279 293.635L89.216 288.658L87.1287 289.242L85.225 286.907L86.5324 284.57L94.8127 283.788L95.409 275.868L87.7251 268.661L82.3349 259.485L82.0138 249.444L78.0227 251.781L68.2286 233.559L66.5312 232.003L61.8521 234.34L58.6409 229.663L58.8473 229.36V222.154L63.9394 218.431L62.5402 216.289L65.3385 212.004L58.1363 205.771L56.5536 199.43L59.6501 193.762L64.9486 196.595L67.7469 195.34L65.8431 191.144L59.6501 186.469L57.3564 181.966L59.3519 176.317L56.2554 165.886L52.2644 161.688L60.2465 154.481L61.3475 149.98L59.3519 144.028L61.5539 138.683L59.1455 133.597L63.4347 129.507L65.2468 122.776L70.8434 121.911L68.1368 114.098L74.5363 108.733L70.8434 102.695L73.2747 100.421L75.1326 102.174L79.6283 96.9581L77.7245 94.7939L82.0138 96.1573L88.5279 93.3007L86.9223 89.6649L90.317 88.0007L93.3217 89.5567L94.308 87.7821L99.6983 66.422L98.8037 61.9855L103.896 51.7513L110.502 53.026L109.011 47.8104L115.089 45.9276L123.69 54.1081L129.677 51.5327L126.787 46.0358L121.993 45.5381L127.681 39.6299L131.581 39.9113L134.425 31.9061L134.586 31.9472L134.402 32.5099L151.238 56.7483L146.054 56.5535L135.664 60.3841L136.26 62.7451L140.756 63.3489L137.361 72.698L145.045 85.315L147.43 98.1051L148.829 101.741L157.637 99.1871L167.431 102.241L171.812 100.464L169.817 92.197L176.216 90.8119L180.207 84.1247L175.62 82.2635L178.625 74.3644L191.401 68.0689L199.108 67.4825L195.713 64.128L211.7 65.1235L215.095 61.2714L217.572 63.2407L219.98 74.3644L224.774 81.6576L228.673 78.3032L230.761 79.2987L232.665 75.3621L236.656 71.5078L234.362 68.0689L239.362 66.9869L241.151 64.128L237.573 57.5274L232.665 54.6707L232.16 50.6454L228.765 49.8469L230.073 45.7112H230.279L241.472 43.3544L240.67 39.6083L244.454 39.8896L245.762 34.8688L249.156 36.7516L250.854 31.733L254.753 29.7615L255.556 32.5099L258.056 31.2331L267.529 22.5549L275.534 21.278L281.933 9.95955L282.576 1L286.223 14.2878L279.846 25.6063L285.236 27.6839L288.631 30.0428L288.126 39.1971L285.833 39.9978L287.324 45.0187L293.218 46.4037L296.728 54.2812L293.815 60.7736L288.425 64.7124L280.626 75.836L285.649 79.7964L286.268 84.5143L284.067 86.2889L285.649 88.9507L281.773 92.7813L284.319 102.241L282.713 103.323L280.924 108.06L278.722 107.865L279.227 112.085L276.52 112.778L271.382 124.118L273.584 127.256L277.759 126.674L282.369 131.693L289.25 131.998L291.75 135.35L297.255 137.016L306.866 150.306L305.582 152.685L303.563 151.992L302.783 150.412L297.485 158.982L286.383 154.548L283.195 156.905L278.906 156.126L272.69 147.556L274.387 144.786L272.392 141.736L267.896 142.037L261.818 147.448L266.611 155.63L269.8 154.654L275.098 161.644L274.112 164.306L277.988 172.465L290.03 179.477L295.627 177.899L298.838 183.416L300.834 181.922L302.829 183.805L303.632 187.638L301.132 191.574L305.214 196.617L304.916 202.332L309.71 201.638L309.618 202.72L312.623 202.332L313.908 204.689L312.027 207.351L310.513 206.55L310.215 209.796L307.233 209.017L308.426 212.956L306.728 216.895L310.719 228.129L313.954 229.707V229.901L316.362 237.413L319.183 244.185L315.33 251.002L316.293 258.381L318.289 261.822L316.844 266.151L314.091 270.89L312.921 274.894L323.656 279.136L324.275 285.368L326.34 284.697L327.785 287.792L332.12 287.251L337.762 290.173L339.001 291.385L338.313 294.912L344.781 294.025L351.593 300.864L353.658 300.041L355.997 305.192L351.387 315.796L351.593 322.897L352.901 323.176L356.685 320.124L360.126 310.667L365.7 304.564L369.003 304.369V308.763L373.819 312.139L375.196 316.878L372.581 319.259L374.576 321.618L379.324 316.683L381.32 317.486L388.132 324.042L388.476 331.075H392.33L395.151 335.814L402.032 330.534L404.509 324.258L410.152 323.176L410.358 319.713L412.973 317.486L416.138 317.701L417.858 320.341L418.615 319.042L421.437 320.536L424.464 333.239L428.043 327.699L430.107 332.698L439.328 332.438L438.846 324.583L445.796 319.713L445.658 314.584L449.58 314.519L452.608 305.646L451.301 297.942L454.397 297.747L451.438 292.12L452.677 284.546L454.466 285.368L456.049 280.155L462.379 276.171L465.132 267.038L463.756 264.138L478.734 273.79L482.243 270.76L487.908 269.895L490.684 275.348L494.721 275.889L494.95 275.933L498.368 276.56L500.638 277.036L503.23 276.842L504.033 276.95H506.327L513.506 275.545L515.203 274.117L516.993 273.942L518.277 272.989L518.483 272.059L517.887 271.585L517.681 270.089L518.575 269.137L519.378 265.48L520.364 264.528L520.479 263.597L522.956 262.082L533.117 262.666L536.306 262.082L537.017 261.909L537.911 262.082L539.104 263.51L540.388 262.948L541.696 263.034L543.187 263.316L544.471 264.16L545.389 263.878L545.572 263.121L546.971 263.316L550.251 264.355L551.765 265.848L553.738 264.919L557.224 264.809L562.11 266.043L563.119 267.17L564.22 266.216L565.298 266.043L569.587 267.363L571.583 268.769L573.578 271.585L573.877 271.972L574.175 273.381L574.083 275.154L573.968 276.106L573.877 276.474L573.165 278.27L572.982 278.638L572.867 278.724L571.881 279.763L569.381 280.609L564.61 280.328H564.22L564.014 280.131L563.807 279.763L563.601 279.395L564.22 278.638L562.614 277.599L562.821 275.913L561.422 276.474L561.032 276.668L559.334 276.192L558.623 276.755L560.527 279.114L558.738 279.763L557.132 278.27L554.449 277.686L553.852 279.006L552.155 279.763L550.962 282.579L550.458 283.81L551.054 283.897L551.857 282.295L552.66 282.209L553.256 282.966L553.141 284.178L549.357 286.342L546.88 286.907L544.792 286.624L540.893 287.749L536.214 287.576L536.122 288.42L536.007 288.593L537.315 289.071L538.897 292.359L543.485 294.523L543.691 294.609L547.682 295.735L548.577 295.564L548.669 296.86L549.265 297.728L551.169 299.024L552.545 297.444L552.247 296.018L555.343 296.492L552.958 298.937L553.348 300.26L554.059 300.173L554.541 298.464L556.238 296.968L556.743 293.96L557.431 293.203L558.44 293.116L559.518 293.767L559.816 294.155L560.711 295.367L561.032 297.163L562.408 297.899L562.018 299.219L563.715 299.976L565.206 298.937L565.803 295.735L567.202 294.717L568.899 294.047L569.679 294.804L567.798 297.336L567.706 298.288V298.375L568.303 298.743L571.376 297.336L572.776 295.845L571.078 294.609L570.39 292.445L569.083 291.796L568.693 290.476L568.784 284.938H571.078L572.179 284.849L575.276 283.702L575.964 286.537L575.069 287.102L574.863 286.537L573.487 286.429L573.165 287.662L574.381 290.757L574.863 292.164L575.459 292.726L575.964 293.313H576.675H577.455L578.464 293.96L578.556 294.047L579.863 295.735L580.345 296.492L581.538 297.055L582.432 297.531L581.744 302.227L582.547 303.071L582.638 304.956L584.336 304.478L591.4 305.516L591.997 305.625L593.992 307.031L597.777 307.486L604.452 306.752L606.86 307.767L607.044 307.962L608.534 309.758L610.943 310.97L610.828 311.728L615.324 310.407H615.92H616.012L620.599 309.931L625.072 310.689L627.87 310.213L629.178 310.04L631.357 309.758H631.449H631.563L631.655 309.65L633.651 309.089L635.646 307.313L638.421 303.915L645.004 303.828L645.509 303.461L647.505 302.424L650.188 302.898L653.468 302.032L653.675 301.383L658.056 301.751L664.937 300.82L670.212 299.781L676.497 298.464L682.461 299.219L686.36 299.892L688.539 299.5L689.044 298.937L689.732 299.305L689.938 299.414H692.324H692.53L693.218 298.851L694.319 297.812L695.03 297.617L695.512 297.444L695.925 297.336L700.191 298.202L703.288 297.728L704.778 296.687L705.49 296.968L709.458 296.405L710.375 296.882L711.27 296.6L712.049 296.319L712.852 295.931L714.045 295.564L714.16 295.477L714.94 294.241L722.119 294.609L723.61 294.047L724.114 294.155L724.413 294.241L725.101 294.436L727.807 297.055L728.197 298.288L728.587 299.781H728.702L729 301.188V302.898L727.899 303.266L727.991 307.767L725.903 311.057L725.215 312.766L725.399 313.221L724.114 315.017L723.403 315.495L720.33 317.549L720.123 317.636L719.917 317.549L719.527 317.268H716.431L715.949 317.073L713.242 316.337L710.467 318.956L710.559 320.947L709.458 322.442L712.049 321.791L712.852 322.721L714.251 332.785L715.742 335.6L718.128 343.021L718.632 344.625L719.137 347.068V347.157L719.435 348.585L719.321 352.154L719.229 356.374L719.527 359.101L719.619 360.507L719.733 369.64L719.137 371.783L718.426 373.947L718.334 374.228L718.243 374.336L717.325 375.464L715.352 378.188L714.458 379.879L714.045 380.634L710.467 383.534L708.265 383.923L704.09 386.371L700.902 387.386L700.787 387.949L700.604 388.903L700.902 389.182L702.485 390.675L701.888 391.067L700.994 391.541L699.411 390.026L698.012 390.221L697.117 390.589L696.016 391.067L689.548 393.792L681.979 395.114L677.483 396.887L676.497 398.207L675.786 400.371L675.488 400.457L674.203 401.107L673.492 402.429L670.419 403.271H669.616L663.629 403.66L659.363 404.699L653.675 405.824L650.785 406.671L649.294 407.123L642.711 410.804L640.027 412.968L634.339 419.069L632.55 420.865L631.563 422.079L631.265 422.447L628.467 427.055L626.976 430.539V430.736L626.173 435.798L626.081 436.187L625.99 436.75L625.485 440.321L625.37 440.602L625.072 442.572L628.26 456.574L627.962 458.175L626.586 459.106H625.99L621.792 459.019L619.017 458.543L610.048 457.05L604.153 455.364L601.768 454.691L586.033 451.122L584.038 451.315L581.95 448.198L579.152 446.619L577.157 445.948L577.661 446.513L578.556 447.549L581.836 449.519L583.648 452.354L583.739 453.479L575.276 458.738L573.464 460.339L565.596 467.481L562.913 471.701L560.619 473.584L555.642 474.623L552.66 476.592L549.77 477.155L549.471 477.265L547.981 477.826L545.687 478.67L539.31 480.271L537.911 480.444L536.512 480.552L533.622 480.92L531.535 481.202L525.548 483.56L522.956 484.58L510.8 486.937L508.827 487.304L504.836 488.627L497.358 492.109L494.078 495.206L490.477 502.735L489.881 503.103L487.885 504.144L486.693 504.791L486.005 505.635L481.417 511.37L478.527 514.01H478.435L476.646 517.215L475.132 518.793L471.256 519.747L468.871 519.552L465.568 518.511L460.705 515.419L451.828 511.197L450.039 512.69L448.64 512.603L445.658 511.197L443.961 509.79L436.69 504.144L436.185 503.776L433.892 502.821L432.011 502.908L429.121 503.384L421.941 501.415L420.45 500.852L418.661 500.181L416.069 499.251L404.807 495.206L398.041 492.109H397.628L395.151 492.022H394.05L391.756 491.265L385.173 489.187L373.521 487.694L367.236 486.937L364.461 485.616L362.855 485.335H358.979H358.589L358.681 485.422V485.53L359.277 486.569L362.855 485.898L363.268 486.093L366.25 487.304L365.952 488.062L363.566 487.586L359.277 487.781L354.598 488.995L354.185 489.101L349.323 490.313L347.327 491.265L345.217 492.282L339.161 493.883L338.45 494.078L334.069 494.554L325.009 495.487L320.628 495.961L319.734 496.048L313.357 495.574L303.196 496.329L302.095 496.524L298.609 496.892L292.117 499.251L290.145 499.902L287.048 500.462L279.869 501.698L273.194 504.033L268.125 504.598L262.735 506.849L262.437 507.15L260.74 508.362L260.143 508.732L257.758 511.283L257.46 510.612L258.56 509.682L256.771 507.994L257.07 506.284L255.074 506.197L255.258 507.712L252.069 507.799L251.588 508.167L251.679 509.119L250.877 510.612L252.574 509.855L253.468 510.158L255.969 512.887L257.253 511.651L255.258 517.018L252.78 520.957L250.693 523.316L249.592 523.489L247.505 522.277L242.803 516.91L242.505 516.629L237.825 512.495H237.734L235.44 511.283L224.384 505.916L222.687 503.557L223.375 501.025L224.086 500.83L224.384 501.501L223.581 502.908L224.292 503.471L225.371 502.627L225.577 500.657L226.472 500.27L226.976 500.462L227.664 499.705L228.467 496.242L230.463 494.641L230.852 494.251H232.045L235.44 496.048L238.238 496.697L240.624 495.29L241.61 495.574L242.321 495.206L242.206 494.251L244.408 491.827V489.945L245.509 487.391L245.601 486.179L244.706 485.984L243.72 487.586L243.101 491.159L239.018 494.533L237.229 495.095L235.44 494.165L235.532 493.236L233.146 492.563L232.458 491.351L232.55 490.313L236.426 487.11L234.454 486.744L234.545 486.179L234.844 483.734V483.539H234.752L234.247 483.647H234.041H233.949H233.651L233.444 483.539L232.642 483.171L232.55 484.859L231.747 485.616L233.444 487.304L231.655 490.031L231.151 492.282L230.256 492.369L227.962 491.159L226.976 486.655L227.572 484.946L227.183 483.82L223.673 483.344L223.375 483.258L223.192 483.344L222.595 483.647L222.687 485.422L223.49 487.023L224.476 490.031L223.971 495.206L223.192 495.961L219.705 492.39L217.113 491.633L216.7 491.072L217.801 490.791L217.297 488.43L217.71 486.549L218.398 485.14L218.994 483.928L219.109 483.539L219.499 481.851L218.811 481.569L216.815 482.327L216.012 482.221L215.622 482.134L214.911 482.522L213.718 483.084L210.53 482.416L209.727 482.608L208.833 483.734L208.535 483.82H208.443L207.434 484.015L205.645 483.171L204.75 481.093H203.764L199.864 483.539L199.681 487.867H198.58L197.181 486.917L196.676 485.422L195.483 485.984L195.392 490.962L196.195 493.409L195.782 495.487L196.195 498.774L195.002 499.988L195.782 500.462L197.181 499.815L197.571 499.229V499.142L198.19 498.298L198.374 499.575L198.488 500.376L198.075 501.393L187.616 504.598L184.726 504.033L183.235 502.066L182.134 501.393L182.547 500.095V499.902L183.74 496.134L184.634 494.533L185.529 492.955V492.845L184.932 491.914H183.029L183.74 490.031L184.52 490.399L184.634 489.274L183.923 488.798L183.533 487.781L184.336 487.499L185.919 487.867L186.63 487.954L186.722 487.391L186.515 487.218L186.217 487.11L183.143 485.054L182.134 483.366L182.639 481.375L179.955 481.288L179.749 481.937L180.643 484.298L180.253 484.666L178.556 484.859L175.161 483.734L174.955 483.647L172.271 482.695V482.608L171.285 481.569L170.184 481.851L169.083 482.976L168.991 483.084L167.294 481.375L167.202 483.734L168.991 484.015L171.881 484.491L172.478 485.249V487.304L171.285 488.257L171.377 488.908L172.271 488.43L173.762 487.781L174.267 490.399L174.358 490.704L176.652 493.236L177.96 494.641L177.661 495.206L176.652 495.487L175.459 495.766L176.17 496.329L178.143 495.766L178.258 496.718L179.657 498.298L179.542 498.58L179.359 499.618L177.363 499.815V500.462L174.863 502.259L175.758 502.54L177.96 502.453L178.441 502.908L177.065 504.509L176.95 504.598L176.056 505.159L174.955 505.916L174.06 505.743L171.468 502.908L171.377 502.821L170.482 502.627L164.702 500.852L163.417 499.618L163.119 498.493L159.22 493.429L155.734 491.351L154.449 491.072L153.348 490.877L149.655 488.062L141.581 484.491L139.288 482.048L138.301 480.358L137.315 479.516L134.127 476.592L133.118 475.661L131.328 473.865L125.938 467.957L125.457 467.286L124.86 467.113L123.966 466.832L123.255 465.879L123.966 463.434L123.668 461.465L124.562 460.621L125.847 459.497L125.755 458.089L123.966 457.615L123.255 457.418L122.865 457.333L122.956 457.615V457.98L123.668 458.262L124.057 458.37L124.654 458.651L124.264 459.214L122.567 460.988L122.658 463.347L120.663 468.608L118.965 465.23L117.589 464.862L117.291 463.715L110.616 460.058L109.401 461.465L109.011 461.378H108.414L105.731 459.127L105.134 457.418L104.836 457.136L104.125 456.574L103.529 456.963H103.437L103.322 458.824L103.735 459.127L104.125 459.411L106.029 460.621L109.607 462.135L112.291 462.698L114.103 463.826L117.979 468.801L121.466 473.411L121.672 473.584L122.567 474.449L123.255 475.014L123.759 476.873L128.347 481.028L129.127 482.327L129.838 482.608L130.526 480.747L131.328 480.639L132.223 481.31L133.118 484.772V484.967V486.937L136.008 489.382L136.099 490.139L135.916 490.421L135.32 491.072L137.109 490.618L138.6 491.46L139.402 491.351L139.288 490.139L139.907 489.945L139.999 490.791V491.936L138.508 493.342L137.2 494.665L135.32 496.437L132.223 501.698L129.723 502.367H129.539L125.847 501.804L120.777 502.172L118.484 501.804L118.782 499.251L117.589 495.593L116.075 496.632L116.374 494.665L112.405 492.868L111.901 491.741L109.997 490.139L109.607 490.983L111.993 493.624L115.295 495.119L115.089 496.913L115.892 497.565L116.993 497.476L117.176 497.844L117.474 498.32L117.176 501.804L117.887 502.821L120.273 504.336L121.855 504.531L120.777 506.221L119.08 507.063L117.589 507.712L114.401 508.104L107.91 510.071L107.015 510.244L100.134 512.322L96.9458 512.887L94.1704 512.322L91.9685 510.244L91.8767 510.723L91.785 511.11L91.8767 511.391L92.4731 512.887L93.1612 514.4V515.138V515.611L92.6795 516.174L90.9822 516.369L90.7757 517.215H92.1749L91.785 518.987L89.7894 521.433L88.8949 521.63L88.0921 521.238L87.0829 523.229L86.303 523.794L85.202 523.229L83.2065 525.848L84.101 527.081L85.8901 528.012L87.8857 527.925L88.2985 528.404L88.0921 528.964L85.5002 528.769L81.6238 525.675L80.11 524.441L79.4219 523.881L78.2291 523.511L77.5181 523.229L68.1598 520.221ZM90.6152 542.62L89.4454 543.074L87.748 543.726L82.7248 544.546L80.7293 544.005L80.5917 543.615L83.9175 542.836L84.468 539.547L87.037 538.984L88.5967 537.577L89.3536 535.37L91.3262 533.336L92.0832 530.674L94.0557 528.986L97.0605 528.945L97.5422 529.572L97.8174 529.96L98.0927 531.063L97.3357 533.184L97.6569 535.457L97.0146 536.452L97.1752 536.519L97.5651 536.692L98.4138 535.846V533.509L99.2854 532.277L99.4689 530.804L98.5743 529.659L98.2991 529.267L99.3771 528.75L102.015 528.663L105.272 527.514L114.906 521.844L117.107 522.667L117.176 523.943L116.465 525.393L114.745 526.713L114.286 529.118L116.419 525.826L117.085 526.432L117.13 527.016L117.337 528.878L118.14 527.644L117.841 526.781L119.309 527.016L118.025 525.437L117.91 524.335L118.69 523.662L119.08 523.965L118.828 525.004L119.883 525.504L120.755 524.335L120.961 525.588L123.943 526.172L124.654 527.016L125.158 526.887L125.044 525.331L125.755 524.722L125.319 524.335L123.278 525.35L121.764 524.744L123.025 523.402L121.351 522.171L118.002 522.472L125.617 518.838L130.365 517.321L131.237 516.261L131.695 513.772L132.728 512.538L133.989 511.846L135.549 510.98L135.732 510.742L137.407 508.621L138.737 507.931L139.081 507.994L141.421 508.275L142.292 510.115L142.384 510.829V510.85L142.981 515.525L143.256 516.261L143.76 517.689L144.77 520.502L144.54 523.166L144.104 524.593L143.21 527.581L142.912 528.64L143.279 529.181L143.99 527.19L144.793 525.047L146.215 521.175L144.173 515.85L143.348 513.642L143.875 510.764L143.99 510.158L144.173 509.206L144.54 508.968L144.724 508.838L145.572 508.297L148.554 509.509L153.119 514.356L154.036 516.715L155.298 516.369L158.876 517.646L160.137 518.944L160.894 519.031L165.138 519.637L167.913 519.68H170.987L173.67 520.634L174.427 521.26L175.092 521.844L176.285 522.171L179.198 522.926L180.827 523.381L183.854 529.895L183.602 532.451L182.226 532.492L181.813 533.033L183.487 534.266L183.74 534.115L185.827 532.838L188.19 533.963L189.612 535.392L189.726 536.669L188.029 538.01L185.277 540.218L184.336 540.934L183.9 542.901L178.716 543.291L175.207 544.784L174.313 545.39L172.317 546.689L170.092 548.939L168.854 551.406L167.776 556.947L167.844 558.916L167.913 559.998L167.248 560.994L167.156 564.372L166.262 565.454L166.032 565.711L162.821 567.594L159.289 568.287L152.637 571.598L146.077 572.723L142.201 574L140.687 573.805L139.311 572.983L138.003 570.105L133.92 565.69L130.663 563.244L127.957 561.902L125.548 559.132L123.782 557.098L119.103 554.133L109.447 549.87L107.933 548.182L105.983 547.035L103.46 543.442L101.258 542.209L96.5788 541.3L95.8907 541.841L90.6152 542.62Z" stroke="#022A3A" stroke-opacity="0.5" stroke-width="2"/>
</svg>
