<svg width="795" height="666" viewBox="0 0 795 666" fill="none" xmlns="http://www.w3.org/2000/svg">
<path opacity="0.5" d="M74.1562 601.774L64.1872 599.921L63.0878 600.021H63.0129V599.946L65.6113 593.714L50.4954 595.314L51.6946 588.978L49.396 582.894L40.4764 588.653L40.0516 583.119L36.7786 577.785L38.2277 576.082L35.9291 571.45L38.0028 569.422L37.9029 562.886L41.051 560.407L38.2277 557.928L36.8036 549.339L31.5817 552.945L26.5847 551.718L25.8101 548.663L28.1088 540.55L27.1094 539.423V539.298L28.6334 536.593L32.781 537.169L34.7298 533.889L36.1539 524.627L28.6334 522.821L21.013 528.58L9.69479 511.102L1.32481 504.441L1 499.934L2.74895 502.964L7.97082 496.882L17.8649 496.078L20.8131 493.373V502.062L25.8101 494.177L30.0576 492.146L34.9547 501.512L38.5525 499.358L49.7458 504.667L58.0158 504.992L65.2115 513.684L68.3597 515.609L71.9575 517.412L78.4786 511.878L81.202 513.684L82.0764 512.006L85.8991 504.216L81.9765 502.416L79.6779 496.078L85.2245 494.851L83.1758 493.048L84.5749 491.796L87.2983 492.472L85.4494 488.866L86.7486 486.387L78.8034 482.781L78.2787 479.376L79.8028 464.955L77.6041 459.293L80.2275 449.377L71.3079 445.548L73.3816 434.252L72.707 432.9L69.0093 425.338L69.8837 420.48L63.7874 415.422L64.8867 411.117L78.2787 409.888L84.3501 395.893L91.5458 394.889L99.1662 399.045L101.44 397.593L102.864 392.835L100.365 392.735L99.8158 384.725L104.613 382.343L105.263 378.737L101.765 370.852L103.189 362.035L110.26 365.641L113.083 358.432L109.61 354.924L110.809 349.74L106.462 348.839L96.3429 339.599L97.0924 333.84L94.8188 334.516L92.745 331.814L94.1692 329.11L103.189 328.206L103.838 319.041L95.4684 310.702L89.5969 300.085L89.2471 288.466L84.8997 291.171L74.2311 270.086L72.3822 268.286L67.2853 270.99L63.7874 265.579L64.0123 265.228V256.89L69.5589 252.583L68.0348 250.104L71.083 245.146L63.2377 237.934L61.5138 230.597L64.8867 224.039L70.6583 227.317L73.7065 225.865L71.6327 221.009L64.8867 215.6L62.3882 210.39L64.5619 203.854L61.1889 191.784L56.8416 186.926L65.5363 178.588L66.7356 173.38L64.5619 166.493L66.9605 160.308L64.3371 154.424L69.0093 149.691L70.9831 141.903L77.0794 140.902L74.1312 131.862L81.102 125.655L77.0794 118.668L79.7278 116.037L81.7516 118.065L86.6487 112.03L84.5749 109.526L89.2471 111.104L96.3429 107.798L94.5939 103.591L98.2917 101.666L101.565 103.466L102.639 101.413L108.511 76.6977L107.536 71.5644L113.083 59.7227L120.279 61.1976L118.655 55.1628L125.276 52.9843L134.645 62.4496L141.166 59.4698L138.018 53.1095L132.796 52.5336L138.992 45.6975L143.24 46.023L146.338 36.7605L146.513 36.8081L146.313 37.4591L164.652 65.5046L159.005 65.2792L147.687 69.7114L148.337 72.4433L153.234 73.142L149.536 83.9595L157.906 98.5582L160.504 113.357L162.029 117.564L171.623 114.609L182.291 118.142L187.064 116.087L184.89 106.521L191.861 104.919L196.208 97.181L191.211 95.0275L194.484 85.8876L208.401 78.6033L216.796 77.9247L213.098 74.0434L230.513 75.1953L234.21 70.7381L236.909 73.0168L239.532 85.8876L244.754 94.3263L249.001 90.445L251.275 91.5969L253.349 87.042L257.696 82.5823L255.198 78.6033L260.644 77.3513L262.593 74.0434L258.696 66.4061L253.349 63.1007L252.799 58.4431L249.101 57.5191L250.526 52.7339H250.75L262.943 50.007L262.069 45.6724L266.191 45.998L267.615 40.1885L271.313 42.3671L273.162 36.5602L277.409 34.279L278.284 37.4591L281.007 35.9817L291.326 25.9404L300.046 24.463L307.017 11.3668L307.716 1L311.689 16.3749L304.743 29.4712L310.615 31.8751L314.312 34.6045L313.763 45.1967L311.264 46.1232L312.888 51.9326L319.309 53.5352L323.132 62.65L319.959 70.1621L314.087 74.7195L305.593 87.5904L311.064 92.1728L311.739 97.6317L309.34 99.685L311.064 102.765L306.842 107.197L309.615 118.142L307.866 119.394L305.917 124.876L303.519 124.65L304.068 129.533L301.12 130.335L295.524 143.456L297.922 147.087L302.469 146.413L307.491 152.22L314.987 152.573L317.71 156.452L323.707 158.38L334.175 173.758L332.776 176.51L330.578 175.708L329.728 173.88L323.957 183.796L311.864 178.666L308.391 181.392L303.719 180.491L296.948 170.575L298.797 167.37L296.623 163.842L291.726 164.19L285.105 170.45L290.327 179.918L293.8 178.788L299.571 186.876L298.497 189.956L302.719 199.397L315.836 207.51L321.933 205.684L325.431 212.067L327.604 210.339L329.778 212.518L330.653 216.953L327.929 221.508L332.376 227.342L332.052 233.955L337.274 233.151L337.174 234.403L340.447 233.955L341.846 236.682L339.797 239.762L338.148 238.836L337.823 242.592L334.575 241.69L335.874 246.248L334.026 250.805L338.373 263.804L341.896 265.629V265.854L344.519 274.546L347.592 282.381L343.395 290.269L344.444 298.808L346.618 302.789L345.044 307.797L342.046 313.281L340.771 317.914L352.464 322.822L353.139 330.034L355.388 329.257L356.962 332.838L361.684 332.212L367.83 335.593L369.179 336.995L368.43 341.076L375.476 340.05L382.896 347.963L385.145 347.011L387.693 352.971L382.671 365.241L382.896 373.456L384.32 373.779L388.443 370.249L392.191 359.306L398.262 352.245L401.86 352.019V357.102L407.107 361.009L408.606 366.493L405.758 369.247L407.931 371.977L413.103 366.267L415.277 367.196L422.697 374.781L423.072 382.919H427.27L430.343 388.403L437.838 382.293L440.537 375.031L446.683 373.779L446.908 369.773L449.756 367.196L453.204 367.444L455.078 370.499L455.903 368.997L458.976 370.724L462.274 385.423L466.171 379.013L468.42 384.797L478.464 384.497L477.939 375.407L485.51 369.773L485.36 363.838L489.632 363.763L492.93 353.497L491.506 344.582L494.879 344.357L491.656 337.846L493.005 329.082L494.954 330.034L496.678 324.001L503.574 319.391L506.572 308.824L505.073 305.469L521.388 316.637L525.211 313.131L531.382 312.129L534.405 318.44L538.803 319.066L539.053 319.116L542.775 319.842L545.249 320.393L548.072 320.168L548.947 320.293H551.445L559.266 318.668L561.114 317.015L563.063 316.812L564.462 315.71L564.687 314.634L564.038 314.085L563.813 312.355L564.787 311.253L565.662 307.021L566.736 305.919L566.861 304.843L569.559 303.09L580.628 303.766L584.101 303.09L584.875 302.889L585.85 303.09L587.149 304.743L588.548 304.091L589.972 304.192L591.596 304.517L592.995 305.494L593.995 305.168L594.195 304.292L595.719 304.517L599.292 305.719L600.941 307.447L603.089 306.373L606.887 306.245L612.209 307.672L613.308 308.977L614.508 307.873L615.682 307.672L620.354 309.2L622.528 310.827L624.701 314.085L625.026 314.533L625.351 316.164L625.251 318.214L625.126 319.316L625.026 319.742L624.252 321.82L624.052 322.246L623.927 322.346L622.853 323.548L620.129 324.527L614.932 324.202H614.508L614.283 323.974L614.058 323.548L613.833 323.122L614.508 322.246L612.759 321.044L612.983 319.093L611.459 319.742L611.035 319.967L609.186 319.416L608.411 320.067L610.485 322.797L608.536 323.548L606.787 321.82L603.864 321.144L603.214 322.672L601.365 323.548L600.066 326.806L599.516 328.231L600.166 328.331L601.041 326.478L601.915 326.378L602.565 327.254L602.44 328.656L598.317 331.16L595.619 331.814L593.345 331.486L589.098 332.788L584.001 332.588L583.901 333.564L583.776 333.765L585.2 334.318L586.924 338.122L591.921 340.626L592.146 340.726L596.493 342.028L597.468 341.83L597.568 343.33L598.217 344.334L600.291 345.834L601.79 344.006L601.465 342.356L604.838 342.904L602.24 345.734L602.665 347.264L603.439 347.164L603.964 345.186L605.813 343.455L606.362 339.975L607.112 339.098L608.211 338.998L609.386 339.752L609.71 340.2L610.685 341.602L611.035 343.681L612.534 344.532L612.109 346.059L613.958 346.936L615.582 345.734L616.231 342.028L617.756 340.851L619.604 340.075L620.454 340.951L618.405 343.881L618.305 344.983V345.083L618.955 345.509L622.303 343.881L623.827 342.156L621.978 340.726L621.228 338.222L619.804 337.471L619.38 335.943L619.48 329.535H621.978L623.177 329.433L626.55 328.105L627.3 331.386L626.325 332.039L626.101 331.386L624.601 331.26L624.252 332.688L625.576 336.269L626.101 337.896L626.75 338.547L627.3 339.226H628.074H628.924L630.023 339.975L630.123 340.075L631.547 342.028L632.072 342.904L633.371 343.555L634.346 344.106L633.596 349.54L634.471 350.517L634.57 352.698L636.419 352.144L644.115 353.346L644.764 353.472L646.938 355.099L651.061 355.625L658.331 354.776L660.955 355.951L661.155 356.176L662.779 358.254L665.402 359.657L665.277 360.533L670.174 359.005H670.824H670.924L675.921 358.455L680.793 359.331L683.841 358.78L685.265 358.58L687.639 358.254H687.739H687.864L687.964 358.129L690.137 357.481L692.311 355.425L695.334 351.493L702.505 351.393L703.054 350.967L705.228 349.768L708.151 350.316L711.724 349.315L711.949 348.564L716.721 348.989L724.217 347.912L729.963 346.711L736.809 345.186L743.305 346.059L747.553 346.838L749.926 346.385L750.476 345.734L751.226 346.16L751.45 346.285H754.049H754.274L755.023 345.634L756.223 344.432L756.997 344.206L757.522 344.006L757.972 343.881L762.619 344.883L765.992 344.334L767.616 343.13L768.39 343.455L772.713 342.804L773.712 343.355L774.687 343.03L775.536 342.704L776.411 342.256L777.71 341.83L777.835 341.73L778.684 340.3L786.504 340.726L788.129 340.075L788.678 340.2L789.003 340.3L789.753 340.526L792.701 343.555L793.126 344.983L793.55 346.711H793.675L794 348.338V350.316L792.801 350.742L792.901 355.951L790.627 359.757L789.877 361.735L790.077 362.261L788.678 364.339L787.904 364.893L784.556 367.269L784.331 367.369L784.106 367.269L783.681 366.943H780.308L779.784 366.718L776.835 365.867L773.812 368.897L773.912 371.2L772.713 372.931L775.536 372.177L776.411 373.254L777.935 384.897L779.559 388.155L782.157 396.742L782.707 398.597L783.256 401.424V401.527L783.581 403.18L783.456 407.309L783.356 412.192L783.681 415.347L783.781 416.974L783.906 427.542L783.256 430.021L782.482 432.525L782.382 432.85L782.282 432.975L781.283 434.28L779.134 437.433L778.159 439.388L777.71 440.262L773.812 443.618L771.414 444.068L766.866 446.9L763.393 448.075L763.268 448.726L763.069 449.83L763.393 450.153L765.117 451.881L764.468 452.334L763.493 452.883L761.769 451.13L760.245 451.355L759.271 451.781L758.072 452.334L751.026 455.487L742.781 457.017L737.884 459.068L736.809 460.595L736.035 463.099L735.71 463.199L734.311 463.951L733.536 465.481L730.188 466.455H729.314L722.793 466.905L718.145 468.107L711.949 469.409L708.801 470.389L707.177 470.912L700.006 475.171L697.083 477.675L690.887 484.734L688.938 486.813L687.864 488.217L687.539 488.643L684.491 493.974L682.867 498.006V498.234L681.992 504.091L681.892 504.541L681.792 505.193L681.243 509.324L681.118 509.65L680.793 511.928L684.266 528.13L683.941 529.983L682.442 531.059H681.792L677.22 530.959L674.197 530.408L664.428 528.681L658.006 526.73L655.408 525.951L638.268 521.822L636.095 522.045L633.821 518.439L630.773 516.611L628.599 515.835L629.149 516.488L630.123 517.688L633.696 519.966L635.67 523.247L635.77 524.549L626.55 530.634L624.577 532.487L616.007 540.75L613.083 545.633L610.585 547.812L605.163 549.014L601.915 551.292L598.767 551.943L598.442 552.071L596.818 552.72L594.32 553.696L587.374 555.549L585.85 555.749L584.326 555.875L581.177 556.3L578.904 556.626L572.383 559.355L569.559 560.535L556.317 563.262L554.169 563.687L549.821 565.217L541.676 569.246L538.103 572.83L534.181 581.541L533.531 581.967L531.357 583.171L530.058 583.92L529.309 584.897L524.312 591.533L521.163 594.587H521.063L519.115 598.296L517.466 600.121L513.243 601.226L510.645 601L507.047 599.796L501.75 596.218L492.081 591.332L490.132 593.06L488.608 592.96L485.36 591.332L483.511 589.705L475.591 583.171L475.041 582.746L472.543 581.641L470.494 581.742L467.346 582.293L459.525 580.014L457.901 579.363L455.952 578.587L453.129 577.51L440.862 572.83L433.491 569.246H433.041L430.343 569.146H429.144L426.645 568.27L419.474 565.866L406.782 564.138L399.936 563.262L396.913 561.734L395.164 561.409H390.941H390.517L390.617 561.509V561.634L391.266 562.836L395.164 562.06L395.614 562.285L398.862 563.687L398.537 564.564L395.938 564.013L391.266 564.238L386.169 565.643L385.72 565.766L380.423 567.168L378.249 568.27L375.95 569.447L369.354 571.3L368.58 571.525L363.808 572.076L353.939 573.155L349.166 573.704L348.192 573.804L341.246 573.255L330.178 574.129L328.979 574.355L325.181 574.78L318.11 577.51L315.961 578.263L312.588 578.912L304.768 580.342L297.497 583.044L291.976 583.697L286.104 586.302L285.779 586.65L283.931 588.052L283.281 588.48L280.682 591.432L280.358 590.656L281.557 589.579L279.608 587.626L279.933 585.648L277.759 585.548L277.959 587.301L274.486 587.401L273.962 587.826L274.061 588.928L273.187 590.656L275.036 589.78L276.01 590.13L278.734 593.288L280.133 591.858L277.959 598.068L275.261 602.625L272.987 605.355L271.788 605.555L269.514 604.153L264.392 597.943L264.067 597.617L258.97 592.835H258.871L256.372 591.432L244.329 585.222L242.48 582.493L243.23 579.563L244.004 579.338L244.329 580.114L243.455 581.742L244.229 582.393L245.404 581.416L245.628 579.137L246.603 578.689L247.153 578.912L247.902 578.036L248.777 574.029L250.95 572.176L251.375 571.725H252.674L256.372 573.804L259.42 574.555L262.019 572.927L263.093 573.255L263.868 572.83L263.743 571.725L266.141 568.921V566.742L267.34 563.788L267.44 562.385L266.466 562.16L265.392 564.013L264.717 568.147L260.27 572.051L258.321 572.702L256.372 571.625L256.472 570.551L253.874 569.772L253.124 568.37L253.224 567.168L257.446 563.462L255.298 563.039L255.398 562.385L255.722 559.556V559.33H255.622L255.073 559.455H254.848H254.748H254.423L254.198 559.33L253.324 558.905L253.224 560.858L252.349 561.734L254.198 563.687L252.25 566.842L251.7 569.447L250.725 569.547L248.227 568.147L247.153 562.936L247.802 560.958L247.377 559.656L243.555 559.105L243.23 559.005L243.03 559.105L242.38 559.455L242.48 561.509L243.355 563.362L244.429 566.842L243.88 572.83L243.03 573.704L239.232 569.572L236.409 568.695L235.959 568.047L237.159 567.721L236.609 564.99L237.059 562.813L237.808 561.183L238.458 559.781L238.583 559.33L239.007 557.377L238.258 557.052L236.084 557.928L235.21 557.805L234.785 557.705L234.01 558.153L232.711 558.804L229.238 558.031L228.364 558.254L227.389 559.556L227.065 559.656H226.965L225.865 559.881L223.916 558.905L222.942 556.501H221.868L217.62 559.33L217.42 564.338H216.221L214.697 563.239L214.147 561.509L212.848 562.16L212.748 567.919L213.623 570.751L213.173 573.155L213.623 576.959L212.323 578.364L213.173 578.912L214.697 578.163L215.122 577.485V577.385L215.796 576.408L215.996 577.885L216.121 578.812L215.671 579.989L204.278 583.697L201.13 583.044L199.506 580.768L198.307 579.989L198.757 578.486V578.263L200.056 573.904L201.03 572.051L202.005 570.225V570.098L201.355 569.021H199.281L200.056 566.842L200.905 567.268L201.03 565.966L200.256 565.415L199.831 564.238L200.705 563.913L202.429 564.338L203.204 564.439L203.304 563.788L203.079 563.587L202.754 563.462L199.406 561.083L198.307 559.13L198.856 556.826L195.933 556.726L195.708 557.477L196.683 560.209L196.258 560.635L194.409 560.858L190.711 559.556L190.486 559.455L187.563 558.354V558.254L186.489 557.052L185.29 557.377L184.09 558.679L183.99 558.804L182.141 556.826L182.042 559.556L183.99 559.881L187.139 560.432L187.788 561.309V563.687L186.489 564.789L186.589 565.543L187.563 564.99L189.187 564.238L189.737 567.268L189.837 567.621L192.335 570.551L193.76 572.176L193.435 572.83L192.335 573.155L191.036 573.478L191.811 574.129L193.959 573.478L194.084 574.58L195.608 576.408L195.484 576.734L195.284 577.935L193.11 578.163V578.912L190.387 580.99L191.361 581.316L193.76 581.216L194.284 581.742L192.785 583.595L192.66 583.697L191.686 584.346L190.486 585.222L189.512 585.022L186.689 581.742L186.589 581.641L185.614 581.416L179.318 579.363L177.919 577.935L177.594 576.633L173.347 570.774L169.549 568.37L168.15 568.047L166.951 567.822L162.928 564.564L154.133 560.432L151.635 557.605L150.56 555.649L149.486 554.675L146.013 551.292L144.914 550.216L142.965 548.137L137.093 541.301L136.569 540.525L135.919 540.324L134.945 539.999L134.17 538.897L134.945 536.068L134.62 533.789L135.594 532.812L136.994 531.513L136.894 529.883L134.945 529.334L134.17 529.106L133.745 529.009L133.845 529.334V529.757L134.62 530.083L135.045 530.208L135.694 530.534L135.27 531.185L133.421 533.238L133.521 535.967L131.347 542.055L129.498 538.146L127.999 537.72L127.674 536.393L120.403 532.161L119.079 533.789L118.655 533.689H118.005L115.082 531.085L114.432 529.106L114.107 528.781L113.333 528.13L112.683 528.58H112.583L112.458 530.734L112.908 531.085L113.333 531.413L115.406 532.812L119.304 534.565L122.227 535.216L124.201 536.521L128.424 542.278L132.221 547.611L132.446 547.812L133.421 548.813L134.17 549.467L134.72 551.618L139.717 556.426L140.566 557.928L141.341 558.254L142.09 556.1L142.965 555.975L143.939 556.751L144.914 560.758V560.983V563.262L148.062 566.091L148.162 566.968L147.962 567.293L147.312 568.047L149.261 567.521L150.885 568.495L151.76 568.37L151.635 566.968L152.309 566.742L152.409 567.721V569.046L150.785 570.674L149.361 572.204L147.312 574.254L143.939 580.342L141.216 581.116H141.016L136.994 580.465L131.472 580.89L128.973 580.465L129.298 577.51L127.999 573.278L126.35 574.48L126.675 572.204L122.352 570.125L121.803 568.821L119.729 566.968L119.304 567.944L121.903 570.999L125.5 572.73L125.276 574.805L126.15 575.559L127.349 575.456L127.549 575.882L127.874 576.433L127.549 580.465L128.324 581.641L130.922 583.394L132.646 583.62L131.472 585.575L129.623 586.549L127.999 587.301L124.526 587.754L117.455 590.03L116.481 590.23L108.985 592.634L105.512 593.288L102.489 592.634L100.091 590.23L99.9907 590.784L99.8908 591.232L99.9907 591.558L100.64 593.288L101.39 595.038V595.892V596.44L100.865 597.092L99.0163 597.317L98.7914 598.296H100.316L99.8908 600.347L97.7171 603.176L96.7427 603.404L95.8682 602.951L94.7688 605.255L93.9193 605.908L92.7201 605.255L90.5464 608.285L91.5208 609.712L93.4696 610.789L95.6433 610.689L96.093 611.242L95.8682 611.891L93.0449 611.665L88.8224 608.084L87.1734 606.657L86.4238 606.008L85.1246 605.58L84.3501 605.255L74.1562 601.774ZM98.6165 627.691L97.3423 628.217L95.4934 628.971L90.0217 629.92L87.848 629.294L87.6981 628.843L91.3209 627.942L91.9205 624.135L94.7189 623.484L96.4178 621.857L97.2424 619.303L99.3911 616.949L100.216 613.869L102.364 611.916L105.637 611.868L106.162 612.594L106.462 613.042L106.762 614.319L105.937 616.773L106.287 619.403L105.587 620.555L105.762 620.632L106.187 620.833L107.111 619.853V617.149L108.061 615.724L108.261 614.019L107.286 612.694L106.987 612.241L108.161 611.643L111.034 611.542L114.582 610.213L125.076 603.652L127.474 604.604L127.549 606.081L126.775 607.759L124.901 609.286L124.401 612.068L126.725 608.26L127.449 608.961L127.499 609.637L127.724 611.79L128.599 610.363L128.274 609.364L129.873 609.637L128.474 607.809L128.349 606.534L129.198 605.756L129.623 606.106L129.348 607.308L130.497 607.887L131.447 606.534L131.672 607.984L134.92 608.66L135.694 609.637L136.244 609.487L136.119 607.686L136.894 606.983L136.419 606.534L134.195 607.709L132.546 607.008L133.92 605.455L132.096 604.03L128.449 604.378L136.744 600.174L141.916 598.419L142.865 597.192L143.365 594.312L144.489 592.885L145.863 592.083L147.562 591.082L147.762 590.806L149.586 588.352L151.035 587.554L151.41 587.626L153.958 587.952L154.908 590.08L155.008 590.907V590.932L155.657 596.34L155.957 597.192L156.507 598.844L157.606 602.1L157.356 605.182L156.882 606.832L155.907 610.29L155.582 611.515L155.982 612.141L156.757 609.837L157.631 607.358L159.18 602.878L156.957 596.716L156.057 594.162L156.632 590.831L156.757 590.13L156.957 589.028L157.356 588.753L157.556 588.603L158.481 587.977L161.729 589.379L166.701 594.988L167.7 597.718L169.074 597.317L172.972 598.794L174.346 600.297L175.171 600.397L179.793 601.098L182.816 601.148H186.164L189.087 602.252L189.912 602.976L190.636 603.652L191.936 604.03L195.109 604.904L196.883 605.43L200.181 612.967L199.906 615.925L198.407 615.972L197.957 616.598L199.781 618.025L200.056 617.85L202.329 616.373L204.903 617.675L206.452 619.328L206.577 620.805L204.728 622.357L201.73 624.912L200.705 625.74L200.231 628.017L194.584 628.467L190.761 630.195L189.787 630.896L187.613 632.399L185.19 635.003L183.84 637.858L182.666 644.268L182.741 646.547L182.816 647.799L182.092 648.951L181.992 652.859L181.017 654.111L180.767 654.409L177.269 656.588L173.422 657.389L166.176 661.221L159.03 662.523L154.808 664L153.159 663.775L151.66 662.823L150.236 659.493L145.788 654.384L142.24 651.555L139.292 650.002L136.669 646.797L134.745 644.443L129.648 641.013L119.129 636.08L117.48 634.127L115.357 632.799L112.608 628.643L110.21 627.215L105.113 626.164L104.363 626.79L98.6165 627.691Z" stroke="white" stroke-width="2"/>
</svg>
