<svg width="44" height="44" viewBox="0 0 44 44" fill="none" xmlns="http://www.w3.org/2000/svg">
<path d="M32.8167 31.8815C32.3401 30.4148 30.9651 29.3332 29.3334 29.3332H27.5001V23.8332C27.5001 23.3469 27.3069 22.8806 26.9631 22.5368C26.6193 22.193 26.153 21.9998 25.6667 21.9998H14.6667V18.3332H18.3334C18.8196 18.3332 19.286 18.14 19.6298 17.7962C19.9736 17.4524 20.1667 16.9861 20.1667 16.4998V12.8332H23.8334C24.8059 12.8332 25.7385 12.4469 26.4261 11.7592C27.1138 11.0716 27.5001 10.139 27.5001 9.1665V8.41484C29.6936 9.29917 31.6402 10.7019 33.1732 12.5029C34.7062 14.3039 35.7799 16.4495 36.3025 18.7561C36.8251 21.0628 36.781 23.4617 36.1739 25.7475C35.5669 28.0334 34.4149 30.1381 32.8167 31.8815ZM20.1667 36.5382C12.9251 35.6398 7.33341 29.4798 7.33341 21.9998C7.33341 20.8632 7.48008 19.7632 7.71841 18.7182L16.5001 27.4998V29.3332C16.5001 30.3056 16.8864 31.2383 17.574 31.9259C18.2617 32.6135 19.1943 32.9998 20.1667 32.9998M22.0001 3.6665C19.5925 3.6665 17.2085 4.14071 14.9842 5.06205C12.7599 5.98338 10.7389 7.33381 9.03646 9.03621C5.59829 12.4744 3.66675 17.1375 3.66675 21.9998C3.66675 26.8621 5.59829 31.5253 9.03646 34.9635C10.7389 36.6659 12.7599 38.0163 14.9842 38.9376C17.2085 39.859 19.5925 40.3332 22.0001 40.3332C26.8624 40.3332 31.5255 38.4016 34.9637 34.9635C38.4019 31.5253 40.3334 26.8621 40.3334 21.9998C40.3334 19.5923 39.8592 17.2083 38.9379 14.984C38.0165 12.7597 36.6661 10.7386 34.9637 9.03621C33.2613 7.33381 31.2402 5.98338 29.0159 5.06205C26.7916 4.14071 24.4076 3.6665 22.0001 3.6665Z" fill="black"/>
</svg>
