<svg width="44" height="44" viewBox="0 0 44 44" fill="none" xmlns="http://www.w3.org/2000/svg">
<path fill-rule="evenodd" clip-rule="evenodd" d="M30.5414 3.6665C36.6464 3.6665 41.2499 8.64767 41.2499 15.2532V27.8445C41.2499 31.2252 40.0546 34.2795 37.8821 36.4465C35.9333 38.388 33.4051 39.4165 30.5708 39.4165H12.5069C9.67808 39.4165 7.15175 38.3898 5.20109 36.4465C3.02859 34.2795 1.83325 31.2252 1.83325 27.8445V15.2532C1.83325 8.64767 6.43675 3.6665 12.5418 3.6665H30.5414ZM30.5414 6.4165H12.5418C7.93092 6.4165 4.58325 10.1327 4.58325 15.2532V27.8445C4.58325 30.49 5.49258 32.8532 7.14258 34.4977C8.56525 35.9185 10.4224 36.6665 12.5124 36.6665H30.5414C30.5451 36.6628 30.5598 36.6665 30.5708 36.6665C32.6626 36.6665 34.5179 35.9185 35.9406 34.4977C37.5924 32.8532 38.4999 30.49 38.4999 27.8445V15.2532C38.4999 10.1327 35.1523 6.4165 30.5414 6.4165ZM33.4307 14.9026C33.9092 15.4911 33.8194 16.3565 33.2309 16.8368L25.0836 23.4588C24.0533 24.2765 22.8213 24.6853 21.5911 24.6853C20.3646 24.6853 19.1418 24.2801 18.1188 23.4698L9.89625 16.8405C9.30409 16.3638 9.21242 15.4966 9.68725 14.9063C10.1658 14.3178 11.0311 14.2243 11.6214 14.6991L19.8366 21.3211C20.8688 22.1388 22.3226 22.1388 23.3621 21.3138L31.4947 14.7028C32.0851 14.2206 32.9504 14.3123 33.4307 14.9026Z" fill="#1A1A1A"/>
</svg>
