<svg width="32" height="32" viewBox="0 0 32 32" fill="none" xmlns="http://www.w3.org/2000/svg">
<path fill-rule="evenodd" clip-rule="evenodd" d="M22.2119 2.6665C26.6519 2.6665 29.9999 6.28917 29.9999 11.0932V20.2505C29.9999 22.7092 29.1305 24.9305 27.5505 26.5065C26.1332 27.9185 24.2945 28.6665 22.2332 28.6665H9.09586C7.03852 28.6665 5.20119 27.9198 3.78252 26.5065C2.20252 24.9305 1.33319 22.7092 1.33319 20.2505V11.0932C1.33319 6.28917 4.68119 2.6665 9.12119 2.6665H22.2119ZM22.2119 4.6665H9.12119C5.76786 4.6665 3.33319 7.36917 3.33319 11.0932V20.2505C3.33319 22.1745 3.99452 23.8932 5.19452 25.0892C6.22919 26.1225 7.57986 26.6665 9.09986 26.6665H22.2119C22.2145 26.6638 22.2252 26.6665 22.2332 26.6665C23.7545 26.6665 25.1039 26.1225 26.1385 25.0892C27.3399 23.8932 27.9999 22.1745 27.9999 20.2505V11.0932C27.9999 7.36917 25.5652 4.6665 22.2119 4.6665ZM24.3132 10.8382C24.6612 11.2662 24.5959 11.8956 24.1679 12.2449L18.2425 17.0609C17.4932 17.6556 16.5972 17.9529 15.7025 17.9529C14.8105 17.9529 13.9212 17.6582 13.1772 17.0689L7.19719 12.2476C6.76652 11.9009 6.69986 11.2702 7.04519 10.8409C7.39319 10.4129 8.02252 10.3449 8.45186 10.6902L14.4265 15.5062C15.1772 16.1009 16.2345 16.1009 16.9905 15.5009L22.9052 10.6929C23.3345 10.3422 23.9639 10.4089 24.3132 10.8382Z" fill="#1A1A1A"/>
</svg>
