<svg width="140" height="140" viewBox="0 0 140 140" fill="none" xmlns="http://www.w3.org/2000/svg">
<path d="M66.9943 91.437L74.6872 84.6823C75.4448 84.0167 75.7752 82.9883 75.5457 82.0058L73.2625 72.2255C74.0708 71.5501 74.8961 70.8458 75.8063 70.0468L83.7675 83.5374C84.197 84.2653 84.9391 84.7536 85.7778 84.8603C86.6156 84.9664 87.457 84.6795 88.055 84.0821L93.9473 78.1958C94.6754 77.4681 94.9336 76.3935 94.6147 75.4146L88.8291 57.6456C91.0546 55.4031 92.9645 53.4067 95.3164 50.9168C96.1238 50.1785 99.9495 46.4289 99.9153 41.7001C99.9022 39.8937 99.293 37.2326 96.4706 34.8015C95.9937 34.3763 93.9965 32.7868 90.7945 32.7868C87.414 32.7868 83.9643 34.5084 80.5395 37.9047C80.0618 38.3064 77.9572 40.1013 74.5436 43.362L56.7756 37.5763C55.7978 37.2581 54.7224 37.5156 53.9948 38.2435L48.1079 44.1353C47.5097 44.7341 47.2223 45.5766 47.33 46.416C47.4377 47.2558 47.9283 47.9981 48.6586 48.4263L62.0224 56.2655C61.2589 57.1337 60.5157 57.9972 59.825 58.8194L50.1787 56.6295C49.2011 56.4074 48.1798 56.7386 47.5184 57.4922L40.7637 65.1875C40.1769 65.8561 39.9518 66.7685 40.1605 67.6331C40.3694 68.498 40.986 69.2071 41.8131 69.5344L56.7497 75.4395L62.6466 90.3859C62.9734 91.2138 63.6827 91.831 64.5475 92.0402C64.5475 92.0402 65.903 92.4572 66.9943 91.437ZM91.4163 47.0819C88.096 50.4714 86.2314 52.52 83.7803 54.9629C83.0505 55.6902 82.7916 56.7665 83.1104 57.7462L88.8952 75.5128L86.685 77.7211L78.8204 64.394C78.4018 63.6844 77.6854 63.2018 76.8708 63.0796C76.0557 62.9574 75.2299 63.2095 74.6215 63.7648C72.0944 66.0729 70.3392 67.5607 68.4812 69.084C67.6757 69.7446 67.3153 70.8056 67.5521 71.82L69.8479 81.6539L66.3071 84.7629L61.4016 72.3292C61.1238 71.6253 60.5671 71.0681 59.8636 70.7897L47.4361 65.8766L50.5552 62.3233L60.254 64.5253C61.2668 64.7549 62.3231 64.391 62.9794 63.5857C64.4868 61.7351 66.4296 59.4989 68.3092 57.4503C68.8676 56.8414 69.1211 56.0129 68.9986 55.1958C68.8761 54.3788 68.3904 53.661 67.6779 53.2429L54.4768 45.4992L56.6783 43.2958L74.4115 49.07C75.3754 49.3837 76.4339 49.1387 77.1615 48.4332C81.539 44.1889 84.1057 42.0514 84.1303 42.0309C84.1303 42.0309 87.8463 38.1839 90.7954 38.2553C90.7954 38.2553 92.2517 38.0759 93.6189 39.614C93.6189 39.614 94.49 40.5924 94.4474 41.7269C94.4466 41.7271 94.5808 43.8512 91.4163 47.0819ZM70.025 109.021C70.4809 109.006 80.7484 108.81 86.1133 119.761H109.381V103.114H75.6737C74.1635 103.114 72.9393 101.889 72.9393 100.379C72.9393 98.869 74.1635 97.6448 75.6737 97.6448H109.381V20.239H86.9213C82.1498 30.9078 70.5219 30.9791 70.5219 30.9791C70.0691 30.9955 59.7988 31.1908 54.4336 20.239H30.6194V28.2319C30.6194 29.7418 29.3952 30.9663 27.885 30.9663C26.3748 30.9663 25.1507 29.7418 25.1507 28.2319V17.5047C25.1507 15.9945 26.3748 14.7703 27.885 14.7703H56.2099C57.3274 14.7703 58.3329 15.4506 58.7482 16.488C62.2816 25.3108 69.675 25.5131 70.3039 25.5134C80.2833 24.7092 82.2275 17.2003 82.3057 16.8801C82.587 15.6333 83.6895 14.77 84.9679 14.77H112.116C113.626 14.77 114.85 15.9942 114.85 17.5044V122.495C114.85 124.005 113.626 125.229 112.116 125.229H84.3373C83.2198 125.229 82.2143 124.549 81.799 123.512C78.2659 114.69 70.873 114.487 70.2433 114.486C60.1206 115.302 58.2642 123.019 58.2467 123.097C57.9654 124.344 56.8577 125.229 55.5796 125.229H27.8848C26.3746 125.229 25.1504 124.005 25.1504 122.495V39.5801C25.1504 38.0699 26.3746 36.8457 27.8848 36.8457C29.395 36.8457 30.6191 38.0699 30.6191 39.5801V97.6448H64.3252C65.8354 97.6448 67.0596 98.869 67.0596 100.379C67.0596 101.889 65.8354 103.114 64.3252 103.114H30.6191V119.761H53.6259C58.3061 109.274 70.025 109.021 70.025 109.021Z" fill="white"/>
</svg>
