<svg width="24" height="25" viewBox="0 0 24 25" fill="none" xmlns="http://www.w3.org/2000/svg">
<path d="M17.5747 14.4569L17.5747 14.4568L17.5704 14.4609C17.1931 14.8266 17.0204 15.3546 17.1061 15.8717L17.1061 15.8718L17.1074 15.8789L17.9963 20.7985C17.9963 20.7986 17.9963 20.7986 17.9963 20.7987C18.0364 21.0221 17.9423 21.2487 17.7543 21.3786L17.7542 21.3784L17.7433 21.3863C17.5578 21.522 17.3095 21.5392 17.1047 21.4293L17.1047 21.4293L17.0996 21.4267L12.6744 19.1187C12.6737 19.1183 12.6729 19.1179 12.6722 19.1175C12.4484 18.9988 12.2023 18.9363 11.9537 18.9292L11.9465 18.929H11.9394H11.6684H11.6314L11.5947 18.9345C11.4469 18.9565 11.2998 19.0037 11.1627 19.078L6.74065 21.3948C6.61767 21.4558 6.47972 21.4776 6.34455 21.4574C6.02418 21.3931 5.81046 21.087 5.86129 20.7631L6.7504 15.848L6.75047 15.848L6.75177 15.8401C6.8371 15.3209 6.665 14.7927 6.29018 14.4237L6.28738 14.421L2.67655 10.9211C2.5136 10.763 2.45773 10.5269 2.53167 10.3142L2.53301 10.3103C2.60729 10.0907 2.79603 9.93109 3.0236 9.89432L7.98091 9.17516C8.52474 9.11522 9.00098 8.78284 9.2456 8.29361L9.24562 8.29362L9.24778 8.28919L11.4346 3.80581C11.4592 3.75945 11.4882 3.71909 11.52 3.68553L11.5854 3.63467L11.6199 3.60777L11.6493 3.57527C11.6542 3.56989 11.6596 3.56464 11.6658 3.55951L11.7206 3.53939L11.7298 3.53604L11.7388 3.53234L11.8173 3.5H12.1098C12.3086 3.52773 12.4811 3.64907 12.5734 3.8261L14.7893 8.28975C14.7895 8.29025 14.7898 8.29074 14.79 8.29124C15.0227 8.76562 15.4735 9.09369 15.9927 9.17323L15.9927 9.17325L15.9966 9.17382L20.9666 9.89482L20.9677 9.89497C21.2005 9.92823 21.3958 10.0883 21.4745 10.3097C21.5429 10.5246 21.4819 10.7599 21.3163 10.9154L21.3147 10.9169L17.5747 14.4569Z" stroke="black"/>
</svg>
