<svg width="24" height="24" viewBox="0 0 24 24" fill="none" xmlns="http://www.w3.org/2000/svg">
<path fill-rule="evenodd" clip-rule="evenodd" d="M1 2.83825C1 2.35078 1.19365 1.88328 1.53834 1.53858C1.88303 1.19389 2.35053 1.00025 2.838 1.00025H21.16C21.4016 0.999852 21.6409 1.04711 21.8641 1.13931C22.0874 1.23152 22.2903 1.36686 22.4612 1.53758C22.6322 1.70831 22.7677 1.91107 22.8602 2.13426C22.9526 2.35744 23.0001 2.59667 23 2.83825V21.1602C23.0003 21.4019 22.9529 21.6412 22.8606 21.8645C22.7683 22.0878 22.6328 22.2907 22.462 22.4616C22.2912 22.6325 22.0884 22.768 21.8651 22.8604C21.6419 22.9529 21.4026 23.0004 21.161 23.0002H2.838C2.59655 23.0002 2.35746 22.9527 2.1344 22.8602C1.91134 22.7678 1.70867 22.6323 1.53798 22.4616C1.3673 22.2908 1.23193 22.088 1.13962 21.8649C1.04731 21.6418 0.999869 21.4027 1 21.1612V2.83825ZM9.708 9.38825H12.687V10.8842C13.117 10.0242 14.217 9.25025 15.87 9.25025C19.039 9.25025 19.79 10.9632 19.79 14.1062V19.9282H16.583V14.8222C16.583 13.0322 16.153 12.0222 15.061 12.0222C13.546 12.0222 12.916 13.1112 12.916 14.8222V19.9282H9.708V9.38825ZM4.208 19.7912H7.416V9.25025H4.208V19.7902V19.7912ZM7.875 5.81225C7.88105 6.08692 7.83217 6.36003 7.73124 6.61556C7.63031 6.87109 7.47935 7.10388 7.28723 7.30028C7.09511 7.49668 6.8657 7.65272 6.61246 7.75925C6.35921 7.86579 6.08724 7.92066 5.8125 7.92066C5.53776 7.92066 5.26579 7.86579 5.01255 7.75925C4.7593 7.65272 4.52989 7.49668 4.33777 7.30028C4.14565 7.10388 3.99469 6.87109 3.89376 6.61556C3.79283 6.36003 3.74395 6.08692 3.75 5.81225C3.76187 5.2731 3.98439 4.76004 4.36989 4.38293C4.75539 4.00583 5.27322 3.79466 5.8125 3.79466C6.35178 3.79466 6.86961 4.00583 7.25512 4.38293C7.64062 4.76004 7.86313 5.2731 7.875 5.81225Z" fill="#D5D9DB"></path>
</svg>
