<svg width="24" height="24" viewBox="0 0 24 24" fill="none" xmlns="http://www.w3.org/2000/svg">
<g clip-path="url('#clip0_86_602')">
<path d="M11.997 8.32884C9.97547 8.32884 8.32571 9.97863 8.32571 12.0002C8.32571 14.0219 9.97547 15.6716 11.997 15.6716C14.0186 15.6716 15.6684 14.0219 15.6684 12.0002C15.6684 9.97863 14.0186 8.32884 11.997 8.32884ZM23.0083 12.0002C23.0083 10.4799 23.0221 8.97333 22.9367 7.45575C22.8513 5.69303 22.4492 4.12862 21.1602 2.83964C19.8685 1.5479 18.3069 1.14853 16.5442 1.06315C15.0239 0.977771 13.5174 0.991542 11.9998 0.991542C10.4795 0.991542 8.97294 0.977771 7.45538 1.06315C5.6927 1.14853 4.12832 1.55065 2.83936 2.83964C1.54764 4.13138 1.14829 5.69303 1.06291 7.45575C0.977527 8.97609 0.991298 10.4827 0.991298 12.0002C0.991298 13.5178 0.977527 15.0272 1.06291 16.5447C1.14829 18.3075 1.5504 19.8719 2.83936 21.1609C4.13107 22.4526 5.6927 22.852 7.45538 22.9373C8.9757 23.0227 10.4822 23.009 11.9998 23.009C13.5201 23.009 15.0267 23.0227 16.5442 22.9373C18.3069 22.852 19.8713 22.4498 21.1602 21.1609C22.452 19.8691 22.8513 18.3075 22.9367 16.5447C23.0248 15.0272 23.0083 13.5206 23.0083 12.0002ZM11.997 17.6492C8.87104 17.6492 6.3482 15.1263 6.3482 12.0002C6.3482 8.87418 8.87104 6.3513 11.997 6.3513C15.123 6.3513 17.6459 8.87418 17.6459 12.0002C17.6459 15.1263 15.123 17.6492 11.997 17.6492ZM17.8772 7.43922C17.1474 7.43922 16.558 6.84981 16.558 6.11994C16.558 5.39007 17.1474 4.80066 17.8772 4.80066C18.6071 4.80066 19.1965 5.39007 19.1965 6.11994C19.1967 6.29325 19.1627 6.4649 19.0965 6.62506C19.0303 6.78523 18.9331 6.93075 18.8106 7.0533C18.688 7.17585 18.5425 7.27302 18.3824 7.33924C18.2222 7.40546 18.0505 7.43944 17.8772 7.43922Z" fill="#D5D9DB"></path>
</g>
<defs>
<clipPath id="clip0_86_602">
<rect width="24" height="24" fill="white" transform="translate(0 0.000244141)"></rect>
</clipPath>
</defs>
</svg>
