<svg width="32" height="33" viewBox="0 0 32 33" fill="none" xmlns="http://www.w3.org/2000/svg">
<path d="M16.1886 9.5598C15.8766 9.72812 15.6821 10.0482 15.6821 10.3963V15.8169H4.97906C4.43862 15.8169 4 16.2453 4 16.7732C4 17.3011 4.43862 17.7296 4.97906 17.7296H15.6821V23.1502C15.6821 23.4996 15.8766 23.8196 16.1886 23.9867C16.5006 24.1563 16.8818 24.1448 17.1834 23.9599L27.5431 17.583C27.8277 17.407 28 17.1022 28 16.7732C28 16.4443 27.8277 16.1395 27.5431 15.9635L17.1834 9.58658C17.0241 9.48967 16.8426 9.43994 16.6612 9.43994C16.4993 9.43994 16.3361 9.48075 16.1886 9.5598Z" fill="black"></path>
</svg>
