<svg width="32" height="32" viewBox="0 0 32 32" fill="none" xmlns="http://www.w3.org/2000/svg">
<path fill-rule="evenodd" clip-rule="evenodd" d="M5.81267 6.74775C5.81534 6.74775 5.74867 6.81709 5.66467 6.89975C5.34201 7.21309 4.674 7.86509 4.66727 9.22909C4.65667 11.1371 5.91134 14.6798 11.9527 20.7198C17.966 26.7304 21.5033 27.9998 23.4153 27.9998H23.4433C24.8073 27.9931 25.458 27.3238 25.7727 27.0024C25.8687 26.9038 25.946 26.8318 26.0007 26.7864C27.3287 25.4504 28.0087 24.4558 28.0021 23.8184C27.9927 23.1678 27.1833 22.3984 26.0647 21.3344C25.7087 20.9958 25.322 20.6278 24.914 20.2198C23.8567 19.1651 23.3327 19.3451 22.1807 19.7504C20.5873 20.3091 18.4007 21.0691 15.0033 17.6704C11.6007 14.2704 12.362 12.0864 12.9193 10.4931C13.322 9.34109 13.506 8.81575 12.4473 7.75709C12.0327 7.34375 11.6607 6.95175 11.318 6.59175C10.2607 5.47975 9.49801 4.67575 8.85134 4.66642H8.84067C8.202 4.66642 7.21 5.34909 5.80601 6.75309C5.81 6.74909 5.81134 6.74775 5.81267 6.74775ZM23.4167 29.9998C20.094 29.9998 15.762 27.3544 10.5393 22.1344C5.29667 16.8931 2.64734 12.5478 2.66723 9.21842C2.67934 7.01842 3.83267 5.89175 4.266 5.46909C4.28867 5.44109 4.366 5.36509 4.39267 5.33842C6.30467 3.42509 7.594 2.65175 8.87667 2.66621C10.366 2.68642 11.426 3.80109 12.7673 5.21309C13.0993 5.56242 13.4593 5.94242 13.8607 6.34242C15.8073 8.28909 15.2527 9.87709 14.8073 11.1518C14.322 12.5424 13.902 13.7424 16.4167 16.2571C18.934 18.7718 20.134 18.3518 21.5193 17.8624C22.7953 17.4171 24.3793 16.8598 26.3287 18.8064C26.7233 19.2011 27.098 19.5571 27.4433 19.8864C28.862 21.2344 29.982 22.2998 30.0009 23.7931C30.0167 25.0664 29.2433 26.3638 27.334 28.2744L26.4887 27.7011L27.2033 28.3998C26.7807 28.8331 25.6553 29.9878 23.454 29.9998H23.4167Z" fill="#1A1A1A"></path>
</svg>
