<svg width="140" height="140" viewBox="0 0 140 140" fill="none" xmlns="http://www.w3.org/2000/svg">
<path d="M61.3252 63.7372C61.3252 57.852 56.5362 53.0638 50.6497 53.0638C44.7631 53.0638 39.9741 57.852 39.9741 63.7372C39.9741 69.6237 44.7631 74.4127 50.6497 74.4127C56.5362 74.4127 61.3252 69.6237 61.3252 63.7372ZM50.6497 68.944C47.7786 68.944 45.4429 66.6083 45.4429 63.7372C45.4429 60.8672 47.7786 58.5326 50.6497 58.5326C53.5207 58.5326 55.8564 60.8674 55.8564 63.7372C55.8564 66.6083 53.5207 68.944 50.6497 68.944ZM70.0003 14.7659C63.0082 14.7659 56.1922 16.0557 49.7418 18.5997C48.3369 19.1537 47.6473 20.7418 48.2013 22.1468C48.7555 23.5517 50.3437 24.2413 51.7483 23.6873C57.557 21.3962 63.6978 20.2346 70.0003 20.2346C80.7229 20.2346 90.6642 23.6433 98.7979 29.4341H80.9126C73.8385 29.4341 68.0835 35.0877 68.0835 42.0369C68.0835 48.986 73.8385 54.6396 80.9126 54.6396H97.282C99.7927 54.6396 101.835 56.6095 101.835 59.0308C101.835 61.4518 99.7924 63.4216 97.282 63.4216H92.1222C86.3521 63.4216 81.6577 68.0381 81.6577 73.7122C81.6577 79.3871 86.3521 84.0038 92.1222 84.0038H98.5059C100.016 84.0038 101.24 82.7796 101.24 81.2694C101.24 79.7592 100.016 78.535 98.5059 78.535H92.1222C89.3676 78.535 87.1265 76.3713 87.1265 73.7122C87.1265 71.0532 89.3673 68.8904 92.1222 68.8904H97.282C102.808 68.8904 107.304 64.4672 107.304 59.0308C107.304 53.594 102.808 49.1709 97.282 49.1709H80.9126C76.854 49.1709 73.5522 45.9706 73.5522 42.0369C73.5522 38.1032 76.854 34.9029 80.9126 34.9029H105.247C114.215 43.908 119.766 56.3174 119.766 69.9997C119.766 72.9096 119.513 75.761 119.031 78.535H109.854C108.344 78.535 107.12 79.7592 107.12 81.2694C107.12 82.7796 108.344 84.0038 109.854 84.0038H117.757C111.693 104.648 92.5802 119.765 70.0003 119.765C57.7112 119.765 46.4499 115.285 37.7584 107.876H65.4538C71.7864 107.876 76.9385 102.812 76.9385 96.5871C76.9385 90.3626 71.7864 85.2985 65.4538 85.2985H62.7678C68.7184 76.688 71.7355 69.6907 71.7355 64.4902C71.7355 52.8636 62.2765 43.4049 50.6499 43.4049C40.6189 43.4049 32.2074 50.4478 30.0858 59.8467H21.2827C23.8998 47.2645 31.319 36.0513 42.2231 28.7022C43.4755 27.8581 43.8063 26.1586 42.9622 24.9066C42.1184 23.654 40.4182 23.3234 39.1666 24.1672C23.8875 34.4651 14.7656 51.5987 14.7656 69.9997C14.7656 100.456 39.5437 125.234 70.0003 125.234C100.457 125.234 125.235 100.456 125.235 69.9997C125.235 39.5437 100.457 14.7659 70.0003 14.7659ZM50.6497 48.8734C59.2607 48.8734 66.2665 55.8791 66.2665 64.4899C66.2665 72.1235 56.3921 85.3423 50.6846 92.0653C44.972 85.1306 35.0328 71.5903 35.0328 64.4899C35.0328 55.8788 42.0386 48.8734 50.6497 48.8734ZM52.6701 98.0954C52.8035 97.9259 55.4673 95.0176 58.7579 90.7673H65.4538C68.7712 90.7673 71.4697 93.3781 71.4697 96.5871C71.4697 99.7965 68.7712 102.407 65.4538 102.407H32.2643C24.7704 93.6936 20.2344 82.3667 20.2344 69.9997C20.2344 68.4266 20.309 66.8636 20.455 65.3154H29.5936C29.9201 70.3275 33.1565 77.2778 39.2306 85.9974C43.8523 92.6327 48.4025 97.8373 48.5939 98.0557C49.1069 98.6409 49.8449 98.9797 50.6231 98.9874C50.6231 98.9871 51.917 99.0519 52.6701 98.0954Z" fill="white"></path>
</svg>
