<svg width="531" height="778" viewBox="0 0 531 778" fill="none" xmlns="http://www.w3.org/2000/svg">
<g clip-path="url('#clip0_93_4599')">
<path opacity="0.5" d="M-388.105 692.078L-388.245 693.498L-386.852 695.465L-387.129 696.76L-385.881 697.179L-385.742 697.723L-387.323 699.514L-386.994 702.871L-385.687 704.632L-383.424 704.165L-382.305 705.434L-378.473 703.874L-377.661 704.608L-375.912 704.932L-375.014 705.872L-374.269 708.8L-371.78 711.467L-371.675 711.82L-371.384 712.501L-369.845 713.892L-368.873 717.862L-366.896 717.265L-365.726 718.87L-363.837 717.647L-360.174 719.991L-354.197 720.209L-352.657 721.472L-351.002 718.492L-348.387 717.924L-347.511 716.172L-344.971 714.701L-344.753 714.607L-344.602 714.615L-343.008 714.671L-341.238 715.272L-338.407 714.482L-337.526 715.407L-334.89 715.406L-334.331 713.98L-331.493 714.033L-330.022 713.237L-328.203 713.915L-327.861 712.55L-323.839 711.838L-322.607 712.404L-319.761 711.465L-318.448 711.686L-317.525 709.59L-315.632 709.047L-314.334 707.58L-313.244 707.438L-310.904 706.042L-310.206 703.034L-307.724 702.637L-308.386 701.749L-309.849 701.554L-310.648 700.252L-310.248 698.103L-310.467 697.776L-311.044 696.964L-311.35 696.559L-311.445 695.218L-310.712 694.463L-310.279 694.018L-310.212 693.949L-310.437 693.199L-310.507 692.846L-310.076 692.108L-308.932 690.501L-309.447 688.909L-310.904 687.303L-312.168 686.868L-312.958 686.573L-312.896 685.921L-310.035 686.833L-309.667 686.875L-308.21 688.191L-308.05 689.335L-306.889 689.676L-301.485 689.246L-297.469 689.655L-292.201 691.196L-291.844 691.679L-291.777 691.74L-291.405 692.205L-290.807 693.293L-289.924 694.509L-289.553 694.716L-289.351 694.769L-288.534 694.091L-287.317 692.969L-285.857 692.872L-286.982 690.76L-286.455 689.53L-283.108 688.079L-282.351 686.413L-279.223 684.764L-274.039 684.393L-269.295 685.202L-268.13 684.002L-265.517 683.143L-265.072 684.254L-262.219 684.03L-260.563 683.305L-259.965 682.429L-257.562 682.636L-255.173 681.317L-253.12 681.756L-249.042 683.509L-247.935 683.383L-243.381 687.916L-241.71 686.915L-240.318 686.756L-239.245 684.667L-237.705 683.934L-237.58 682.952L-235.526 683.391L-233.565 682.941L-232.316 683.781L-230.945 683.055L-229.253 684.584L-226.929 683.335L-224.814 683.283L-224.231 682.973L-222.857 682.411L-219.837 684.142L-215.095 687.042L-214.129 688.206L-214.465 690.252L-213.309 689.912L-212.498 692.609L-209.89 691.199L-208.272 691.953L-207.969 694.191L-206.352 694.943L-205.916 694.919L-205.849 692.597L-204.31 693.988L-203.505 693.878L-203.668 692.346L-203.023 691.093L-200.478 690.173L-198.109 686.454L-197.969 684.907L-195.859 684.431L-200.599 692.157L-199.005 691.795L-198.208 690.68L-196.384 689.816L-193.464 691.907L-193.759 690.514L-192.964 689.139L-193.794 688.26L-192.915 686.93L-192.632 686.638L-188.405 686.272L-187.818 686.223L-186.054 686.143L-180.875 687.056L-178.245 688.305L-175.956 691.082L-174.949 691.026L-175.011 691.646L-174.421 692.18L-174.115 692.456L-173.175 692.339L-172.527 691.508L-171.65 692.044L-171.415 694.059L-167.756 695.981L-165.979 697.715L-165.394 699.5L-165.664 701.349L-163.562 701.735L-162.155 701.3L-161.128 701.809L-160.272 701.617L-159.475 700.534L-159.187 700.794L-159.09 702.395L-155.925 705.545L-155.421 705.582L-155.209 704.808L-154.622 704.759L-152.511 706.409L-151.163 708.883L-152.148 711.598L-151.876 712.005L-149.961 712.191L-148.307 711.174L-148.095 710.399L-148.079 710.253L-148.912 708.952L-148.616 708.222L-146.599 706.439L-147.481 705.352L-147.123 703.839L-145.294 703.689L-143.93 702.121L-137.938 703.897L-136.853 703.074L-134.002 702.689L-133.559 703.508L-132.684 703.751L-131.815 703.151L-131.302 702.198L-131.589 702.068L-135.551 700.033L-134.277 697.707L-135.456 695.225L-136.617 694.884L-138.771 692.39L-139.354 690.736L-140.665 690.807L-140.684 690.242L-140.754 689.889L-139.953 689.358L-137.764 690.08L-136.248 688.649L-135.425 688.813L-134.482 688.989L-134.404 690.315L-133.591 691.179L-134.003 694.445L-133.782 694.515L-130.269 697.271L-130.086 698.95L-127.107 699.839L-125.866 699.834L-124.694 699.219L-123.675 700.848L-124.736 704.655L-124.073 705.382L-121.162 704.084L-120.366 704.965L-120.051 704.38L-121.036 703.104L-120.595 701.538L-120.904 700.84L-118.739 698.74L-118.233 696.685L-117.298 695.985L-114.595 695.916L-112.256 696.613L-110.809 694.862L-108.33 694.3L-108.267 693.649L-108.279 692.093L-107.191 691.691L-107.202 690.555L-105.941 690.567L-105.096 689.109L-100.452 686.318L-97.8191 685.735L-89.0525 688.216L-88.54 689.098L-83.4793 691.997L-82.0879 691.708L-80.9252 692.212L-79.7436 692.99L-79.8788 694.96L-78.9993 695.755L-76.5085 696.461L-75.9947 697.923L-75.3367 698.099L-75.2579 697.462L-74.2508 697.406L-73.9701 696.822L-73.5225 696.1L-72.2168 695.606L-71.621 696.82L-70.4696 695.929L-70.768 694.114L-68.214 694.329L-66.896 695.359L-65.438 695.002L-65.0761 694.073L-62.2492 692.732L-61.5892 693.586L-60.4316 693.247L-59.9062 693.851L-56.1967 691.6L-55.9867 692.66L-54.5695 693.49L-53.3426 693.632L-51.4568 692.406L-46.434 692.47L-42.386 694.711L-40.5501 697.497L-39.3334 696.375L-38.232 695.535L-36.6184 695.737L-36.4073 696.926L-34.7104 697.043L-32.169 695.701L-27.0079 696.469L-23.1461 694.356L-21.314 694.595L-18.989 693.476L-17.7587 694.04L-16.0663 693.606L-13.0038 694.409L-11.0113 695.791L-9.7708 697.62L-6.10986 699.963L-0.745254 704.939L-0.821425 704.033L-0.538959 703.452L-0.173627 702.944L0.410924 702.764L0.206323 704.254L0.1241 704.469L0.652923 705.495L2.34841 707.735L10.8744 715.569L10.7996 716.499L11.7648 717.5L11.9983 719.385L14.2502 719.617L15.7241 721.239L16.6849 723.782L18.2329 724.182L20.9337 725.947L24.6647 726.356L25.0392 726.984L27.1511 726.51L28.5509 727.485L28.917 728.943L29.7261 729.545L31.6277 729.847L32.1486 729.899L33.9771 731.97L38.354 733.156L42.3293 737.006L44.6529 737.593L45.7799 740.125L47.4629 740.39L48.2839 742.259L49.292 742.332L50.1963 744.115L52.024 743.803L54.576 745.852L55.3798 745.58L55.5963 745.357L57.7723 742.429L63.7718 736.807L64.2612 735.027L65.4731 731.228L67.9343 728.268L68.852 725.459L69.1055 721.502L68.368 719.58L68.5685 717.379L70.0825 713.563L74.3434 708.88L80.3588 705.236L82.473 705.054L85.7503 705.633L88.3205 705.573L92.1796 705.422L97.8858 706.94L101.812 706.592L104.132 704.889L104.284 704.897L106.095 704.86L107.278 705.639L109.185 706.815L113.205 707.904L114.21 707.298L114.937 705.863L114.791 704.443L113.537 705.016L112.875 704.418L112.36 702.826L113.245 702.209L115.628 702.012L115.548 700.393L114.225 698.78L110.639 697.632L109.015 696.165L114.122 696.593L119.476 700.305L120.224 701.399L124.084 701.12L126.051 699.388L127.804 700.264L128.525 700.078L130.249 697.322L132.217 695.72L134.395 695.337L136.154 696.637L139.657 687.502L140.591 686.801L139.066 695.501L138.422 696.851L135.302 699.215L133.918 698.383L131.074 699.742L127.245 703.816L126.652 703.151L125.712 703.139L122.43 704.52L120.031 704.574L119.085 703.848L119.011 702.943L118.205 703.053L117.518 709.579L119.071 712.529L120.849 714.393L126.801 719.772L126.718 719.858L127.014 720.962L126.002 722.43L125.882 724.415L126.613 725.365L128.381 725.965L128.519 726.379L129.047 727.404L128.79 732.902L130.315 732.607L134.658 727.709L135.747 727.438L138.525 728.273L142.27 730.401L145.929 734.707L145.96 736.248L144.951 738.298L146.199 738.717L147.647 737.225L149.454 736.346L152.517 737.44L154.83 734.636L155.927 733.245L158.694 732.815L163.188 730.146L163.487 729.58L165.315 729.267L166.681 727.991L169.291 727L170.082 724.914L175.687 722.412L176.549 721.098L178.203 720.082L178.117 717.911L179.261 713.76L180.413 712.999L181.44 713.347L182.526 712.654L183.691 713.449L187.026 710.571L193.697 705.136L195.358 702.87L198.557 701.704L201.695 701.449L204.804 699.653L207.192 695.919L207.175 694.101L207.809 693.289L210.652 691.93L211.163 690.717L213.063 691.308L213.776 689.988L215.957 689.737L218.279 688.196L219.564 685.3L222.909 681.594L224.789 681.361L228.889 681.975L229.957 681.137L230.146 677.251L233.182 672.718L235.647 670.179L241.472 659.634L241.555 659.419L247.818 651.104L247.876 647.937L254.112 644.492L258.493 644.523L260.791 641.995L262.464 641.286L264.855 638.101L268.069 630.38L269.303 629.403L269.218 629.196L270.658 624.606L270.648 623.341L270.341 622.934L269.241 621.651L271.619 618.776L273 617.223L273.131 614.669L272.177 612.969L272.166 605.425L273.675 603.022L276.947 600.666L278.615 599.372L281.003 595.638L284.689 592.529L286.053 588.867L289.381 587.141L292.923 582.937L297.013 581.996L297.426 581.113L304.901 577.532L309.36 576.507L309.561 576.431L311.159 574.655L312.016 572.628L314.792 571.208L317.909 570.676L322.486 567.536L323.053 567.082L324.12 564.279L326.735 561.587L328.525 556.346L334.849 553.528L340.02 553.468L341.841 552.57L342.203 551.642L342.271 551.703L343.068 550.33L343.201 550.193L344.877 549.872L346.344 550.779L348.386 552.077L350.007 552.962L351.769 555.134L352.531 558.045L354.302 560.901L355.119 564.311L368.181 572.477L370.23 574.618L370.744 575.92L368.889 578.976L368.819 580.749L369.905 580.055L370.783 578.595L371.362 577.573L373.161 575.721L373.419 572.316L376.429 573.072L377.071 573.523L379.64 575.426L382.516 578.154L382.405 580.984L383.196 581.28L384.722 580.985L385.592 580.805L388.803 578.941L390.398 579.126L394.812 582.825L395.548 584.618L394.047 585.902L394.187 586.608L402.752 582.595L401.797 581.024L406.009 578.39L410.305 578.087L413.366 578.631L414.891 578.335L418.42 580.686L419.944 580.229L420.313 580.143L421.43 581.282L425.642 580.902L427.767 582.114L430.032 582.068L431.114 582.788L437.6 581.501L447.159 581.897L451.302 579.2L453.64 579.768L455.811 578.252L456.257 577.367L455.814 576.548L456.751 576.139L457.393 574.498L459.129 573.265L460.962 573.666L464.228 572.56L463.776 570.896L464.429 568.395L464.832 566.538L465.647 567.403L465.309 569.19L465.531 571.774L466.117 571.756L465.76 573.108L470.513 573.475L471.611 574.048L485.203 577.09L489.375 580.184L489.678 580.297L491.654 581.825L498.149 581.254L502.39 582.414L504.208 582.962L505.52 583.311L506.694 583.374L507.351 583.42L508.959 582.909L509.311 582.808L515.216 582.123L518.795 582.428L529.629 587.034L534.014 587.358L537.063 586.475L541.127 586.541L542.014 586.216L545.075 584.764L551.116 584.492L553.304 584.956L557.111 586.432L558.867 587.6L561.149 589.501L564.063 588.496L564.431 588.41L566.177 588.313L568.208 588.217L569.884 587.896L572.345 584.807L574.089 584.58L575.042 584.024L578.03 583.923L581.444 582.533L585.82 582.012L586.993 583.49L589.129 586L589.298 588.504L588.241 592.732L586.795 594.646L584.837 597.223L584.268 599.639L586.771 601.772L592.319 602.857L593.693 602.296L594.138 601.281L593.155 598.3L593.657 595.824L595.142 592.561L595.455 591.975L595.864 588.577L597.011 587.102L601.382 585.449L602.697 586.09L603.733 587.574L603.521 590.473L603.538 590.747L604.709 591.965L605.087 593.145L605.312 593.895L604.804 593.436L602.811 591.924L602.08 590.846L601.486 590.019L601.472 588.332L602.058 588.153L602.554 587.088L601.677 586.714L599.43 587.034L597.81 588.114L597.031 589.341L597.12 592.095L595.421 597.965L596.333 600.882L596.558 601.504L595.681 603.094L594.021 603.687L592.55 604.193L590.149 604.245L585.538 603.041L582.524 599.898L582.23 598.763L583.148 596.116L585.331 594.031L586.198 593.269L586.899 590.683L587.127 589.762L584.768 588.757L577.783 590.977L571.958 591.026L567.085 592.644L564.808 591.423L559.493 592.352L555.094 590.341L553.363 590.161L550.218 591.536L548.051 591.511L547.248 591.912L544.69 593.239L543.598 593.089L541.632 592.987L541.13 593.242L532.406 596.402L530.934 596.907L525.898 597.25L524.153 597.219L521.834 597.056L519.77 595.061L514.725 594.141L512.887 593.188L509.176 593.184L507.927 592.344L505.717 588.93L505.498 588.861L505.279 588.825L503.445 588.294L503.472 589.832L504.561 591.396L504.968 591.925L505.019 591.938L506.552 592.615L506.589 593.163L506.644 593.793L506.794 595.667L506.795 595.701L507.46 596.848L507.596 597.068L509.994 598.817L510.028 598.847L510.416 599.134L510.398 599.182L510.244 600.62L509.375 601.155L509.373 601.186L509.392 601.235L509.348 601.935L509.349 602.13L509.484 602.187L510.698 602.866L511.858 602.98L512.832 603.056L514.731 603.226L515.304 603.68L515.981 604.163L515.982 604.228L515.989 605.168L515.99 605.201L515.081 605.12L514.106 605.044L514.699 605.483L514.724 606.504L512.523 606.351L512.492 606.644L512.509 606.66L514.267 608.12L515.352 607.362L517.155 606.093L518.608 605.055L519.85 605.051L520.089 605.492L520.498 606.183L520.515 606.231L520.384 606.693L520.106 607.858L519.767 609.258L521.841 610.36L522.836 610.872L522.886 610.886L523.073 611.184L523.124 611.262L523.566 611.854L523.549 611.903L523.509 613.155L523.429 615.691L523.885 616.071L526.049 613.872L526.065 613.855L527.221 615.415L527.425 615.696L527.44 615.709L528.074 619.051L529.073 620.18L530.157 621.288L530.349 622.202L530.471 622.698L530.799 623.896L533.259 623.061L535.712 623.249L537.347 624.018L540.448 625.468L540.586 625.657L540.84 625.983L541.264 626.495L541.248 626.512L540.676 628.54L541.052 631.358L541.067 631.372L541.44 631.806L542.287 632.7L545.154 634.132L545.626 634.365L547.397 635.257L548.026 636.244L548.229 636.492L549.078 637.613L549.299 637.909L550.029 638.891L550.271 639.851L550.41 640.362L551.572 640.833L555.692 639.533L555.793 639.495L555.826 639.494L555.843 639.476L556.229 639.504L557.186 639.499L557.202 639.545L558.275 641.449L558.294 641.466L559.456 641.904L559.769 641.189L566.499 643.053L566.998 640.155L575.53 640.427L576.584 635.777L580.266 638.395L587.571 630.283L597.746 632.297L599.776 627.82L606.403 627.241L611.633 623.949L616.304 630.585L615.959 635.715L622.486 641.356L619.377 649.332L621.757 648.811L625.922 653.283L633.307 652.68L634.439 659.853L639.634 660.619L641.97 658.802L639.85 656.21L643.908 651.312L639.228 647.791L642.096 643.203L644.951 641.436L649.895 644.39L659.111 639.645L656.83 638.003L658.878 631.869L650.779 624.711L653.045 622.541L652.39 618.31L657.491 613.936L659.846 610.301L672.491 612.326L676.683 605.327L679.868 606.821L681.571 603.433L684.03 612.804L686.608 611.785L691.336 617.185L694.34 616.937L696.55 616.132L699.746 610.617L700.346 605.814L693.807 607.053L686.357 603.701L685.897 600.613L694.905 599.512L697.817 594.126L702.746 591.143L701.552 586.715L703.537 585.128L720.403 583.98L725.937 579.161L726.989 574.058L733.727 574.706L733.243 558.555L735.337 553.557L744.129 557.155L745.98 561.79L744.107 568.791L746.796 571.222L746.841 574.61L750.647 571.9L753.658 572.495L754.129 568.445L759.561 569.555L758.733 566.843L769.739 569.801L774.777 567.882L772.991 560.794L773.774 558.025L777.624 558.541L770.103 552.453L771.09 547.871L774.598 547.66L770.462 544.921L770.996 540.348L766.831 538.259L769.378 531.32L777.62 526.854L776.015 523.569L758.179 523.034L757.307 521.12L757.195 507.205L753.652 507.416L751.614 500.391L742.774 501.386L738.633 493.845L733.893 497.418L727.317 494.019L721.006 494.337L718.78 488.944L713.004 486.815L709.801 481.12L705.483 478.764L694.055 479.642L693.672 473.693L687.767 464.01L681.904 461.513L680.049 456.617L680.892 448.685L678.994 444.297L675.982 445.503L674.349 451.466L667.671 449.778L663.864 444.116L664.221 434.329L658.841 433.394L658.182 430.835L651.576 432.013L645.943 426.923L645.557 426.864L644.233 421.16L649.457 419.312L649.473 416.944L642.342 396.751L647.066 395.417L639.451 388.085L636.193 377.574L636.139 366.738L629.515 361.59L622.893 367.229L620.117 366.556L619.674 363.483L621.646 362.335L617.256 359.334L617.759 346.748L620.048 343.214L615.747 340.873L615.692 336.348L608.941 333.885L606.664 340.94L599.759 336.535L596.764 329.321L593.895 327.566L589.089 329.405L584.045 324.138L585.642 322.362L581.479 320.435L578.983 321.109L576.711 328.878L571.237 333.204L557.737 328.828L547.981 337.27L544.34 335.397L544.987 328.125L541.123 325.76L538.479 318.606L538.015 317.317L529.003 311.846L532.362 303.386L523.915 299.134L521.556 294.169L510.799 286.412L508.849 283.973L511.708 276.318L509.168 275.697L507.965 272.227L506.606 274.509L504.828 274.705L504.976 272.198L500.45 275.256L497.701 269.81L499.099 266.018L491.289 263.887L489.573 263.463L488.977 266.435L480.893 267.533L479.713 271.103L478.915 274.439L479.99 284.684L474.698 290.559L470.823 301.483L466.971 302.638L470.033 311.716L465.83 313.392L457.173 312.009L463.042 317.313L459.251 317.685L452.113 323.986L444.524 323.858L445.405 326.908L442.577 323.933L443.656 314.122L439.394 295.684L448.363 293.969L452.156 287.705L444.95 283.029L441.436 282.364L439.06 285.562L436.218 284.958L436.133 284.881L436.038 283.507L429.026 280.133L427.478 277.737L429.98 273.558L435.896 272.174L431.044 265.954L431.251 262.503L427.478 263.15L423.13 259.092L420.378 259.278L418.781 254.872L416.665 254.828L415.243 249.325L411.788 245.656L421.624 243.049L419.046 237.757L413.967 234.713L425.123 225.314L419.181 223.293L419.13 223.247L414.98 227.096L414.261 227.411L413.24 228.034L412.422 228.422L408.341 228.373L407.926 228.964L408.518 229.627L406.911 230.14L406.416 231.366L405.611 231.348L404.804 231.165L404.378 232.455L405.172 233.334L404.83 234.409L403.422 232.589L403.405 230.481L404.42 229.305L404.408 227.878L404.993 227.569L406.826 228.099L407.393 227.645L405.27 226.692L403.895 226.705L403.01 227.322L402.309 229.909L400.083 232.92L399.004 234.457L394.884 240.103L390.185 244.39L382.783 249.164L378.178 250.766L372.664 251.772L367.171 251.444L365.446 252.108L365.017 252.975L365.812 253.984L368.862 252.973L370.692 252.952L371.217 253.556L370.962 257.22L371.767 259.236L370.903 260.388L371.784 261.344L371.422 262.273L370.418 262.751L369.09 262.549L366.583 266.272L366.568 266.419L367.162 267.085L368.908 266.988L369.223 268.658L369.292 268.881L370.322 269.522L370.619 270.917L370.487 273.309L368.528 274.051L367.354 272.281L366.897 271.61L366.829 271.549L366.089 269.335L366.597 267.83L366.214 266.357L366.064 266.221L366.929 265.2L365.967 264.621L364.253 266.549L363.021 267.818L362.371 268.487L361.716 270.568L361.226 272.218L360.524 274.642L360.961 274.908L361.687 275.275L364.183 276.564L364.045 278.403L363.328 278.85L361.499 279.033L360.538 278.454L360.531 277.61L361.99 277.383L360.233 276.343L359.712 276.033L359.644 275.972L358.979 274.663L358.404 274.401L357.689 277.135L356.604 277.958L353.466 278.214L352.822 277.471L353.813 275.597L352.657 275.647L350.918 276.587L349.598 275.395L347.621 275.861L346.659 275.282L345.707 273.842L348.089 271.68L353.219 272.516L356.777 272.254L357.428 271.844L358.531 271.167L359.524 269.424L359.365 268.443L358.421 268.009L358.197 269.352L357.256 269.467L356.451 267.323L356.164 267.063L354.539 265.466L349.66 266.37L348.126 267.656L347.267 267.428L347.695 266.268L349.649 264.975L353.14 264.782L350.961 263.199L347.372 263.755L347.301 263.272L350.43 261.882L353.059 263.292L354.063 262.814L354.585 260.742L354.209 259.984L353.749 259.311L355.288 258.448L355.13 257.758L354.405 257.232L353.823 257.832L352.928 257.314L353.873 255.913L356.06 256.215L358.338 255.602L355.236 254.086L355.092 252.829L356.015 250.733L356.383 250.486L358.076 252.176L360.122 251.901L361.208 251.207L363.828 251.354L362.942 249.974L363.219 248.711L362.423 247.83L358.098 246.594L355.75 244.891L354.947 243.167L355.125 240.269L355.726 239.814L357.527 238.512L357.238 237.832L354.377 237.082L349.435 238.476L346.507 237.665L344.818 236.396L344.521 235.291L345.449 233.489L345.092 233.006L343.042 232.989L341.354 231.721L340.611 231.211L337.564 232.514L332.724 238.058L329.754 240.557L326.996 241.832L325.095 241.66L324.878 241.753L319.937 243.149L319.561 244.644L320.619 246.695L322.669 248.838L317.475 256.604L315.774 262.055L316.67 264.828L314.209 265.792L314.232 268.614L310.699 271.99L309.689 273.878L310.567 274.253L310.272 275.243L309.769 277.331L306.884 280.037L303.83 280.337L301.515 282.721L301.161 284.364L299.702 284.849L298.999 286.886L293.296 295.996L290.484 299.187L290.141 302.516L287.109 305.507L285.388 308.556L284.012 310.951L282.199 313.112L279.877 314.362L279.173 316.656L276.409 317.508L271.368 317.17L270.126 317.013L268.221 316.129L267.424 315.119L268.199 313.47L266.101 313.505L265.071 312.864L261.212 313.144L258.35 312.264L256.812 311.003L256.221 310.598L255.463 306.146L256.323 304.54L256.958 304.148L257.775 303.47L258.198 301.759L259.2 300.99L256.98 296.473L255.438 294.66L251.716 293.518L247.485 293.333L243.882 292.331L239.957 292.681L240.254 294.076L243.406 295.669L247.528 298.685L248.327 299.987L250.968 300.538L251.765 301.549L251.985 301.747L252.708 301.853L253.524 303.009L255.032 317.219L255.034 325.753L253.959 346.613L253.581 353.805L251.468 362.522L250.904 367.485L248.698 373.027L247.024 382.011L244.596 389.058L242.681 395.151L240.287 398.172L239.351 398.711L238.85 401.349L236.189 404.257L229.725 416.866L225.798 419.21L225.143 419.165L219.754 419.318L219.603 419.343L218.381 419.751L215.817 420.397L214.298 421.536L210.508 422.168L207.471 424.446L203.99 425.905L201.455 428.09L197.861 434.212L194.157 437.304L189.773 436.981L187.513 435.776L186.494 436.401L184.321 439.75L179.182 443.768L173.768 449.082L165.554 454.957L164.836 455.435L162.579 456.615L159.536 458.342L158.731 458.451L156.617 458.634L155.521 458.062L151.444 458.434L149.305 457.628L148.134 456.152L140.686 455.153L140.252 455.308L140.56 456.005L142.241 458.232L144.45 459.391L145.264 460.674L144.159 460.802L142.177 458.722L140.136 457.586L139.525 456.905L139.67 456.199L139.168 456.163L138.803 456.671L138.654 456.955L133.87 459.2L131.761 460.096L128.626 460.901L126.28 459.2L125.187 459.049L125.281 460.229L124.765 460.76L122.154 461.879L121.435 464.32L120.92 464.981L119.491 467.039L118.375 472.181L119.035 472.777L120.62 471.569L121.709 471.426L121.996 471.686L123.116 472.826L123.267 473.091L124.595 477.254L124.037 478.971L124.917 479.637L124.86 480.971L126.917 481.993L128.838 486.948L128.704 489.081L130.105 490.058L130.483 491.107L129.018 490.749L128.436 491.479L128.527 492.108L129.502 496.5L129.574 497.273L128.926 498.072L128.337 497.7L127.104 496.844L127.097 496.129L127.085 494.444L126.262 492.315L123.747 488.659L123.435 485.415L122.176 483.31L117.323 477.09L114.889 475.309L112.087 471.392L114.417 470.697L116.251 471.098L116.685 470.782L116.242 469.963L113.449 469.274L110.612 469.351L107.916 468.17L107.528 467.981L104.694 468.639L104.41 468.641L100.914 468.283L98.8353 466.565L98.1073 466.036L96.5766 465.49L95.9213 465.445L94.1738 465.283L85.9228 464.685L84.9083 463.607L82.7727 463.223L75.5888 459.403L68.912 453.917L68.0984 453.182L67.4516 451.889L68.1575 449.887L68.5154 448.665L67.5632 449.06L67.12 448.241L67.9068 445.861L66.9405 444.73L67.0227 444.514L67.8673 443.056L67.0745 442.597L64.532 443.809L63.453 445.346L59.7343 446.461L59.5432 447.962L58.7276 448.642L59.2676 451.062L54.896 450.331L51.6915 450.655L47.7924 448.13L47.6456 446.581L46.9026 446.07L45.6645 446.626L45.444 446.555L44.3487 445.855L42.7268 442.554L41.172 441.31L41.5201 438.662L43.2577 437.592L44.0577 437.06L44.8506 435.233L45.428 433.951L45.2598 431.835L47.2252 431.937L48.3111 431.244L50.3416 429.022L50.4847 428.024L49.9791 427.985L47.1905 427.848L45.0814 428.454L44.4286 428.701L44.141 428.441L43.4821 428.135L43.9742 426.487L43.2469 425.83L40.9049 426.934L38.1472 426.663L36.6046 424.851L34.7573 424.598L33.0872 423.636L33.7309 422.254L31.6721 420.973L29.0525 420.956L27.9014 421.88L24.7577 421.422L23.8061 422.108L23.8153 423.243L23.1848 424.186L20.3424 425.675L16.7589 424.819L13.8521 426.668L10.1314 427.524L8.19178 428.54L2.33204 428.59L-0.948262 427.847L-6.5066 425.915L-15.1437 420.751L-18.0168 418.444L-19.5492 417.896L-20.9352 416.773L-21.6794 416.1L-22.8544 414.072L-22.4441 410.805L-24.9254 411.493L-28.0918 416.327L-34.4987 417.234L-37.0538 416.889L-37.7848 418.064L-39.8817 418.101L-40.0843 422.136L-39.3332 423.652L-40.3252 427.65L-42.0514 430.147L-42.1224 431.757L-41.6853 432.023L-45.2447 431.866L-48.6106 430.917L-49.2564 434.133L-52.0614 438.166L-51.4263 444.053L-53.4222 450.782L-52.8907 451.939L-51.7991 451.959L-51.6561 450.961L-51.0188 450.861L-45.6457 455.008L-45.8088 461.848L-45.2886 462.028L-45.9281 465.797L-45.1003 468.509L-45.2219 472.167L-49.2668 476.754L-48.3092 478.908L-42.8246 480.226L-41.2038 481.111L-39.4573 481.143L-39.3027 481.573L-40.1686 482.465L-37.8266 483.454L-37.9742 483.9L-40.2441 483.523L-41.8533 481.779L-43.473 481.024L-47.1839 481.019L-50.5477 482.198L-51.6234 484.156L-52.054 484.893L-53.4862 486.368L-54.9394 487.309L-56.7029 487.261L-57.8553 488.023L-58.1969 489.388L-61.9282 488.946L-62.0729 489.943L-63.8144 490.333L-65.0311 491.455L-65.8426 492.847L-67.3173 499.468L-66.7409 500.149L-66.0024 500.108L-65.325 503.103L-65.7485 504.524L-67.0535 505.308L-67.9121 506.915L-70.1572 507.527L-69.7038 509.611L-70.2142 510.856L-69.8366 511.873L-66.3911 514.568L-67.4019 516.038L-65.9946 517.728L-63.4423 517.942L-62.4234 519.152L-61.5088 522.2L-59.6271 520.262L-60.23 518.591L-59.5839 517.5L-58.3529 517.936L-59.0656 519.095L-58.1911 519.467L-57.9046 519.597L-58.0378 519.734L-59.0537 520.78L-59.8313 524.296L-61.7974 523.904L-64.4629 526.518L-66.5747 526.992L-67.1576 527.592L-66.7861 528.057L-65.4063 528.209L-64.8938 529.509L-66.0524 529.3L-68.3685 531.521L-68.2077 532.922L-65.5718 534.757L-65.2142 535.37L-62.7673 538.966L-61.5269 538.702L-60.8628 539.849L-62.0985 540.697L-62.7354 542.923L-62.143 543.716L-60.9797 544.091L-60.0203 544.378L-58.9242 544.95L-53.7136 547.694L-54.2237 549.198L-56.3426 550.664L-59.3287 548.931L-59.1225 547.443L-59.6468 546.969L-60.3764 546.02L-61.69 545.542L-62.2797 545.299L-65.5708 543.419L-64.9546 540.499L-66.1108 540.999L-65.4746 538.483L-66.7864 538.425L-66.7973 536.869L-66.954 536.18L-67.5998 535.436L-68.2699 535.41L-68.4211 535.402L-69.0594 535.372L-70.3739 536.857L-72.7662 538.173L-73.1095 539.118L-74.8717 539.232L-76.243 539.925L-75.8358 538.361L-74.8652 537.95L-74.8916 536.96L-75.6985 536.65L-75.4222 535.515L-75.7831 534.48L-74.1008 534.874L-72.9311 534.385L-72.2201 532.806L-72.3802 531.695L-73.1903 531.382L-75.0853 531.473L-76.0988 532.811L-76.9526 533.134L-76.3313 531.055L-74.3727 530.313L-72.9803 530.155L-72.3223 530.75L-70.8627 530.394L-68.3161 529.894L-68.258 528.562L-69.2093 527.413L-69.1511 526.081L-70.3872 524.803L-70.5395 524.665L-71.4132 524.584L-75.6957 526.574L-79.0518 527.051L-80.1641 526.336L-80.7671 522.571L-81.715 521.425L-84.9136 524.555L-88.9841 525.771L-87.3637 526.817L-87.0027 527.851L-85.5461 527.332L-84.4453 528.488L-83.9875 531.123L-84.9238 542.03L-85.1138 543.661L-87.9166 550.08L-90.3812 552.618L-91.5881 554.747L-93.3471 555.25L-95.3575 557.909L-97.8278 559.734L-100.127 564.096L-105.043 568.734L-108.384 571.027L-108.751 571.275L-111.147 571.75L-113.635 571.467L-114.144 570.716L-115.744 570.107L-119.964 571.607L-121.013 570.53L-122.036 570.733L-123.968 574.718L-124.972 575.195L-126.657 574.51L-128.826 576.188L-133.779 578.281L-135.528 580.081L-138.728 587.236L-139.678 588.051L-141.573 588.593L-143.39 587.917L-143.682 589.198L-143.025 589.663L-143.367 590.738L-143.821 590.908L-146.935 591.861L-148.809 594.772L-151.411 596.896L-153.039 597.261L-154.168 598.591L-157.117 597.343L-157.984 598.105L-157.812 600.643L-153.027 604.807L-152.787 607.405L-151.84 608.261L-153.002 609.884L-156.215 609.202L-158.089 610.02L-161.143 612.315L-164.191 613.328L-165.575 614.59L-169.573 614.325L-170.401 613.738L-171.947 611.504L-172.984 609.858L-172.193 608.062L-173.441 607.352L-174.395 605.911L-175.683 608.385L-181.662 608.166L-182.996 607.25L-183.382 605.227L-184.977 605.17L-186.649 604.207L-186.74 603.159L-188.492 602.412L-187.735 598.493L-189.405 597.531L-193.041 598.43L-195.095 597.701L-194.674 595.988L-195.567 595.472L-197.738 596.858L-199.118 596.578L-201.988 594.563L-203.064 594.686L-203.346 596.975L-202.153 599.147L-202.295 600.275L-203.898 601.37L-204.967 604.171L-204.743 604.921L-207.774 607.913L-211.28 608.383L-212.812 607.836L-214.923 608.472L-215.953 607.96L-217.342 608.379L-218.941 608.029L-219.876 608.73L-221.403 608.605L-221.866 607.639L-223.607 608.16L-224.925 607.258L-226.669 607.356L-227.537 607.956L-226.588 609.232L-226.648 610.016L-226.563 612.346L-227.295 613.23L-229.835 614.574L-231.931 614.901L-234.721 614.634L-236.185 614.148L-237.338 612.945L-238.725 613.656L-240.195 612.746L-240.202 611.613L-243.516 608.779L-247.883 608.6L-249.141 606.755L-252.268 608.275L-252.923 608.231L-255.982 607.979L-257.001 608.603L-256.99 610.159L-255.732 611.843L-252.745 611.612L-252.973 610.44L-249.321 611.486L-248.234 611.084L-247.939 612.059L-246.977 612.638L-247.409 613.214L-247.926 613.745L-250.999 611.645L-253.315 613.769L-254.843 614.063L-254.834 614.908L-254.173 615.634L-253.597 616.316L-251.613 616.692L-246.985 620.037L-245.896 619.766L-244.07 621.287L-246.392 620.702L-247.652 620.851L-247.711 621.635L-243.947 626.131L-243.211 627.794L-242.707 627.831L-242.02 629.837L-242.849 629.248L-244.073 629.237L-244.504 629.975L-245.38 629.602L-246.401 629.934L-248.81 629.013L-249.697 629.629L-249.323 629.967L-250.855 629.419L-250.569 627.424L-252.044 625.672L-253.002 625.515L-254.003 626.414L-254.499 629.346L-255.085 629.654L-255.462 628.894L-255.043 626.472L-252.583 623.382L-252.879 622.117L-254.262 621.285L-257.709 620.972L-259.226 622.112L-259.87 623.495L-259.484 625.518L-261.154 628.644L-261.942 628.899L-261.959 626.791L-261.961 626.499L-260.806 626.029L-260.363 624.723L-261.422 620.417L-260.269 619.785L-258.956 620.134L-258.378 618.983L-258.231 618.407L-258.536 618.131L-259.261 617.766L-259.348 615.433L-260.312 614.433L-261.178 615.325L-261.533 617.097L-263.203 618.261L-266.537 619.144L-268.01 617.812L-269.841 617.575L-272.977 618.09L-273.2 617.47L-275.549 615.765L-276.061 614.594L-275.333 613.288L-278.696 612.632L-281.092 613.268L-282.177 616.344L-285.159 616.998L-286.342 616.09L-284.015 613.138L-282.971 609.348L-283.691 609.534L-284.336 610.755L-285.93 610.989L-284.634 609.23L-283.18 608.451L-282.911 606.311L-281.819 606.461L-281.301 606.092L-281.611 605.393L-283.648 604.518L-286.215 602.617L-286.305 601.859L-284.859 600.075L-285.59 599.125L-285.315 597.699L-287.15 597.039L-287.233 595.129L-289.782 595.498L-290.884 594.212L-292.279 594.079L-293.531 592.818L-294.755 593.097L-295.407 593.474L-296.943 594.758L-298.669 595.002L-300.217 594.601L-300.729 593.558L-301.841 593.133L-302.424 591.608L-303.361 592.017L-306.815 590.731L-308.988 591.697L-308.883 594.303L-310.481 596.08L-311.575 595.928L-312.214 597.733L-313.534 598.504L-314.547 599.972L-316.942 600.738L-319.499 600.101L-321.713 598.391L-327.53 597.449L-329.901 595.177L-331.134 594.063L-333.101 595.795L-334.332 595.359L-335.282 596.046L-336.794 598.028L-333.776 601.883L-334.577 602.286L-334.865 603.989L-336.808 606.709L-336.635 607.542L-334.962 608.635L-334.734 609.839L-335.441 611.712L-333.698 611.323L-333.243 613.569L-333.671 614.696L-334.166 615.794L-332.846 617.277L-328.823 618.239L-328.396 619.205L-327.524 619.155L-326.259 619.719L-325.738 621.865L-325.442 623.42L-324.197 623.418L-323.869 626.645L-324.593 628.663L-321.814 629.757L-320.386 633.85L-319.368 643.591L-320.379 645.318L-319.983 648.348L-321.275 650.529L-323.663 652.139L-324.47 652.247L-324.915 653.261L-324.52 654.166L-325.163 655.678L-324.58 657.203L-324.935 658.975L-325.355 660.978L-327.315 661.557L-328.1 664.229L-332.175 664.861L-333.176 665.631L-331.436 666.945L-331.04 670.233L-332.26 673.059L-331.496 676.1L-331.791 677.25L-333.507 678.759L-333.374 680.585L-334.563 683.117L-339.802 687.205L-340.669 687.967L-342.855 687.666L-343.014 686.685L-344.029 685.896L-349.273 687.179L-350.088 686.024L-350.404 684.354L-351.002 681.012L-351.883 680.055L-353.939 679.324L-356.789 677.586L-361.098 676.493L-362.489 676.621L-362.847 678.004L-363.633 678.388L-365.032 677.703L-367.665 678.125L-371.499 681.648L-373.894 682.414L-376.058 684.934L-380.439 684.903L-380.792 687.095L-381.727 687.635L-381.946 687.727L-383.476 687.311L-385.795 689.143L-388.358 689.918L-388.916 691.635L-388.105 692.078Z" stroke="#022A3A" stroke-opacity="0.5" stroke-width="2"></path>
</g>
<defs>
<clipPath id="clip0_93_4599">
<rect width="530.245" height="777.266" fill="white"></rect>
</clipPath>
</defs>
</svg>
