<svg width="50" height="50" viewBox="0 0 50 50" fill="none" xmlns="http://www.w3.org/2000/svg">
<path d="M7.32224 7.32259C2.60052 12.0446 0 18.3229 0 25.0003C0 31.6782 2.60052 37.9565 7.32224 42.6781C12.044 47.4 18.3222 50.0005 25 50.0005C31.6777 50.0005 37.956 47.4 42.6779 42.6781C43.1972 42.1587 43.6893 41.6193 44.1569 41.0638C44.1596 41.0603 44.1629 41.0568 44.1658 41.0533C47.942 36.5601 50 30.9389 50 25.0003C50 18.3229 47.3995 12.0446 42.6779 7.32259C37.956 2.60072 31.6777 0.000183105 25 0.000183105C18.3222 0.000183105 12.044 2.60072 7.32224 7.32259ZM22.2293 2.23786C23.1377 2.1279 24.0624 2.06997 25 2.06997C25.9378 2.06997 26.8621 2.1279 27.7708 2.23786L26.0866 9.71725C25.7275 9.69199 25.3654 9.67838 25 9.67838C24.6347 9.67838 24.2725 9.69199 23.9135 9.71725L22.2293 2.23786ZM28.1435 10.0031L29.815 2.58015C32.5736 3.17186 35.1495 4.26088 37.4442 5.74923L33.3781 12.1785C31.8087 11.1492 30.0403 10.4002 28.1435 10.0031ZM12.5558 5.74923C14.8505 4.26088 17.4264 3.17186 20.185 2.58015L21.8565 10.0031C19.9597 10.4002 18.1913 11.1492 16.6218 12.1783L12.5558 5.74923ZM35.0348 13.4309L39.1311 6.95367C40.5882 8.09686 41.9035 9.41248 43.0465 10.8692L36.5695 14.9655C36.0947 14.4187 35.5818 13.9058 35.0348 13.4309ZM6.95348 10.8691C8.09652 9.41247 9.41213 8.09701 10.8687 6.95398L14.9651 13.4309C14.4182 13.9058 13.9055 14.4187 13.4305 14.9655L6.95348 10.8691ZM11.7473 25.0003C11.7473 17.6929 17.6926 11.748 25 11.748C32.3076 11.748 38.2525 17.6929 38.2525 25.0003C38.2525 28.291 37.0568 31.4064 34.8735 33.8403C34.2705 33.6158 33.7229 33.2484 33.2841 32.7602C33.0881 32.5416 32.8081 32.417 32.5145 32.417C32.2208 32.417 31.9409 32.5416 31.7444 32.7602C30.9835 33.6075 29.8944 34.0935 28.7573 34.0935C27.6197 34.0935 26.5311 33.6075 25.7697 32.7602C25.5736 32.5416 25.2936 32.417 25 32.417C24.7064 32.417 24.4264 32.5416 24.2303 32.7602C23.469 33.6075 22.3801 34.0935 21.2428 34.0935C20.1055 34.0935 19.0165 33.6075 18.2554 32.7602C18.0591 32.5416 17.7792 32.417 17.4856 32.417C17.1921 32.417 16.9119 32.5416 16.7158 32.7602C16.2771 33.2484 15.7294 33.6158 15.1267 33.8403C12.9433 31.4064 11.7473 28.2912 11.7473 25.0003ZM2.57995 20.1853C3.17197 17.4269 4.26054 14.8505 5.74889 12.5562L12.1781 16.622C11.149 18.1916 10.3997 19.9602 10.0028 21.8568L2.57995 20.1853ZM37.8222 16.6222L44.2511 12.5563C45.7394 14.8508 46.8282 17.4269 47.4202 20.1853L39.9972 21.8568C39.6003 19.9602 38.851 18.1916 37.8222 16.6222ZM40.2838 26.0873C40.3091 25.727 40.3221 25.3649 40.3221 25.0003C40.3221 24.6351 40.3083 24.273 40.2832 23.9137L47.7628 22.2298C47.8724 23.1384 47.9304 24.0626 47.9304 25.0003C47.9304 25.9381 47.8724 26.8624 47.7628 27.7712L40.2838 26.0873ZM2.06962 25.0003C2.06962 24.0626 2.12755 23.1384 2.23721 22.2298L9.71676 23.9137C9.6915 24.273 9.67788 24.6351 9.67788 25.0003C9.67788 25.3649 9.69089 25.727 9.71615 26.0871L2.23721 27.7712C2.12755 26.8624 2.06962 25.9381 2.06962 25.0003ZM39.9993 28.1446L47.4202 29.8155C47.1805 30.9326 46.8593 32.0199 46.4629 33.0705C44.8883 34.4807 42.4595 34.43 40.9474 32.9179C40.8978 32.8683 40.8477 32.8154 40.7984 32.7606C40.6021 32.5419 40.3221 32.4171 40.0285 32.4171C39.7351 32.4171 39.4551 32.5419 39.2589 32.7606C38.7719 33.3024 38.1507 33.6955 37.4687 33.9092C38.7097 32.179 39.5678 30.2215 39.9993 28.1446ZM3.53709 33.0705C3.1408 32.0196 2.81954 30.9326 2.5798 29.8155L10.0005 28.1446C10.4322 30.2215 11.2904 32.179 12.5316 33.9092C11.8495 33.6955 11.2282 33.3026 10.7411 32.7606C10.5452 32.5421 10.2654 32.4174 9.97193 32.4171C9.6785 32.4171 9.39882 32.5418 9.20264 32.7599C9.15152 32.8167 9.10267 32.8682 9.05351 32.9175C8.27092 33.7001 7.24284 34.0912 6.21492 34.0914C5.25611 34.0914 4.29745 33.751 3.53755 33.0705M32.5149 34.8632C33.5792 35.6983 34.9025 36.1631 36.2723 36.1631C37.6413 36.1631 38.964 35.6984 40.0282 34.8643C41.4928 36.0161 43.3682 36.3989 45.1069 36.0152C44.4701 37.1727 43.7359 38.2698 42.916 39.2951C42.1748 39.1306 41.4895 38.7571 40.9478 38.2153C40.8982 38.1657 40.8482 38.1128 40.7989 38.0577C40.6025 37.8393 40.3226 37.7145 40.029 37.7145C39.7355 37.7145 39.4556 37.8393 39.2594 38.0577C38.4983 38.905 37.4094 39.3909 36.2723 39.3909C35.1348 39.3909 34.0458 38.9049 33.2845 38.0576C33.0885 37.8392 32.8085 37.7142 32.5149 37.7142C32.2212 37.7142 31.9414 37.8392 31.7449 38.0576C30.9839 38.9049 29.8949 39.3909 28.7578 39.3909C27.6202 39.3909 26.5316 38.9049 25.7702 38.0576C25.574 37.8392 25.294 37.7142 25.0005 37.7142C24.7069 37.7142 24.4269 37.8392 24.2307 38.0576C23.4694 38.9049 22.3806 39.3909 21.2433 39.3909C20.106 39.3909 19.017 38.9049 18.2558 38.0576C18.0595 37.8392 17.7797 37.7142 17.4861 37.7142C17.1925 37.7142 16.9124 37.8392 16.7162 38.0576C15.955 38.9049 14.8661 39.3909 13.7289 39.3909C12.5915 39.3909 11.5028 38.905 10.7415 38.0577C10.5456 37.8395 10.2658 37.7147 9.97237 37.7145C9.67894 37.7145 9.39928 37.8391 9.2031 38.0573C9.15198 38.114 9.10311 38.1657 9.05395 38.2147C8.51216 38.7568 7.82653 39.1306 7.08554 39.2954C6.26558 38.2698 5.53138 37.1727 4.89445 36.0152C6.63312 36.3989 8.50853 36.0161 9.97313 34.8643C11.0372 35.6984 12.3601 36.1631 13.7294 36.1631C15.099 36.1631 16.4222 35.6983 17.4866 34.8632C18.5508 35.6983 19.874 36.1631 21.2437 36.1631C22.6133 36.1631 23.9367 35.6983 25.0009 34.8632C26.0653 35.6983 27.3885 36.1631 28.7582 36.1631C30.128 36.1631 31.451 35.6983 32.5154 34.8632M32.5154 40.1606C33.5796 40.9957 34.9029 41.4605 36.2727 41.4605C37.6419 41.4605 38.9648 40.9958 40.029 40.1612C40.4573 40.4973 40.928 40.7727 41.4269 40.9828C40.053 42.3945 38.4998 43.6305 36.8035 44.653C36.6283 44.6762 36.4504 44.6883 36.2727 44.6883C35.1353 44.6883 34.0462 44.2023 33.285 43.3548C33.089 43.1364 32.809 43.0115 32.5154 43.0115C32.2217 43.0115 31.9418 43.1364 31.7453 43.3548C30.9844 44.2023 29.8954 44.6883 28.7582 44.6883C27.6206 44.6883 26.5321 44.2023 25.7706 43.3548C25.5745 43.1364 25.2945 43.0115 25.0009 43.0115C24.7073 43.0115 24.4273 43.1364 24.2312 43.3548C23.4699 44.2023 22.381 44.6883 21.2437 44.6883C20.1065 44.6883 19.0174 44.2023 18.2563 43.3548C18.06 43.1364 17.7802 43.0115 17.4866 43.0115C17.193 43.0115 16.9128 43.1364 16.7167 43.3548C15.9554 44.2023 14.8665 44.6883 13.7294 44.6883C13.5514 44.6883 13.3735 44.6762 13.1983 44.653C11.502 43.6305 9.94894 42.3945 8.57524 40.9825C9.07378 40.7727 9.54463 40.4971 9.97284 40.1611C11.0371 40.9957 12.3598 41.4605 13.7294 41.4605C15.099 41.4605 16.4222 40.9957 17.4866 40.1606C18.5508 40.9957 19.874 41.4605 21.2437 41.4605C22.6133 41.4605 23.9367 40.9957 25.0009 40.1606C26.0653 40.9957 27.3885 41.4605 28.7582 41.4605C30.128 41.4605 31.451 40.9957 32.5154 40.1606ZM32.5154 45.458C32.8925 45.7537 33.3027 46.0021 33.7353 46.2007C31.0417 47.3147 28.0921 47.9309 25.0009 47.9309C21.9097 47.9309 18.9602 47.3147 16.2665 46.2007C16.6991 46.0021 17.1093 45.7537 17.4866 45.458C18.5508 46.2929 19.874 46.7579 21.2437 46.7579C22.6133 46.7579 23.9367 46.2929 25.0009 45.458C26.0653 46.2929 27.3885 46.7579 28.7582 46.7579C30.128 46.7579 31.451 46.2929 32.5154 45.458Z" fill="white"></path>
</svg>
