<svg width="140" height="140" viewBox="0 0 140 140" fill="none" xmlns="http://www.w3.org/2000/svg">
<path d="M122.439 107.121H117.518V30.2847C117.518 28.7745 116.293 27.5503 114.783 27.5503H105.213V17.4331C105.213 15.9229 103.988 14.6987 102.479 14.6987H88.0727C86.5628 14.6987 85.3384 15.9229 85.3384 17.4331C85.3384 18.9433 86.5628 20.1675 88.0727 20.1675H99.7441V27.5503H40.1348V20.1675H76.7256C78.2355 20.1675 79.46 18.9433 79.46 17.4331C79.46 15.9229 78.2355 14.6987 76.7256 14.6987H37.4004C35.8905 14.6987 34.666 15.9229 34.666 17.4331V27.5503H25.0957C23.5858 27.5503 22.3613 28.7745 22.3613 30.2847V85.6199C22.3613 87.1299 23.5858 88.3543 25.0957 88.3543C26.6056 88.3543 27.8301 87.1299 27.8301 85.6199V33.019H112.049V107.121H85.2066V89.5522C85.2066 88.8271 84.9184 88.1315 84.4057 87.6188C83.8927 87.1061 83.1973 86.8179 82.4722 86.8179H57.1333C55.6234 86.8179 54.3989 88.0421 54.3989 89.5522V107.121H27.8301V96.9668C27.8301 95.4566 26.6056 94.2324 25.0957 94.2324C23.5858 94.2324 22.3613 95.4566 22.3613 96.9668V107.121H17.4395C15.9295 107.121 14.7051 108.345 14.7051 109.855V122.433C14.7051 123.943 15.9295 125.167 17.4395 125.167H122.439C123.949 125.167 125.174 123.943 125.174 122.433V109.855C125.174 108.345 123.95 107.121 122.439 107.121ZM79.7378 107.121H72.5371V92.2866H79.7378V107.121ZM59.8677 92.2866H67.0684V107.121H59.8677V92.2866ZM119.705 119.699H20.1738V112.589H119.705V119.699ZM62.8399 57.3708L76.7655 57.3706C78.2757 57.3706 79.4999 56.1464 79.4999 54.6362V40.7114C79.4999 39.2012 78.2755 37.977 76.7655 37.977H62.8399C61.33 37.977 60.1055 39.2012 60.1055 40.7114V54.6365C60.1055 54.6365 60.0768 57.2284 62.8399 57.3708ZM65.5743 43.4458H74.0312V51.9018L65.5743 51.9021V43.4458ZM37.3219 57.3708H51.2464C52.7564 57.3708 53.9808 56.1467 53.9808 54.6365V40.7114C53.9808 39.2012 52.7564 37.977 51.2464 37.977H37.3219C35.812 37.977 34.5875 39.2012 34.5875 40.7114V54.6365C34.5875 56.1464 35.812 57.3708 37.3219 57.3708ZM40.0563 43.4458H48.5121V51.9021H40.0563V43.4458ZM88.3587 57.3706H102.284C103.794 57.3706 105.018 56.1464 105.018 54.6362V40.7114C105.018 39.2012 103.794 37.977 102.284 37.977H88.3587C86.8488 37.977 85.6244 39.2012 85.6244 40.7114V54.6362C85.6244 56.1461 86.8486 57.3706 88.3587 57.3706ZM91.0931 43.4458H99.5495V51.9018H91.0931V43.4458ZM62.8399 81.9285H76.7655C78.2755 81.9285 79.4999 80.7041 79.4999 79.1942V65.2691C79.4999 65.2691 79.3605 62.5886 76.7655 62.5347H62.8399C61.33 62.5347 60.1055 63.7589 60.1055 65.2691V79.1942C60.1055 79.1942 60.1909 81.8254 62.8399 81.9285ZM65.5743 68.0032H74.0312V76.4595H65.5743V68.0032ZM34.5875 79.1942C34.5875 80.7044 35.812 81.9285 37.3219 81.9285H51.2464C52.7564 81.9285 53.9808 80.7044 53.9808 79.1942V65.2691C53.9808 63.7589 52.7564 62.5347 51.2464 62.5347H37.3219C35.812 62.5347 34.5875 63.7589 34.5875 65.2691V79.1942ZM40.0563 68.0032H48.5121V76.4595H40.0563V68.0032ZM85.6244 79.1939C85.6244 80.7038 86.8488 81.9283 88.3587 81.9283H102.284C103.794 81.9283 105.018 80.7038 105.018 79.1939V65.2683C105.018 63.7583 103.794 62.5339 102.284 62.5339H88.3587C86.8488 62.5339 85.6244 63.7583 85.6244 65.2683V79.1939ZM91.0931 68.0026H99.5495V76.4595H91.0931V68.0026Z" fill="white"></path>
</svg>
