<svg width="22" height="27" viewBox="0 0 22 27" fill="none" xmlns="http://www.w3.org/2000/svg">
<path fill-rule="evenodd" clip-rule="evenodd" d="M11 0.5C17.0653 0.5 22 5.472 22 11.584C22 19.0973 13.392 26.5 11 26.5C8.608 26.5 0 19.0973 0 11.584C0 5.472 4.93467 0.5 11 0.5ZM11 2.5C6.03733 2.5 2 6.576 2 11.584C2 17.956 9.49867 24.164 11 24.4947C12.5013 24.1627 20 17.9547 20 11.584C20 6.576 15.9627 2.5 11 2.5ZM11.0013 7.16667C13.3907 7.16667 15.3347 9.11067 15.3347 11.5013C15.3347 13.8907 13.3907 15.8333 11.0013 15.8333C8.612 15.8333 6.668 13.8907 6.668 11.5013C6.668 9.11067 8.612 7.16667 11.0013 7.16667ZM11.0013 9.16667C9.71467 9.16667 8.668 10.2133 8.668 11.5013C8.668 12.788 9.71467 13.8333 11.0013 13.8333C12.288 13.8333 13.3347 12.788 13.3347 11.5013C13.3347 10.2133 12.288 9.16667 11.0013 9.16667Z" fill="#022A3A"></path>
</svg>
