<svg width="140" height="140" viewBox="0 0 140 140" fill="none" xmlns="http://www.w3.org/2000/svg">
<path d="M66.7839 43.835L61.1325 37.4379C60.1326 36.3061 60.2395 34.5783 61.3715 33.5783C62.5033 32.5786 64.2314 32.6856 65.2311 33.8173L68.7136 37.7592L76.0349 28.4702C76.9695 27.2843 78.6889 27.0804 79.875 28.0152C81.0612 28.9499 81.2649 30.6692 80.33 31.8551L70.9807 43.7171C70.4789 44.354 69.7204 44.7483 68.9096 44.7578C67.4779 44.7748 66.7839 43.835 66.7839 43.835ZM110.649 33.7558H87.6434C86.1332 33.7558 84.909 34.98 84.909 36.4902C84.909 38.0004 86.1332 39.2245 87.6434 39.2245H110.649C112.159 39.2245 113.383 38.0004 113.383 36.4902C113.383 34.98 112.159 33.7558 110.649 33.7558ZM70.9807 66.6859L80.33 54.8239C81.2646 53.638 81.0612 51.9186 79.875 50.984C78.6889 50.0488 76.9698 50.2528 76.0349 51.439L68.7136 60.7279L65.2311 56.7861C64.2314 55.6543 62.5033 55.5474 61.3715 56.5471C60.2398 57.5468 60.1329 59.2749 61.1325 60.4067L66.7839 66.8037C67.3037 67.3922 68.0502 67.7277 68.8331 67.7277C68.8331 67.7277 70.1401 67.7528 70.9807 66.6859ZM110.649 56.3281H87.6434C86.1332 56.3281 84.909 57.5522 84.909 59.0624C84.909 60.5726 86.1332 61.7968 87.6434 61.7968H110.649C112.159 61.7968 113.383 60.5726 113.383 59.0624C113.383 57.5522 112.159 56.3281 110.649 56.3281ZM70.9807 89.1077L80.33 77.2458C81.2646 76.0599 81.0612 74.3405 79.875 73.4059C78.6889 72.4707 76.9698 72.6747 76.0349 73.8609L68.7136 83.1498L65.2311 79.2079C64.2314 78.0762 62.5033 77.9693 61.3715 78.969C60.2398 79.9686 60.1329 81.6968 61.1325 82.8285L66.7839 89.2256C67.3037 89.814 68.0502 90.1495 68.8331 90.1495C68.8331 90.1495 70.0876 90.2411 70.9807 89.1077ZM110.649 78.7499H87.6434C86.1332 78.7499 84.909 79.9741 84.909 81.4843C84.909 82.9945 86.1332 84.2187 87.6434 84.2187H110.649C112.159 84.2187 113.383 82.9945 113.383 81.4843C113.383 79.9741 112.159 78.7499 110.649 78.7499ZM70.9807 111.53L80.33 99.6676C81.2646 98.4817 81.0612 96.7624 79.875 95.8277C78.6889 94.8926 76.9698 95.0966 76.0349 96.2827L68.7136 105.572L65.2311 101.63C64.2314 100.498 62.5033 100.391 61.3715 101.391C60.2398 102.391 60.1329 104.119 61.1325 105.25L66.7839 111.647C67.3037 112.236 68.0502 112.571 68.8331 112.571C68.8331 112.571 70.0961 112.652 70.9807 111.53ZM110.649 101.172H87.6434C86.1332 101.172 84.909 102.396 84.909 103.906C84.909 105.416 86.1332 106.641 87.6434 106.641H110.649C112.159 106.641 113.383 105.416 113.383 103.906C113.383 102.396 112.159 101.172 110.649 101.172ZM124.319 24.5735V115.616C124.319 121.044 119.903 125.46 114.475 125.46H37.2412C31.8132 125.46 27.3975 121.044 27.3975 115.616V107.867H22.79C18.87 107.867 15.6807 104.678 15.6807 100.758V97.831C15.6807 93.911 18.87 90.7216 22.79 90.7216H27.3977V78.6674H22.79C18.87 78.6674 15.6807 75.478 15.6807 71.558V68.6314C15.6807 64.7114 18.87 61.522 22.79 61.522H27.3977V49.4678H22.79C18.87 49.4678 15.6807 46.2784 15.6807 42.3584V39.4315C15.6807 35.5115 18.87 32.3222 22.79 32.3222H27.398V24.5735C27.398 19.1455 31.8138 14.7297 37.2418 14.7297H94.2819C95.7921 14.7297 97.0163 15.9539 97.0163 17.4641C97.0163 18.9743 95.7921 20.1985 94.2819 20.1985H53.2666V97.8381C53.2666 99.3483 52.0424 100.572 50.5322 100.572C49.022 100.572 47.7978 99.3483 47.7978 97.8381V20.1985H37.2418C34.8295 20.1985 32.8668 22.1612 32.8668 24.5735V32.3222H37.3757C41.2957 32.3222 44.4851 35.5113 44.4851 39.4315V42.3587C44.4851 44.2528 43.7444 46.0367 42.3993 47.382C41.0543 48.727 39.2701 49.4681 37.376 49.4681H32.8668V61.5223H37.3763C41.2963 61.5223 44.4857 64.7117 44.4857 68.6316V71.5583C44.4857 75.4783 41.2963 78.6676 37.3763 78.6676H32.8668V90.7218H37.3763C41.2963 90.7218 44.4857 93.9112 44.4857 97.8312V100.758C44.4857 104.678 41.2963 107.867 37.3763 107.867H32.8668V115.616C32.8668 118.028 34.8295 119.991 37.2418 119.991H47.7981V109.186C47.7981 107.676 49.0223 106.451 50.5325 106.451C52.0427 106.451 53.2668 107.676 53.2668 109.186V119.991H114.476C116.888 119.991 118.851 118.028 118.851 115.616V24.5735C118.851 22.1612 116.888 20.1985 114.476 20.1985H105.626C104.116 20.1985 102.892 18.9743 102.892 17.4641C102.892 15.9539 104.116 14.7297 105.626 14.7297H114.475C119.903 14.7297 124.319 19.1458 124.319 24.5735ZM39.0164 42.3587V39.4315C39.0164 38.5423 38.265 37.7909 37.3757 37.7909H22.79C21.9008 37.7909 21.1494 38.5423 21.1494 39.4315V42.3584C21.1494 43.2476 21.9008 43.999 22.79 43.999H37.376C38.9316 43.9405 39.0164 42.3587 39.0164 42.3587ZM22.79 73.1986H37.376C38.2652 73.1986 39.0166 72.4472 39.0166 71.558V68.6314C39.0166 67.7422 38.2652 66.9907 37.376 66.9907H22.79C21.9008 66.9907 21.1494 67.7422 21.1494 68.6314V71.558C21.1494 72.4475 21.9005 73.1986 22.79 73.1986ZM22.79 102.398H37.376C38.2652 102.398 39.0166 101.647 39.0166 100.758V97.831C39.0166 96.9417 38.2652 96.1903 37.376 96.1903H22.79C21.9008 96.1903 21.1494 96.9417 21.1494 97.831V100.758C21.1494 101.647 21.9005 102.398 22.79 102.398Z" fill="white"></path>
</svg>
