<svg width="32" height="32" viewBox="0 0 32 32" fill="none" xmlns="http://www.w3.org/2000/svg">
<path fill-rule="evenodd" clip-rule="evenodd" d="M16.3326 2.6665C22.398 2.6665 27.3326 7.6385 27.3326 13.7505C27.3326 21.2638 18.7246 28.6665 16.3326 28.6665C13.9406 28.6665 5.33264 21.2638 5.33264 13.7505C5.33264 7.6385 10.2673 2.6665 16.3326 2.6665ZM16.3326 4.6665C11.37 4.6665 7.33264 8.7425 7.33264 13.7505C7.33264 20.1225 14.8313 26.3305 16.3326 26.6612C17.834 26.3292 25.3326 20.1212 25.3326 13.7505C25.3326 8.7425 21.2953 4.6665 16.3326 4.6665ZM16.334 9.33317C18.7233 9.33317 20.6673 11.2772 20.6673 13.6678C20.6673 16.0572 18.7233 17.9998 16.334 17.9998C13.9446 17.9998 12.0006 16.0572 12.0006 13.6678C12.0006 11.2772 13.9446 9.33317 16.334 9.33317ZM16.334 11.3332C15.0473 11.3332 14.0006 12.3798 14.0006 13.6678C14.0006 14.9545 15.0473 15.9998 16.334 15.9998C17.6206 15.9998 18.6673 14.9545 18.6673 13.6678C18.6673 12.3798 17.6206 11.3332 16.334 11.3332Z" fill="#1A1A1A"></path>
</svg>
