<svg width="1638" height="694" viewBox="0 0 1638 694" fill="none" xmlns="http://www.w3.org/2000/svg">
<path opacity="0.2" d="M1635.34 521.218L1635.72 523.23L1634.05 526.33L1634.6 528.138L1632.93 528.984L1632.81 529.793L1635.22 532.059L1635.2 536.948L1633.63 539.735L1630.43 539.507L1629.05 541.549L1623.55 540.057L1622.52 541.27L1620.14 542.079L1619.03 543.605L1618.37 547.959L1615.28 552.28L1615.18 552.807L1614.86 553.844L1612.92 556.144L1612.09 562.04L1609.28 561.569L1607.87 564.105L1605.09 562.717L1600.33 566.802L1592.09 568.285L1590.13 570.401L1587.45 566.441L1583.76 566.138L1582.32 563.79L1578.62 562.172L1578.3 562.081L1578.1 562.122L1575.9 562.514L1573.53 563.724L1569.51 563.142L1568.41 564.643L1564.77 565.158L1563.81 563.217L1559.89 563.849L1557.75 562.993L1555.32 564.323L1554.67 562.427L1549.02 562.191L1547.39 563.245L1543.33 562.453L1541.54 563.027L1539.99 560.196L1537.31 559.785L1535.32 557.93L1533.79 557.939L1530.38 556.391L1529.02 552.204L1525.54 552.118L1526.34 550.712L1528.34 550.147L1529.27 548.118L1528.44 545.107L1528.7 544.595L1529.39 543.315L1529.76 542.673L1529.72 540.727L1528.61 539.785L1527.95 539.229L1527.85 539.144L1528.06 538.022L1528.12 537.5L1527.42 536.524L1525.63 534.439L1526.14 532.049L1527.95 529.455L1529.64 528.584L1530.69 528.005L1530.52 527.079L1526.68 528.95L1526.18 529.083L1524.34 531.26L1524.26 532.934L1522.7 533.652L1515.17 534.091L1509.67 535.465L1502.58 538.71L1502.15 539.474L1502.07 539.576L1501.61 540.316L1500.93 541.997L1499.86 543.918L1499.38 544.287L1499.1 544.404L1497.89 543.589L1496.06 542.214L1494.03 542.36L1495.31 539.104L1494.42 537.44L1489.6 536.008L1488.34 533.761L1483.8 532.004L1476.58 532.485L1470.12 534.575L1468.36 533.078L1464.63 532.354L1464.16 534.038L1460.19 534.275L1457.8 533.557L1456.86 532.414L1453.56 533.182L1450.09 531.754L1447.3 532.787L1441.89 536.104L1440.34 536.139L1434.64 543.546L1432.19 542.433L1430.25 542.478L1428.49 539.684L1426.27 538.932L1425.97 537.545L1423.18 538.578L1420.41 538.315L1418.79 539.766L1416.8 538.992L1414.66 541.52L1411.29 540.18L1408.35 540.518L1407.51 540.187L1405.53 539.648L1401.58 542.727L1395.4 547.823L1394.21 549.684L1394.94 552.56L1393.3 552.298L1392.53 556.333L1388.74 554.815L1386.6 556.216L1386.47 559.492L1384.33 560.89L1383.72 560.94L1383.33 557.615L1381.38 559.916L1380.25 559.916L1380.28 557.681L1379.23 556.007L1375.59 555.182L1371.83 550.3L1371.43 548.103L1368.45 547.832L1376.01 558.011L1373.76 557.801L1372.51 556.355L1369.88 555.47L1366.11 559.047L1366.34 556.986L1365.06 555.166L1366.1 553.741L1364.71 552L1364.28 551.636L1358.38 551.937L1357.57 551.981L1355.12 552.211L1348.07 554.536L1344.6 556.847L1341.79 561.286L1340.39 561.403L1340.56 562.282L1339.81 563.164L1339.42 563.621L1338.11 563.637L1337.1 562.569L1335.96 563.51L1335.9 566.453L1331.08 569.931L1328.85 572.772L1328.27 575.452L1328.89 578.056L1326.03 579.022L1324.03 578.672L1322.67 579.605L1321.46 579.496L1320.22 578.096L1319.86 578.526L1319.93 580.846L1315.96 585.993L1315.27 586.145L1314.88 585.073L1314.06 585.118L1311.35 587.902L1309.81 591.722L1311.52 595.432L1311.2 596.07L1308.57 596.712L1306.15 595.574L1305.76 594.502L1305.72 594.294L1306.7 592.262L1306.2 591.27L1303.18 589.102L1304.26 587.367L1303.57 585.263L1301.02 585.405L1298.93 583.417L1290.87 587.143L1289.26 586.172L1285.27 586.176L1284.76 587.44L1283.58 587.961L1282.3 587.268L1281.47 585.998L1281.85 585.755L1287.07 582.055L1285 578.961L1286.31 575.163L1287.87 574.446L1290.53 570.439L1291.12 567.949L1292.94 567.795L1292.9 566.978L1292.95 566.457L1291.77 565.851L1288.84 567.317L1286.55 565.556L1285.44 565.952L1284.16 566.391L1284.22 568.312L1283.21 569.712L1284.2 574.326L1283.9 574.471L1279.4 579.119L1279.37 581.568L1275.36 583.429L1273.65 583.664L1271.94 583.009L1270.75 585.55L1272.71 590.814L1271.89 591.989L1267.69 590.694L1266.7 592.115L1266.19 591.335L1267.39 589.309L1266.58 587.145L1266.91 586.08L1263.65 583.486L1262.68 580.632L1261.3 579.807L1257.55 580.237L1254.4 581.697L1252.18 579.462L1248.67 579.14L1248.5 578.217L1248.32 575.977L1246.76 575.613L1246.63 573.977L1244.89 574.242L1243.53 572.311L1236.74 569.208L1233.03 568.886L1221.22 574.166L1220.63 575.534L1214 580.69L1212.04 580.548L1210.5 581.499L1208.97 582.849L1209.41 585.655L1208.3 586.969L1204.94 588.47L1204.42 590.673L1203.53 591.055L1203.34 590.154L1201.94 590.271L1201.48 589.487L1200.77 588.536L1198.9 588.081L1198.23 589.943L1196.52 588.887L1196.7 586.22L1193.19 587.029L1191.5 588.767L1189.44 588.539L1188.82 587.275L1184.74 585.9L1183.93 587.257L1182.29 586.997L1181.64 587.967L1176.22 585.458L1176.07 587.022L1174.21 588.492L1172.53 588.937L1169.77 587.544L1162.83 588.617L1157.52 592.631L1155.34 596.994L1153.51 595.619L1151.88 594.627L1149.68 595.234L1149.54 596.984L1147.21 597.484L1143.52 596.052L1136.48 598.166L1130.86 595.884L1128.36 596.586L1125 595.432L1123.37 596.484L1120.97 596.191L1116.84 597.944L1114.27 600.321L1112.79 603.193L1108.03 607.276L1101.25 615.478L1101.24 614.161L1100.78 613.38L1100.2 612.723L1099.37 612.578L1099.85 614.679L1099.99 614.973L1099.39 616.55L1097.34 620.102L1086.56 633.029L1086.79 634.352L1085.58 635.98L1085.5 638.735L1082.42 639.509L1080.59 642.129L1079.59 645.971L1077.5 646.85L1074 649.915L1068.89 651.233L1068.45 652.209L1065.47 651.94L1063.66 653.616L1063.34 655.783L1062.3 656.807L1059.71 657.612L1059 657.789L1056.74 661.124L1050.84 663.685L1045.84 669.996L1042.7 671.294L1041.47 675.153L1039.18 675.864L1038.28 678.71L1036.9 679.014L1035.88 681.754L1033.31 681.662L1030.05 685.106L1028.9 684.872L1028.57 684.594L1025.18 680.812L1016.15 673.904L1015.25 671.442L1013.08 666.218L1009.29 662.445L1007.66 658.587L1006.79 652.949L1007.56 650.042L1007 646.917L1004.41 641.728L997.911 635.832L989.118 631.771L986.17 631.922L981.712 633.395L978.15 633.812L972.793 634.349L965.097 637.648L959.622 637.916L956.192 635.922L955.984 635.963L953.473 636.264L951.938 637.616L949.453 639.679L944.034 642.031L942.566 641.356L941.374 639.435L941.392 637.366L943.201 637.944L944.039 636.955L944.544 634.566L943.24 633.852L939.919 634.035L939.82 631.693L941.44 629.115L946.251 626.764L948.306 624.337L941.299 625.952L934.375 632.335L933.483 634.054L928.108 634.407L925.163 632.303L922.851 633.905L921.831 633.779L919.088 630.153L916.158 628.236L913.096 628.112L910.832 630.324L904.803 617.88L903.419 617.055L906.657 629.262L907.723 631.076L912.346 633.863L914.152 632.397L918.261 633.794L924.085 638.901L924.819 637.829L926.118 637.627L930.836 638.971L934.161 638.579L935.376 637.35L935.361 636.035L936.489 636.035L938.287 645.282L936.521 649.825L934.304 652.853L926.769 661.748L926.895 661.855L926.629 663.501L928.22 665.413L928.643 668.242L927.755 669.751L925.388 670.959L925.251 671.581L924.653 673.158L925.723 681.011L923.574 680.884L916.932 674.694L915.39 674.517L911.657 676.261L906.754 680.053L902.251 686.957L902.408 689.179L904.07 691.928L902.399 692.774L900.201 690.913L897.589 690.003L893.494 692.174L889.931 688.596L888.233 686.811L884.351 686.735L877.789 683.778L877.302 683.022L874.733 682.93L872.678 681.363L868.939 680.45L867.575 677.605L859.498 675.106L858.135 673.387L855.715 672.249L855.553 669.112L853.433 663.37L851.74 662.5L850.365 663.202L848.773 662.418L847.265 663.789L842.279 660.304L832.347 653.798L829.756 650.865L825.18 649.815L820.807 650.062L816.274 648.09L812.487 643.189L812.274 640.573L811.293 639.529L807.184 638.132L806.32 636.489L803.768 637.709L802.61 635.952L799.562 636.018L796.151 634.258L793.998 630.346L788.891 625.673L786.26 625.706L780.668 627.391L779.083 626.396L778.317 620.846L773.53 614.924L769.792 611.758L760.367 597.74L760.225 597.446L750.484 586.721L749.992 582.18L740.921 578.448L734.866 579.349L731.359 576.166L728.952 575.473L725.233 571.364L719.786 560.894L717.952 559.731L718.043 559.418L715.455 553.101L715.305 551.281L715.678 550.637L717.032 548.576L713.371 544.91L711.259 542.948L710.747 539.301L711.846 536.672L710.882 525.827L708.483 522.667L703.652 519.92L701.176 518.388L697.389 513.487L691.888 509.739L689.527 504.743L684.7 502.913L679.255 497.563L673.477 497.01L672.792 495.822L661.988 492.137L655.687 491.537L655.399 491.467L652.959 489.226L651.511 486.48L647.488 484.983L643.107 484.828L636.369 481.209L635.526 480.668L633.686 476.848L629.721 473.49L626.566 466.306L617.453 463.494L610.293 464.419L607.657 463.485L607.036 462.221L606.951 462.322L605.671 460.504L605.469 460.333L603.108 460.2L601.198 461.79L598.541 464.056L596.415 465.645L594.259 469.112L593.582 473.444L591.503 477.896L590.816 482.958L573.809 497.25L571.253 500.729L570.711 502.701L573.674 506.73L574 509.264L572.409 508.48L571.005 506.553L570.071 505.198L567.343 502.887L566.544 498.043L562.479 499.718L561.65 500.492L558.344 503.731L554.719 508.215L555.24 512.26L554.184 512.841L552.035 512.714L550.809 512.626L546.126 510.575L543.945 511.154L538.319 517.334L537.533 520.054L539.776 521.606L539.674 522.649L527.307 518.556L528.424 516.111L522.257 513.15L516.275 513.554L512.113 514.934L509.965 514.808L505.39 518.878L503.222 518.518L502.701 518.467L501.303 520.322L495.429 520.6L492.646 522.758L489.508 523.135L488.105 524.382L478.967 523.801L465.797 526.239L459.718 523.174L456.557 524.448L453.358 522.693L452.626 521.509L453.133 520.245L451.784 519.84L450.684 517.606L448.122 516.174L445.638 517.11L440.979 516.158L441.387 513.678L440.16 510.211L439.361 507.621L438.346 509.023L439.046 511.526L439.074 515.283L438.261 515.372L438.93 517.245L432.404 518.703L430.96 519.742L412.555 526.772L407.186 532.036L406.781 532.258L404.248 534.839L395.19 535.291L389.475 537.787L387.032 538.93L385.262 539.689L383.646 540.009L382.743 540.204L380.453 539.784L379.954 539.708L371.698 539.878L366.787 541.016L352.4 549.756L346.377 551.08L342.046 550.407L336.433 551.297L335.164 551.003L330.742 549.515L322.351 550.305L319.385 551.401L314.311 554.267L312.035 556.289L309.125 559.468L304.965 558.593L304.443 558.542L302.017 558.744L299.195 559.003L296.835 558.87L293.031 554.911L290.589 554.926L289.2 554.314L285.054 554.753L280.151 553.422L274.03 553.53L272.601 555.884L269.972 559.909L270.062 563.541L272.073 569.412L274.321 571.88L277.364 575.2L278.464 578.563L275.279 582.117L267.746 584.763L265.773 584.225L265.026 582.854L265.998 578.376L264.983 574.915L262.506 570.517L261.997 569.734L260.99 564.931L259.213 563.035L252.953 561.514L251.218 562.692L249.977 565.028L250.646 569.154L250.658 569.55L249.197 571.531L248.826 573.3L248.613 574.422L249.256 573.664L251.817 571.101L252.688 569.407L253.402 568.103L253.202 565.676L252.368 565.533L251.545 564.098L252.709 563.39L255.858 563.41L258.239 564.645L259.476 566.257L259.71 570.232L262.821 578.338L261.939 582.709L261.708 583.647L263.127 585.761L265.499 586.289L267.601 586.728L270.928 586.333L277.148 583.7L280.91 578.594L281.17 576.904L279.555 573.279L276.266 570.71L274.968 569.784L273.663 566.204L273.228 564.924L276.36 563.019L286.31 564.843L294.373 563.775L301.323 565.146L304.313 562.947L311.785 563.241L317.608 559.49L319.979 558.893L324.508 560.255L327.501 559.794L328.663 560.215L332.374 561.621L333.866 561.191L336.571 560.66L337.298 560.929L349.774 563.764L351.876 564.203L358.886 563.711L361.295 563.324L364.481 562.636L367.077 559.365L373.935 557.056L376.354 555.327L381.486 554.594L383.105 553.144L385.719 547.804L386.013 547.662L386.31 547.567L388.779 546.445L388.94 548.661L387.637 551.122L387.142 551.962L387.074 551.991L385.041 553.264L385.062 554.059L385.067 554.975L385.103 557.698L385.105 557.747L384.336 559.526L384.176 559.868L381.085 562.851L381.043 562.902L380.542 563.39L380.574 563.455L380.974 565.492L382.245 566.091L382.251 566.135L382.231 566.21L382.384 567.207L382.407 567.487L382.228 567.596L380.637 568.81L379.048 569.2L377.71 569.5L375.106 570.116L374.372 570.88L373.498 571.707L373.506 571.8L373.617 573.154L373.621 573.2L374.868 572.906L376.206 572.607L375.443 573.354L375.541 574.826L378.565 574.175L378.646 574.591L378.625 574.616L376.382 577.059L374.783 576.182L372.124 574.711L369.981 573.503L368.262 573.74L367.989 574.421L367.514 575.495L367.496 575.566L367.737 576.204L368.272 577.826L368.923 579.771L366.197 581.76L364.888 582.692L364.82 582.721L364.6 583.185L364.539 583.308L364.006 584.245L364.035 584.313L364.253 586.104L364.693 589.733L364.111 590.369L360.833 587.632L360.808 587.611L359.412 590.079L359.166 590.522L359.147 590.545L358.705 595.471L357.468 597.29L356.113 599.094L355.966 600.446L355.863 601.183L355.563 602.97L352.053 602.249L348.684 603L346.523 604.425L342.422 607.116L342.256 607.414L341.946 607.934L341.426 608.752L341.452 608.774L342.505 611.576L342.351 615.701L342.332 615.723L341.872 616.419L340.817 617.87L337.037 620.49L336.414 620.918L334.081 622.545L333.339 624.087L333.09 624.484L332.062 626.261L331.795 626.73L330.913 628.284L330.701 629.711L330.576 630.473L329.029 631.377L323.162 630.315L323.018 630.28L322.972 630.284L322.947 630.263L322.416 630.377L321.091 630.558L321.076 630.628L319.839 633.574L319.815 633.602L318.265 634.459L317.738 633.492L308.672 637.488L307.606 633.42L295.841 635.48L293.78 629.003L289.028 633.487L277.87 623.255L264.059 628.141L260.671 622.102L251.429 622.567L243.77 618.858L238.17 629.31L239.313 636.616L231.017 646L236.352 656.858L232.993 656.574L227.812 663.816L217.52 664.394L216.884 674.926L209.799 677.043L206.332 674.888L208.927 670.748L202.68 664.502L208.696 658.526L204.134 652.492L199.955 650.511L193.501 655.724L180.14 650.707L183.08 647.901L179.452 639.483L189.725 627.611L186.31 624.934L186.667 618.725L179.044 613.436L175.316 608.672L158.089 614.056L151.383 604.816L147.171 607.587L144.377 603.05L142.191 617.001L138.494 616.04L132.654 624.726L128.468 624.958L125.307 624.234L120.171 616.931L118.719 610.144L127.923 610.647L137.793 604.371L138.028 599.843L125.426 600.023L120.7 592.851L113.495 589.527L114.573 582.929L111.621 581.036L88.1451 582.686L79.8656 576.841L77.7487 569.712L68.5127 571.961L67.0877 548.652L63.5432 541.877L51.8493 548.769L49.8907 555.793L53.3894 565.49L49.985 569.51L50.3635 574.389L44.7471 571.238L40.6607 572.683L39.4837 566.954L32.1139 569.611L32.9071 565.551L18.0694 571.956L10.8516 570.184L12.4032 559.646L10.9601 555.818L5.70296 557.313L15.3157 547.091L13.3558 540.699L8.47689 541.081L13.842 536.335L12.5101 529.867L17.9988 526.05L13.5762 516.573L1.59737 511.767L3.39083 506.731L27.9913 502.474L28.9486 499.551L27.2987 479.528L32.2264 479.139L34.1337 468.642L46.4884 468.344L51.2376 456.694L58.2569 460.903L66.9112 454.731L75.6811 453.954L78.0607 445.767L85.774 441.577L89.4648 432.764L95.1309 428.532L111.05 427.559L110.809 418.933L117.72 403.86L125.506 399.124L127.436 391.724L125.241 380.487L127.297 373.81L131.62 374.954L134.651 383.205L143.669 379.472L148.2 370.589L146.435 356.591L153.756 354.196L154.335 350.388L163.625 350.79L170.755 342.372L171.282 342.21L172.373 333.752L164.908 332.118L164.579 328.718L171.822 298.298L165.115 297.306L174.696 285.277L177.839 269.531L176.508 253.946L185.001 245.25L194.892 252.061L198.645 250.55L198.858 246.047L195.982 244.782L201.664 239.61L199.336 221.618L195.712 216.985L201.356 212.78L200.845 206.264L209.864 201.404L213.928 211.098L222.907 203.417L226.113 192.461L229.853 189.377L236.739 191.081L243.033 182.524L240.593 180.283L246.101 176.699L249.641 177.18L253.79 187.901L261.923 193.049L280.027 184.119L294.617 194.344L299.409 190.94L297.571 180.614L302.609 176.458L305.337 165.658L305.811 163.715L317.566 154.087L311.823 142.585L322.954 134.821L325.573 127.223L339.444 113.969L341.826 110.082L336.877 99.6389L340.31 98.2487L341.524 93.0253L343.699 96.0397L346.184 95.9738L345.655 92.3994L352.311 95.9101L355.407 87.5437L352.981 82.3675L363.506 77.7764L365.825 76.8313L367.034 80.9859L378.358 80.9827L380.454 85.8834L381.99 90.5229L381.832 105.459L389.914 112.868L396.69 127.812L402.168 128.718L399.111 142.366L405.141 143.952L416.935 140.271L409.505 149.042L414.798 148.837L425.487 156.497L435.967 154.828L435.144 159.384L438.67 154.556L435.904 140.665L439.408 113.329L426.78 112.618L420.721 104.356L430.081 96.2248L434.856 94.5818L438.556 98.7146L442.409 97.2894L442.516 97.163L442.469 95.1697L451.73 88.9474L453.56 85.2002L449.557 79.6829L441.195 78.852L447.1 68.9618L446.365 64.0417L451.668 64.2347L457.155 57.5513L460.986 57.2793L462.623 50.6345L465.544 50.1564L466.796 41.9693L471.098 36.0189L457.157 34.1958L460.036 26.0848L466.666 20.716L450.017 9.38857L457.973 5.32148L458.037 5.24569L464.276 9.96586L465.312 10.279L466.805 10.9746L467.987 11.372L473.624 10.5032L474.275 11.2714L473.543 12.3403L475.831 12.763L476.675 14.4291L477.786 14.2451L478.879 13.8251L479.636 15.5948L478.651 17.0137L479.263 18.4923L480.975 15.6007L480.725 12.567L479.169 11.0753L479 9.02177L478.151 8.69308L475.684 9.81244L474.841 9.27177L477.654 7.48676L479.558 7.23659L480.862 7.95035L482.167 11.5306L485.636 15.424L487.328 17.4214L493.759 24.7311L500.814 29.9732L511.671 35.3873L518.247 36.7899L526.005 37.1566L533.56 35.6111L536.031 36.2278L536.738 37.3908L535.768 38.9964L531.419 38.139L528.885 38.4675L528.237 39.4378L529.066 44.6553L528.214 47.7105L529.558 49.1963L528.464 50.7441L529.085 52.0082L530.535 52.4983L532.346 51.9481L536.296 56.8095L536.337 57.0175L535.601 58.0915L533.174 58.2936L532.954 60.7556L532.887 61.09L531.547 62.212L531.317 64.2752L531.81 67.6882L534.615 68.3709L536.01 65.5974L536.555 64.544L536.641 64.4428L537.377 61.1156L536.479 59.0523L536.817 56.8601L537.008 56.6351L535.679 55.336L536.934 54.3151L539.555 56.7519L541.424 58.3351L542.409 59.1693L543.585 62.032L544.477 64.3073L545.763 67.6542L545.193 68.1223L544.236 68.7916L540.951 71.1328L541.381 73.7498L542.43 74.2523L544.983 74.1571L546.238 73.1362L546.138 71.9228L544.091 71.8818L546.385 70.0436L547.066 69.4959L547.152 69.3948L547.902 67.3822L548.663 66.8935L550.007 70.6843L551.614 71.6547L555.987 71.4081L556.782 70.2142L555.168 67.7146L556.774 67.5597L559.301 68.5711L560.971 66.5993L563.767 66.8834L565.022 65.8626L566.152 63.6068L562.577 60.9652L555.59 63.1705L550.636 63.4891L549.681 63.0282L548.068 62.2696L546.468 59.9592L546.561 58.5182L547.81 57.7094L548.294 59.5957L549.611 59.5777L550.446 56.3386L550.81 55.9088L552.85 53.2954L559.715 53.6401L562.004 55.188L563.162 54.6923L562.42 53.1093L559.55 51.6331L554.696 52.0373L557.505 49.3363L562.54 49.4339L562.576 48.726L558.068 47.3392L554.615 49.8801L553.165 49.3899L552.174 46.5143L552.595 45.3513L553.144 44.293L550.903 43.354L551.032 42.3306L551.966 41.4328L552.85 42.1816L554.02 41.2618L552.532 39.4331L549.547 40.295L546.315 39.8592L550.409 37.0746L550.446 35.2389L548.897 32.4073L548.356 32.1234L546.235 34.8847L543.368 34.8884L541.777 34.1046L538.171 34.8278L539.217 32.6705L538.671 30.9093L539.658 29.4878L545.48 26.8649L548.506 23.9578L549.393 21.3228L548.771 17.1924L547.881 16.6557L545.22 15.136L545.532 14.1021L549.391 12.465L556.408 13.5019L560.353 11.7637L562.525 9.60913L562.791 7.96342L561.274 5.5544L561.704 4.79017L564.538 4.364L566.708 2.21188L567.669 1.33302L572.053 2.61036L579.466 9.63169L583.898 12.6437L587.879 13.9358L590.485 13.3171L590.798 13.4084L597.813 14.4481L598.526 16.5244L597.33 19.6785L594.771 23.1599L602.964 33.3071L606.023 40.8085L605.144 44.9699L608.672 45.8746L609.007 49.935L614.331 54.097L615.974 56.6129L614.808 57.3232L615.343 58.6884L616.311 61.5919L620.652 64.917L624.914 64.75L628.425 67.7237L629.129 70.0171L631.209 70.4289L632.447 73.2181L641.516 85.198L645.819 89.2335L646.725 93.9513L651.306 97.6582L654.083 101.703L656.297 104.877L659.084 107.628L662.458 108.971L663.729 112.131L667.662 112.814L674.591 111.342L676.289 110.874L678.808 109.231L679.78 107.623L678.493 105.404L681.401 105.044L682.741 103.922L688.116 103.569L691.959 101.745L693.923 99.6311L694.688 98.9331L695.159 92.3854L693.761 90.2461L692.832 89.8066L691.613 88.9917L690.807 86.6152L689.322 85.705L691.806 78.7784L693.704 75.8712L698.703 73.5023L704.531 72.4085L709.385 70.2633L714.858 69.9978L714.629 72.0611L710.475 74.9681L705.166 80.1094L704.229 82.1377L700.648 83.4461L699.677 85.0543L699.398 85.3829L698.412 85.6765L697.434 87.4966L697.192 108.217L698.296 120.484L702.489 150.257L703.945 160.521L707.998 172.637L709.423 179.661L713.192 187.195L716.672 199.781L720.945 209.435L724.384 217.818L728.087 221.692L729.451 222.284L730.487 225.978L734.545 229.637L745.12 246.496L750.856 249.096L751.756 248.904L759.229 248.07L759.441 248.076L761.185 248.424L764.815 248.85L767.063 250.19L772.387 250.358L776.884 253.038L781.887 254.454L785.676 257.099L791.442 265.195L796.967 268.915L802.987 267.594L805.957 265.42L807.447 266.118L810.887 270.507L818.516 275.276L826.694 281.856L838.817 288.694L839.872 289.24L843.147 290.495L847.579 292.382L848.706 292.382L851.654 292.23L853.096 291.194L858.784 290.932L861.637 289.355L863.065 287.004L873.237 284.11L873.857 284.249L873.521 285.311L871.486 288.84L868.581 290.938L867.621 292.943L869.167 292.91L871.637 289.532L874.313 287.5L875.07 286.401L874.778 285.415L875.468 285.266L876.039 285.923L876.282 286.303L883.19 288.594L886.222 289.469L890.663 290.014L893.687 287.109L895.179 286.679L895.202 288.393L895.985 289.056L899.741 290.153L901.052 293.521L901.851 294.371L904.094 297.048L906.304 304.221L905.469 305.207L903.119 303.781L901.595 303.788L901.231 304.218L899.831 306.076L899.656 306.487L898.359 312.73L899.355 315.089L898.224 316.219L898.475 318.125L895.762 319.995L893.749 327.494L894.211 330.533L892.399 332.212L892.013 333.794L893.993 332.993L894.892 333.928L894.849 334.851L894.069 341.354L894.07 342.479L895.07 343.5L895.837 342.851L897.431 341.379L897.348 340.35L897.146 337.925L898.008 334.705L901.012 328.957L901.022 324.233L902.491 320.962L908.396 311.072L911.531 308.036L914.899 301.858L911.586 301.314L909.102 302.249L908.46 301.88L908.967 300.616L912.741 299.08L916.674 298.635L920.25 296.41L920.762 296.062L924.767 296.455L925.16 296.401L929.948 295.203L932.601 292.327L933.539 291.425L935.585 290.34L936.486 290.148L938.882 289.572L950.216 287.099L951.48 285.351L954.384 284.381L963.824 277.486L972.347 268.294L973.377 267.078L974.104 265.093L972.868 262.353L972.214 260.666L973.582 261.048L974.089 259.784L972.692 256.517L973.882 254.703L973.74 254.409L972.383 252.478L973.42 251.663L977.094 252.908L978.785 254.906L984.073 255.781L984.532 257.902L985.749 258.72L985.316 262.304L991.267 260.398L995.741 260.237L1000.81 255.844L1000.81 253.589L1001.77 252.71L1003.55 253.266L1003.85 253.122L1005.27 251.901L1007.09 246.839L1009.08 244.747L1008.25 241.009L1005.71 239.811L1004.54 239.202L1003.2 236.731L1002.24 235.002L1002.2 231.927L999.49 232.458L997.899 231.674L994.802 228.877L994.475 227.471L995.169 227.317L999.008 226.575L1002 227.032L1002.94 227.26L1003.3 226.83L1004.17 226.262L1003.28 223.989L1004.2 222.902L1007.58 224.03L1011.36 223.102L1013.26 220.195L1015.78 219.471L1017.97 217.761L1016.9 215.9L1019.58 213.656L1023.2 213.12L1024.91 214.223L1029.2 212.949L1030.61 213.749L1030.74 215.382L1031.74 216.615L1035.86 218.198L1040.7 216.268L1044.97 218.356L1050.22 218.859L1053.04 219.94L1061.15 218.865L1065.59 217.156L1073.03 213.292L1084.3 204.179L1087.98 200.301L1090.02 199.214L1091.8 197.328L1092.74 196.216L1094.1 193.072L1093.11 188.455L1096.63 188.958L1101.64 195.287L1110.62 195.338L1114.1 194.343L1115.27 195.888L1118.17 195.531L1118.98 201.291L1118.13 203.617L1120.02 209.169L1122.74 212.421L1123.04 214.722L1122.47 215.19L1127.38 214.267L1131.91 212.245L1133.22 216.741L1137.62 221.99L1137.51 230.575L1141.14 239.857L1140.56 241.623L1139.05 241.866L1138.72 240.46L1137.83 240.441L1130.93 247.453L1132.05 257.252L1131.35 257.613L1132.72 262.905L1131.93 266.966L1132.57 272.199L1138.76 278.001L1137.72 281.284L1130.3 284.251L1128.18 285.84L1125.76 286.229L1125.61 286.877L1126.92 287.989L1123.81 289.869L1124.07 290.482L1127.16 289.496L1129.16 286.675L1131.3 285.272L1136.43 284.539L1141.24 285.575L1142.98 288.179L1143.67 289.155L1145.85 290.995L1147.98 292.063L1150.41 291.649L1152.1 292.518L1152.75 294.414L1157.86 293.049L1158.19 294.453L1160.64 294.673L1162.47 296.048L1163.78 297.89L1166.67 307.118L1165.97 308.21L1164.94 308.296L1164.39 312.733L1165.16 314.692L1167.07 315.565L1168.46 317.706L1171.65 318.146L1171.29 321.23L1172.16 322.92L1171.77 324.457L1167.35 329.004L1168.94 330.919L1167.21 333.623L1163.71 334.43L1162.46 336.369L1161.59 340.929L1158.74 338.512L1159.35 335.991L1158.32 334.55L1156.67 335.418L1157.81 336.944L1156.65 337.65L1156.27 337.893L1156.47 338.064L1158.01 339.369L1159.54 344.269L1162.21 343.321L1166.24 346.557L1169.22 346.826L1170.1 347.575L1169.65 348.315L1167.76 348.804L1167.22 350.773L1168.79 350.245L1172.29 352.985L1172.25 355.03L1168.84 358.183L1168.42 359.134L1165.51 364.781L1163.76 364.644L1162.99 366.424L1164.8 367.4L1165.97 370.475L1165.26 371.73L1163.7 372.497L1162.41 373.098L1160.97 374.134L1154.12 379.098L1155.02 381.159L1158.14 382.852L1162.04 379.778L1161.56 377.679L1162.23 376.896L1163.11 375.389L1164.87 374.444L1165.65 373.979L1169.96 370.634L1168.73 366.556L1170.39 367.05L1169.19 363.558L1170.99 363.217L1170.81 360.979L1170.93 359.958L1171.73 358.762L1172.65 358.593L1172.86 358.552L1173.74 358.385L1175.75 360.262L1179.23 361.685L1179.83 362.977L1182.28 362.796L1184.27 363.524L1183.5 361.355L1182.11 360.955L1182.01 359.527L1183.09 358.923L1182.56 357.346L1182.93 355.788L1180.65 356.682L1178.97 356.209L1177.78 354.078L1177.86 352.45L1178.94 351.841L1181.57 351.601L1183.15 353.326L1184.37 353.624L1183.24 350.757L1180.43 350.074L1178.49 350.119L1177.65 351.102L1175.59 350.877L1172 350.657L1171.75 348.753L1172.92 346.915L1172.66 345.012L1174.21 342.933L1174.4 342.705L1175.6 342.418L1181.78 344.441L1186.48 344.47L1187.93 343.224L1188.27 337.695L1189.44 335.861L1194.27 339.735L1200.05 340.687L1197.95 342.507L1197.58 344.065L1195.5 343.603L1194.13 345.48L1193.84 349.358L1196.55 364.851L1197.02 367.159L1201.73 375.836L1205.47 379.002L1207.41 381.827L1209.91 382.206L1213.04 385.635L1216.69 387.774L1220.44 393.595L1227.84 399.299L1232.76 401.942L1233.3 402.226L1236.67 402.44L1240.08 401.546L1240.68 400.368L1242.82 399.179L1248.85 400.51L1250.16 398.756L1251.6 398.848L1254.79 404.198L1256.24 404.688L1258.48 403.373L1261.7 405.361L1268.82 407.399L1271.47 409.646L1276.83 419.303L1278.25 420.289L1280.94 420.697L1283.36 419.37L1283.93 421.155L1283.09 421.952L1283.7 423.431L1284.35 423.586L1288.78 424.347L1291.75 428.164L1295.62 430.708L1297.92 430.914L1299.66 432.605L1303.57 430.234L1304.87 431.16L1304.96 434.841L1298.88 441.762L1298.89 445.544L1297.69 446.96L1299.51 449.064L1303.86 447.456L1306.56 448.265L1311.08 450.967L1315.43 451.827L1317.51 453.369L1323 452.207L1324.07 451.201L1325.92 447.687L1327.14 445.119L1325.81 442.691L1327.45 441.428L1328.58 439.169L1330.68 442.474L1338.93 440.989L1340.65 439.412L1340.92 436.429L1343.12 436.034L1345.31 434.322L1345.3 432.798L1347.63 431.383L1346.07 425.897L1348.25 424.188L1353.4 424.769L1356.15 423.319L1355.34 420.94L1356.51 420.023L1359.69 421.59L1361.56 420.918L1365.27 417.46L1366.78 417.427L1367.46 420.661L1366.1 424.018L1366.44 425.61L1368.8 426.871L1370.64 430.688L1370.43 431.81L1375.01 435.517L1379.92 435.508L1381.97 434.421L1384.97 434.923L1386.33 433.985L1388.3 434.316L1390.47 433.499L1391.85 434.324L1393.95 433.846L1394.46 432.368L1396.94 432.775L1398.64 431.221L1401.07 431.021L1402.35 431.713L1401.2 433.733L1401.38 434.848L1401.57 438.214L1402.7 439.342L1406.38 440.776L1409.33 440.836L1413.15 439.907L1415.11 438.921L1416.55 436.966L1418.56 437.718L1420.48 436.123L1420.34 434.492L1424.55 429.77L1430.57 428.658L1432.07 425.761L1436.59 427.335L1437.5 427.142L1441.69 426.182L1443.18 426.88L1443.37 429.118L1441.85 431.784L1437.69 432.037L1437.85 430.308L1432.93 432.527L1431.38 432.16L1431.1 433.619L1429.84 434.64L1430.52 435.383L1431.3 436.046L1435.28 432.426L1438.76 435.026L1440.91 435.15L1441 436.366L1440.18 437.538L1439.48 438.631L1436.78 439.561L1430.81 445.274L1429.27 445.097L1426.94 447.64L1430.08 446.345L1431.84 446.314L1432.02 447.428L1427.4 454.627L1426.6 457.161L1425.91 457.313L1425.22 460.331L1426.29 459.323L1427.98 459.067L1428.67 460.043L1429.83 459.335L1431.29 459.614L1434.5 457.819L1435.81 458.53L1435.33 459.089L1437.38 458.002L1436.73 455.19L1438.54 452.384L1439.85 451.97L1441.35 453.067L1442.41 457.184L1443.26 457.512L1443.69 456.347L1442.79 452.946L1438.99 448.987L1439.23 447.11L1441.04 445.644L1445.77 444.52L1448.01 445.862L1449.08 447.723L1448.81 450.706L1451.53 454.874L1452.65 455.086L1452.4 452.052L1452.36 451.632L1450.71 451.183L1449.92 449.392L1450.83 442.996L1449.15 442.313L1447.38 443.072L1446.43 441.529L1446.16 440.73L1446.54 440.275L1447.5 439.608L1447.32 436.237L1448.52 434.612L1449.83 435.725L1450.55 438.202L1453.01 439.548L1457.74 440.165L1459.6 437.963L1462.11 437.264L1466.51 437.391L1466.74 436.455L1469.77 433.546L1470.32 431.763L1469.15 430.028L1473.71 428.426L1477.11 428.872L1479.01 433.082L1483.22 433.438L1484.74 431.902L1481.13 428.114L1479.2 422.871L1480.22 422.997L1481.27 424.625L1483.5 424.65L1481.48 422.375L1479.37 421.541L1478.72 418.517L1477.23 418.946L1476.47 418.516L1476.8 417.452L1479.51 415.796L1482.81 412.56L1482.84 411.454L1480.61 409.173L1481.5 407.663L1480.93 405.668L1483.38 404.36L1483.25 401.598L1486.82 401.63L1488.18 399.567L1490.09 399.102L1491.66 397.044L1493.39 397.206L1494.34 397.62L1496.63 399.166L1499.05 399.178L1501.14 398.299L1501.71 396.701L1503.19 395.873L1503.8 393.566L1505.15 393.971L1509.76 391.446L1512.89 392.41L1513.09 396.177L1515.53 398.417L1517.02 397.985L1518.14 400.455L1520.06 401.305L1521.65 403.217L1525.07 403.849L1528.52 402.434L1531.36 399.542L1539.28 397.05L1542.27 393.322L1543.83 391.479L1546.78 393.583L1548.42 392.715L1549.82 393.517L1552.17 396.071L1548.5 402.201L1549.66 402.624L1550.28 405.016L1553.32 408.546L1553.19 409.776L1551.02 411.675L1550.86 413.45L1552.08 416.003L1549.62 415.785L1549.28 419.103L1550.02 420.639L1550.84 422.121L1549.21 424.511L1543.77 426.681L1543.3 428.153L1542.09 428.252L1540.42 429.31L1539.97 432.495L1539.77 434.789L1538.04 435.029L1538.01 439.731L1539.27 442.49L1535.57 444.608L1534.13 450.769L1533.98 464.97L1535.6 467.255L1535.45 471.688L1537.52 474.57L1541.03 476.416L1542.16 476.413L1542.91 477.784L1542.48 479.162L1543.56 481.209L1542.96 483.516L1543.68 485.993L1544.52 488.79L1547.3 489.239L1548.74 492.926L1554.45 493.038L1555.94 493.948L1553.7 496.178L1553.58 500.981L1555.63 504.805L1554.97 509.324L1555.53 510.92L1558.1 512.753L1558.15 515.403L1560.13 518.811L1567.9 523.661L1569.2 524.587L1572.18 523.728L1572.28 522.287L1573.58 520.954L1581 521.772L1581.98 519.952L1582.2 517.49L1582.59 512.57L1583.68 511.022L1586.43 509.569L1590.15 506.513L1595.97 504.099L1597.91 504.01L1598.58 505.928L1599.72 506.327L1601.57 505.069L1605.26 505.16L1611.02 509.474L1614.43 510.106L1617.75 513.305L1623.81 512.404L1624.58 515.485L1625.94 516.079L1626.26 516.168L1628.32 515.27L1631.77 517.451L1635.41 518.063L1636.41 520.422L1635.34 521.218Z" stroke="white" stroke-width="2"></path>
</svg>
