<svg width="894" height="1028" viewBox="0 0 894 1028" fill="none" xmlns="http://www.w3.org/2000/svg">
<path opacity="0.5" d="M859.635 1018.48L858.625 1019.73L855.922 1020.32L855.123 1021.57L853.765 1021L853.22 1021.34L853.1 1023.94L850.17 1026.42L847.7 1026.9L846.21 1024.87L844.286 1025.09L842.371 1021.04L841.123 1021.05L839.428 1020.04L837.946 1020.15L835.013 1021.98L830.855 1022.33L830.489 1022.54L829.71 1022.88L827.343 1022.89L823.398 1025.4L822.246 1023.48L820.013 1023.93L819.429 1021.57L814.562 1020.81L809.476 1016.64L807.21 1016.55L808.211 1012.93L806.511 1010.57L807.18 1008.52L806.258 1005.48L806.153 1005.25L806.022 1005.14L804.668 1004.03L802.737 1003.23L801.036 1000.54L799.58 1000.65L797.414 998.73L798.084 997.168L795.709 995.15L795.13 993.437L793.098 992.665L793.9 991.31L791.158 987.812L789.697 987.375L788.102 984.548L786.848 983.773L787.749 981.405L786.624 979.59L786.72 977.458L785.936 976.551L785.119 973.721L786.928 970.778L785.204 968.653L786.451 968.414L787.807 969.319L789.496 968.845L790.87 966.812L791.309 966.706L792.427 966.468L792.999 966.362L794.14 965.344L794.135 964.201L794.133 963.525L794.132 963.421L794.911 962.976L795.248 962.741L795.479 961.83L795.812 959.698L797.497 958.782L799.967 958.538L801.35 959.105L802.233 959.44L802.7 958.866L799.625 957.526L799.288 957.293L797.049 957.302L796.011 958.112L794.786 957.544L790.686 953.271L787.06 950.686L781.51 948.108L780.834 948.24L780.73 948.241L780.057 948.347L778.703 948.794L777.013 949.139L776.545 949.036L776.336 948.933L776.202 947.79L776.091 945.997L774.968 944.858L777.566 943.964L778.107 942.585L776.507 938.978L777.205 937.078L775.94 933.47L771.973 929.404L767.433 926.615L767.426 924.795L765.96 922.202L764.713 922.778L762.546 920.525L761.759 918.735L761.962 917.59L759.823 916.013L758.905 913.209L756.869 912.074L752.128 910.532L751.319 909.625L743.984 909.991L743.404 907.966L742.385 906.826L743.159 904.354L742.474 902.641L743.149 901.755L741.113 900.619L739.858 898.831L738.166 898.603L737.614 897.02L735.013 897.029L734.092 894.33L732.395 892.751L732.161 892.076L731.476 890.623L727.623 889.832L721.428 888.738L719.712 888.978L718.367 890.881L717.686 889.766L714.883 891.362L713.857 888.325L711.93 887.76L709.906 889.353L707.982 888.789L707.643 888.452L709.428 886.522L707.06 886.531L706.485 885.857L707.834 884.735L708.297 883.251L706.934 880.657L707.933 875.923L709.044 874.568L707.687 872.649L705.46 882.353L704.438 880.901L704.666 879.419L703.852 877.394L699.795 876.968L701.142 876.053L701.577 874.362L702.956 874.253L703.287 872.536L703.286 872.094L700.102 868.727L699.658 868.261L698.272 866.915L693.292 863.893L690.141 862.995L686.059 863.582L685.275 862.806L684.835 863.353L683.927 863.357L683.456 863.358L682.777 862.581L682.903 861.437L681.758 861.233L679.968 862.696L675.438 861.595L672.603 861.71L670.707 862.731L669.465 864.425L667.432 863.211L666.62 861.837L665.373 861.503L664.821 860.726L665.023 859.27L664.581 859.271L663.233 860.498L658.136 860.751L657.692 860.415L658.131 859.634L657.687 859.167L654.646 858.971L651.577 859.996L650.236 862.912L649.69 863.044L647.968 861.803L647.414 859.778L647.854 858.997L647.957 858.866L649.672 858.418L650.007 857.611L649.762 854.701L651.348 854.461L652.253 852.976L650.869 851.526L650.99 849.264L644.658 846.351L644.418 844.897L642.38 842.513L641.367 842.855L640.455 842.416L640.217 841.3L640.551 840.155L640.889 840.257L645.758 841.487L646.554 838.677L649.489 837.522L650.714 838.089L654.461 837.633L656.25 836.717L657.271 837.726L657.735 837.283L658.072 837.047L657.834 836.035L655.463 835.03L655.35 832.769L654.545 832.304L653.629 831.762L652.515 832.78L651.162 832.889L648.913 835.835L648.676 835.732L643.605 835.413L642.124 836.64L638.971 835.196L637.956 834.291L637.48 832.941L635.351 833.521L633.207 837.376L632.086 837.484L630.721 834.318L629.369 834.453L629.575 833.751L631.394 833.432L632.273 831.843L633.08 831.502L632.964 828.228L634.176 826.196L633.964 824.949L631.797 822.93L629.321 821.796L629.52 819.326L627.927 817.07L628.391 816.497L629.635 815.245L629.058 814.129L629.968 813.216L628.921 812.31L629.383 810.515L627.777 804.881L626.074 802.497L616.904 798.139L615.784 798.481L609.328 797.154L608.412 795.91L607.058 795.473L605.47 795.245L604.02 796.94L602.667 796.945L600.061 795.707L598.48 796.519L597.8 796.184L598.24 795.61L597.457 794.834L597.688 794.157L597.893 793.246L597.211 791.897L595.759 792.449L595.519 790.89L597.203 789.636L594.933 787.955L593.034 787.833L592.118 786.485L592.557 785.469L591.296 782.329L590.077 782.542L589.394 781.427L588.484 781.534L587.218 777.016L586.206 777.722L584.384 777.365L583.262 776.59L582.684 774.227L578.505 770.63L573.402 769.505L569.686 770.429L569.575 768.636L569.335 767.156L567.849 766.148L566.733 766.957L565.246 765.82L564.221 762.886L559.37 759.76L557.87 755.243L556.175 754.106L555.151 751.511L553.692 751.074L552.646 749.493L549.492 747.919L546.76 747.592L544.291 748.173L539.426 747.412L531.073 747.547L531.854 746.869L532.083 746.192L532.184 745.516L531.847 744.945L530.835 746.301L530.731 746.535L529.484 746.981L526.316 747.565L513.101 747.719L512.426 748.528L510.839 748.637L509.153 749.995L507.119 748.548L504.622 748.791L501.818 750.153L500.228 749.353L496.61 748.821L493.22 746.443L492.414 746.68L491.054 744.762L489.131 744.535L487.675 745.45L486.533 745.351L484.731 744.214L484.261 743.878L481.118 744.228L476.58 742.01L470.263 742.241L467.888 741.029L464.956 742.261L463.363 741.254L461.207 742.172L460.32 741.499L458.164 742.287L456.909 740.707L453.189 740.513L452.743 739.709L452.742 739.371L453.273 735.418L452.797 726.505L453.805 724.708L455.819 720.749L456.141 716.564L457.613 713.621L460.54 710.231L462.669 709.209L464.249 707.28L466.028 703.089L466.236 696.2L464.179 688.879L462.586 687.195L459.433 685.284L457.368 683.368L454.316 680.443L448.424 677.528L445.472 674.395L444.914 671.33L444.784 671.226L443.325 669.88L441.734 669.652L439.236 669.22L435.068 667.182L434.723 665.962L435.263 664.271L436.507 663.226L437.085 664.602L438.102 664.598L439.787 663.682L439.548 662.539L437.746 660.648L439.094 659.396L441.46 659.049L445.317 660.724L447.814 660.714L443.277 657.353L435.936 656.471L434.454 656.814L431.503 653.784L431.258 650.952L429.123 650.389L428.678 649.715L429.445 646.229L429.097 643.501L427.61 641.609L425.135 641.385L429.494 631.44L429.281 630.193L423.641 638.35L423.1 639.911L423.792 644.093L425.589 644.424L426.849 647.59L426.768 653.672L427.782 653.565L428.565 654.237L430.168 657.74L432.097 659.526L433.45 659.625L434.228 658.946L434.803 659.62L430.197 665.407L426.583 666.669L423.645 666.888L414.491 666.922L414.491 667.052L413.373 667.732L413.042 669.657L411.568 671.352L410.214 671.591L408.286 670.793L407.844 671.028L406.597 671.475L402.453 676.117L401.433 674.769L401.744 667.646L401.064 666.635L398.119 665.295L393.355 664.299L386.936 665.129L385.689 666.356L384.894 668.75L383.537 668.183L383.528 665.922L382.74 663.898L379.356 662.559L379.677 658.607L379.877 656.683L377.944 654.325L376.365 648.899L376.568 648.222L375.313 646.642L375.201 644.615L373.841 641.917L374.844 639.652L372.22 633.554L372.552 631.863L371.998 629.838L373.789 628.142L376.138 623.948L375.794 622.494L374.674 622.031L374.33 620.68L372.743 620.478L372.282 615.724L371.105 606.475L371.536 603.433L369.83 600.164L367.454 597.678L366.321 593.966L367.318 589.206L368.771 587.745L368.895 586.627L367.634 583.461L368.175 582.107L366.145 581.205L366.605 579.618L365.011 577.83L364.324 574.896L365.563 571.616L365.75 566.184L364.389 564.629L360.532 562.149L360.319 560.694L363.243 557.408L364.339 551.53L364.325 547.683L367.892 534.908L367.996 534.674L369.436 523.388L371.897 520.78L369.502 513.459L365.877 510.302L365.99 506.585L365.177 504.795L365.736 500.478L369.212 491.888L368.972 490.199L369.205 490.094L371.659 485.329L372.669 484.311L373.244 484.205L375.165 483.964L375.488 479.908L375.584 477.647L377.5 475.482L379.631 474.798L385.617 468.694L386.282 465.65L385.459 461.365L385.112 459.105L386.109 454.345L385.543 449.149L387.323 445.191L385.956 441.376L386.375 435.396L383.76 431.663L384.12 430.648L380.813 422.318L377.96 418.248L377.855 418.04L377.949 415.441L378.851 413.176L377.695 410.01L375.554 407.315L374.281 401.446L374.173 400.666L375.517 397.62L375.502 393.54L378.184 387.993L375.218 381.117L371.016 377.312L370.23 375.262L370.668 374.247L370.564 374.247L370.997 372.556L370.997 372.348L369.872 370.871L367.949 370.54L365.242 370.109L363.208 369.648L360.039 370.128L357.107 371.933L353.388 372.96L350.014 375.13L332.809 372.259L329.428 372.505L327.974 373.187L327.078 377.011L325.731 378.497L325.387 377.147L325.823 375.326L326.156 374.077L326.145 371.27L328.632 368.324L325.559 366.75L324.674 366.649L321.054 366.325L316.528 366.446L314.378 368.82L313.492 368.485L312.473 367.137L311.9 366.36L310.738 362.518L309.28 361.509L302.722 361.3L300.696 362.218L300.912 364.348L300.238 364.819L296.378 355.347L298.407 354.767L297.032 349.574L293.742 346.208L290.796 344.425L289.776 343.078L285.013 342.42L284.123 340.942L283.888 340.605L282.067 340.716L278.907 337.349L276.199 336.787L274.374 335.105L272.914 334.902L268.603 329.149L260.433 322.526L259.165 317.332L256.793 316.094L256.21 313.289L256.544 312.248L257.557 311.906L257.111 310.894L257.885 309.098L257.434 306.839L255.609 305.832L253.802 302.564L255.492 301.544L256.936 299.043L258.077 297.245L256.722 297.355L255.584 299.048L253.354 300.98L252.887 300.54L252.109 301.894L247.911 298.739L246.555 298.407L232.974 290.999L227.092 290.475L226.754 290.346L223.92 290.149L219.033 284.969L214.629 282.829L212.701 281.953L211.346 281.282L210.331 280.48L209.754 280.04L208.838 278.458L208.628 278.121L204.318 273.277L201.135 270.924L188.581 266.787L184.72 263.865L182.914 260.935L179.521 258.036L179.049 257.128L177.684 253.729L172.935 249.12L170.768 247.907L166.47 246.338L164.102 246.009L160.719 245.892L159.122 242.961L158.886 242.624L157.528 241.277L155.936 239.724L154.811 238.247L155.237 233.957L153.983 232.506L153.641 231.364L151.265 229.111L149.561 225.505L146.376 221.904L144.241 222.25L140.497 222.732L138.374 224.638L135.893 228.832L135.564 231.432L135.133 234.942L133.685 237.313L129.939 237.223L124.519 234.073L123.834 232.62L124.272 231.475L127.442 229.773L128.991 227.402L130.356 223.68L130.564 222.978L132.919 219.928L133.146 217.9L130.863 213.386L129.275 212.95L127.247 213.4L125.124 215.903L124.893 216.112L122.966 216.249L121.72 216.929L120.941 217.374L121.721 217.371L124.558 217.594L126.013 217.251L127.157 217.013L128.504 215.656L128.164 215.086L128.602 213.862L129.617 214.196L131.211 216.088L131.687 218.139L131.355 219.7L129.1 221.866L125.845 227.856L122.785 229.557L122.107 229.898L121.568 231.823L122.461 233.509L123.271 234.987L125.203 236.773L129.946 239.147L134.913 238.79L136.055 238.084L137.397 235.272L137.255 231.997L137.146 230.75L138.619 228.146L139.162 227.234L141.897 228.133L145.879 235.006L150.627 239.276L153.351 244.126L156.189 244.791L159.822 249.404L165.031 250.97L166.596 252.081L168.092 255.481L169.892 257.033L170.234 257.942L171.286 260.875L172.303 261.547L173.999 262.892L174.209 263.463L178.876 272.36L179.685 273.838L183.553 277.774L185.011 279.016L187.046 280.568L190.324 280.452L195.199 283.37L197.464 283.934L200.518 286.625L202.21 286.853L206.732 285.692L206.966 285.795L207.175 285.924L209.103 286.827L207.862 288.053L205.728 288.529L204.974 288.661L204.922 288.636L203.125 288.071L202.661 288.488L202.116 288.958L200.509 290.368L200.48 290.394L199.025 290.841L198.74 290.92L195.383 290.595L195.331 290.595L194.784 290.545L194.761 290.597L193.749 291.875L194.039 292.939L194.015 292.966L193.961 292.992L193.443 293.592L193.287 293.748L193.131 293.697L191.595 293.365L190.552 292.615L189.691 291.968L187.995 290.727L187.165 290.678L186.226 290.578L186.174 290.63L185.422 291.387L185.397 291.413L186.208 292.007L187.069 292.654L186.233 292.579L185.404 293.388L187.335 294.862L187.127 295.123L187.101 295.123L184.5 295.029L184.208 293.627L183.731 291.289L183.36 289.393L182.342 288.487L181.796 288.671L180.913 288.935L180.861 288.961L180.603 289.43L179.907 290.576L179.077 291.957L176.5 291.342L175.276 291.035L175.224 291.009L174.834 291.115L174.73 291.141L173.898 291.3L173.872 291.352L172.914 292.396L170.971 294.508L170.294 294.485L170.258 291.132L170.258 291.106L168.072 291.53L167.682 291.61L167.659 291.61L164.491 293.857L162.775 294.046L161.006 294.156L160.124 294.757L159.631 295.071L158.411 295.803L157.052 293.339L154.886 291.71L152.933 291.146L149.235 290.068L148.973 290.121L148.505 290.201L147.751 290.308L147.751 290.334L146.614 292.391L144.072 294.402L144.049 294.402L143.399 294.483L141.995 294.592L138.503 293.67L137.93 293.516L135.769 292.952L134.469 293.295L134.105 293.348L132.52 293.64L132.104 293.72L130.726 293.985L129.766 294.586L129.247 294.9L127.918 294.437L125.562 290.392L125.509 290.288L125.483 290.262L125.483 290.236L125.144 289.977L124.361 289.279L124.312 289.305L121.921 290.068L121.893 290.068L120.59 289.579L120.899 288.772L113.891 285.394L115.778 282.683L108.549 276.707L111.367 272.174L106.267 271.621L106.69 259.742L96.7311 253.983L98.6107 248.882L93.6222 243.599L91.9328 237.133L82.8356 239.117L79.0543 243.524L69.2206 243.353L65.4557 252.075L63.9127 249.923L56.946 250.521L51.3544 244.668L44.7398 249.658L39.8634 246.505L39.3831 243.336L43.179 242.776L43.7251 235.86L50.3606 236.407L51.6393 230.606L50.6921 227.101L44.2883 225.904L40.4738 215.366L43.6487 215.692L46.8265 209.234L59.1546 209.317L59.0116 205.913L62.9025 202.961L62.1753 195.712L63.1201 191.056L51.1228 183.512L53.2229 174.797L49.4207 173.694L50.7063 169.713L41.2594 175.518L39.9485 172.82L31.7839 173.761L29.5117 171.378L28.3325 169.122L30.0758 162.331L33.3891 158.004L37.7811 163.758L46.5605 166.453L49.3851 164.285L42.8536 156.851L44.7281 150.372L43.0405 144.374L47.5305 141.654L47.156 138.927L34.2034 125.746L33.4736 117.822L36.6521 112.923L30.6005 108.554L43.7957 95.8201L46.0352 90.2495L35.9574 86.7788L30.7639 89.1897L26.7558 96.2226L22.6197 96.2383L19.8986 98.9515L18.9173 93.9909L15.9714 92.2868L18.7931 88.6633L13.4488 85.6165L16.2782 84.0204L4.88916 78.4234L2.26807 73.2092L9.35291 68.7639L10.9031 65.951L7.33022 63.5733L18.3359 64.1034L21.1546 59.6743L18.4389 56.9554L24.0088 57.7401L27.1929 53.6474L32.2706 54.9798L35.676 47.5074L32.44 37.9029L36.3624 36.4066L51.4456 48.9292L53.6793 48.011L64.7966 36.8187L67.541 39.5634L74.7828 35.3514L81.2589 42.5784L90.638 39.4759L91.7026 45.8137L99.8004 47.8363L104.735 52.678L110.838 49.9257L117.273 52.3965L124.418 50.1083L129.833 51.3354L138.53 60.3474L143.559 55.8059L156.084 52.2496L162.882 54.4852L168.286 51.8656L173.878 44.8267L178.914 42.6505L180.434 45.8155L177.052 51.8324L183.878 55.3154L191.493 53.4931L198.954 45.3036L204.117 48.455L206.686 46.8598L211.182 52.6127L219.844 52.5799L220.209 52.8125L225.817 49.1525L222.988 43.861L224.851 41.9307L246.712 30.7497L243.885 26.238L255.954 25.8284L266.96 19.6787L275.59 10.9391L285.113 11.5788L286.087 20.9578L288.903 22.4288L291.701 20.2608L290.99 17.8983L296.976 18.6554L306.535 8.09274L307.454 3.56685L312.844 4.7941L316.474 1.16753L323.975 4.0762L320.257 11.4457L329.421 12.8925L337.599 9.22275L341.347 9.8843L343.84 14.8652L352.16 14.2619L352.254 11.6624L357.202 13.1252L358.72 15.4846L354.431 23.4281L355.503 30.9095L370.066 37.1703L371.396 51.0964L375.872 52.223L381.102 45.8614L386.152 46.752L393.994 42.8756L395.396 42.1685L407.138 44.2813L411.081 34.9876L421.392 37.6776L427.265 35.3682L442.252 36.8969L445.788 36.3377L449.502 28.0585L452.083 29.4002L455.821 27.4626L455.13 30.2982L456.436 31.7489L458.301 29.6105L459.597 35.3756L466.172 32.9595L468.027 28.872L476.134 32.818L477.881 33.7209L476.016 36.5611L481.791 43.3229L479.932 47.0726L477.944 50.355L468.943 57.8746L468.637 66.4788L463.167 78.1435L465.418 81.8778L455.708 87.0087L457.835 91.4191L466.046 96.5863L457.02 96.6205L459.841 99.6768L460.715 109.966L467.054 115.374L463.913 117.205L468.594 116.85L475.481 108.117L493.593 96.2741L487.58 88.3695L489.426 80.5392L499.054 81.9842L502.469 83.9985L501.887 88.3154L504.703 89.8902L504.833 89.8897L505.999 88.8455L514.437 91.2048L517.607 90.3871L518.862 85.1841L515.096 79.7663L524.013 78.251L526.577 75.3042L529.164 78.5694L535.953 78.4397L538.069 80.589L542.872 78.1796L544.647 79.6804L550.175 76.2546L555.922 75.7909L549.904 66.5349L556.216 64.1198L562.802 65.3424L561.08 49.6243L567.565 52.3029L567.643 52.3026L568.004 58.4351L568.345 59.2135L568.691 60.4598L569.056 61.3681L572.449 64.2923L572.322 65.0725L571.31 65.1803L572.224 66.7623L571.659 68.1159L572.335 68.6853L573.143 69.124L572.472 70.4781L571.123 70.6131L570.552 71.7329L573.152 71.2812L574.836 69.5854L574.934 67.8956L576.074 66.7477L575.837 66.0729L573.911 65.1704L573.804 64.3911L576.305 65.1614L577.424 66.1708L577.663 67.3135L576.19 69.9182L575.633 73.9749L575.303 76.0035L574.215 83.5709L574.681 90.4568L576.982 99.701L579.497 104.344L583.232 109.164L588.007 112.889L588.898 114.679L588.564 115.694L587.11 115.933L585.405 112.898L583.918 111.553L583.007 111.66L580.314 114.815L578.055 115.863L577.853 117.424L576.37 117.559L575.932 118.575L576.378 119.69L577.63 120.491L576.741 125.329L576.637 125.459L575.62 125.567L574.263 124.221L572.68 125.345L572.446 125.475L571.093 125.246L569.744 126.161L567.956 128.195L568.978 130.219L571.346 129.638L572.253 129.427L572.357 129.426L574.72 128.17L575.494 126.581L576.976 125.666L577.207 125.665L577.306 124.209L578.556 124.438L578.436 127.246L578.443 129.169L578.447 130.183L577.337 132.344L576.433 134.037L575.089 136.512L574.519 136.41L573.631 136.179L570.559 135.411L569.215 137.002L569.45 137.884L570.808 139.361L572.058 139.59L572.731 138.912L571.712 137.668L573.98 138.101L574.654 138.229L574.758 138.228L576.342 137.65L577.022 137.856L575.443 140.591L575.683 142.045L578.059 144.532L579.177 144.397L579.848 142.16L580.759 143.04L581.443 145.065L583.472 145.057L584.728 146.871L585.977 147.101L587.9 146.625L587.656 143.144L582.777 140.095L580.061 137.298L579.85 136.493L579.481 135.143L580.045 133.01L580.953 132.331L582.072 132.664L581.193 133.915L581.875 134.692L584.235 133.54L584.677 133.538L587.278 133.424L590.572 137.701L590.814 139.857L591.7 140.295L592.268 139.046L591.686 136.579L588.971 133.886L592.015 134.186L594.524 137.244L594.965 136.904L593.496 133.505L590.218 132.738L589.771 131.622L590.983 129.564L591.893 129.222L592.805 129.011L592.223 127.194L592.9 126.749L593.913 126.85L593.916 127.759L595.062 127.989L595.395 126.168L593.359 124.824L591.972 122.672L595.722 123.698L596.837 122.784L597.738 120.415L597.632 119.948L594.902 120.088L593.438 118.378L593.095 117.028L590.825 115.243L592.647 114.768L593.42 113.544L594.772 113.409L599.307 115.549L602.586 115.874L604.612 115.061L606.761 112.584L606.628 111.779L606.18 109.415L606.956 109.074L609.901 110.545L612.859 115.264L615.908 116.734L618.302 116.933L619.42 116.253L620.086 114.119L620.762 113.986L622.461 115.461L624.852 115.66L625.867 115.786L627.339 119.056L626.924 127.062L627.385 131.245L628.643 134.281L630.341 135.523L630.446 135.756L633.401 140.475L632.524 141.96L630.03 142.853L626.647 143.1L624.763 153.166L621.842 158.817L618.909 160.413L620.167 162.982L617.912 165.251L618.141 170.553L617.475 172.817L616.457 172.482L615.915 173.498L614.674 175.556L614.901 179.844L617.173 182.304L617.187 185.917L616.176 187.506L616.99 188.959L615.955 191.12L613.424 202.644L613.207 207.271L610.851 210.217L610.972 214.843L609.972 218.563L609.205 221.503L608.983 224.571L609.901 227.271L608.661 229.641L610.258 232.338L614.67 235.726L615.815 236.501L618.081 237.168L619.537 236.929L620.206 235.029L621.902 236.582L623.256 236.811L626.207 239.84L629.256 241.206L631.519 241.302L632.326 241.403L636.477 238.346L637.042 236.421L636.831 235.642L636.696 234.499L637.704 232.805L637.491 231.455L642.894 229.407L645.598 229.059L649.562 230.837L653.186 233.76L656.941 235.566L659.89 238.699L658.541 239.614L654.687 238.615L648.91 238.065L647.221 238.539L644.614 237.068L643.158 237.307L642.82 237.308L642.142 236.869L640.556 237.213L628.057 247.631L621.294 254.544L605.649 272.225L600.261 278.328L595.091 286.924L591.622 291.356L589.044 297.448L583.301 305.942L579.713 313.416L576.46 319.744L576.033 323.93L576.376 325.046L574.697 327.548L574.58 331.837L569.902 346.747L571.273 351.498L571.847 351.938L576.155 355.976L576.259 356.106L576.94 357.325L578.536 359.71L578.882 361.736L581.496 365.001L582.187 369.053L583.892 372.763L584.244 376.375L582.348 383.945L582.942 389.141L586.801 392.064L589.613 392.729L589.956 393.975L589.087 398.267L590.128 405.255L590.368 413.493L592.463 424.219L592.675 425.128L593.595 427.724L594.727 431.332L595.302 432.006L596.896 433.689L598.249 434.022L601.305 437.285L603.702 438.186L605.834 437.84L612.747 442.44L612.981 442.881L612.175 443.222L609.03 443.806L606.296 443.14L604.61 443.589L605.417 444.495L608.694 444.249L611.271 444.811L612.314 444.703L612.753 444.026L613.194 444.362L613.093 445.038L612.99 445.376L615.143 450.67L616.166 452.928L618.105 455.857L621.381 456.183L622.398 456.855L621.387 457.742L621.39 458.548L622.65 461.35L621.306 463.85L621.206 464.761L620.75 467.465L617.593 472.442L616.578 472.445L616.232 470.315L615.451 469.409L615.009 469.41L613.186 469.521L612.85 469.626L608.461 472.034L607.559 473.831L606.308 473.732L605.298 474.853L602.798 474.187L597.293 476.807L595.713 478.632L593.787 478.406L592.645 478.982L594.133 479.756L594.033 480.77L593.46 481.214L589.178 484.063L588.507 484.638L588.407 485.756L589.185 485.883L590.877 486.084L591.449 485.51L592.794 484.154L595.157 483.027L600.122 481.891L602.948 479.489L605.65 478.699L614.567 477.183L617.979 477.508L623.385 476.37L622.022 474.114L620.197 473.108L620.091 472.536L621.104 472.194L623.945 473.665L626.216 475.788L629.367 476.789L629.836 476.918L631.643 479.51L631.876 479.717L635.032 481.966L638.102 482.085L639.119 482.185L640.81 482.854L641.384 483.294L642.949 484.431L650.205 489.94L651.892 489.804L653.952 491.043L662.883 493.167L672.717 493.572L673.969 493.567L675.525 492.989L676.531 490.854L677.205 489.604L677.675 490.616L678.688 490.274L679.927 487.774L681.617 487.56L681.72 487.326L682.182 485.53L683.197 485.734L684.326 488.563L683.996 490.592L686.169 494.196L685.136 495.552L685.268 496.695L682.906 498.263L687.078 500.847L689.455 503.437L694.661 504.223L696.009 503.074L697.024 503.2L697.602 504.55L697.839 504.653L699.294 504.881L703.242 503.385L705.506 503.506L707.318 501.108L706.737 498.979L706.502 497.966L707.298 495.91L707.839 494.452L709.654 492.86L707.958 491.515L707.614 490.164L707.706 486.889L708.379 485.977L708.825 486.313L711.226 488.227L712.479 490.25L712.82 490.925L713.262 490.923L714.046 491.154L714.948 489.461L716.066 489.457L717.117 492.052L719.597 493.836L722.301 493.488L724.02 494.625L726.155 495.059L726.721 493.471L729.428 493.929L731.594 495.818L731.808 497.402L734.755 499.315L734.994 500.561L734.087 501.474L733.857 502.697L735.014 505.967L738.637 507.877L739.562 511.486L741.942 514.882L742.731 517.114L747.507 521.411L750.792 523.192L756.891 525.664L768.082 527.753L772.271 527.971L773.964 528.64L775.994 528.736L777.138 528.732L779.711 527.943L781.963 524.997L783.457 527.356L782.229 533.573L786.776 538.962L789.149 540.538L788.819 542.021L790.513 543.574L787.483 546.991L785.664 547.673L783.312 551.633L782.752 554.91L781.535 556.266L780.965 556.164L784.015 558.622L787.533 560.298L785.516 563.372L784.625 568.678L779.439 572.986L775.748 579.888L774.395 580.439L773.481 579.662L774.154 578.75L773.71 578.206L766.008 577.663L760.722 583.323L760.152 583.092L757.691 586.61L754.862 588.206L752.064 591.258L751.754 597.912L749.26 598.962L743.708 596.046L741.675 595.585L740.214 594.343L739.746 594.579L739.751 595.931L737.043 595.031L736.81 595.5L738.974 596.843L741.679 596.599L743.609 597.164L746.662 599.855L748.494 603.253L747.826 605.621L747.595 606.531L747.604 608.766L748.053 610.584L749.541 611.826L749.884 613.28L749.083 614.635L752.5 616.987L751.829 617.899L752.951 619.48L753.062 621.274L752.626 622.991L748.593 629.426L747.579 629.559L747.004 628.99L744.075 630.924L743.297 632.383L743.748 633.966L743.18 635.892L744.541 638.018L742.517 639.377L741.95 640.757L740.834 641.307L735.866 640.988L735.533 642.912L733.037 643.26L730.77 641.579L728.973 641.82L725.807 643.625L725.796 640.688L727.616 639.772L727.949 638.419L726.591 637.878L726.259 639.335L725.245 639.001L724.907 638.898L724.908 639.106L724.914 640.691L722.768 644.104L724.694 645.215L724.814 649.269L726.173 651.187L726.177 652.097L725.504 652.203L724.249 651.324L722.797 652.006L723.916 652.677L724.059 656.159L722.817 657.178L719.197 656.75L718.417 656.986L713.557 658.123L712.747 657.008L711.291 657.455L711.636 659.039L710.396 661.305L709.28 661.518L708.027 660.976L707.011 660.513L705.657 660.18L699.2 658.619L698.428 660.207L699.008 662.934L702.835 663.699L703.844 662.344L704.651 662.341L706.002 662.102L707.461 662.668L708.139 662.899L712.332 663.767L714.14 660.953L714.694 662.199L716.164 659.698L717.289 660.604L718.53 659.351L719.205 658.907L720.326 658.773L720.897 659.238L721.028 659.342L721.576 659.782L721.48 661.939L722.403 664.743L721.936 665.758L723.294 667.131L723.873 668.688L724.777 667.125L724.305 666.087L725.111 665.304L726.02 665.639L726.692 664.519L727.809 663.943L726.114 663.039L725.54 661.794L726.207 659.998L727.218 659.214L728.133 659.549L729.618 660.999L729.391 662.819L729.837 663.701L730.973 661.565L729.951 659.542L728.932 658.402L727.92 658.406L727.002 657.058L725.305 654.803L726.313 653.682L728.006 653.441L729.013 652.32L731.042 652.182L731.276 652.181L732.058 652.75L734.001 657.473L736.382 660.297L737.863 660.526L741.341 657.913L743.029 657.673L743.177 662.533L745.559 666.474L743.399 666.145L742.283 666.721L741.497 665.242L739.676 665.379L737.212 667.182L729.34 676.698L728.203 678.158L725.421 685.394L725.436 689.241L724.741 691.843L725.787 693.528L725.333 697.143L725.918 700.415L724.351 705.619L724.716 712.947L725.646 717.232L725.752 717.7L727.344 719.825L729.613 721.402L730.627 721.164L732.424 721.833L734.703 726.113L736.42 726.003L737.1 726.91L735.53 731.542L735.977 732.658L737.904 733.327L738.358 736.262L740.771 741.555L740.781 744.284L737.743 752.405L737.878 753.756L739.006 755.571L741.035 756.343L740.259 757.593L739.351 757.493L738.781 758.613L739.019 759.08L740.823 762.114L740.057 765.833L740.512 769.444L741.561 770.922L741.436 772.82L744.848 773.95L744.957 775.198L742.805 777.129L735.573 777.026L733.317 778.958L731.86 778.964L731.53 781.122L734.71 782.904L735.603 784.928L736.294 789.006L737.997 792.04L738.134 794.067L741.63 796.757L742.775 796.882L745.816 796.195L747.973 795.615L748.746 793.585L750.334 793.917L752.26 793.442L751.358 796.382L756.446 800.547L758.268 800.774L760.188 799.416L761.545 800.528L763.682 800.962L764.587 800.179L766.619 800.847L769.102 797.121L771.237 797.554L773.513 800.925L775.779 801.826L776.79 800.132L777.933 800.362L778.619 803.062L779.975 803.837L783.931 804.29L784.717 805.171L783.135 807.23L780.433 808.124L779.657 809.14L780.107 811.192L778.766 814.238L777.987 814.683L778.109 819.309L780.617 822.236L782.31 822.906L783.541 824.954L784.793 825.287L785.602 826.636L787.195 827.514L787.408 828.76L788.762 829.769L789.907 829.323L790.925 831.008L792.724 831.235L794.079 832.582L794.317 833.699L792.526 834.043L791.954 834.721L790.039 836.548L789.939 837.796L790.962 840.729L792.426 842.517L794.93 844.327L796.519 844.996L798.42 844.859L798.996 846.442L800.925 846.773L801.829 845.86L806.798 845.971L810.53 848.998L813.025 848.417L814.391 851.92L814.965 852.36L817.678 854.377L818.021 855.623L816.779 856.876L814.411 857.326L812.139 854.97L813.255 854.186L809.424 852.381L808.85 851.265L807.835 851.841L806.586 851.612L806.484 852.392L806.487 853.198L810.678 853.728L810.899 857.132L811.921 858.479L811.245 859.158L810.126 859.266L809.112 859.4L807.183 858.263L800.729 857.612L800.049 856.601L797.343 856.507L799.715 857.72L800.632 858.756L800.06 859.434L793.404 860.343L791.482 861.156L791.038 860.82L788.884 861.945L790.031 862.071L791.046 862.951L790.816 863.861L791.832 864.195L792.408 865.207L795.117 866.21L795.358 867.353L794.783 867.355L796.476 868.025L797.822 866.2L800.422 865.852L801.335 866.421L801.444 867.876L799.53 870.612L799.767 871.287L800.678 870.946L802.254 868.678L802.68 864.388L803.925 863.578L805.722 863.909L808.802 866.159L809.146 868.185L808.579 869.772L806.659 871.131L805.555 874.878L806 875.656L807.685 873.96L807.918 873.725L807.341 872.506L808.012 871.126L812.294 868.407L811.847 867.057L810.492 866.386L810.929 865.033L811.265 864.46L811.733 864.458L812.618 864.689L814.539 862.862L816.123 862.752L816.128 864.103L815.016 865.797L815.466 867.953L817.507 871.09L819.773 871.081L821.465 872.218L823.635 874.913L824.31 874.573L827.591 874.898L828.939 874.321L829.375 872.734L832.66 874.645L834.125 876.901L832.58 880.182L834.512 882.877L836.204 883.001L836.63 878.919L838.775 875.09L839.22 875.764L838.783 877.221L839.907 878.568L840.236 876.202L839.657 874.515L841.133 872.586L840.116 871.914L839.983 871.239L840.791 870.898L843.158 871.668L846.775 871.993L847.45 871.444L847.674 868.948L849.029 868.709L849.932 867.354L851.964 868.152L853.545 866.665L855.348 868.815L857.272 868.574L858.524 869.479L860.553 869.367L861.337 870.482L861.574 871.261L861.819 873.417L863.045 874.868L864.635 875.668L865.881 875.195L867.132 875.658L868.82 874.846L869.266 875.858L873.124 877.325L874.145 879.686L871.993 881.722L871.899 884.321L872.919 884.993L872.013 886.92L872.487 888.504L872.156 890.428L873.518 892.788L876.124 894.13L879.299 894.352L884.827 897.814L888.575 897.696L890.471 897.688L890.716 900.52L892.073 901.061L892.31 902.308L891.982 905.012L886.447 905.943L886.786 906.851L885.673 908.441L885.115 912.056L884.313 912.605L882.072 912.275L880.931 913.085L880.028 915.116L878.903 913.535L876.75 915.024L876.208 916.248L875.745 917.497L873.485 917.74L869.416 915.598L868.299 916.07L867.623 915.397L866.136 914.935L864.008 916.294L862.532 917.34L861.511 916.434L858.685 918.81L857.681 920.971L854.529 919.839L850.113 922.117L841.558 929.271L841.02 931.404L838.294 933.572L837.628 936.277L838.316 939.316L838.893 939.989L838.455 941.135L837.414 941.58L836.744 943.272L835.056 944.084L833.944 945.778L832.703 947.706L833.855 949.599L832.382 952.334L835.231 955.806L835.444 957.156L832.972 956.958L830.041 959.334L828.805 962.51L825.768 964.419L825.099 965.565L825.314 968.033L823.758 969.417L822.729 972.331L823.796 979.449L823.905 980.696L825.939 982.04L826.847 981.361L828.307 981.459L831.6 986.307L833.186 985.963L834.768 984.84L837.907 982.566L839.39 982.431L841.659 983.332L845.379 983.994L849.786 986.238L850.828 987.352L850.027 988.732L850.369 989.615L852.061 990.076L853.891 992.331L854.25 997.969L855.612 1000.33L855.394 1003.94L859.019 1007.1L857.573 1009.13L857.912 1010.25L858.02 1010.48L859.607 1011.26L860.061 1014.43L861.554 1016.92L860.653 1018.71L859.635 1018.48Z" stroke="white" stroke-width="2"></path>
</svg>
