<svg width="618" height="818" viewBox="0 0 618 818" fill="none" xmlns="http://www.w3.org/2000/svg">
<path opacity="0.5" d="M13.7554 1.04015C13.5112 1.65303 12.4653 4.34524 13.3135 5.84794C14.2615 7.52673 14.4888 9.465 14.386 10.8519C14.2827 12.2388 13.228 15.0125 13.228 15.0125L13.8806 27.9671L9.3546 31.752L14.49 34.6353L15.3496 36.7792L21.3301 37.4318L23.9571 42.083L28.4513 44.4521L31.4853 43.6142L31.9915 48.237L29.245 52.0679L25.4046 58.6209L29.362 62.5199L27.5051 66.3742L25.6851 66.877L21.8979 70.4194C21.8979 70.4194 22.1002 74.1434 20.8436 76.6249C19.5871 79.1065 19.4633 87.2222 19.4633 87.2222C19.4633 87.2222 21.0491 87.7102 22.1433 88.8635C23.2392 90.0149 19.9633 93.0755 19.9633 93.0755C19.9633 93.0755 19.74 95.0011 21.1102 98.2128C22.4808 101.424 19.9316 102.449 19.2 105.077C18.4694 107.705 15.9624 108.66 15.9624 108.66C15.9624 108.66 16.2877 112.471 16.7969 115.727C17.3058 118.982 14.9729 124.296 14.9729 124.296L8.44124 127.636L11.8207 129.583L12.7322 132.75L14.493 136.488C15.0533 136.325 15.4571 136.244 15.5154 136.436C15.7742 137.286 14.452 139.325 14.89 140.295C15.3267 141.267 17.4886 140.026 16.9693 140.874C16.4503 141.721 15.426 143.729 14.2573 145.386C13.0883 147.044 10.3665 145.915 8.31157 145.415C6.25628 144.915 6.20328 147.695 4.80779 149.148C3.41301 150.601 3.88579 150.555 3.31523 152.096C2.74546 153.636 2.18231 154.47 4.285 155.053C6.38724 155.637 6.08616 155.254 7.07649 153.476C8.06643 151.699 9.41385 152.155 8.40609 152.725C7.39817 153.295 7.65247 154.627 7.21395 156.203C6.77516 157.78 8.65303 159.044 7.31676 158.249C5.98116 157.453 3.89057 157.934 2.39368 158.226C0.896463 158.519 1.84039 161.528 1.27004 163.068C0.699848 164.609 2.6723 166.335 2.97746 169.817C3.28211 173.3 4.99504 173.391 6.65488 176.329C8.31473 179.268 7.19877 178.613 5.69217 183.009C4.186 187.405 5.55519 185.365 6.37187 187.008C7.18911 188.65 6.48946 193.049 6.53579 195.681C6.58201 198.313 9.24495 199.187 9.82027 201.188C10.3963 203.188 11.0283 202.46 12.0891 205.516C13.1505 208.571 13.1217 209.646 12.8726 211.559C12.6232 213.472 11.838 212.457 12.9579 213.264C14.0783 214.071 15.1639 215.063 16.3032 214.529C17.4423 213.996 17.6714 214.568 19.3652 215.604C21.0583 216.641 21.4222 217.172 25.0904 217.978C28.7591 218.785 30.127 219.412 33.4442 220.972C36.7622 222.53 35.2715 222.181 36.2472 220.965C37.2224 219.75 37.3514 221.043 38.2756 220.52C39.1995 219.998 39.1379 218.861 39.3972 219.711C39.6553 220.562 39.8383 221.492 41.2625 221.462C42.6865 221.433 42.1622 222.449 41.0484 222.635C39.9348 222.821 39.2404 223.176 40.7179 224.224C42.1962 225.272 42.2782 225.861 43.143 227.587C44.0076 229.314 44.6136 229.865 46.5347 231.105C48.4543 232.346 51.3065 231.858 53.7732 233.676C56.2403 235.494 58.4141 235.667 58.8636 234.306C59.3134 232.944 59.6291 233.521 60.9735 232.763C62.3173 232.003 62.0798 230.44 61.102 229.885C60.1238 229.33 59.4164 229.288 59.9354 228.441C60.4543 227.593 60.0147 225.592 59.0302 224.043C58.0455 222.496 60.7701 223.955 62.3178 225.516C63.8682 227.076 63.509 227.573 64.3204 229.995C65.1335 232.415 65.0134 232.316 63.9435 233.363C62.8743 234.412 62.9383 235.131 63.7635 235.218C64.5886 235.306 65.7426 236.517 66.6105 237.466C67.4803 238.414 70.2341 241.822 69.96 241.534C69.6916 241.24 67.686 240.513 65.2815 238.217C62.877 235.921 63.6386 237.041 63.9521 238.968C64.2649 240.896 66.4374 240.82 68.1741 242.718C69.9117 244.616 75.0346 245.78 76.7941 245.561C78.5538 245.342 78.5673 243.535 76.65 244.065C74.7332 244.594 73.2349 242.886 71.3991 241.597C69.5636 240.309 71.1023 239.144 72.1278 239.783C73.1538 240.421 74.0885 240.575 76.7379 241.736C79.388 242.897 78.2552 241.055 76.1785 240.124C74.1016 239.193 75.8178 237.394 76.5858 234.634C77.3537 231.874 76.4027 228.427 76.1736 226.452C75.9447 224.477 74.3426 224.24 74.4706 222.506C74.599 220.772 73.6991 219.962 72.2943 218.652C70.8895 217.341 72.7527 216.833 74.1318 218.49C75.5104 220.148 75.398 219.555 75.5582 221.015C75.7181 222.475 76.3632 222.59 77.9551 222.465C79.5471 222.341 79.4861 222.937 80.8432 224.164C82.2003 225.391 83.012 224.083 84.3343 222.893C85.6565 221.702 84.7128 220.622 84.0533 218.669C83.3932 216.716 83.9039 215.644 85.1529 214.716C86.4017 213.789 87.1789 212.013 87.8479 209.863C88.517 207.712 86.1626 206.257 86.1626 206.257C86.1626 206.257 87.6197 206.974 88.2361 208.065C88.8525 209.157 87.9867 210.974 87.5115 212.682C87.0357 214.391 86.5665 214.36 87.7819 215.335C88.9969 216.309 90.582 217.368 92.4432 218.311C94.3047 219.252 94.2596 218.945 95.2055 218.853C96.1513 218.762 96.1087 220.603 96.5329 222.135C96.9556 223.668 97.2477 225.117 96.415 226.585C95.5822 228.052 95.1076 229.842 95.384 231.901C95.6602 233.96 94.4729 235.321 95.8965 235.292C97.3205 235.263 98.1404 236.635 99.235 237.789C100.331 238.941 100.61 237.658 101.611 236.095C102.612 234.533 102.152 232.901 102.946 234.114C103.741 235.326 101.746 236.987 102.205 238.39C102.664 239.791 104.922 239.769 104.204 240.065C103.484 240.361 104.061 241.316 104.116 242.393C104.17 243.471 102.147 243.598 101.706 243.404C101.264 243.211 100.73 244.813 99.6411 247.201C98.552 249.588 97.9072 250.127 97.2924 250.807C96.6796 251.486 95.6138 252.18 96.1825 253.187C96.751 254.196 100.155 260.942 104.22 266.177C108.284 271.411 108.143 270.316 109.874 271.221C111.604 272.126 113.716 270.868 116.283 269.528C118.85 268.188 119.062 266.998 122.064 264.859C125.066 262.719 124.399 265.302 123.768 264.772C123.137 264.243 122.256 265.165 120.96 266.008C119.663 266.852 120.711 267.791 119.583 268.54C118.454 269.288 118.454 269.841 119.154 270.886C119.854 271.93 118.493 273.344 118.413 275.162C118.331 276.979 118.518 281.035 117.999 281.882C117.48 282.729 118.028 283.745 118.81 289.838C119.592 295.931 121.75 296.369 124.509 297.136C127.269 297.903 126.409 299.125 128.507 300.487C130.605 301.849 132.748 302.261 131.204 302.469C129.659 302.677 132.494 304.167 134.075 303.827C135.656 303.487 136.696 305.362 137.882 307.461C139.067 309.56 139.657 309.465 142.757 309.264C145.857 309.063 147.131 309.246 149.628 309.939C152.125 310.633 154.379 311.13 155.048 308.98C155.717 306.83 157.423 307.712 158.604 306.27C159.784 304.828 157.945 305.083 158.108 303.219C158.273 301.354 160.427 301.834 160.004 302.849C159.58 303.864 159.125 304.332 160.482 305.559C161.839 306.786 161.798 305.276 162.066 307.118C162.331 308.961 161.108 311.174 159.469 311.214C157.83 311.255 157.366 309.68 157.533 312.134C157.7 314.587 157.893 314.468 153.654 315.202C149.415 315.936 147.528 315.011 145.635 313.423C143.74 311.835 140.253 312.423 138.494 310.095C136.736 307.766 136.297 309.178 134.381 307.16C132.466 305.141 132.646 306.341 132.214 308.91C131.782 311.48 128.563 315.208 127.379 317.428C126.195 319.647 130.001 320.208 134.519 320.756C139.039 321.303 136.56 322.739 138.748 323.275C140.935 323.811 142.111 323.837 144.312 323.812C146.513 323.786 144.357 325.05 142.878 326.551C141.921 327.517 143.052 327.656 145.333 327.793C145.333 327.793 147.274 325.69 150.095 325.979C152.917 326.267 155.198 326.075 157.19 327.053C159.183 328.032 161.842 327.1 161.136 329.381C160.43 331.663 160.342 333.337 158.914 334.143C157.487 334.95 159.01 335.279 160.971 335.611C162.931 335.943 165.672 337.301 167.067 335.847C168.462 334.394 167.835 332.386 168.495 334.34C169.155 336.292 168.121 337.078 169.614 337.564C171.107 338.049 171.349 338.789 172.353 338.996C173.357 339.204 175.563 340.955 176.275 342.215C176.986 343.474 176.997 344.15 178.389 343.474C179.78 342.799 180.075 345.677 181.335 344.965C182.595 344.254 183.305 345.218 184.028 344.145C184.751 343.071 185.46 343.069 187.16 342.55C188.862 342.031 190.085 340.029 191.003 342.832C191.922 345.636 194.679 347.592 193 348.541C191.32 349.491 191.439 350.059 191.201 352.187C190.962 354.316 191.594 354.993 189.507 353.846C187.419 352.7 187.371 351.076 183.874 351.945C180.376 352.814 181.545 352.135 180.533 353.482C179.521 354.829 180.443 356.311 178.267 355.99C176.091 355.669 174.907 353.487 173.818 355.874C172.728 358.262 173.365 360.088 172.521 361.341C171.676 362.593 169.396 364.177 168.867 364.808C168.337 365.439 170.474 368.716 169.656 369.621C168.838 370.527 167.949 372.172 169.394 372.574C170.84 372.975 171.656 373.455 171.409 374.592C171.164 375.727 171.222 376.745 171.697 377.585C172.17 378.425 172.226 380.829 173.099 381C173.971 381.171 174.536 383.122 176.311 382.341C178.086 381.559 178.583 381.526 178.745 380.439C178.906 379.351 180.802 379.147 181.356 380.717C181.911 382.286 182.645 381.169 184.084 380.577C185.523 379.986 187.992 380.306 189.689 380.566C191.386 380.825 193.543 381.294 193.791 381.929C194.039 382.565 192.535 381.846 191.381 382.941C190.226 384.034 189.09 384.327 190.137 385.397C191.186 386.465 189.176 387.471 190.592 388.996C192.007 390.523 193.133 392.238 192.936 393.457C192.738 394.676 190.857 395.268 192.466 396.352C194.076 397.436 194.275 399.703 194.319 400.564C194.363 401.426 194.907 402.926 193.526 403.817C192.146 404.708 192.983 405.554 194.403 406.302C195.823 407.05 196.684 407.384 197.059 408.834C197.435 410.283 197.032 411.71 198.741 409.636C200.451 407.563 199.078 407.684 199.06 406.476C199.042 405.267 199.714 404.169 200.367 402.582C201.022 400.993 201.073 399.58 202.576 400.282C204.081 400.982 204.901 401.44 205.609 403.476C206.316 405.513 208.368 406.549 206.861 406.626C205.353 406.702 203.702 407.294 204.976 408.567C206.248 409.843 208.014 408.779 204.738 410.63C201.463 412.481 199.016 416.595 198.928 417.42C198.84 418.245 197.696 419.602 196.962 420.459C196.228 421.317 197.677 424.88 198.808 425.902C199.94 426.924 203.343 425.646 204.846 426.347C206.35 427.048 212.15 426.565 213.438 427.277C214.727 427.989 217.304 427.307 217.928 426.843C218.553 426.38 220.998 422.442 222.454 423.058C223.911 423.676 225.085 425.004 223.989 426.399C222.894 427.793 220.825 428.426 222.781 429.536C224.737 430.646 223.612 432.12 225.189 432.558C226.765 432.996 227.618 432.938 229.13 432.084C230.642 431.23 230.188 432.778 228.135 434.049C226.082 435.319 224.843 436.555 224.898 437.631C224.952 438.708 226.692 439.026 225.359 440C224.025 440.976 225.206 442.246 225.38 443.144C225.555 444.042 225.354 445.271 225.876 446.195C226.397 447.119 227.986 448.656 226.879 449.835C225.772 451.014 227.555 452.111 228.578 450.979C229.6 449.847 232.197 450.114 230.109 451.516C228.02 452.918 225.569 455.05 228.044 455.312C230.519 455.575 231.913 455.839 232.186 456.127C232.455 456.421 230.913 456.699 231.325 458.016C231.737 459.334 231.531 461.342 234.316 461.761C237.101 462.181 237.448 461.522 238.36 463.332C239.272 465.143 241.672 467.384 242.709 468.238C243.744 469.093 250.726 470.406 251.179 470.815C251.629 471.226 251.685 472.808 253.616 471.716C255.548 470.625 256.006 473.66 257.401 472.207C258.796 470.755 258.619 469.757 260.113 467.694C261.608 465.632 258.995 464.866 261.565 465.296C264.135 465.727 265.689 465.687 267.828 466.14C269.967 466.592 271.635 465.787 272.86 466.978C274.088 468.167 274.391 469.102 276.257 469.266C278.122 469.43 279.51 469.144 279.898 468.26C280.285 467.377 281.269 466.424 281.817 467.001C282.364 467.578 284.241 466.323 284.619 466.995C284.999 467.667 285.382 469.341 285.115 470.046C284.848 470.75 286.189 471.441 286.674 472.496C287.159 473.551 287.198 475.549 288.516 475.137C289.834 474.724 290.839 475.392 290.63 476.396C290.422 477.4 289.569 479.108 290.594 479.748C291.619 480.387 293.815 480.548 293.69 481.504C293.566 482.46 297.642 482.454 297.046 484.341C296.45 486.228 295.827 486.856 297.067 487.485C298.309 488.112 302.203 490.367 302.203 490.367C302.336 490.182 302.3 490.02 302.377 489.744C302.506 489.279 301.279 488.42 300.91 487.768C300.541 487.114 301.273 487.208 300.415 484.716C299.556 482.226 299.805 483.2 300.11 481.383C300.416 479.565 300.812 479.434 301.701 477.678C302.59 475.923 302.765 475.995 303.691 473.75C304.616 471.504 303.725 470.678 303.808 469.3C303.892 467.922 305.355 463.741 305.951 461.603C306.545 459.466 303.251 461.126 302.033 461.188C300.814 461.25 300.541 459.214 300.821 457.49C301.1 455.765 302.964 456.156 304.595 456.409C306.226 456.661 307.173 456.086 307.67 455.021C308.166 453.958 305.03 452.832 305.03 452.832C305.03 452.832 307.703 453.772 308.242 454.172C308.782 454.572 308.23 455.38 307.697 456.935C307.165 458.489 304.407 457.376 303.265 457.16C302.124 456.943 300.979 457.837 301.681 459.633C302.382 461.43 304.093 460.236 306.246 459.332C308.399 458.429 307.523 459.149 308.609 460.101C309.695 461.054 308.514 462.094 308.116 463.886C307.717 465.678 307.261 465.809 306.208 466.717C305.154 467.626 305.499 467.517 305.056 469.647C304.614 471.776 306.244 472.259 306.302 474.027C306.361 475.795 305.316 476.088 304.665 479.51C304.012 482.933 304.112 481.949 305.454 484.324C306.795 486.698 305.167 487.048 304.862 488.865C304.557 490.683 304.557 490.836 305.01 493.165C305.463 495.493 304.636 495.469 305.482 497.105C306.328 498.742 306.435 499.711 306.271 501.918C306.108 504.125 306.199 504.697 307.616 505.541C308.324 505.963 308.593 506.322 308.69 506.513C308.602 506.491 308.502 506.619 308.348 506.53C307.531 506.052 306.256 507.026 306.031 508.014C305.806 509.003 304.256 508.816 302.892 510.84C301.528 512.864 301.24 517.53 301.009 519.618C300.779 521.706 301.097 523.665 301.676 526.078C302.256 528.492 299.996 528.467 298.705 529.511C297.414 530.553 300.303 532.05 299.518 533.434C298.732 534.818 299.663 535.798 300.504 536.733C301.345 537.668 301.868 539.413 300.717 539.593C299.565 539.774 299.454 540.475 301.127 540.939C302.799 541.404 302.884 544.396 303.638 546.007C304.391 547.617 308.043 549.217 308.443 550.479C308.842 551.742 308.098 552.439 307.343 554.431C306.588 556.424 305.846 557.62 303.424 558.049C301.002 558.477 300.163 559.571 299.239 561.816C298.313 564.062 296.815 562.746 295.735 565.549C294.654 568.352 290.717 571.015 287.688 572.726C284.659 574.438 282.921 575.312 281.088 574.702C279.255 574.093 278.081 575.238 277.263 574.76C276.444 574.283 272.897 575.422 270.138 575.807C267.378 576.191 267.456 578.247 266.42 580.712C265.383 583.177 260.649 583.022 257.768 584.023C254.887 585.025 253.275 585.846 251.243 586.133C249.211 586.419 250.957 587.477 250.358 588.912C249.758 590.347 249.95 589.312 247.873 589.791C245.789 590.263 246.586 591.331 246.097 592.547C245.609 593.763 243.907 593.729 242.815 593.876C241.723 594.023 241.712 595.604 241.265 597.031C240.818 598.459 240.096 596.965 237.9 599.458C235.705 601.952 236.383 602.736 235.709 602.099C235.036 601.461 233.691 602.576 232.103 603.786C230.515 604.996 227.308 607.969 225.859 610.119C224.41 612.27 225.084 612.586 227.105 614.499C229.125 616.412 227.988 617.014 227.236 618.457C226.484 619.9 227.633 621.459 229.985 621.461C232.337 621.464 230.838 622.013 233 624.316C235.163 626.618 235.349 624.279 236.075 622.929C236.801 621.579 238.128 620.545 239.37 619.138C240.613 617.732 243.594 618.855 243.594 618.855C243.594 618.855 241.587 619.113 240.161 619.918C238.736 620.724 238.081 622.53 237.091 624.108C236.102 625.685 238.517 626.488 238.661 628.13C238.805 629.771 238.019 628.788 238.054 628.297C238.09 627.807 237.79 627.499 235.616 627.396C233.443 627.293 233.733 627.617 234.229 628.355C234.724 629.093 234.495 630.226 233.701 631.458C232.908 632.689 232.605 637.934 233.056 639.01C233.507 640.086 228.144 643.852 225.786 642.593C223.432 641.339 222.221 643.305 220.706 643.535C219.191 643.765 215.799 645.741 215.314 646.407C214.828 647.073 217.367 650.525 218.95 653.468C220.534 656.411 220.66 656.661 220.838 658.362C221.015 660.063 223.028 663.694 224.625 665.689C226.221 667.684 229.612 672.83 230.693 674.882C231.773 676.934 231.031 677.351 229.512 679.932C227.993 682.514 227.927 684.267 228.631 685.514C229.335 686.761 228.811 689.784 228.35 692.159C227.889 694.534 226.931 695.255 226.112 696.579C225.293 697.904 225.87 699.085 226.567 700.179C227.263 701.274 228.043 704.168 228.205 705.565C228.367 706.961 226.191 710.291 223.955 710.771C221.72 711.251 223.091 713.502 221.591 714.036C220.091 714.57 220.555 715.856 221.23 717.745C221.906 719.635 224.016 719.804 223.955 721.64C223.895 723.475 222.538 720.815 221.258 719.658C219.978 718.502 218.985 719.003 218.94 721.143C218.895 723.283 217.203 724.232 215.952 724.235C214.7 724.237 218.646 729.064 217.706 729.204C216.766 729.343 217.211 730.647 218.208 731.024C219.204 731.401 218.693 731.851 219.616 733.208C220.54 734.566 221.274 736.453 221.81 737.403C222.347 738.353 221.176 741.414 221.42 743.233C221.665 745.053 220.851 744.689 218.911 745.002C216.973 745.314 217.192 748.477 217.996 749.902C218.801 751.327 220.117 752.784 220.149 754.645C220.182 756.506 219.313 758.523 217.622 760.106C215.93 761.688 218.307 764.035 218.179 765.751C218.052 767.468 216.927 768.682 215.986 772.425C215.045 776.168 213.072 776.877 212.002 777.481C210.933 778.085 211.648 780.111 212.097 784.791C212.546 789.471 211.778 786.709 211.409 786.056C211.04 785.403 209.25 786.191 207.982 785.889C206.715 785.587 205.089 785.047 202.77 786.906C200.451 788.764 199.658 793.752 198.379 797.451C197.099 801.15 195.675 799.826 195.326 801.981C194.976 804.137 195.361 806.43 196.715 807.858C198.07 809.286 199.72 809.849 199.267 812.377C198.814 814.904 201.516 814.642 202.848 815.612C204.18 816.583 204.564 815.796 205.067 814.884C205.571 813.973 208.6 811.294 210.132 809.568C211.663 807.841 211.858 805.701 211.81 803.535C211.762 801.37 208.755 802.035 209.194 800.455C209.634 798.876 209.138 798.525 211.375 796.243C213.612 793.961 218.743 796.328 219.407 795.561C220.071 794.795 220.921 794.192 223.314 794.405C225.707 794.619 225.162 793.356 227.902 793.215C230.644 793.075 232.121 794.408 232.928 795.283C233.734 796.16 236.282 797.119 237.324 798.409C238.366 799.7 236.091 799.569 240.564 801.663C245.036 803.756 248.06 799.926 247.412 799.195C246.765 798.464 246.364 797.479 245.686 796.139C245.008 794.799 246.326 794.979 247.837 794.048C249.348 793.115 250.894 792.775 250.918 791.43C250.942 790.085 249.311 790.044 249.833 788.888C250.355 787.731 250.005 787.302 249.719 785.271C249.434 783.239 248.078 783.27 244.867 782.578C241.656 781.886 241.828 782.251 243.093 781.301C244.359 780.351 244.346 780.195 242.649 779.273C240.954 778.352 242.211 777.055 242.252 775.465C242.295 773.875 243.815 772.874 242.514 772.512C241.213 772.151 239.9 772.878 242.139 771.848C244.377 770.818 241.943 769.937 240.539 769.947C239.135 769.957 238.708 769.412 239.529 767.537C240.351 765.663 240.158 765.691 241.69 767.018C243.223 768.344 242.616 767.275 244.098 770.039C245.581 772.804 245.685 768.785 246.942 769.485C248.199 770.184 247.93 768.269 247.521 767.404C247.111 766.54 246.712 765.496 246.367 763.498C246.022 761.5 246.677 761.372 248.159 761.083C249.641 760.794 249.822 760.083 250.248 756.397C250.673 752.711 252.638 753.58 254.941 753.219C257.244 752.857 256.303 751.917 256.399 749.59C256.496 747.264 256.366 747.277 255.031 746.857C253.697 746.436 252.986 744.901 253.23 743.667C253.473 742.434 254.067 740.963 252.168 740.235C250.268 739.507 251.84 737.235 253.656 734.486C255.472 731.737 255.737 733.553 257.024 734.861C258.31 736.172 259.01 734.227 260.955 732.815C262.899 731.403 263.754 730.002 266.313 729.262C268.871 728.521 268.712 727.835 269.567 726.02C270.423 724.205 271.843 724.196 272.123 722.472C272.402 720.748 272.108 720.772 273.182 719.068C274.257 717.365 275.016 717.055 276.887 716.624C278.759 716.193 279.769 715.193 281.257 713.804C282.744 712.415 283.289 712.981 286.319 712.521C289.35 712.062 289.761 713.139 291.178 713.983C292.595 714.827 294.042 712.838 293.006 712.25C291.968 711.662 292.198 711.117 293.25 708.956C294.301 706.796 291.261 707.145 291.239 709.742C291.217 712.339 289.646 709.05 288.327 708.933C287.008 708.817 288.766 705.694 286.907 705.177C285.049 704.662 286.412 702.775 285.256 702.254C284.1 701.733 284.375 700.745 285.361 700.266C286.345 699.789 286.503 701.661 286.371 702.676C286.239 703.69 288.867 703.712 289.351 704.848C289.836 705.984 290.013 706.317 292.373 706.472C294.732 706.627 294.27 704.638 295.737 704.045C297.203 703.451 297.631 704.042 297.227 705.131C296.824 706.221 297.179 706.882 298.671 707.997C300.162 709.112 299.967 709.037 301.756 708.182C303.546 707.327 303.956 708.297 305.732 708.39C307.508 708.483 307.807 708.352 308.54 707.153C309.274 705.956 308.952 705.246 310.581 704.247C312.211 703.248 312.618 703.241 312.831 701.398C313.044 699.555 312.063 698.281 312.711 699.012C313.359 699.742 313.257 700.251 313.68 701.97C314.103 703.689 315.13 703.038 316.783 702.496C318.435 701.954 321.07 703.064 322.988 703.547C324.906 704.03 323.526 704.538 324.813 705.847C326.099 707.157 329.168 706.575 331.267 706.407C333.365 706.239 332.403 705.81 332.943 704.408C333.483 703.006 335.828 703.49 337.509 704.107C339.189 704.724 339.145 702.704 339.325 700.802C339.503 698.899 341.353 699.055 341.857 698.144C342.36 697.233 340.162 696.524 339.149 694.59C338.135 692.657 336.667 689.521 336.766 686.645C336.866 683.77 338.209 681.88 340.19 679.977C342.171 678.075 341.363 677.121 340.608 676.059C339.852 674.999 339.61 673.169 339.784 670.564C339.958 667.96 335.17 672.046 334.248 671.94C333.326 671.834 330.719 668.704 330.772 666.716C330.825 664.729 332.617 664.584 334.027 663.474C335.436 662.364 334.458 661.563 332.277 661.307C330.096 661.052 329.228 657.845 328.218 655.361C327.207 652.878 327.878 649.171 327.308 648.162C326.738 647.152 327.638 645.197 327.576 643.978C327.515 642.76 326.263 642.64 325.486 641.828C324.712 641.012 321.91 637.974 320.738 637.148C319.567 636.322 316.773 635.412 317.509 635.467C318.245 635.521 320.504 635.535 322.426 636.72C324.348 637.905 325.593 638.504 326.822 639.846C328.05 641.188 328.849 640.726 330.248 640.014C331.648 639.301 331.945 639.338 332.024 637.257C332.102 635.177 333.718 634.986 333.314 633.022C333.136 632.155 333.108 631.993 333.055 631.941C333.178 632.013 333.373 632.091 333.678 632.115C334.905 632.205 334.811 631.154 334.032 629.636C333.254 628.118 333.314 628.396 334.583 625.643C335.849 622.891 337.535 621.871 340.861 619.992C344.187 618.112 344.306 617.232 344.498 616.184C344.689 615.135 343.197 615.46 345.134 613.895C347.071 612.331 348.095 612.397 349.995 611.324C351.895 610.25 351.747 607.924 352.881 606.186C354.015 604.449 354.104 603.06 355.893 602.205C357.682 601.351 361.118 599.756 363.788 598.796C366.457 597.836 374.088 597.445 378.471 597.161C382.854 596.877 391.074 598.387 393.915 598.426C396.758 598.464 399.388 599.5 400.388 599.326C401.386 599.154 401.505 600.34 402.495 601.817C403.486 603.294 404.004 605.254 404.262 604.325C404.521 603.395 404.505 601.24 403.722 599.02C402.938 596.8 400.777 598.372 398.44 598.674C396.104 598.976 397.719 597.026 397.72 595.224C397.721 593.422 396.291 593.122 396.532 590.636C396.773 588.15 398.936 588.767 403.462 587.071C407.988 585.375 409.764 584.483 411.224 583.736C412.683 582.991 413.089 581.12 414.646 581.102C416.202 581.083 417.222 579.545 419.39 578.946C421.56 578.347 422.607 578.9 424.338 578.079C426.067 577.258 425.955 577.605 427.423 578.264C428.892 578.922 428.776 578.189 429.175 576.398C429.573 574.606 432.19 573.821 433.551 572.347C434.912 570.872 433.762 569.464 432.466 569.804C431.17 570.145 431.601 568.39 432.312 566.736C433.022 565.081 432.404 564.151 430.596 565.251C428.789 566.351 429.501 564.244 428.697 562.818C427.892 561.394 426.497 562.301 426.685 563.604C426.873 564.908 426.765 564.559 425.015 564.373C423.265 564.187 422.809 565.523 421.351 566.269C419.892 567.015 421.492 564.134 420.364 562.97C419.239 561.803 417.926 564.262 417.375 566.061C416.825 567.861 416.26 565.658 416.355 562.08C416.449 558.503 417.623 561.199 419.481 561.716C421.339 562.232 420.319 561.41 419.644 559.52C418.968 557.631 419.031 558.203 420.499 558.862C421.968 559.52 422.009 559.236 423.019 558.665C424.029 558.094 424.705 558.698 426.538 559.307C428.37 559.916 427.148 559.126 427.665 557.267C428.183 555.408 429.421 554.059 431.632 551.87C433.842 549.68 436.062 549.057 436.25 548.559C436.439 548.06 435.763 547.293 436.788 547.028C437.813 546.761 438.069 546.994 438.407 545.236C438.746 543.478 440.883 542.278 444.454 540.417C448.025 538.555 448.62 539.674 450.897 539.405C453.174 539.137 452.652 538.536 451.378 538.082C450.103 537.628 451.518 536.686 451.772 535.054C452.025 533.423 452.031 532.573 451.236 532.552C450.44 532.532 449.862 531.05 449.862 531.05C449.862 531.05 450.483 531.709 451.658 531.437C452.836 531.163 453.474 529.948 454.913 528.194C456.351 526.442 458.129 524.825 458.365 523.439C458.6 522.053 456.584 522.625 455.118 521.417C453.653 520.209 450.917 520.81 450.917 520.81C450.917 520.81 451.989 520.177 454.368 520.088C456.746 519.997 455.218 520.496 456.482 521.347C457.747 522.199 458.295 521.121 459.516 520.509C460.737 519.898 460.86 519.896 460.834 518.187C460.809 516.478 461.291 516.377 461.229 515.159C461.003 513.094 459.689 514.772 458.358 513.801C457.027 512.83 456.097 512.956 454.723 513.576C453.35 514.196 450.995 512.616 448.75 511.692C446.504 510.768 444.898 511.69 443.56 511.82C442.224 511.948 440.591 511.218 440.591 511.218C440.591 511.218 442.43 510.874 444.815 510.936C447.2 510.997 446.614 510.519 448.663 509.988C450.714 509.455 447.77 508.239 447.827 506.954C447.885 505.669 449.009 507.249 449.71 509.045C450.412 510.842 451.758 509.903 454.835 510.357C457.912 510.811 459.585 511.485 462.786 510.772C465.987 510.06 467.355 510.149 469.281 510.784C471.206 511.419 473.24 511.057 475.342 510.339C477.444 509.621 476.383 509.664 475.564 507.935C474.743 506.206 474.65 506.325 471.052 505.225C467.454 504.126 468.435 503.855 470.567 503.746C472.699 503.638 471.704 503.599 472.036 501.689C472.367 499.779 473.858 501.823 475.329 501.932C476.801 502.04 474.443 502.093 475.589 503.012C476.734 503.931 476.646 504.116 477.124 506.352C477.603 508.587 478.532 508.693 480.128 507.635C481.724 506.576 482.29 506.051 482.094 504.595C481.899 503.139 480.69 501.897 479.126 499.961C477.563 498.025 478.815 499.111 479.347 497.557C479.88 496.003 480.57 495.732 481.856 495.789C483.141 495.846 483.557 494.91 483.815 493.98C484.074 493.051 483.982 493.204 486.781 491.779C489.58 490.354 488.187 491.653 489.802 493.403C491.417 495.153 490.447 491.994 490.081 490.791C489.715 489.588 489.123 489.147 490.411 489.202C491.697 489.258 491.285 489.54 491.63 490.444C491.981 491.342 491.739 492.348 493.536 491.645C495.333 490.943 494.738 491.368 494.496 488.999C494.255 486.629 495.544 487.359 495.987 490.085C496.43 492.811 494.047 493.468 492.374 493.004C490.701 492.539 491.442 495 491.482 497.014C491.523 499.027 492.425 499.185 494.237 498.788C496.05 498.39 498.855 498.018 501.813 498.539C504.771 499.06 505.284 498.864 505.512 497.326C505.739 495.787 504.557 493.527 503.85 492.83C503.141 492.135 502.214 494.149 502.22 493.049C502.226 491.95 502.213 491.431 503.989 491.524C505.765 491.617 504.425 490.603 506.62 488.109C508.815 485.616 509.522 484.492 512.281 481.054C515.039 477.615 515.023 477.583 522.021 472.219C529.02 466.854 527.158 466.693 529.999 463.678C532.84 460.663 530.912 460.338 531.914 459.616C532.916 458.893 533.731 458.589 536.7 456.911C539.669 455.234 546.59 452.561 551.061 451.601C555.533 450.641 557.43 448.897 559.754 447.74C562.078 446.584 564.004 447.693 565.816 447.296C567.629 446.898 568.298 445.561 569.197 445.21C570.095 444.859 572.958 445.207 575.756 443.782C578.555 442.357 576.593 439.754 576.62 437.86C576.647 435.965 577.705 434.124 576.802 431.971C575.9 429.819 576.525 428.61 578.348 426.014C580.172 423.417 583.712 419.622 584.28 417.578C584.849 415.533 587.191 415.47 588.333 413.885C589.474 412.301 591.238 408.312 592.098 407.2C592.958 406.087 592.265 405.229 592.083 402.825C591.901 400.422 593.874 395.584 594.132 394.655C594.262 394.19 593.225 394.041 592.185 394.002C592.437 394.009 592.579 393.93 592.867 393.968C594.558 394.187 594.808 393.572 597.421 392.095C600.035 390.619 603.228 390.041 607.385 387.692C611.543 385.342 609.168 385.035 605.597 382.041C602.026 379.046 601.372 374.796 601.385 368.993C601.398 363.191 605.331 359.871 608.336 357.703C611.342 355.534 608.309 353.63 609.176 352.67C610.044 351.709 613.036 347.24 614.363 345.707C615.691 344.173 613.653 344.806 614.335 343.794C615.017 342.782 616.821 339.058 615.72 335.999C614.918 334.024 611.2 329.926 609.253 327.031C607.305 324.138 603.682 322.824 602.841 321.889C602 320.954 601.614 321.012 599.704 320.682C597.794 320.351 599.18 319.482 599.26 318.653C599.341 317.825 600.775 317.662 602.093 316.527C603.41 315.391 601.485 313.767 600.888 311.598C600.29 309.43 599.933 308.989 597.607 308.894C595.281 308.799 594.183 310.095 593.779 312.985C593.375 315.876 589.804 316.358 589.478 317.168C589.153 317.979 586.741 320.099 584.952 320.953C583.163 321.808 580.813 323.807 579.165 326.853C577.516 329.899 574.942 330.634 573.586 332.81C570.626 335.893 573.525 335.624 570.26 338.722C566.996 341.819 567.012 342.512 565.11 342.333C563.207 342.156 561.859 343.41 559.169 345.165C556.478 346.921 555.482 347.74 554.689 347.171C553.898 346.6 553.544 345.181 550.195 344.802C546.847 344.422 547.16 345.141 549.981 345.975C552.802 346.808 549.984 347.036 549.644 348.794C549.305 350.553 548.159 350.499 546.419 349.916C544.68 349.332 545.265 353.071 543.662 352.175C542.06 351.279 542.174 351.848 538.808 353.516C535.441 355.183 537.103 352.67 539.693 350.736C542.283 348.803 540.369 349.138 539.464 347.535C538.558 345.932 539.872 345.383 541.228 343.207C542.584 341.031 543.708 342.954 544.811 342.409C545.913 341.865 545.37 341.366 544.391 339.492C543.411 337.617 540.439 338.778 538.381 340.959C536.322 343.141 532.105 344.014 528.502 347.067C524.9 350.121 526.671 349.725 527.777 351.684C528.884 353.643 527.298 355.752 523.123 358.347C518.948 360.94 519.777 359.853 520.529 358.41C521.28 356.967 523.796 355.832 524.662 353.62C525.528 351.408 524.21 351.126 522.775 348.726C521.341 346.325 524.166 345.545 525.372 344.629C526.577 343.713 526.177 343.286 524.852 342.468C522.788 340.893 523.425 341.268 524.825 340.555C526.224 339.843 524.448 339.313 524.895 337.886C525.343 336.458 526.586 337.377 528.045 336.631C529.504 335.886 530.964 334.46 531.374 333.523C531.785 332.585 536.335 330.854 539.709 329.338C543.084 327.823 542.904 328.514 542.75 327.27C542.595 326.026 543.133 322.122 544.88 318.001C546.628 313.881 546.46 310.551 545.889 309.542C545.32 308.533 542.71 313.13 540.41 314.743C538.109 316.356 536 316.5 536.336 315.292C536.672 314.084 539.455 312.518 540.654 311.45C541.852 310.381 543.812 309.411 541.795 306.948C539.777 304.486 539.618 302.15 537.678 301.21C535.737 300.271 535.379 297.861 534.386 296.935C533.392 296.008 532.111 297.452 532.103 299.101C532.094 300.751 531.514 301.978 530.904 303.811C530.294 305.644 528.881 305.185 528.013 306.146C527.146 307.106 527.31 308.673 526.509 311.554C525.707 314.435 524.395 313.419 525.261 311.207C526.127 308.995 524.006 309.868 523.256 310.762C522.507 311.656 521.887 311.563 519.806 311.485C517.726 311.407 518.694 310.777 519.593 308.624C520.493 306.472 521.908 306.973 522.433 305.267C522.957 303.561 522.944 304.198 525.057 303.083C527.169 301.968 527.441 300.908 528.451 298.535C529.462 296.163 527.276 298.583 525.689 297.992C524.102 297.401 524.362 296.269 524.829 295.849C525.298 295.429 526.141 294.704 526.945 293.075C527.749 291.446 527.202 290.621 528.543 288.14C529.884 285.66 529.403 286.367 527.96 287.417C526.516 288.469 527.037 286.422 528.007 285.638C528.976 284.856 528.701 284.514 527.488 283.477C526.275 282.44 526.162 282.212 527.927 282.703C529.719 283.1 529.31 283.843 530.151 284.778C530.992 285.712 531.343 285.462 533.595 285.286C535.846 285.11 536.648 285.97 537.355 286.667C538.064 287.363 538.113 287.854 539.909 287.152C541.706 286.45 542.699 284.633 544.084 281.813C545.469 278.994 547.025 270.542 547.072 267.853C547.12 265.163 546.218 266.056 542.773 268.003C539.328 269.95 539.364 268.534 539.711 266.929C540.058 265.323 539.281 264.661 540.031 263.768C540.779 262.874 540.219 261.941 540.148 259.319C540.077 256.696 539.201 257.563 537.7 256.845C536.198 256.127 534.534 261.263 533.11 262.068C531.684 262.874 531.205 262.575 530.011 264.345C528.817 266.117 527.271 265.091 525.283 266.842C523.294 268.592 523.716 265.956 525.786 264.629C527.858 263.302 527.399 262.084 528.741 260.856C530.084 259.626 528.733 259.313 531.608 259.411C534.484 259.508 534.472 257.643 536.192 255.418C537.912 253.193 535.877 254.339 534.784 253.234C533.694 252.124 528.524 254.167 526.086 254.291C523.65 254.415 521.725 251.847 521.725 251.847C521.725 251.847 522.895 253.145 525.296 253.511C527.696 253.877 530.122 253.257 532.802 251.899C535.482 250.541 535.142 251.596 536.638 253.413C538.135 255.23 539.36 253.031 541.197 254.343C543.034 255.654 542.653 255.482 542.226 253.06C541.799 250.639 542.901 247.646 543.253 244.942C543.605 242.237 542.766 240.431 541.518 236.28C540.27 232.129 546.713 226.227 545.707 224.446C544.701 222.665 541.019 213.417 539.508 211.295C537.996 209.173 533.984 203.964 531.822 199.86C529.661 195.756 534.3 195.539 531.554 193.174C528.809 190.81 529.338 189.409 528.721 184.432C528.104 179.455 525.508 180.096 524.276 176.25C523.044 172.404 522.955 171.535 517.727 168.38C512.499 165.226 512.676 163.162 510.127 158.65C507.579 154.138 502.314 153.464 499.621 150.913C496.927 148.363 489.293 147.923 483.067 147.996C476.841 148.068 464.772 147.718 457.105 148.291C449.438 148.864 443.892 155.194 438.65 157.843C433.408 160.492 430.972 160.183 431.621 162.166C432.271 164.148 424.14 166.849 424.314 169.1C424.489 171.351 422.081 168.139 421.57 168.898C421.058 169.657 417.497 171.543 417.268 173.08C417.039 174.619 414.756 173.253 411.483 174.947C408.208 176.64 411.285 175.57 410.117 179.049C408.948 182.529 404.822 181.37 402.591 184.354C400.359 187.338 401.932 188.356 402.293 190.658C402.653 192.961 403.933 193.562 404.469 194.512C405.006 195.462 404.873 197.746 405.225 198.643C405.575 199.542 407.076 201.235 407.783 201.931C408.491 202.627 408.235 203.183 406.509 206.508C404.783 209.833 406.245 210.111 407.2 212.078C408.154 214.045 406.21 211.787 403.773 211.91C401.336 212.035 401.723 212.536 400.426 214.679C399.129 216.821 400.055 215.515 397.768 216.181C395.48 216.847 395.27 216.372 393.717 215.84C392.164 215.308 389.76 213.82 387.767 213.066C385.774 212.313 382.171 214.476 379.439 216.02C376.707 217.563 375.866 219.642 376.398 218.089C376.931 216.534 376.782 217.103 375.198 215.962C373.613 214.821 374.368 215.305 375.644 213.957C376.919 212.609 376.389 212.76 376.24 212.218C376.09 211.676 376.534 209.537 375.416 206.723C374.297 203.909 375.437 201.604 375.876 198.223C376.317 194.841 377.852 184.999 378.132 183.274C378.411 181.55 381.02 181.556 380.081 179.894C379.142 178.232 376.887 173.182 372.222 169.083C367.556 164.984 364.209 161.391 360.999 160.699C357.788 160.007 355.874 158.708 352.044 156.643C348.215 154.578 341.579 150.963 338.694 149.461C335.809 147.959 332.964 147.507 332.291 149.924C331.619 152.339 327.964 149.132 325.923 151.068C323.882 153.004 323.737 150.896 320.325 149.849C316.912 148.801 314.547 148.022 313.963 149.762C313.378 151.502 307.865 150.204 302.961 149.843C298.056 149.482 292.022 147.606 289.441 146.088C286.861 144.57 285.521 150.907 282.85 153.669C280.18 156.431 278.865 156.126 278.891 157.836C278.916 159.545 278.181 161.224 276.509 160.76C274.836 160.295 273.337 162.993 270.972 162.136C268.609 161.278 268.616 161.807 267.407 163.274C266.198 164.74 265.197 168.055 264.66 167.105C264.124 166.155 264.216 164.935 265.807 161.373C267.399 157.81 268.475 159.702 270.927 159.882C273.379 160.063 273.371 158.546 275.396 156.305C277.42 154.065 280.206 152.229 282.587 149.787C284.968 147.345 283.511 146.836 286.063 144.141C288.614 141.446 289.81 141.573 290.79 141.645C291.771 141.717 292.415 143.782 294.228 143.384C296.04 142.986 303.19 144.598 307.893 144.603C312.596 144.608 311.526 140.961 313.587 138.23C315.649 135.498 317.94 135.662 322.257 135.259C326.572 134.856 325.14 136.64 325.878 137.946C326.616 139.252 324.948 142.078 326.224 140.73C327.499 139.383 326.682 138.27 325.666 135.085C324.65 131.9 316.823 129.928 304.862 126.505C292.902 123.083 284.131 120.554 274.723 114.435C265.314 108.318 266.156 105.799 265.414 101.99C264.673 98.1792 265.187 97.5228 268.497 95.3389C271.808 93.1547 270.459 92.3459 268.683 92.2529C266.907 92.1605 265.755 91.3045 258.923 93.9114C252.091 96.519 253.11 95.2266 250.158 93.6054C247.205 91.9846 249.467 90.9035 246.57 91.6006C243.674 92.2976 244.733 91.2811 241.532 91.9937C238.33 92.706 237.706 90.7758 237.02 89.2838C236.334 87.792 235.43 89.596 232.768 87.6546C230.105 85.7136 229.545 84.4691 225.559 82.9626C221.574 81.4554 219.95 81.8127 218.122 81.9058C216.295 81.9985 214.933 82.0068 215.523 79.1671C216.113 76.3278 213.547 78.5828 210.931 77.5549C208.314 76.5278 209.654 77.0749 204.961 78.474C200.267 79.8731 202.963 79.304 200.703 78.0753C198.442 76.847 196.479 78.1014 195.507 79.4336C194.535 80.7657 194.124 79.8977 191.44 78.7515C188.756 77.6054 190.987 80.3427 188.215 79.8729C185.443 79.4032 186.642 79.4339 184.06 81.5195C181.477 83.6056 181.945 82.897 179.679 82.7679C177.412 82.6393 178.323 83.2024 176.015 84.6634C173.706 86.1248 173.126 86.5864 168.681 85.6518C164.237 84.7176 166.028 87.4155 163.07 86.8944C160.112 86.373 162.192 86.9134 161.809 89.0098C161.426 91.1052 159.334 89.852 159.903 87.8075C160.472 85.7631 157.552 86.7704 155.426 85.7795C153.299 84.7882 155.274 83.3363 155.005 82.8614C154.738 82.3859 150.602 83.331 144.351 81.6947C138.1 80.0581 141.119 80.5178 139.065 78.5455C137.012 76.5725 136.053 75.1813 130.355 71.1958C124.657 67.2106 129.378 67.8872 125.966 66.8387C122.554 65.7908 124.21 62.4412 122.79 62.1468C121.371 61.8525 120.148 60.8122 115.719 60.1823C111.289 59.5527 116.012 58.0465 111.872 57.0968C107.732 56.1468 110.304 54.5918 105.622 53.7918C100.939 52.9917 101.924 50.6666 99.1978 51.1104C96.471 51.5551 99.7225 50.064 98.2047 49.042C96.6868 48.0203 95.5384 48.9597 96.0554 47.1013C96.5727 45.2427 96.0278 43.1664 94.0296 43.5124C92.0315 43.8584 91.9709 40.8077 89.0437 40.8955C86.1164 40.9833 83.0199 36.7941 82.8294 34.239C82.6398 31.6836 83.0511 31.454 79.2251 31.8931C75.3996 32.3318 73.2659 28.9379 73.189 27.4152C73.1125 25.8919 74.1308 24.2333 69.368 19.4062C66.9828 16.9963 66.7861 15.8028 66.7752 15.437C66.7222 15.4035 66.5397 15.628 65.1626 15.9978C61.4869 16.9781 61.9649 13.3284 60.9172 13.1374C59.869 12.9465 59.7492 11.0888 57.0194 9.02852C54.2894 6.96863 51.3245 8.10255 49.2594 8.3297C47.1943 8.55674 45.5946 10.7138 45.9356 10.208C46.2768 9.70218 46.2817 8.42316 44.1862 8.0409C42.0899 7.65938 41.6723 3.82165 40.1032 2.9853C38.5342 2.14885 33.3803 7.03451 37.6869 5.22724C41.9934 3.42036 39.1169 5.63204 41.2744 7.23214C43.4314 8.83295 41.3381 7.90903 39.9897 10.2374C38.6411 12.5656 36.0158 9.02133 34.715 8.65991C33.4143 8.29833 30.1593 6.4333 27.2682 6.03083C24.3774 5.62793 22.217 5.66934 20.0288 3.46016C17.8404 1.25085 16.2221 1.5303 13.7529 1.04257L13.7554 1.04015ZM530.282 288.73C528.317 294.892 528.986 293.283 530.188 292.29C531.39 291.297 532.478 288.31 532.693 287.719C532.907 287.128 531.406 288.291 530.282 288.73ZM528.663 338.03C526.399 339.153 526.747 340.688 528.177 340.584C529.607 340.481 530.977 339.319 532.264 337.574C533.55 335.829 530.089 337.225 528.663 338.03ZM549.679 338.602C549.391 338.792 549.128 339.106 548.9 339.395C547.98 340.541 549.174 340.225 549.76 341.538C550.345 342.852 551.294 343.547 553.289 343.752C555.284 343.956 554.399 345.444 557.438 343.335C560.478 341.226 560.872 340.396 563.097 340.312C565.322 340.23 565.19 339.995 565.588 338.204C565.986 336.412 566.531 336.1 564.977 335.569C562.613 334.712 559.358 334.302 558.389 335.084C557.422 335.866 554.177 338.307 552.731 338.106C551.647 337.955 550.543 338.031 549.68 338.603L549.679 338.602ZM486.105 493.386C485.449 493.654 485.553 494.803 487.006 494.98C488.942 495.218 487.586 493.623 486.995 493.409C486.643 493.236 486.324 493.297 486.106 493.386L486.105 493.386ZM483.365 495.986C482.474 496.49 483.936 498.04 484.682 497.697C485.428 497.353 484.493 495.349 483.365 495.986ZM484.675 498.928C484.607 499.223 484.982 499.933 485.044 500.823C485.155 502.405 486.045 501.604 486.616 500.811C487.187 500.018 487.602 499.717 485.981 499.066C485.483 498.877 485.124 498.78 484.941 498.777C484.804 498.775 484.698 498.829 484.675 498.928ZM465.973 519.839C465.752 519.953 465.685 520.466 465.758 521.012C465.905 522.104 464.538 521.575 465.046 523.168C465.554 524.76 464.951 525.087 463.987 526.571C463.023 528.056 463.09 528.794 464.322 527.785C465.553 526.775 465.392 528.497 465.257 530.061C465.122 531.625 463.716 530.362 463.355 531.662C462.993 532.963 461.923 533.474 461.118 532.049C460.313 530.624 459.793 532.478 458.927 534.69C458.061 536.902 459.081 537.262 458.809 539.139C458.537 541.015 457.041 538.042 456.378 537.006C455.714 535.972 455.672 540.024 455.745 542.097C455.819 544.17 457.503 542.551 459.883 540.11C462.265 537.667 464.292 540.695 466.286 539.647C468.28 538.599 472.288 539.128 475.832 539.161C479.376 539.195 480.751 541.019 481.905 540.288C483.058 539.557 484.912 536.944 486.178 534.192C487.444 531.44 487.038 532.161 485.839 530.176C484.639 528.191 484.661 526.313 485.188 524.057C485.717 521.801 487.098 520.903 487.982 518.446C488.867 515.989 486.518 518.774 484.972 518.394C483.426 518.015 485.329 517.051 483.979 516.326C482.629 515.6 482.172 515.769 481.043 516.407C479.915 517.044 480.133 516.045 477.877 517.32C475.62 518.595 475.31 519.184 474.195 518.875C473.08 518.565 473.036 520.048 470.52 519.198C468.004 518.349 467.775 518.996 467.775 518.996C468.294 520.191 468.713 520.775 470.698 521.376C472.683 521.978 471.937 523.22 472.158 524.583C472.38 525.946 471.969 527.525 471.071 526.074C470.174 524.623 470.565 525.006 469.853 523.607C469.141 522.208 467.583 522.211 466.839 520.752C466.467 520.022 466.192 519.724 465.975 519.836L465.973 519.839Z" stroke="white" stroke-width="2"></path>
</svg>
