<svg width="891" height="456" viewBox="0 0 891 456" fill="none" xmlns="http://www.w3.org/2000/svg">
<path opacity="0.5" d="M885.417 47.9868L886.107 48.9206L885.954 50.8767L886.688 51.6667L885.991 52.4803L886.121 52.9184L887.974 53.5108L889.145 55.9943L888.966 57.7706L887.189 58.3891L886.937 59.7424L883.607 60.2519L883.346 61.1036L882.259 62.0604L882.024 63.092L882.725 65.4496L882.099 68.3522L882.172 68.6427L882.253 69.2404L881.758 70.8551L882.735 74.0356L881.105 74.4436L880.957 76.0533L879.126 75.9871L877.544 79.154L873.457 81.8012L872.908 83.3265L870.507 81.9344L868.443 82.6294L867.099 81.7702L864.709 81.8018L864.518 81.8275L864.416 81.8961L863.325 82.6004L862.339 83.759L860.03 84.3885L859.801 85.4023L857.958 86.5022L856.972 85.7387L855.01 86.9605L853.65 87.0184L852.661 88.2513L851.852 87.4393L848.744 88.6206L848.119 89.5304L845.738 90.062L844.913 90.7643L843.393 89.6849L841.843 90.0953L840.323 89.6113L839.502 89.9673L837.284 89.9683L835.541 88.1572L833.641 88.9152L833.733 88.0182L834.674 87.2718L834.689 86.0279L833.512 84.6929L833.529 84.3728L833.593 83.5645L833.638 83.154L833.144 82.1769L832.317 81.9553L831.829 81.8243L831.753 81.8042L831.597 81.1863L831.499 80.9103L830.89 80.5743L829.42 79.9289L829.115 78.601L829.463 76.87L830.166 76.0387L830.594 75.5027L830.279 75.0725L828.659 76.9043L828.42 77.0879L827.951 78.6155L828.316 79.4814L827.647 80.2045L823.691 82.1592L821.054 84.1218L818.015 87.3974L817.968 87.8839L817.946 87.9549L817.88 88.4346L817.916 89.4447L817.807 90.6634L817.633 90.9627L817.515 91.0845L816.66 90.9516L815.341 90.675L814.28 91.2164L814.186 89.2708L813.304 88.6312L810.359 89.0135L809.134 88.1649L806.259 88.3183L802.481 90.2227L799.503 92.7678L798.188 92.4152L796.003 92.9052L796.155 93.8676L794.068 94.9021L792.608 95.0869L791.824 94.7234L790.231 95.871L788.011 95.9463L786.759 97.1105L784.641 100.038L783.814 100.411L782.523 105.48L780.937 105.478L779.898 105.948L778.276 104.936L776.893 105.066L776.396 104.432L775.144 105.596L773.586 106.1L773.063 107.208L771.802 107.274L771.258 109.048L769.112 109.145L767.612 109.991L767.074 110.018L765.88 110.199L764.491 112.669L762.388 116.675L762.198 117.892L763.287 119.182L762.337 119.427L762.896 121.65L760.484 121.753L759.668 122.955L760.39 124.646L759.574 125.847L759.259 126.012L758.243 124.417L757.748 126.031L757.139 126.291L756.614 125.152L755.64 124.545L753.478 124.964L750.269 123.354L749.525 122.331L747.852 122.879L754.39 126.301L753.124 126.713L752.102 126.266L750.467 126.423L749.299 129.104L748.923 128.007L747.794 127.378L748.007 126.417L746.837 125.854L746.518 125.768L743.411 127.276L742.98 127.487L741.713 128.168L738.474 130.967L737.158 132.938L736.717 135.834L735.99 136.216L736.292 136.623L736.102 137.242L736.003 137.563L735.298 137.874L734.498 137.563L734.108 138.304L734.785 139.81L733.03 142.681L732.512 144.635L732.847 146.127L733.808 147.306L732.5 148.453L731.335 148.736L730.83 149.521L730.151 149.744L729.142 149.32L729.049 149.621L729.65 150.781L728.752 154.304L728.415 154.54L727.944 154.087L727.513 154.298L726.726 156.332L726.817 158.624L728.639 160.111L728.619 160.509L727.357 161.438L725.777 161.418L725.305 160.965L725.233 160.869L725.273 159.612L724.761 159.225L722.606 158.821L722.769 157.693L721.888 156.785L720.547 157.443L718.939 156.916L715.492 160.659L714.391 160.537L712.237 161.457L712.269 162.215L711.759 162.75L710.901 162.693L710.145 162.241L710.291 162.03L712.211 158.954L710.35 157.86L710.138 155.633L710.807 154.91L711.272 152.268L710.989 150.869L711.935 150.372L711.713 149.968L711.614 149.693L710.832 149.656L709.604 151.074L707.947 150.707L707.44 151.164L706.854 151.681L707.353 152.641L707.145 153.584L708.797 155.695L708.672 155.836L707.367 159.229L707.939 160.478L706.228 162.343L705.358 162.857L704.282 162.917L704.25 164.481L706.58 166.699L706.421 167.484L703.845 167.792L703.656 168.74L703.192 168.462L703.347 167.159L702.386 166.249L702.31 165.631L699.92 165.068L698.709 163.843L697.763 163.743L695.845 164.823L694.501 166.287L692.759 165.666L690.792 166.309L690.476 165.88L689.835 164.787L688.907 164.96L688.44 164.161L687.564 164.697L686.365 164.03L681.954 164.017L679.871 164.709L674.778 170.102L674.788 170.932L672.461 175.07L671.368 175.449L670.765 176.287L670.264 177.324L671.181 178.645L670.898 179.567L669.452 181.1L669.703 182.336L669.316 182.734L668.995 182.322L668.268 182.703L667.828 182.412L667.214 182.094L666.095 182.293L666.186 183.391L665.009 183.248L664.46 181.855L662.764 183.071L662.273 184.342L661.105 184.701L660.464 184.203L657.929 184.445L657.824 185.317L656.873 185.564L656.758 186.205L653.226 186.18L653.521 187.008L652.877 188.18L652.079 188.792L650.249 188.722L646.765 190.862L644.871 194.118L644.751 196.832L643.432 196.555L642.311 196.428L641.268 197.243L641.617 198.162L640.479 198.952L638.143 199.075L634.856 201.765L631.275 201.9L630.094 202.832L628.002 203.02L627.378 203.928L626.013 204.331L624.208 206.171L623.392 207.968L623.289 209.765L621.707 212.93L620.035 218.647L619.71 217.982L619.27 217.693L618.803 217.491L618.319 217.609L619.083 218.565L619.231 218.681L619.289 219.619L619.039 221.892L616.349 230.926L616.79 231.545L616.533 232.648L617.157 234.063L615.68 235.165L615.326 236.914L615.716 239.092L614.801 240.018L613.65 242.379L611.213 244.222L611.213 244.817L609.539 245.367L608.968 246.633L609.32 247.805L609.006 248.564L607.803 249.568L607.461 249.822L607.047 252.033L604.483 254.688L603.311 259.039L601.932 260.418L602.2 262.658L601.135 263.546L601.341 265.195L600.667 265.667L600.779 267.291L599.371 267.835L598.443 270.332L597.767 270.478L597.523 270.412L594.78 269.274L588.24 267.848L587.155 266.809L584.723 264.659L581.767 263.618L579.953 262.037L578.124 259.377L577.838 257.726L576.779 256.271L574.128 254.236L569.195 252.741L563.47 252.705L561.916 253.46L559.867 255.232L558.045 256.263L555.285 257.768L551.93 261.211L549.041 262.606L546.708 262.384L546.606 262.453L545.324 263.183L544.822 264.222L543.98 265.839L541.625 268.279L540.67 268.274L539.563 267.574L539.072 266.521L540.188 266.398L540.401 265.704L540.096 264.376L539.22 264.314L537.472 265.171L536.853 264.006L537.104 262.326L539.131 260.028L539.654 258.324L536.264 260.755L534.07 265.584L534.004 266.661L531.19 268.077L529.092 267.687L528.232 269.032L527.651 269.202L525.295 267.995L523.251 267.697L521.569 268.339L520.882 269.981L514.621 265.058L513.675 264.958L518.373 270.403L519.386 271.078L522.554 271.427L523.174 270.269L525.729 270.031L530.105 271.281L530.242 270.569L530.894 270.167L533.765 269.763L535.464 268.8L535.822 267.897L535.497 267.234L536.105 266.974L539.31 271.249L539.455 273.959L538.99 276.004L537.075 282.248L537.169 282.273L537.423 283.169L538.743 283.772L539.656 285.109L539.541 286.079L538.556 287.236L538.632 287.583L538.691 288.52L541.166 292.256L539.976 292.686L534.896 291.075L534.022 291.34L532.429 293.083L530.7 296.134L529.939 300.671L530.56 301.761L532.121 302.772L531.424 303.586L529.789 303.148L528.159 303.287L526.475 305.33L523.688 304.336L522.34 303.821L520.227 304.676L515.972 304.686L515.527 304.415L514.119 304.959L512.631 304.637L510.393 305.034L508.97 303.906L504.008 304.497L502.857 303.939L501.276 303.918L500.431 302.365L497.899 299.941L496.775 299.89L496.203 300.562L495.155 300.531L494.672 301.573L491.14 300.953L484.209 299.938L482.102 299.048L479.379 299.568L477.08 300.699L474.157 300.742L470.93 299.128L470.182 297.851L469.401 297.547L466.846 297.784L465.983 297.15L464.901 298.356L463.852 297.731L462.223 298.466L459.957 298.358L457.851 296.87L453.965 295.675L452.554 296.297L449.944 298.438L448.848 298.298L447.094 295.66L443.08 293.759L440.298 293.013L431.825 288.074L431.678 287.958L423.83 284.76L422.467 282.571L416.671 282.765L413.621 284.615L410.96 283.808L409.494 284.011L406.494 282.782L401.025 278.727L399.754 278.559L399.728 278.379L396.805 275.772L396.285 274.883L396.33 274.471L396.563 273.114L393.701 272.098L392.087 271.589L390.93 269.858L390.888 268.272L387.746 262.995L385.689 261.944L382.418 261.663L380.712 261.455L377.484 259.842L373.611 259.207L371.129 257.217L368.083 257.399L363.852 255.939L360.601 256.988L359.944 256.543L353.224 257.16L349.679 258.306L349.507 258.336L347.649 257.762L346.204 256.702L343.672 256.869L341.271 257.798L336.761 257.513L336.175 257.433L334.259 255.919L331.308 255.128L327.87 252.212L322.273 252.882L318.634 254.998L316.986 255.131L316.345 254.633L316.324 254.704L315.194 254.077L315.043 254.036L313.738 254.512L313.091 255.758L312.206 257.518L311.442 258.813L311.117 261.066L311.799 263.419L311.753 266.154L312.606 268.879L306.884 280.038L306.345 282.39L306.529 283.515L309.102 284.876L309.89 286.086L308.842 286.055L307.619 285.401L306.787 284.928L304.757 284.384L303.156 282.112L301.367 283.896L301.107 284.479L300.105 286.882L299.234 289.99L300.492 291.921L300.063 292.458L298.873 292.888L298.19 293.126L295.168 293.163L294.131 293.958L292.589 298.386L292.823 299.946L294.407 300.217L294.604 300.769L286.943 301.539L286.955 300.043L282.912 299.96L279.782 301.541L277.87 303.198L276.68 303.628L275.195 306.744L273.939 307.06L273.645 307.155L273.34 308.417L270.237 309.909L269.258 311.643L267.655 312.556L267.2 313.511L262.129 315.319L255.613 319.585L251.592 319.429L250.194 320.802L248.044 320.649L247.363 320.217L247.331 319.459L246.506 319.564L245.372 318.684L243.644 318.548L242.53 319.593L239.786 320.183L239.407 318.832L237.907 317.356L236.85 316.226L236.641 317.171L237.624 318.279L238.546 320.177L238.129 320.409L238.943 321.205L235.774 323.446L235.246 324.305L227.015 332.103L225.39 336.008L225.226 336.213L224.483 338.105L219.705 340.418L217.225 342.998L216.183 344.14L215.411 344.932L214.616 345.466L214.177 345.772L212.839 346.086L212.552 346.162L208.138 348.148L205.764 349.854L200.114 357.596L197.184 359.653L194.684 360.308L191.871 362.05L191.115 362.193L188.37 362.456L184.034 364.787L182.698 366.025L180.653 368.645L179.914 370.194L179.112 372.476L176.656 372.989L176.362 373.083L175.102 373.744L173.642 374.524L172.337 375L169.327 373.867L168.014 374.437L167.116 374.446L164.985 375.622L162.018 376.076L158.742 377.538L158.539 379.061L158.094 381.706L159.02 383.527L161.524 386.041L163.333 386.776L165.778 387.759L167.184 389.211L166.325 391.746L162.9 394.82L161.705 395.001L160.97 394.478L160.413 391.984L159.029 390.463L156.629 388.802L156.166 388.523L154.462 386.319L153.044 385.766L149.3 386.435L148.648 387.432L148.543 388.902L149.901 390.84L150.003 391.038L149.694 392.378L149.921 393.361L150.078 393.979L150.241 393.447L151.003 391.558L151.064 390.499L151.134 389.673L150.44 388.488L149.955 388.608L149.164 388.07L149.621 387.443L151.325 386.728L152.908 386.807L153.965 387.34L155.052 389.302L158.69 392.696L159.27 395.115L159.372 395.644L160.649 396.389L162.056 396.111L163.296 395.85L164.996 394.885L167.716 392.119L168.511 388.664L168.243 387.748L166.496 386.281L164.1 385.735L163.176 385.564L161.607 384.049L161.063 383.5L162.292 381.814L168.102 380.45L172.193 378.053L176.275 377.15L177.357 375.347L181.459 373.777L183.694 370.535L184.829 369.687L187.602 369.336L189.105 368.414L189.834 368.359L192.176 368.219L192.877 367.658L194.208 366.766L194.665 366.735L202.082 365.303L203.322 365.042L206.985 363.18L208.192 362.429L209.744 361.348L210.355 359.092L213.497 356.343L214.384 354.91L216.976 353.358L217.499 352.25L217.619 348.941L217.743 348.802L217.88 348.685L218.941 347.548L219.564 348.635L219.455 350.182L219.392 350.722L219.362 350.752L218.573 351.866L218.776 352.264L219 352.727L219.678 354.099L219.691 354.124L219.705 355.203L219.702 355.413L218.755 357.637L218.744 357.672L218.592 358.035L218.625 358.061L219.333 359.001L220.164 359.013L220.178 359.034L220.185 359.076L220.509 359.547L220.589 359.683L220.519 359.78L219.953 360.761L219.19 361.325L218.541 361.784L217.285 362.696L217.073 363.252L216.802 363.872L216.828 363.918L217.216 364.579L217.229 364.601L217.831 364.165L218.48 363.706L218.249 364.26L218.658 364.984L220.132 363.958L220.276 364.151L220.271 364.168L219.651 365.922L218.576 365.846L216.787 365.712L215.338 365.592L214.468 366.108L214.485 366.516L214.488 367.17L214.496 367.21L214.78 367.478L215.461 368.177L216.282 369.014L215.292 370.649L214.811 371.423L214.781 371.453L214.775 371.74L214.772 371.816L214.71 372.414L214.743 372.441L215.293 373.299L216.407 375.038L216.247 375.494L213.817 374.861L213.799 374.856L213.642 376.428L213.616 376.71L213.611 376.726L214.563 379.325L214.336 380.532L214.041 381.758L214.288 382.477L214.41 382.875L214.681 383.85L212.612 384.292L210.976 385.448L210.155 386.668L208.592 388.976L208.575 389.165L208.533 389.499L208.451 390.034L208.469 390.039L209.715 391.218L210.629 393.344L210.624 393.36L210.544 393.819L210.326 394.797L208.919 396.995L208.686 397.356L207.821 398.717L207.793 399.67L207.755 399.929L207.629 401.066L207.599 401.365L207.498 402.356L207.729 403.128L207.846 403.544L207.23 404.358L203.808 405.169L203.722 405.184L203.697 405.197L203.679 405.192L203.42 405.372L202.749 405.769L202.757 405.807L202.802 407.586L202.796 407.605L202.167 408.397L201.649 408.028L197.723 412.139L196.165 410.322L190.315 414.073L187.637 411.263L186.157 414.63L177.664 412.009L171.393 417.663L168.106 415.381L163.232 417.742L158.203 417.624L157.708 424.212L160.09 427.653L157.882 434.32L163.385 438.598L161.503 439.227L160.459 444.091L155.045 446.751L157.247 452.238L153.936 454.941L151.545 454.646L151.945 451.95L147.064 450.22L148.866 445.806L144.946 443.796L142.213 443.753L139.991 447.881L131.569 448.411L132.477 446.311L128.486 442.878L131.159 434.495L128.669 433.924L127.362 430.693L121.971 429.765L118.808 428.207L110.814 434.9L104.963 431.758L103.36 434.131L100.757 432.474L102.948 440.05L100.721 440.414L99.67 446.161L97.4671 447.242L95.5868 447.602L91.0508 445.081L88.6271 441.974L93.7146 440.111L97.5232 434.658L96.5557 432.308L89.8 435.298L85.5168 432.749L80.8262 432.721L79.813 429.128L77.763 428.847L65.4953 435.084L59.6156 434.025L56.7507 430.898L52.3111 434.163L45.9089 422.672L42.3592 420.052L37.7156 426.237L38.3564 430.249L42.5875 434.361L41.7221 437.182L43.1054 439.569L39.3137 439.263L37.4581 440.936L35.4385 438.302L32.1045 441.345L31.5511 439.104L25.0935 445.764L20.7709 446.526L19.0613 440.826L17.3577 439.218L14.8826 441.185L17.5986 433.79L14.9963 431L12.4564 432.317L14.204 428.676L11.9222 425.702L13.9612 422.504L9.28475 418.717L1.66014 419.036L1.41059 416.069L13.6547 408.251L13.4649 406.549L7.73583 396.777L10.3005 395.446L8.79265 389.684L15.3865 386.691L15.1334 379.691L19.9377 380.211L23.1155 375.09L27.6594 372.679L26.9647 367.98L30.1137 364.081L29.9752 358.764L32.0097 355.315L40.3639 351.159L38.149 346.84L38.2349 337.608L41.291 333.415L40.5439 329.219L36.6442 324.027L36.1395 320.168L38.7484 319.754L42.3782 323.24L46.3415 319.273L46.6393 313.727L42.3044 307.035L45.6754 304.136L45.0677 302.072L50.1769 300.139L51.9894 294.23L52.2348 294.027L50.7794 289.488L46.3568 290.376L45.3572 288.728L41.9138 271.637L38.0552 272.677L40.3176 264.374L38.208 255.667L33.7234 248.071L36.2043 241.708L43.1866 242.886L44.8461 241.257L43.8731 238.924L42.0156 238.945L43.8314 235.015L38.2268 226.428L35.1521 224.913L37.1811 221.482L35.3308 218.296L39.0221 213.757L43.5579 217.737L46.5459 211.777L45.6282 205.484L46.9008 203.06L51.0276 202.34L52.3553 196.553L50.4973 195.978L52.6029 192.894L54.6292 192.323L59.4589 196.805L65.0909 197.544L72.7009 188.851L83.0436 190.68L84.8063 187.851L81.3192 183.038L83.0331 179.772L81.8949 173.668L81.6813 172.574L85.6968 164.988L79.8184 160.477L83.9476 153.98L83.5241 149.525L87.8054 139.614L88.1509 137.095L82.9572 132.938L84.4735 131.443L83.8662 128.516L85.7681 129.544L87.093 128.939L85.9435 127.248L90.3833 127.497L90.0315 122.543L87.4717 120.476L92.0411 115.727L93.0637 114.714L94.7202 116.543L100.829 113.936L103.144 115.939L105.094 117.938L108.619 125.547L114.77 127.445L122.037 133.463L125.212 132.662L126.861 140.286L130.498 139.703L135.971 135.123L134.082 141.28L136.888 139.958L144.507 141.383L149.758 138.126L150.415 140.625L151.15 137.366L146.301 130.959L141.585 116.293L134.6 118.837L129.334 116.042L132.419 109.766L134.598 107.834L137.594 109.078L139.328 107.469L139.355 107.381L138.848 106.381L142.341 101.095L142.423 98.7745L138.93 96.8977L134.217 98.4001L135.013 92.027L133.428 89.7013L136.335 88.5794L137.681 83.9282L139.682 82.9091L138.959 79.1632L140.42 78.2488L139.116 73.8096L140 69.8027L132.037 72.0855L131.63 67.3105L133.91 63.0632L122.189 61.1498L125.499 57.2573L125.516 57.2041L130.023 58.1621L130.657 58.0825L131.631 58.0918L132.364 58.0215L135.196 56.284L135.733 56.5239L135.596 57.2342L136.933 56.9222L137.791 57.5727L138.346 57.224L138.834 56.7596L139.67 57.4828L139.481 58.4288L140.169 59.0376L140.394 57.1776L139.526 55.6969L138.326 55.2986L137.738 54.2962L137.201 54.325L136.141 55.4599L135.555 55.3798L136.641 53.8275L137.608 53.2628L138.484 53.3247L140.054 54.8397L142.866 56.0158L144.262 56.6394L149.498 58.8662L154.572 59.9012L161.738 60.1488L165.625 59.3471L169.899 57.7484L173.602 55.2266L175.084 54.9709L175.747 55.398L175.611 56.4352L173.058 57.001L171.77 57.7504L171.655 58.3916L173.363 60.8463L173.641 62.5915L174.726 63.0356L174.509 64.0722L175.15 64.5703L176.051 64.4852L176.895 63.7896L180.201 65.3457L180.273 65.4419L180.136 66.1558L178.875 66.8165L179.352 68.1155L179.397 68.3003L178.944 69.1777L179.319 70.2766L180.41 71.8938L182.088 71.5946L182.171 69.8674L182.21 69.2079L182.232 69.1369L181.825 67.2805L180.842 66.441L180.495 65.2515L180.543 65.0936L179.512 64.7406L179.943 63.9342L181.945 64.5669L183.337 64.9396L184.07 65.1361L185.396 66.3171L186.427 67.2655L187.93 68.6667L187.735 69.0351L187.381 69.5948L186.174 71.5374L187.039 72.7655L187.726 72.7789L189.081 72.1433L189.511 71.337L189.164 70.7447L188.049 71.1949L188.843 69.7351L189.078 69.3007L189.1 69.2297L189.018 68.0366L189.311 67.6138L190.952 69.2268L192.053 69.3491L194.353 68.218L194.493 67.4299L193.019 66.5336L193.848 66.0856L195.456 66.0172L195.88 64.6332L197.457 64.1341L197.888 63.3278L197.952 61.9241L195.385 61.4071L192.148 64.1325L189.552 65.4338L188.926 65.4197L187.872 65.4061L186.451 64.6028L186.152 63.8508L186.631 63.1533L187.348 63.9983L188.054 63.6863L187.722 61.8519L187.814 61.5502L188.283 59.7558L192.071 58.3512L193.68 58.6095L194.185 58.0919L193.402 57.4598L191.497 57.3716L188.976 58.6931L189.838 56.6776L192.579 55.5686L192.427 55.2014L189.659 55.5353L188.41 57.618L187.509 57.7031L186.28 56.473L186.226 55.7865L186.266 55.1235L184.83 55.163L184.653 54.6143L184.94 53.9442L185.598 54.1205L186.006 53.3851L184.762 52.8001L183.359 53.9239L181.511 54.4463L183.046 52.0927L182.622 51.1534L181.102 50.0741L180.742 50.0544L180.265 51.9427L178.719 52.6039L177.671 52.5726L175.9 53.7687L175.944 52.4342L175.223 51.667L175.412 50.7191L177.919 48.0499L178.849 45.8797L178.691 44.3396L177.357 42.3884L176.747 42.321L174.945 42.1625L174.863 41.5665L176.55 39.8486L180.586 38.7603L182.294 36.9714L182.945 35.3793L182.691 34.4837L181.291 33.6111L181.338 33.1246L182.764 32.2566L183.415 30.6663L183.721 29.9995L186.395 29.6387L192.091 31.4935L195.211 32.001L197.671 31.7404L198.928 30.8271L199.118 30.8014L203.154 29.7149L204.041 30.6035L204.158 32.4781L203.619 34.8318L210.491 38.0923L213.955 41.192L214.486 43.5042L216.608 43.1513L217.77 45.1331L221.649 46.0187L223.143 46.9164L222.686 47.5447L223.305 48.1137L224.528 49.3633L227.674 50.0507L229.933 48.9855L232.546 49.6857L233.48 50.6866L234.702 50.4169L236.044 51.5464L243.832 55.5343L247.129 56.5905L248.758 58.7743L252.126 59.5999L254.602 61.0121L256.563 62.1119L258.732 62.8659L260.877 62.7705L262.326 64.0805L264.613 63.522L267.996 61.1815L268.799 60.5536L269.761 59.1409L269.897 58.1019L268.666 57.2729L270.148 56.4218L270.6 55.5445L273.415 54.1288L275.048 52.3198L275.596 50.7963L275.84 50.2664L274.512 46.8382L273.241 46.0751L272.633 46.0659L271.779 45.933L270.769 44.9136L269.748 44.7937L269.414 40.7102L269.736 38.7994L271.861 36.4482L274.741 34.5528L276.841 32.3486L279.73 30.9548L280.105 32.0537L278.566 34.4833L276.945 38.3115L276.929 39.5555L275.313 41.0427L275.178 42.0817L275.107 42.3123L274.646 42.6881L274.558 43.8358L279.435 54.3979L282.996 60.3636L292.453 74.4955L295.719 79.3646L300.834 84.5755L303.3 87.8093L307.154 90.7623L312.074 96.3432L316.712 100.255L320.594 103.715L323.528 104.827L324.407 104.813L325.858 106.448L328.932 107.37L338.713 113.485L342.436 113.484L342.875 113.18L346.705 111.038L346.821 110.992L347.846 110.767L349.908 110.148L351.445 110.311L354.357 109.171L357.431 109.495L360.473 109.062L363.157 109.532L368.224 112.31L372.104 112.926L375.033 110.87L376.11 109.085L377.083 109.096L379.999 110.531L385.268 111.194L391.27 112.648L399.464 113.327L400.165 113.361L402.236 113.244L405.082 113.181L405.691 112.922L407.245 112.167L407.772 111.309L410.778 109.868L411.936 108.412L412.138 106.891L416.927 103.084L417.295 103.012L417.371 103.628L417.126 105.885L416.065 107.617L416.032 108.855L416.858 108.483L417.374 106.202L418.327 104.556L418.47 103.824L418.074 103.392L418.41 103.157L418.877 103.359L419.1 103.496L423.381 103.068L425.228 102.814L427.756 102.069L428.685 99.9003L429.387 99.3393L429.813 100.203L430.396 100.359L432.687 100.051L434.209 101.457L434.845 101.704L436.703 102.546L439.628 105.674L439.416 106.366L437.804 106.184L436.983 106.538L436.891 106.84L436.584 108.104L436.589 108.353L437.398 111.817L438.505 112.783L438.168 113.617L438.764 114.525L437.753 116.098L438.479 120.363L439.463 121.798L438.891 123.066L439.065 123.957L439.94 123.095L440.651 123.362L440.85 123.84L442.001 127.317L442.274 127.887L443.06 128.175L443.317 127.669L443.821 126.556L443.528 126.053L442.833 124.871L442.52 123.039L442.751 119.434L441.615 117.036L441.617 115.04L442.413 108.667L443.371 106.406L443.695 102.499L441.776 102.985L440.661 104.031L440.226 103.991L440.194 103.234L441.859 101.587L443.874 100.456L445.265 98.5056L445.457 98.2114L447.713 97.489L447.912 97.3714L450.206 95.6626L450.942 93.5942L451.23 92.9205L452.072 91.9L452.512 91.5952L453.665 90.7522L459.183 86.8907L459.442 85.714L460.775 84.554L464.202 78.8861L466.579 72.2648L466.841 71.4113L466.753 70.2377L465.424 69.1327L464.664 68.4278L465.494 68.3066L465.462 67.5491L463.919 66.214L464.122 65.0203L463.975 64.9041L462.776 64.2371L463.138 63.5854L465.422 63.3715L466.817 63.995L469.882 63.2224L470.642 64.1923L471.496 64.3269L472.128 66.2438L474.879 63.9086L477.254 62.7976L478.925 59.4051L478.381 58.2608L478.687 57.594L479.785 57.4656L479.909 57.3243L480.383 56.3778L480.139 53.3936L480.706 51.8752L479.358 50.1698L477.697 50.1471L476.915 50.1086L475.598 49.1624L474.66 48.5077L473.894 46.9585L472.563 47.8499L471.515 47.8186L469.168 47.113L468.652 46.4754L468.989 46.2375L470.881 44.9778L472.608 44.5208L473.167 44.4211L473.26 44.1194L473.593 43.6307L472.561 42.684L472.795 41.9211L474.893 41.7151L476.707 40.3752L477.029 38.4644L478.215 37.5168L478.981 36.1474L477.954 35.4499L478.858 33.6952L480.682 32.5902L481.872 32.7555L483.879 31.1232L484.83 31.2053L485.297 32.0026L486.132 32.399L488.74 32.253L490.887 30.1594L493.691 30.2385L496.648 29.2837L498.428 29.1845L502.545 26.7736L504.528 24.8855L507.607 21.2153L511.488 14.0005L512.533 11.1892L513.376 10.1668L513.876 8.80297L514.115 8.02226L514.09 6.11457L512.44 4.00175L514.461 3.44696L518.692 5.50421L523.549 3.46454L525.191 2.15712L526.192 2.67309L527.673 1.82379L529.499 4.55957L529.606 5.93258L531.968 8.31278L534.217 9.33776L534.939 10.4336L534.744 10.8021L537.166 9.20635L539.123 7.13842L540.917 9.11669L544.561 10.7653L546.574 15.1449L550.777 19.0152L550.888 20.0454L550.134 20.5154L549.618 19.8777L549.13 20.0736L547.106 25.2148L550.074 29.9274L549.786 30.2707L551.806 32.638L552.359 34.8793L553.971 37.3848L558.713 38.9032L558.942 40.808L555.659 44.0182L554.895 45.3132L553.688 46.0651L553.759 46.4298L554.737 46.6917L553.513 48.3607L553.802 48.6111L555.231 47.4003L555.628 45.5097L556.445 44.3057L559.037 42.7536L561.88 42.1731L563.449 43.0928L564.058 43.4288L565.674 43.862L567.083 43.9129L568.295 43.1433L569.419 43.1947L570.228 44.0066L572.651 42.1406L573.168 42.7765L574.548 42.3225L575.867 42.5991L577.015 43.2332L580.809 47.2452L580.691 47.9623L580.157 48.2419L580.934 50.6178L581.823 51.434L583.062 51.4378L584.333 52.2027L586.158 51.693L586.711 53.3389L587.587 53.9962L587.748 54.8649L586.464 58.1867L587.784 58.7918L587.506 60.5607L585.811 61.7752L585.604 63.0465L586.237 65.5588L584.113 64.9896L583.837 63.5695L582.93 63.0769L582.252 63.8956L583.233 64.4083L582.777 65.0331L582.631 65.2436L582.782 65.2838L583.928 65.5911L585.939 67.7236L587.15 66.629L590.104 67.3437L591.778 66.7938L592.436 66.9701L592.37 67.4498L591.469 68.132L591.654 69.2548L592.376 68.6246L594.922 69.2108L595.394 70.2571L594.318 72.6396L594.323 73.2172L594.114 76.7518L593.137 77.0853L593.152 78.1645L594.369 78.2411L595.743 79.531L595.66 80.3325L595.003 81.0801L594.453 81.6815L593.925 82.5386L591.429 86.6317L592.413 87.4695L594.506 87.6098L595.87 85.1526L595.105 84.1987L595.273 83.6487L595.387 82.6807L596.106 81.7979L596.416 81.3819L597.932 78.6947L596.283 76.9104L597.3 76.7778L595.805 75.2847L596.697 74.6963L596.056 73.6046L595.878 73.0577L596.018 72.2677L596.476 71.9698L596.578 71.9012L597.012 71.6143L598.551 72.1033L600.772 72.0245L601.406 72.5421L602.686 71.8863L603.933 71.7982L602.996 70.875L602.146 70.9929L601.751 70.29L602.186 69.7362L601.519 69.0583L601.34 68.1845L600.328 69.1616L599.306 69.3084L598.15 68.5013L597.799 67.6582L598.234 67.1009L599.596 66.3734L600.863 66.8856L601.595 66.7552L600.293 65.5615L598.615 65.8606L597.575 66.331L597.363 67.0212L596.195 67.3821L594.206 68.0954L593.61 67.1886L593.795 65.9882L593.198 65.0814L593.529 63.6723L593.578 63.5125L594.155 63.0911L597.979 62.6948L600.523 61.6274L601.002 60.6631L599.853 57.7801L600.037 56.5832L603.579 57.4363L606.932 56.5873L606.235 57.9945L606.415 58.8683L605.18 59.1135L604.893 60.3807L605.673 62.4138L610.879 69.6462L611.693 70.7072L616.331 74.0237L619.113 74.7692L620.845 75.7537L622.285 75.3714L624.8 76.3908L627.288 76.6351L630.715 78.7248L636.087 79.9145L639.38 80.1228L639.74 80.1425L641.613 79.4749L643.233 78.2385L643.276 77.5012L644.14 76.4079L647.716 75.6953L648 74.5041L648.799 74.2191L651.813 76.198L652.714 76.1129L653.605 74.9309L655.822 75.1984L660.157 74.5935L662.131 75.1223L667.354 78.7875L668.358 78.9608L669.909 78.5486L670.897 77.3175L671.636 78.0915L671.371 78.6907L672.059 79.2994L672.447 79.2286L675.021 78.5953L677.546 79.8479L680.251 80.2464L681.541 79.822L682.885 80.2801L684.425 78.1774L685.349 78.3482L686.289 80.1936L684.682 85.101L685.599 87.0174L685.294 88.0111L686.784 88.6598L688.745 86.8426L690.396 86.6322L693.489 86.9617L696.042 86.3977L697.535 86.7019L700.22 84.8481L700.553 84.0926L700.701 81.8856L700.739 80.3021L699.436 79.377L700.013 78.3601L700.078 76.9547L702.011 78.1466L706.099 75.4976L706.649 74.3009L706.074 72.726L707.166 72.0199L707.932 70.6488L707.558 69.8784L708.471 68.6254L706.306 66.2018L707.072 64.8325L709.989 63.9436L711.12 62.5762L710.111 61.5551L710.52 60.8215L712.616 60.884L713.463 60.1124L714.629 57.5061L715.432 57.1433L716.584 58.6253L716.657 60.6419L717.227 61.3706L718.804 61.4669L720.721 62.9788L720.877 63.5967L724.245 64.4223L726.891 63.2881L727.734 62.2658L729.475 61.8297L729.981 61.0418L731.127 60.7554L732.098 59.8425L733.044 59.9424L734.06 59.2179L733.98 58.3498L735.414 57.987L735.959 56.8063L737.219 56.1473L738.076 56.2042L737.946 57.4922L738.314 58.0153L739.228 59.6791L740.108 59.9918L742.444 59.8708L744.046 59.2247L745.884 57.8739L746.705 56.9226L747.009 55.6003L748.275 55.519L748.922 54.2697L748.455 53.4741L749.588 50.1103L752.566 48.1624L752.675 46.3482L755.496 46.1055L755.935 45.8008L757.967 44.3484L758.94 44.3595L759.582 45.4512L759.405 47.1532L757.221 48.2385L756.891 47.3244L754.775 49.5801L753.848 49.7521L754.049 50.5567L753.618 51.363L754.16 51.5851L754.743 51.7413L756.014 48.9904L758.52 49.5082L759.711 49.0764L760.057 49.6705L759.898 50.4536L759.78 51.1707L758.55 52.2621L756.712 56.5314L755.837 56.7964L755.196 58.6215L756.574 57.2436L757.517 56.8223L757.886 57.3454L757.132 62.0589L757.311 63.5281L756.975 63.7642L757.331 65.4535L757.665 64.6962L758.516 64.1773L759.125 64.5132L759.582 63.8867L760.434 63.6928L761.734 62.0439L762.61 62.1041L762.49 62.4962L763.332 61.4738L762.3 60.1986L762.6 58.3588L763.204 57.8486L764.278 58.0597L765.849 59.9016L766.387 59.8728L766.333 59.1845L765.03 57.6658L762.021 56.533L761.699 55.5253L762.319 54.3664L764.597 52.7092L766.134 52.8731L767.161 53.5707L767.735 55.1457L770.208 56.6339L770.864 56.4834L769.996 55.0027L769.876 54.7977L768.873 54.9513L768.018 54.223L766.961 50.7716L765.891 50.8112L765.12 51.6029L764.235 51.0394L763.892 50.698L763.99 50.3786L764.344 49.8206L763.432 48.1533L763.688 47.0526L764.665 47.3145L765.653 48.4048L767.306 48.5212L770.005 47.7467L770.479 46.2013L771.659 45.2714L774.066 44.3225L773.963 43.7957L774.894 41.6238L774.763 40.592L773.709 39.9831L775.786 38.1202L777.726 37.5648L779.768 39.2623L782.126 38.4749L782.573 37.3467L779.715 36.2543L777.403 34.0412L777.984 33.8706L778.945 34.4542L780.156 33.9532L778.516 33.2642L777.175 33.3271L776.094 31.9431L775.393 32.5041L774.877 32.4619L774.802 31.8445L775.861 30.3827L776.862 27.9819L776.608 27.4149L774.853 26.7716L774.967 25.8019L774.18 24.9207L775.187 23.6929L774.448 22.3235L776.383 21.5172L776.617 20.1589L777.536 19.4835L777.885 18.0794L778.857 17.7637L779.47 17.7551L781.08 18.0117L782.388 17.4616L783.302 16.5354L783.225 15.593L783.825 14.832L783.596 13.5226L784.422 13.4174L786.299 11.0767L788.222 10.8448L789.236 12.7104L791.094 13.285L791.796 12.7222L792.995 13.7177L794.24 13.7056L795.56 14.309L797.554 13.8447L799.076 12.3323L799.909 10.2129L803.582 7.12623L804.291 4.54934L804.688 3.25582L806.786 3.64514L807.464 2.82651L808.415 2.91036L810.299 3.66484L809.798 7.61869L810.526 7.56611L811.439 8.6363L813.932 9.72675L814.158 10.3808L813.445 11.843L813.789 12.7799L815.064 13.7937L813.684 14.2495L814.303 16.0092L815.072 16.6186L815.877 17.1797L815.573 18.767L813.163 21.1186L813.267 21.9722L812.638 22.3008L811.989 23.2233L812.52 24.9402L812.962 26.1512L812.091 26.6687L813.208 29.0611L814.557 30.1694L813.071 32.0947L813.781 35.551L817.136 42.7846L818.563 43.5702L819.551 45.8531L821.364 46.8382L823.705 46.9662L824.314 46.7051L825.049 47.2283L825.15 48.0254L826.23 48.8142L826.459 50.1236L827.447 51.214L828.577 52.4383L830.188 52.0253L831.852 53.5655L834.964 52.3065L835.985 52.4264L835.318 54.0718L836.413 56.5351L838.445 58.0013L839.181 60.4449L839.867 61.1261L841.695 61.4644L842.365 62.796L844.253 64.0698L849.621 64.7402L850.545 64.9109L851.947 63.7889L851.649 63.0369L852.029 62.0616L856.23 60.7697L856.317 59.6219L855.841 58.3229L854.864 55.7378L855.081 54.7012L856.213 53.3321L857.479 50.9275L860.035 48.3654L861.061 47.8739L861.888 48.6909L862.598 48.6315L863.29 47.5689L865.307 46.765L869.456 47.6274L871.45 47.1631L874.014 48.0211L877.064 46.1711L878.226 47.5558L879.104 47.5435L879.296 47.5161L880.191 46.5866L882.577 46.8994L884.692 46.3716L885.799 47.3384L885.417 47.9868Z" stroke="#022A3A" stroke-opacity="0.5" stroke-width="2"></path>
</svg>
