<svg width="1217" height="1019" viewBox="0 0 1217 1019" fill="none" xmlns="http://www.w3.org/2000/svg">
<path opacity="0.5" d="M113.087 921.643L97.8126 918.804L96.1282 918.957H96.0134V918.842L99.9946 909.291L76.8346 911.743L78.6721 902.035L75.1503 892.71L61.4839 901.536L60.8332 893.055L55.8184 884.882L58.0387 882.273L54.5168 875.174L57.6941 872.065L57.541 862.05L62.3644 858.251L58.0387 854.452L55.8566 841.29L47.8559 846.816L40.1997 844.936L39.013 840.254L42.5349 827.821L41.0036 826.095V825.903L43.3388 821.759L49.6934 822.641L52.6793 817.614L54.8613 803.42L43.3388 800.653L31.6631 809.479L14.3218 782.695L1.49765 772.488L1 765.581L3.67967 770.224L11.6804 760.903L26.8397 759.671L31.3568 755.527V768.842L39.013 756.759L45.5208 753.647L53.0239 767.998L58.5363 764.698L75.6862 772.833L88.3572 773.332L99.3821 786.651L104.206 789.602L109.718 792.365L119.709 783.884L123.882 786.651L125.222 784.08L131.079 772.142L125.069 769.383L121.547 759.671L130.045 757.791L126.906 755.028L129.05 753.109L133.222 754.145L130.39 748.62L132.38 744.821L120.207 739.295L119.403 734.076L121.738 711.977L118.369 703.301L122.389 688.106L108.723 682.238L111.9 664.928L110.866 662.856L105.201 651.268L106.541 643.823L97.2001 636.072L98.8845 629.476L119.403 627.592L128.705 606.145L139.73 604.606L151.406 610.976L154.89 608.75L157.072 601.46L153.243 601.306L152.401 589.031L159.751 585.381L160.747 579.856L155.387 567.772L157.569 554.261L168.403 559.787L172.728 548.739L167.407 543.363L169.245 535.42L162.584 534.038L147.08 519.879L148.229 511.053L144.745 512.089L141.568 507.949L143.75 503.804L157.569 502.419L158.565 488.375L145.74 475.596L136.744 459.326L136.208 441.521L129.548 445.665L113.202 413.355L110.369 410.596L102.559 414.741L97.2001 406.448L97.5446 405.911V393.133L106.043 386.533L103.708 382.734L108.378 375.136L96.3579 364.085L93.7165 352.841L98.8845 342.791L107.727 347.815L112.398 345.589L109.22 338.148L98.8845 329.86L95.0564 321.874L98.3868 311.859L93.2189 293.363L86.558 285.919L99.8798 273.141L101.717 265.159L98.3868 254.607L102.062 245.129L98.0423 236.111L105.201 228.858L108.225 216.924L117.566 215.39L113.048 201.537L123.729 192.024L117.566 181.318L121.623 177.285L124.724 180.393L132.227 171.146L129.05 167.308L136.208 169.726L147.08 164.661L144.401 158.214L150.066 155.263L155.081 158.022L156.727 154.875L165.723 117.001L164.23 109.135L172.728 90.9883L183.753 93.2485L181.265 84.0006L191.41 80.6622L205.765 95.1672L215.756 90.6008L210.933 80.8541L202.932 79.9715L212.426 69.4957L218.934 69.9945L223.68 55.8004L223.948 55.8733L223.642 56.871L251.74 99.8487L243.089 99.5033L225.748 106.295L226.743 110.482L234.246 111.552L228.58 128.13L241.405 150.501L245.386 173.179L247.721 179.626L262.421 175.098L278.767 180.512L286.078 177.362L282.748 162.704L293.428 160.248L300.089 148.39L292.433 145.09L297.448 131.084L318.77 119.922L331.633 118.882L325.967 112.934L352.649 114.699L358.315 107.869L362.449 111.361L366.469 131.084L374.469 144.016L380.977 138.068L384.461 139.833L387.638 132.853L394.299 126.019L390.471 119.922L398.816 118.003L401.802 112.934L395.83 101.23L387.638 96.1649L386.796 89.0275L381.13 87.6115L383.312 80.2785H383.657L402.338 76.0997L400.998 69.4573L407.314 69.9562L409.496 61.0536L415.162 64.3921L417.995 55.4934L424.502 51.9976L425.842 56.871L430.015 54.607L445.825 39.2194L459.185 36.9554L469.865 16.8864L470.937 1L477.024 24.561L466.382 44.63L475.378 48.3138L481.043 52.4965L480.201 68.7282L476.373 70.148L478.861 79.0505L488.7 81.5064L494.557 95.4741L489.695 106.986L480.699 113.97L467.683 133.694L476.067 140.716L477.101 149.081L473.426 152.228L476.067 156.948L469.597 163.74L473.847 180.512L471.167 182.431L468.181 190.831L464.506 190.486L465.348 197.968L460.831 199.196L452.256 219.304L455.931 224.868L462.898 223.835L470.593 232.734L482.077 233.275L486.25 239.219L495.437 242.174L511.477 265.739L509.333 269.956L505.964 268.728L504.663 265.927L495.82 281.122L477.292 273.26L471.971 277.439L464.812 276.057L454.438 260.861L457.271 255.95L453.941 250.543L446.437 251.076L436.293 260.67L444.294 275.178L449.615 273.448L458.458 285.842L456.812 290.562L463.281 305.029L483.379 317.462L492.719 314.664L498.079 324.445L501.409 321.798L504.739 325.136L506.079 331.932L501.907 338.912L508.721 347.853L508.223 357.987L516.224 356.755L516.071 358.674L521.085 357.987L523.229 362.166L520.09 366.886L517.564 365.466L517.066 371.222L512.089 369.841L514.08 376.824L511.247 383.808L517.908 403.728L523.306 406.525V406.87L527.325 420.19L532.034 432.197L525.603 444.284L527.21 457.369L530.541 463.47L528.129 471.145L523.535 479.549L521.583 486.648L539.499 494.169L540.532 505.22L543.977 504.031L546.389 509.518L553.624 508.559L563.041 513.739L565.109 515.888L563.96 522.143L574.755 520.569L586.125 532.695L589.57 531.237L593.475 540.37L585.78 559.173L586.125 571.763L588.307 572.258L594.623 566.847L600.365 550.078L609.668 539.257L615.18 538.912V546.701L623.219 552.688L625.516 561.091L621.152 565.312L624.482 569.495L632.406 560.746L635.737 562.17L647.106 573.793L647.681 586.264H654.112L658.82 594.668L670.305 585.305L674.439 574.176L683.856 572.258L684.201 566.118L688.565 562.17L693.847 562.549L696.718 567.231L697.982 564.929L702.69 567.576L707.743 590.101L713.715 580.278L717.161 589.142L732.549 588.681L731.746 574.752L743.345 566.118L743.115 557.024L749.661 556.909L754.714 541.176L752.532 527.515L757.7 527.17L752.762 517.193L754.829 503.762L757.815 505.22L760.456 495.976L771.022 488.912L775.616 472.718L773.319 467.576L798.316 484.691L804.173 479.319L813.629 477.784L818.261 487.454L824.998 488.413L825.381 488.49L831.085 489.602L834.875 490.447L839.2 490.101L840.54 490.293H844.368L856.35 487.803L859.183 485.27L862.169 484.959L864.313 483.271L864.657 481.621L863.662 480.781L863.317 478.129L864.81 476.441L866.15 469.956L867.796 468.267L867.988 466.617L872.122 463.931L889.08 464.967L894.402 463.931L895.588 463.624L897.081 463.931L899.072 466.464L901.215 465.466L903.397 465.619L905.886 466.118L908.03 467.615L909.561 467.116L909.867 465.773L912.202 466.118L917.676 467.96L920.203 470.608L923.495 468.962L929.314 468.766L937.468 470.953L939.152 472.952L940.989 471.26L942.789 470.953L949.947 473.294L953.278 475.788L956.608 480.781L957.106 481.467L957.603 483.965L957.45 487.108L957.259 488.797L957.106 489.449L955.919 492.634L955.613 493.286L955.421 493.44L953.775 495.282L949.603 496.782L941.64 496.283H940.989L940.645 495.934L940.3 495.282L939.956 494.629L940.989 493.286L938.31 491.444L938.654 488.455L936.319 489.449L935.668 489.794L932.836 488.95L931.649 489.948L934.826 494.13L931.84 495.282L929.161 492.634L924.682 491.598L923.686 493.939L920.854 495.282L918.863 500.274L918.021 502.457L919.016 502.611L920.356 499.771L921.696 499.618L922.691 500.961L922.5 503.11L916.183 506.947L912.049 507.949L908.565 507.446L902.058 509.441L894.248 509.134L894.095 510.631L893.904 510.938L896.086 511.786L898.727 517.615L906.383 521.452L906.728 521.606L913.389 523.601L914.882 523.298L915.035 525.596L916.03 527.135L919.208 529.434L921.504 526.632L921.007 524.104L926.175 524.944L922.194 529.28L922.844 531.625L924.031 531.471L924.835 528.44L927.668 525.788L928.51 520.454L929.658 519.111L931.343 518.958L933.142 520.113L933.64 520.8L935.132 522.949L935.668 526.134L937.965 527.438L937.314 529.779L940.147 531.122L942.636 529.28L943.631 523.601L945.966 521.797L948.799 520.608L950.1 521.951L946.961 526.441L946.808 528.129V528.282L947.803 528.935L952.933 526.441L955.268 523.797L952.435 521.606L951.287 517.768L949.105 516.617L948.454 514.276L948.607 504.457H952.435L954.273 504.299L959.441 502.266L960.589 507.292L959.096 508.294L958.752 507.292L956.455 507.101L955.919 509.288L957.948 514.775L958.752 517.269L959.747 518.267L960.589 519.307H961.776H963.078L964.762 520.454L964.915 520.608L967.097 523.601L967.901 524.944L969.892 525.942L971.385 526.786L970.236 535.113L971.576 536.609L971.729 539.952L974.562 539.104L986.352 540.945L987.348 541.137L990.678 543.632L996.995 544.437L1008.13 543.137L1012.15 544.936L1012.46 545.282L1014.95 548.467L1018.97 550.615L1018.78 551.959L1026.28 549.618H1027.27H1027.43L1035.08 548.774L1042.55 550.117L1047.22 549.272L1049.4 548.965L1053.04 548.467H1053.19H1053.38L1053.54 548.275L1056.87 547.281L1060.2 544.13L1064.83 538.106L1075.82 537.952L1076.66 537.3L1079.99 535.462L1084.47 536.302L1089.94 534.767L1090.29 533.616L1097.6 534.269L1109.08 532.619L1117.89 530.777L1128.37 528.44L1138.33 529.779L1144.84 530.972L1148.47 530.278L1149.31 529.28L1150.46 529.932L1150.81 530.124H1154.79H1155.13L1156.28 529.127L1158.12 527.285L1159.31 526.939L1160.11 526.632L1160.8 526.441L1167.92 527.975L1173.09 527.135L1175.58 525.289L1176.76 525.788L1183.38 524.79L1184.92 525.635L1186.41 525.136L1187.71 524.637L1189.05 523.95L1191.04 523.298L1191.23 523.144L1192.53 520.953L1204.52 521.606L1207 520.608L1207.85 520.8L1208.34 520.953L1209.49 521.299L1214.01 525.942L1214.66 528.129L1215.31 530.777H1215.5L1216 533.271V536.302L1214.16 536.955L1214.32 544.936L1210.83 550.769L1209.68 553.8L1209.99 554.606L1207.85 557.791L1206.66 558.639L1201.53 562.281L1201.19 562.434L1200.84 562.281L1200.19 561.782H1195.02L1194.22 561.437L1189.7 560.132L1185.07 564.775L1185.22 568.305L1183.38 570.957L1187.71 569.802L1189.05 571.452L1191.39 589.295L1193.87 594.288L1197.85 607.446L1198.7 610.289L1199.54 614.621V614.779L1200.04 617.311L1199.85 623.639L1199.69 631.122L1200.19 635.957L1200.34 638.451L1200.53 654.644L1199.54 658.443L1198.35 662.281L1198.2 662.779L1198.05 662.971L1196.51 664.971L1193.22 669.802L1191.73 672.799L1191.04 674.138L1185.07 679.28L1181.39 679.971L1174.43 684.311L1169.11 686.11L1168.91 687.108L1168.61 688.8L1169.11 689.295L1171.75 691.943L1170.75 692.637L1169.26 693.478L1166.62 690.792L1164.28 691.137L1162.79 691.789L1160.95 692.637L1150.16 697.469L1137.52 699.813L1130.02 702.956L1128.37 705.297L1127.19 709.134L1126.69 709.287L1124.55 710.439L1123.36 712.783L1118.23 714.276H1116.89L1106.9 714.967L1099.78 716.809L1090.29 718.804L1085.46 720.304L1082.97 721.106L1071.99 727.634L1067.51 731.471L1058.01 742.288L1055.03 745.473L1053.38 747.626L1052.88 748.278L1048.21 756.448L1045.73 762.626V762.975L1044.39 771.95L1044.23 772.641L1044.08 773.639L1043.24 779.97L1043.05 780.469L1042.55 783.961L1047.87 808.788L1047.37 811.628L1045.08 813.278H1044.08L1037.07 813.125L1032.44 812.28L1017.47 809.633L1007.64 806.643L1003.66 805.45L977.395 799.122L974.064 799.464L970.581 793.938L965.91 791.137L962.58 789.947L963.422 790.949L964.915 792.787L970.389 796.279L973.413 801.306L973.567 803.301L959.441 812.626L956.417 815.465L943.286 828.128L938.807 835.611L934.979 838.95L926.672 840.792L921.696 844.283L916.872 845.281L916.375 845.477L913.887 846.471L910.058 847.967L899.416 850.807L897.081 851.114L894.746 851.306L889.923 851.958L886.439 852.457L876.448 856.639L872.122 858.447L851.833 862.626L848.541 863.278L841.88 865.623L829.4 871.797L823.926 877.288L817.916 890.638L816.921 891.29L813.59 893.136L811.6 894.283L810.451 895.78L802.795 905.949L797.972 910.63H797.819L794.833 916.313L792.306 919.111L785.837 920.803L781.855 920.458L776.343 918.612L768.227 913.128L753.413 905.642L750.427 908.289L748.092 908.136L743.115 905.642L740.282 903.147L728.147 893.136L727.305 892.484L723.477 890.791L720.338 890.945L715.515 891.789L703.533 888.297L701.044 887.3L698.058 886.11L693.733 884.46L674.937 877.288L663.644 871.797H662.955L658.82 871.643H656.983L653.155 870.3L642.168 866.617L622.721 863.969L612.232 862.626L607.6 860.285L604.921 859.786H598.451H597.8L597.954 859.94V860.131L598.949 861.973L604.921 860.784L605.61 861.129L610.586 863.278L610.089 864.621L606.107 863.777L598.949 864.122L591.14 866.275L590.451 866.463L582.335 868.612L579.004 870.3L575.483 872.104L565.376 874.943L564.19 875.289L556.878 876.133L541.757 877.787L534.445 878.627L532.952 878.781L522.31 877.94L505.352 879.28L503.514 879.625L497.696 880.277L486.862 884.46L483.57 885.615L478.402 886.609L466.42 888.8L455.28 892.94L446.82 893.942L437.824 897.933L437.327 898.466L434.494 900.615L433.499 901.271L429.517 905.795L429.02 904.606L430.857 902.956L427.871 899.963L428.369 896.931L425.038 896.778L425.345 899.464L420.024 899.617L419.22 900.27L419.373 901.958L418.033 904.606L420.866 903.263L422.359 903.8L426.531 908.639L428.675 906.448L425.345 915.964L421.21 922.948L417.727 927.131L415.889 927.438L412.406 925.289L404.558 915.772L404.06 915.273L396.251 907.944H396.098L392.27 905.795L373.818 896.279L370.986 892.096L372.134 887.606L373.321 887.261L373.818 888.451L372.479 890.945L373.665 891.943L375.465 890.446L375.809 886.954L377.302 886.267L378.144 886.609L379.293 885.266L380.632 879.126L383.963 876.286L384.614 875.596H386.604L392.27 878.781L396.94 879.932L400.921 877.438L402.567 877.94L403.754 877.288L403.563 875.596L407.238 871.298V867.96L409.075 863.432L409.228 861.283L407.735 860.937L406.089 863.777L405.056 870.112L398.242 876.095L395.256 877.092L392.27 875.442L392.423 873.796L388.442 872.603L387.293 870.454L387.446 868.612L393.916 862.933L390.624 862.284L390.777 861.283L391.275 856.947V856.601H391.121L390.279 856.793H389.935H389.782H389.284L388.939 856.601L387.6 855.949L387.446 858.942L386.107 860.285L388.939 863.278L385.954 868.113L385.111 872.104L383.618 872.257L379.79 870.112L378.144 862.127L379.14 859.095L378.489 857.1L372.632 856.256L372.134 856.102L371.828 856.256L370.833 856.793L370.986 859.94L372.325 862.779L373.972 868.113L373.129 877.288L371.828 878.627L366.009 872.296L361.683 870.953L360.994 869.959L362.832 869.46L361.99 865.273L362.679 861.939L363.827 859.441L364.822 857.292L365.014 856.601L365.665 853.608L364.516 853.109L361.186 854.452L359.846 854.264L359.195 854.111L358.008 854.798L356.018 855.795L350.697 854.61L349.357 854.951L347.864 856.947L347.366 857.1H347.213L345.529 857.445L342.543 855.949L341.05 852.265H339.404L332.896 856.601L332.59 864.276H330.752L328.417 862.591L327.575 859.94L325.584 860.937L325.431 869.763L326.771 874.103L326.082 877.787L326.771 883.616L324.781 885.768L326.082 886.609L328.417 885.461L329.068 884.422V884.268L330.102 882.771L330.408 885.036L330.599 886.455L329.91 888.259L312.454 893.942L307.631 892.94L305.142 889.452L303.305 888.259L303.994 885.956V885.615L305.985 878.934L307.478 876.095L308.97 873.297V873.102L307.975 871.451H304.798L305.985 868.113L307.286 868.765L307.478 866.77L306.291 865.926L305.64 864.122L306.98 863.623L309.621 864.276L310.808 864.429L310.961 863.432L310.617 863.125L310.119 862.933L304.989 859.287L303.305 856.294L304.147 852.764L299.668 852.61L299.324 853.762L300.817 857.948L300.166 858.6L297.333 858.942L291.667 856.947L291.323 856.793L286.844 855.105V854.951L285.198 853.109L283.36 853.608L281.523 855.603L281.37 855.795L278.537 852.764L278.384 856.947L281.37 857.445L286.193 858.29L287.189 859.633V863.278L285.198 864.966L285.351 866.121L286.844 865.273L289.332 864.122L290.175 868.765L290.328 869.306L294.156 873.796L296.338 876.286L295.84 877.288L294.156 877.787L292.165 878.282L293.352 879.28L296.644 878.282L296.835 879.97L299.171 882.771L298.979 883.27L298.673 885.112L295.342 885.461V886.609L291.17 889.794L292.663 890.293L296.338 890.139L297.142 890.945L294.845 893.785L294.653 893.942L293.16 894.936L291.323 896.279L289.83 895.972L285.504 890.945L285.351 890.791L283.858 890.446L274.211 887.3L272.068 885.112L271.57 883.117L265.062 874.138L259.243 870.454L257.1 869.959L255.262 869.613L249.099 864.621L235.624 858.29L231.796 853.957L230.15 850.96L228.504 849.468L223.183 844.283L221.498 842.633L218.513 839.448L209.516 828.973L208.713 827.783L207.717 827.476L206.224 826.977L205.038 825.289L206.224 820.953L205.727 817.461L207.22 815.964L209.363 813.973L209.21 811.475L206.224 810.634L205.038 810.285L204.387 810.135L204.54 810.634V811.283L205.727 811.782L206.377 811.973L207.373 812.472L206.722 813.47L203.889 816.617L204.042 820.799L200.712 830.128L197.879 824.138L195.582 823.485L195.085 821.452L183.945 814.967L181.916 817.461L181.265 817.307H180.27L175.791 813.316L174.796 810.285L174.298 809.786L173.111 808.788L172.116 809.479H171.963L171.771 812.779L172.461 813.316L173.111 813.819L176.289 815.964L182.26 818.65L186.739 819.648L189.764 821.647L196.233 830.469L202.052 838.643L202.396 838.95L203.889 840.485L205.038 841.486L205.88 844.782L213.536 852.15L214.838 854.452L216.024 854.951L217.173 851.651L218.513 851.459L220.005 852.649L221.498 858.788V859.134V862.626L226.322 866.962L226.475 868.305L226.169 868.804L225.173 869.959L228.159 869.153L230.648 870.646L231.987 870.454L231.796 868.305L232.83 867.96L232.983 869.46V871.49L230.494 873.984L228.312 876.329L225.173 879.471L220.005 888.8L215.833 889.986H215.527L209.363 888.988L200.903 889.64L197.075 888.988L197.573 884.46L195.582 877.975L193.056 879.817L193.553 876.329L186.931 873.144L186.089 871.145L182.911 868.305L182.26 869.801L186.242 874.483L191.754 877.135L191.41 880.316L192.749 881.471L194.587 881.313L194.893 881.966L195.391 882.81L194.893 888.988L196.08 890.791L200.061 893.478L202.702 893.823L200.903 896.82L198.07 898.313L195.582 899.464L190.261 900.158L179.428 903.646L177.935 903.953L166.45 907.637L161.129 908.639L156.497 907.637L152.822 903.953L152.669 904.801L152.516 905.488L152.669 905.987L153.665 908.639L154.813 911.321V912.629V913.47L154.009 914.468L151.176 914.813L150.832 916.313H153.167L152.516 919.456L149.186 923.792L147.693 924.141L146.353 923.447L144.669 926.977L143.367 927.979L141.529 926.977L138.199 931.62L139.692 933.808L142.678 935.458L146.008 935.304L146.697 936.152L146.353 937.146L142.027 936.801L135.558 931.313L133.031 929.126L131.883 928.132L129.892 927.476L128.705 926.977L113.087 921.643ZM150.564 961.359L148.611 962.165L145.779 963.32L137.395 964.774L134.065 963.815L133.835 963.124L139.386 961.743L140.304 955.91L144.592 954.913L147.195 952.418L148.458 948.504L151.75 944.897L153.014 940.177L156.306 937.184L161.321 937.111L162.125 938.224L162.584 938.911L163.043 940.868L161.78 944.629L162.316 948.658L161.244 950.423L161.512 950.542L162.163 950.849L163.579 949.349V945.204L165.034 943.021L165.34 940.408L163.847 938.378L163.388 937.683L165.187 936.766L169.589 936.613L175.025 934.575L191.103 924.521L194.778 925.979L194.893 928.243L193.706 930.814L190.835 933.155L190.07 937.418L193.63 931.582L194.74 932.656L194.817 933.692L195.161 936.992L196.501 934.805L196.003 933.274L198.453 933.692L196.31 930.891L196.118 928.938L197.42 927.745L198.07 928.282L197.649 930.124L199.41 931.01L200.865 928.938L201.21 931.16L206.186 932.196L207.373 933.692L208.215 933.462L208.024 930.703L209.21 929.625L208.483 928.938L205.076 930.738L202.549 929.663L204.655 927.284L201.86 925.101L196.271 925.634L208.981 919.191L216.905 916.501L218.359 914.621L219.125 910.208L220.848 908.021L222.953 906.793L225.556 905.258L225.862 904.836L228.657 901.075L230.877 899.851L231.451 899.963L235.356 900.461L236.811 903.723L236.964 904.989V905.028L237.959 913.316L238.419 914.621L239.261 917.154L240.945 922.142L240.562 926.866L239.835 929.395L238.342 934.694L237.844 936.57L238.457 937.53L239.644 933.999L240.983 930.2L243.357 923.335L239.95 913.892L238.572 909.978L239.452 904.874L239.644 903.8L239.95 902.111L240.562 901.689L240.869 901.459L242.285 900.5L247.262 902.649L254.879 911.244L256.411 915.427L258.516 914.813L264.488 917.077L266.593 919.379L267.857 919.533L274.939 920.607L279.571 920.684H284.7L289.179 922.376L290.442 923.485L291.553 924.521L293.543 925.101L298.405 926.44L301.123 927.246L306.176 938.796L305.755 943.328L303.458 943.401L302.769 944.36L305.563 946.547L305.985 946.279L309.468 944.015L313.411 946.01L315.785 948.543L315.976 950.807L313.143 953.186L308.549 957.1L306.98 958.37L306.253 961.858L297.601 962.549L291.744 965.197L290.251 966.271L286.921 968.573L283.207 972.564L281.14 976.939L279.341 986.762L279.456 990.254L279.571 992.173L278.461 993.938L278.307 999.928L276.814 1001.85L276.432 1002.3L271.072 1005.64L265.177 1006.87L254.076 1012.74L243.127 1014.74L236.658 1017L234.131 1016.65L231.834 1015.2L229.652 1010.09L222.838 1002.26L217.402 997.929L212.885 995.55L208.866 990.638L205.918 987.031L198.109 981.774L181.992 974.214L179.466 971.221L176.212 969.187L172.001 962.817L168.326 960.63L160.517 959.019L159.368 959.978L150.564 961.359Z" stroke="white" stroke-width="2"></path>
</svg>
