<svg width="991" height="821" viewBox="0 0 991 821" fill="none" xmlns="http://www.w3.org/2000/svg">
<path opacity="0.2" d="M10.0385 789.334L8.84023 788.397L8.291 785.9L7.09271 785.158L7.64194 783.907L7.3174 783.403L4.82097 783.283L2.44936 780.57L2 778.289L3.94722 776.921L3.74748 775.144L7.64194 773.391V772.239L8.61555 770.678L8.51569 769.309L6.76819 766.596L6.44365 762.757L6.24393 762.419L5.91939 761.698V759.513L3.52281 755.864L5.37019 754.808L4.94579 752.745L7.21754 752.214L7.96648 747.725L11.9857 743.045L12.0856 740.954L15.5556 741.89L17.8274 740.33L19.7996 740.954L22.7204 740.114L22.9451 740.017L23.045 739.897L24.1184 738.651L24.8923 736.872L27.4886 735.312L27.3887 733.967L29.2361 731.974L30.734 732.598L32.6812 730.414L34.3288 729.885L35.0778 728.013L36.3759 728.757L39.7461 726.238L40.1705 724.891L42.8916 723.429L43.6405 722.274L45.9123 723.115L47.6598 722.082L49.7069 722.178L50.5806 721.458L53.3017 720.714L56.1227 722.394L58.1698 720.81L58.3945 721.962L57.5207 723.211L57.9701 724.771L59.9173 726.046L60.0171 726.452L60.2418 727.484L60.3417 728.013L61.3153 729.069H62.4137H63.0628H63.1627L63.5871 729.789L63.8117 730.101L64.6855 730.317L66.7326 730.632L67.6063 732.19L67.831 734.471L67.2818 735.746L66.9572 736.56L67.5064 736.992L68.8046 734.159L69.0293 733.849V731.782L68.2554 730.822L68.8046 729.693L72.9237 725.924L75.4202 722.586L77.9166 717.472L77.7918 716.848V716.752L77.6919 716.13L77.2675 714.879L76.943 713.319L77.0428 712.886L77.1427 712.694L78.2411 712.574L79.9637 712.478L81.0621 711.446L81.9109 713.847L83.234 714.351L86.704 712.886L88.5264 713.537L91.9965 712.382L95.9159 708.735L98.612 704.555H100.36L102.856 703.21L102.307 702.058L104.479 700.065L106.201 699.345L107.3 699.537L108.822 697.568L111.519 696.73L112.617 694.855L114.115 690.485L114.989 689.741L114.664 682.97L116.611 682.442L117.71 681.506L120.081 682.228L121.729 681.602L122.578 682.228L123.676 680.353L125.399 679.201L125.623 677.64L127.146 677.136V674.735L129.743 673.895L131.265 672.334L131.914 672.12L133.312 671.494L134.086 667.94L135.16 662.226L134.935 660.641L133.113 659.393L134.186 658.768L132.663 656.175L135.584 655.239L136.133 653.462L134.611 651.589L135.16 649.815L135.484 649.503L137.332 651.157V648.972L137.981 648.444L139.054 649.693L140.477 650.125L142.974 648.876L147.517 649.815L148.815 650.845L150.663 649.599L141.351 647.51L142.749 646.571L144.172 646.787L146.119 646.043L146.544 642.3L147.417 643.546L149.04 643.954L149.14 645.227L150.788 645.539H151.212L154.457 642.612L154.907 642.204L156.205 640.929L159.126 636.343L159.999 633.438L159.45 629.669L160.199 628.948L159.675 628.54V627.702V627.268L160.424 626.643L161.522 626.763L161.722 625.707L160.324 624.05L161.397 619.872L161.298 617.255L160.324 615.503L158.701 614.35L159.875 612.477L161.198 611.733L161.522 610.583L162.271 610.076L163.669 610.269V609.86L162.496 608.612L162.271 603.906L162.596 603.498L163.345 603.906L163.794 603.498L163.994 600.691L163.02 597.855L160.224 596.607L160.099 596.103L161.298 594.518L163.245 594.014L163.994 594.422L164.118 594.518L164.543 596.103L165.317 596.415L168.113 596.199L168.337 597.663L169.76 598.504L171.158 597.231L173.33 597.351L176.151 591.517L177.549 591.301L179.846 589.428L179.521 588.492L179.946 587.651L181.019 587.435L182.118 587.747L182.018 588.06L180.82 592.549L183.516 593.294L184.614 596.007L184.065 597.135L184.489 600.595L185.363 602.249L184.39 603.188L184.814 603.618L185.039 603.93L186.012 603.714L186.986 601.529L189.158 601.433L189.607 600.691L190.131 599.848L189.158 598.816L189.058 597.567L186.237 595.481L186.337 595.262L186.661 590.583L185.488 589.212L186.886 586.307L187.76 585.373L189.058 584.938L188.509 582.972L184.814 580.979L184.714 579.944L187.76 578.696L187.635 577.447L188.309 577.639L188.609 579.32L190.131 580.136L190.456 580.883L193.601 580.787L195.549 581.913L196.747 581.721L198.694 579.728L199.793 577.447L202.164 577.639L204.336 576.177L204.885 576.607L206.084 577.759L207.157 577.231L208.031 578.074L208.905 577.111L210.627 577.543L216.044 576.081L218.341 574.518L222.56 566.069L222.236 565.034L223.534 559.08L224.732 558.239L225.156 556.991L225.381 555.526L223.758 554.182V552.933L224.957 550.532L224.183 549.07L224.507 548.443L225.056 548.852L225.805 548.131L226.454 548.347L227.328 548.539L228.626 547.915L228.102 546.573L229.6 546.357L230.798 547.915L232.421 545.826L232.546 544.074L233.844 543.233L234.818 543.641L237.838 542.489L237.639 541.363L238.712 540.736L238.612 539.896L242.956 538.743L242.282 537.807L242.631 536.126L243.38 535.094L245.652 534.568L249.122 530.724L250.221 526.018L249.347 522.585L251.069 522.489L252.492 522.273L253.466 520.904L252.692 519.872L253.79 518.503L256.611 517.567L259.632 513.101L263.976 511.732L265.074 510.172L267.571 509.235L267.995 507.891L269.518 506.93L271.041 504.025L271.365 501.504L270.816 499.223L271.565 494.736L271.465 487.026L272.114 487.749L272.763 487.963L273.412 488.059L273.962 487.749L272.663 486.81L272.439 486.714L272.014 485.562L271.465 482.635L271.365 470.438L270.591 469.811L270.492 468.347L269.193 466.786L270.591 464.913L270.367 462.608L269.069 460.015L269.843 458.551L270.367 455.213L272.663 452.092L272.439 451.348L274.286 450.099L274.511 448.325L273.637 446.978L273.737 445.924L274.835 444.265L275.16 443.833L274.835 440.93L276.982 436.75L276.783 430.918L277.956 428.73L276.783 426.02L277.756 424.553L276.882 422.56L277.532 421.744L276.783 419.751L278.305 418.598L278.505 415.165L279.279 414.757H279.604L283.398 415.261L291.961 414.853L293.684 415.789L297.478 417.662L301.497 417.974L304.318 419.343L307.564 422.056L308.537 424.025L310.385 425.489L314.404 427.146L321.019 427.362L328.059 425.489L329.682 424.025L331.529 421.122L333.377 419.223L336.198 416.416L339.019 410.987L342.039 408.274L344.985 407.77L345.085 407.65L346.383 406.308L346.608 404.841L347.032 402.536L349.004 398.697L350.178 398.382L351.8 398.886L352.799 400.039L351.476 400.567V401.506L352.35 403.064L353.448 402.848L355.271 401.191L356.469 402.44L356.793 404.625L355.171 408.178V410.483L358.416 406.308L359.29 399.535L358.965 398.166L361.886 395.453L364.607 395.237L365.156 393.268L365.806 392.86L369.151 393.58L371.772 393.268L373.594 391.902L373.819 389.619L383.355 393.676L384.554 393.484L376.74 388.25L375.242 387.746L371.223 388.37L370.898 390.027L367.853 391.179L362.011 391.083L362.111 392.02L361.462 392.74L358.092 394.207L356.369 395.981L356.269 397.23L356.918 397.95L356.269 398.478L350.727 394.207L349.529 390.867L349.329 388.154V379.705H349.204L348.555 378.67L346.708 378.358L345.085 376.992L344.86 375.741L345.634 373.964L345.41 373.556L344.985 372.404L340.542 368.562L341.84 367.626L348.68 367.938L349.654 367.313L350.952 364.6L351.925 360.207L351.151 354.279L349.978 353.124L347.681 352.382L348.231 351.131H350.402L352.35 350.411L353.648 347.292L357.442 347.601L359.29 347.793L361.562 346.017L366.779 344.579L367.428 344.768L368.951 343.616L370.898 343.52L373.495 342.274L375.666 343.208L381.533 340.807L383.156 341.119L385.103 340.615L386.726 342.274L390.745 344.456L392.143 344.144L392.592 343.112L393.89 342.799L394.09 341.335L398.659 340.927L407.546 339.873L410.467 340.281L413.612 338.718L416.009 336.533L419.579 335.5L424.147 336.437L425.545 337.784L426.619 337.901L429.664 336.749L430.962 337.253L431.836 335.383L433.359 335.813L435.082 334.348L437.903 333.724L441.048 334.879L446.266 335.071L447.763 333.82L450.16 330.269L451.558 330.077L454.704 332.787L460.345 333.82H464.04L476.298 337.157L476.522 337.253L487.357 338.622L489.853 340.903L496.893 338.718L499.939 335.383L503.509 335.5L505.231 334.756L509.376 335.287L517.614 338.526L519.236 338.31L519.336 338.526L523.905 340.807L524.878 341.743L524.978 342.274L525.203 344.048L529.097 344.36L531.269 344.456L533.341 346.233L533.99 348.202L539.832 353.748L542.753 354.372L546.872 353.628L549.044 353.316L553.612 354.252L558.605 353.748L562.4 355.405L566.069 354.156L571.811 354.564L575.406 352.163L576.38 352.499L584.393 349.477L588.313 346.857L588.512 346.761L591.009 346.857L593.181 347.697L596.226 346.641L598.823 344.675L604.465 343.52L605.214 343.424L608.135 344.675H612.054L617.371 347.169L623.987 344.456L627.657 340.591L629.629 339.873L630.602 340.281V340.185L632.225 340.591H632.425L633.848 339.558L634.172 337.784L634.597 335.287L635.046 333.412L634.597 330.485L632.874 327.772L631.901 324.336L629.828 321.215L632.65 305.344L632.425 302.223L631.776 300.878L628.106 300.038L626.683 298.789L627.981 298.477L629.729 298.885L630.927 299.198H633.623L636.444 301.503L637.967 298.672L638.067 297.855L638.391 294.516L638.291 290.338L636.02 288.345L636.344 287.529L637.642 286.592L638.391 286.067L642.086 285.008L643.06 283.666L643.284 277.613L642.411 275.74L640.364 275.932L639.914 275.308L649.026 271.778L649.575 273.654L654.568 272.403L657.813 269.377L659.536 266.664L660.834 265.728L661.483 261.334L662.906 260.518L663.231 260.302L663.131 258.621L666.376 255.716L666.926 253.219L668.548 251.541L668.748 250.194L674.29 246.234L680.681 238.717L685.674 237.564L686.872 235.38L689.568 234.851L690.567 235.164L690.891 236.1L691.865 235.692L693.587 236.412L695.759 236.004L696.733 234.323L699.878 232.667L700.852 234.23L703.249 235.572L704.971 236.631L704.871 235.38L703.249 234.323L701.401 232.258L701.826 231.829L700.528 231.106L703.573 227.243L703.898 225.992L711.062 213.483L711.587 208.056L711.712 207.744L711.911 205.13L716.904 200.637L718.976 196.58L719.825 194.803L720.474 193.555L721.248 192.621L721.672 192.09L723.195 191.25L723.52 191.058L728.188 187.096L730.46 184.167L734.479 172.594L737.3 169.041L740.121 167.384L742.917 164.263L743.791 163.83L747.061 162.582L751.505 158.215L752.678 156.219L754.201 152.258L754.525 150.073L754.65 146.952L757.471 145.487L757.796 145.271L759.094 144.022L760.592 142.558L762.015 141.525L766.134 141.933L767.532 140.781L768.63 140.469L770.802 138.284L774.272 136.723L777.742 133.797L777.418 131.825L776.968 128.368L775.146 126.402L771.127 124.097L768.63 123.784L765.26 123.374L762.988 122.029L763.088 118.572L766.134 113.58L767.532 112.954L768.63 113.362L770.253 116.293L772.525 117.732L776.095 119.004L776.769 119.199L779.69 121.383L781.637 121.6L785.98 119.508L786.405 118.044L785.98 116.171L783.584 114.202L783.384 113.988L783.259 112.209L782.61 111.057L782.186 110.337V111.057L781.961 113.674L782.286 115.018L782.51 116.075L783.809 117.323L784.358 117.011L785.531 117.419L785.207 118.356L783.384 119.82L781.412 120.253L779.914 119.941L777.842 117.852L772.1 114.826L770.478 111.996L770.153 111.369L768.306 110.865L766.683 111.684L765.26 112.425L763.538 114.202L761.241 118.572L761.565 123.158L762.239 124.214L764.936 125.463L768.081 125.343L769.279 125.247L771.776 126.615L772.65 127.119L771.776 129.64L765.16 133.292L761.041 137.66L756.373 140.157L755.724 142.774L751.28 146.111L749.757 150.913L748.684 152.354L745.413 153.722L743.916 155.379L743.042 155.691L740.221 156.651L739.572 157.588L738.274 159.149L737.724 159.341L729.162 163.617L727.739 164.359L723.944 167.914L722.746 169.257L721.248 171.129L721.348 174.155L718.527 178.644L717.978 180.733L715.381 183.542L715.157 185.103L716.255 189.281L716.155 189.497L716.03 189.689L715.157 191.466L713.983 190.316L713.534 188.344L713.409 187.648L713.434 187.6L713.983 185.943L713.584 185.514L713.135 185.009L711.786 183.521L711.761 183.494L711.337 182.15L711.262 181.886L711.587 178.789V178.74L711.637 178.236L711.587 178.215L710.364 177.276L709.34 177.54L709.315 177.518L709.29 177.468L708.716 176.988L708.566 176.844L708.616 176.7L708.941 175.283L709.665 174.323L710.289 173.53L711.487 171.97L711.537 171.204L711.637 170.337L711.587 170.289L710.863 169.593L710.838 169.569L710.264 170.315L709.64 171.108L709.714 170.337L708.941 169.569L707.518 171.345L707.268 171.153V171.129L707.368 168.728L708.716 168.464L710.963 168.032L712.785 167.696L713.659 166.76L713.484 166.255L713.234 165.439L713.209 165.391L712.76 165.151L711.662 164.505L710.339 163.734L710.938 161.357L711.237 160.229L711.262 160.181L711.162 159.821L711.137 159.725L710.988 158.956L710.938 158.932L709.939 158.044L707.917 156.243L707.942 155.619L711.162 155.597H711.187L710.788 153.578L710.713 153.218V153.196L708.566 150.265L708.391 148.68L708.291 147.048L707.717 146.231L707.418 145.775L706.719 144.647L709.09 143.4L710.663 141.408L711.212 139.607L712.261 136.198L712.211 135.955L712.136 135.523L712.036 134.827H712.011L710.039 133.77L708.117 131.417V131.396L708.042 130.795L707.942 129.499L708.841 126.279L708.99 125.751L709.54 123.758L709.215 122.558L709.165 122.221L708.891 120.757L708.816 120.373L708.566 119.1L707.992 118.212L707.692 117.732L708.142 116.507L712.036 114.346L712.136 114.298L712.161 114.274H712.186L712.436 113.962L713.109 113.242L713.085 113.196L712.361 110.987V110.961L712.835 109.76L713.609 110.048L716.879 103.592L719.475 105.343L725.242 98.6918L729.586 101.309L730.135 96.603L741.544 97.0352L747.111 87.8634L752.004 89.6161L757.097 85.0303L763.313 83.4936L761.441 75.0902L757.222 71.5848L757.421 62.5091L749.058 59.0036L751.13 57.5871L750.581 51.1548L756.223 46.0143L751.455 39.8918L754.5 35.402L757.546 34.9698L758.07 38.4753L764.711 39.0035L764.162 45.126L769.729 46.3265L773.099 45.4645L774.272 39.5581L784.408 36.0743L784.083 39.0035L790.274 41.9591L790.15 53.3373L793.42 53.2173L796.241 56.8188L803.206 56.1729L807.675 57.0613L814.964 46.0143L823.327 47.9831L824.401 44.4777L828.22 45.6782L822.678 36.9386L825.274 35.7382L824.401 28.1991L826.697 26.1102L828.869 25.0298L835.385 26.6625L839.529 29.7357L833.987 33.7693L831.366 41.8631L833.438 44.4777L840.603 38.4753L846.819 40.228L852.585 38.6914L855.182 42.8451L857.803 42.5089L870.51 30.6001L878.124 29.9542L882.817 32.905L887.036 27.3347L899.219 39.5581L904.561 41.6446L907.931 32.3552L905.635 27.5532L898.894 23.8293V20.0117L896.298 17.4907L901.066 16.6023L902.714 13.8892L906.184 16.5063L909.13 11.5843L910.652 14.2014L916.07 3.70909L921.088 1.30811L925.331 7.86278L928.028 9.30337L930.324 6.01403L929.775 16.1702L934.019 18.7872L936.64 16.2902L935.866 21.4283L939.786 24.3815L938.488 29.0634L945.652 32.2327L954.889 29.2795L956.312 32.905L944.229 46.7827L945.103 48.8475L955.813 59.1477L953.167 61.6711L957.186 68.3699L950.221 74.3219L953.167 82.9894L947.075 83.9498L945.103 91.4169L940.435 95.9547L943.056 101.597L940.66 107.527L942.832 114.13L941.633 119.124L932.946 127.119L937.289 131.777L940.66 143.35L938.488 149.617L940.984 154.613L947.725 159.799L949.797 164.455L946.751 165.847L940.984 162.704L937.614 168.993L939.336 176.027L947.175 182.942L944.13 187.696L945.652 190.073L940.11 194.203V202.198L939.886 202.534L943.381 207.723L948.474 205.13L950.321 206.856L960.981 227.072L965.324 224.479L965.674 235.62L971.541 245.8L979.904 253.795L979.255 262.583L970.242 263.449L968.819 266.043L970.891 268.633L973.163 267.985L972.414 273.507L982.525 282.367L986.869 283.231L985.67 288.201L989.14 291.565L986.319 298.477L979.255 295.02L977.832 303.474L981.327 311.034L980.677 314.492L975.884 316.775L976.433 324.456L978.93 324.552L977.507 329.114L975.235 330.506L967.621 326.521L960.431 327.484L954.365 340.903L940.984 342.082L939.886 346.209L945.977 351.059L945.103 355.717L948.798 362.968L949.472 364.264L947.4 375.095L956.312 378.766L953.691 388.274L955.888 393.703L954.365 407.53L954.889 410.795L962.828 414.253L961.53 416.63L963.377 420.087L960.656 419.439L959.258 420.639L961.305 422.368L955.763 423.544L958.06 429.621L961.979 431.348L958.16 438.817L957.286 440.426L954.565 438.695L948.049 444.001L944.454 442.272L941.309 440.426L934.119 432.092L925.856 431.78L914.672 426.69L911.077 428.755L906.184 419.775L901.94 421.722L896.947 429.283V420.951L894.001 423.544L884.115 424.315L878.898 430.147L877.15 427.242L877.475 431.564L885.838 437.95L897.147 454.709L904.761 449.187L912.275 450.918L910.852 459.799L908.905 462.944L904.761 462.392L903.238 464.985V465.105L904.237 466.186L901.94 473.965L902.714 476.894L907.707 478.071L912.924 474.613L914.347 482.849L917.168 485.226L914.023 487.602L914.122 493.869L912.05 495.814L914.347 500.256L912.899 501.888L916.17 507.002L916.594 512.309L925.506 506.786L927.803 512.621L926.605 518.695L941.708 517.161L939.112 523.137V523.209L933.22 523.521L932.471 523.833L931.273 524.148L930.399 524.482L927.578 527.603L926.829 527.483L926.729 526.549L925.207 527.387L923.909 526.861L923.359 527.483L922.935 528.227L921.637 527.603L921.512 526.357L920.438 525.826L920.863 528.227L922.486 529.788L924.108 529.884L925.207 530.94L925.856 530.724L926.729 528.95L927.478 528.854L926.729 531.159L925.756 532.189L924.657 532.405L922.161 531.036L918.267 530.508L916.319 530.196L909.055 529.166L902.439 529.572L893.552 531.663L889.083 533.968L884.44 537.399L880.845 541.793L879.122 542.609L878.149 542.297L877.924 540.955L880.845 539.392L882.143 538.023L882.043 537.183L879.023 534.686L878.024 532.597L876.526 532.405L876.401 531.036L875.428 530.628L874.354 531.036L873.58 532.189L868.937 531.351L868.812 531.255L868.712 530.316L870.01 529.067L868.937 527.603L868.812 527.387L869.037 526.138L868.163 524.89L866.216 523.233L864.269 524.169L864.818 526.357L865.018 527.195V527.291L866.216 529.476L867.739 530.196L868.613 531.567V531.781L870.01 531.877L869.786 533.029L867.09 532.909H865.242H864.269L862.197 531.877L860.574 531.036L858.202 529.788L858.302 529.262L858.527 528.443L859.276 525.61L857.753 524.364L856.904 524.578L855.481 525.826L855.257 526.979L855.906 527.603L857.104 526.666L856.68 528.758L856.555 529.38V529.476L857.104 530.94L856.904 531.567L854.283 530.1L852.885 530.316L850.488 532.501L850.613 533.533L852.76 534.16L851.911 534.998L849.964 535.622V537.495L848.217 538.647L847.992 539.8L848.441 541.577L851.786 541.363L854.732 536.871L857.428 534.374L858.202 534.181L859.5 533.845L861.548 534.374L862.197 535.214L861.872 536.246L860.674 535.43L859.925 536.057L861.023 538.239V538.647L861.123 541.048L857.004 544.074L854.932 544.29L854.508 545.106L855.706 545.634L858.078 545.106L860.674 542.609L860.374 545.418L857.428 547.723L857.753 548.131L861.023 546.787L861.772 543.764L862.846 543.356L864.818 544.482L865.142 545.322L865.342 546.165L867.09 545.634L867.514 546.261L867.414 547.195H866.54L866.316 548.251L868.063 548.566L869.361 546.691L871.433 545.418L870.435 548.876L871.309 549.908L873.58 550.748L874.03 550.652L873.905 548.131L875.553 546.787L876.851 546.475L878.573 544.386L879.023 546.069L880.196 546.787L880.321 548.035L878.249 552.213L877.924 555.238L878.698 557.111L881.07 559.104L881.844 558.984L884.115 558.578L884.44 559.296L883.017 562.009L878.473 564.722L877.05 567.531L876.851 569.74L877.5 570.775L879.547 571.397L879.672 572.021L878.249 573.584L878.049 575.79L877.924 576.727L874.779 578.074L867.09 577.663L863.07 578.074L860.15 579.224L858.951 580.787L858.727 580.883L854.183 583.594L852.76 582.78L851.911 580.475L851.687 577.351L842.026 575.577L836.608 572.861L835.085 570.148L832.614 571.301L830.442 569.212L825.349 569.404L823.177 568.782L823.502 567.843L822.528 567.339L820.556 566.187L816.437 566.381L814.065 568.47H810.595L809.073 567.531L807.675 568.278L805.603 567.315L794.543 564.938L790.1 564.722L787.279 562.537L782.835 562.633L779.265 561.697L776.444 560.979L773.498 560.763L770.902 561.601L768.63 560.448L766.034 561.913L762.764 565.973L762.015 567.027L761.366 569.116L761.59 570.46L763.413 571.085L761.915 572.645L761.69 573.894L758.769 576.607L757.446 579.416L757.346 581.505L757.246 582.249L760.167 586.091L762.015 586.619L762.764 586.427L763.862 586.307L765.485 587.243L766.783 587.051L768.73 592.045L769.055 594.542L767.332 598.194L764.511 601.529L762.764 604.989L759.743 607.699L758.869 606.451L759.843 602.898L760.392 597.567L759.943 596.007L761.366 593.606L761.141 592.261V591.949L761.565 591.325L761.241 589.86L751.28 578.287L744.665 572.021L727.739 557.519L721.897 552.525L713.659 547.723L709.415 544.506L703.573 542.105L695.435 536.775L688.27 533.437L682.204 530.412L678.184 530.004L677.111 530.316L674.714 528.758L670.595 528.635L656.291 524.265L651.722 525.514L651.298 526.042L647.403 530.004L647.279 530.1L646.105 530.724L643.809 532.189L641.861 532.501L638.716 534.902L634.821 535.526L631.251 537.087L627.781 537.399L620.517 535.622L615.524 536.153L612.703 539.704L612.054 542.297L610.856 542.609L606.736 541.793L600.021 542.729L592.107 542.921L581.797 544.818L580.923 545.01L578.427 545.85L574.957 546.883L574.308 547.411L572.685 548.876L572.361 550.124L569.215 552.933L568.341 555.142L568.666 557.111L564.222 563.476L563.798 563.69L563.473 562.945L562.924 560.04L563.573 557.519L563.149 555.961L562.275 556.703L562.5 559.728L561.95 562.105L562.05 563.068L562.699 563.476L562.375 563.882L561.726 563.786L561.401 563.69L556.308 565.658L554.137 566.595L551.316 568.374L550.991 571.397L550.342 572.333L549.493 571.397H548.719L546.023 572.549L543.627 571.301L542.753 571.205L540.156 570.775L535.388 567.843V566.907L537.435 566.595L538.309 565.877V565.469L538.209 563.786L538.109 563.476L535.813 559.416L534.09 558.578L534.19 557.423L533.117 556.487L533.766 554.182L531.269 549.092L529.522 547.627L529.746 545.85L529.197 544.794L528.448 546.165L527.475 546.069L527.05 545.538L524.329 541.577L523.78 540.955L522.706 540.859L522.582 541.577L522.382 543.137L522.931 543.668L524.229 544.914L525.303 547.099L526.376 551.685L528.673 554.302L529.422 556.799L530.845 565.034L530.52 568.182L531.594 573.176L533.766 571.925L534.739 570.244L535.288 570.148L535.613 571.085L534.19 573.702L532.143 575.79L531.169 578.696L531.045 579.128L528.548 580.787L528.348 581.001L526.177 583.906L526.052 586.739L525.952 587.678L525.303 589.236L524.878 589.764L523.78 591.205L518.463 597.882L518.587 599.44L517.389 601.337L515.317 609.572L514.893 618.648V619.803L515.442 621.241L517.489 622.177L518.687 622.804L517.714 623.234L518.038 624.17L520.435 625.323L520.634 626.883L520.859 626.979L522.582 627.412L522.382 628.348L519.661 629.38L517.714 629.068L514.244 631.061L512.945 630.103L511.847 630.221L510.349 628.036L507.853 631.877L505.356 634.062L504.582 638.864L505.681 640.113L505.556 641.049L504.258 641.577L504.158 641.796L503.933 643.138L505.356 646.787L505.231 648.876L507.528 650.557L509.575 650.029L510.549 649.815L512.521 650.557L513.919 651.061L515.442 652.742L516.74 651.181L518.038 650.869L521.184 650.965L522.057 651.589L521.733 652L519.885 654.209L517.938 655.359L517.289 655.671V656.079L517.065 656.802L518.687 657.64V658.672L516.191 659.633L514.468 661.916L514.793 664.413L513.694 665.995L513.27 667.964L514.793 668.492L514.343 670.989L512.521 672.982L510.998 673.174L509.151 675.887L507.952 676.103L507.079 675.263L505.905 675.047L502.76 676.103L500.913 679.441L497.443 680.281L494.172 682.466L492.025 683.186L487.881 687.58L486.159 690.605L483.762 696.226L481.715 706.548L481.49 710.413L480.841 711.974L480.741 713.847V714.903L481.49 717.28L484.311 719.369L482.04 720.74L476.073 719.585L470.88 723.763L469.358 725.948L467.935 725.638L466.437 727.196L463.166 724.387L462.517 722.706L458.723 720.522L455.577 719.993L454.279 718.865L454.379 718.339L452.007 721.146L450.385 724.387L447.439 722.514L442.346 721.674L438.227 716.872L431.612 713.441L431.087 712.19L431.836 711.35L432.71 711.974L433.234 711.566L433.783 704.459L428.366 699.561L428.591 699.035L425.221 696.752L423.698 694.135L420.777 691.542L414.386 691.232L413.388 688.927L416.209 683.813L416.658 681.938L417.856 680.593L417.632 680.161H416.333L417.207 677.664L416.758 677.448L415.46 679.441L415.684 681.938L415.135 683.717L412.539 686.526L409.268 688.204L406.997 687.58L406.123 687.364H403.976L402.228 687.772L401.03 689.141L399.632 689.453L398.334 688.709L396.062 691.854L395.189 691.232L393.666 692.262L391.943 692.358L390.296 691.95L384.129 688.204L384.004 687.268L384.554 686.74L382.706 684.029L381.308 683.306L379.786 683.717L377.938 683.186L375.891 684.435L374.593 682.562L373.27 682.034L372.746 681.001L373.07 676.418L371.223 676.103L370.898 673.798L372.521 671.712L372.296 670.053L370.574 667.124H373.395L374.268 668.807L375.567 669.119L376.091 667.868L374.693 667.556L375.017 666.622L375.117 666.31H374.918H373.395L370.124 664.317L369.051 666.091L365.156 666.187L363.309 667.436H362.435L362.335 666.814L363.184 665.659L362.535 664.317L361.886 665.347L358.541 665.467L357.567 664.317L357.992 660.977L357.767 660.257L356.694 655.767L357.767 655.023L357.343 653.678L355.82 653.99L353.648 652.838L353.448 651.808L353.972 650.653L354.422 649.717L354.746 648.468L356.269 642.514L354.746 641.796L352.125 642.322L351.376 645.851L352.674 646.787V647.532L352.899 648.78L352.35 650.125L352.125 650.749L351.276 654.617L353.972 656.295L352.774 656.802L355.171 658.168L354.297 659.203L355.495 660.353L355.92 660.977L356.044 662.012L355.595 662.538L355.495 662.658L355.071 663.162L352.999 663.066L350.303 663.909L349.329 663.474L348.006 664.723L346.508 665.251L348.006 666.091L349.004 665.659L349.753 666.406L349.429 667.244L350.502 667.868L351.052 668.9L351.925 667.34L353.124 666.814L354.846 667.436L355.595 668.372L355.271 669.215L353.873 670.581L352.125 670.365L351.276 670.773L353.323 671.83L355.271 670.893L356.369 669.957V669.023L357.667 668.18L359.839 666.622L360.912 667.556L361.137 669.119L362.211 670.053L362.335 671.926V672.142L361.786 672.862L357.243 674.639L354.522 676.826L354.297 678.192L356.793 681.412L357.018 682.97L352.35 683.09L348.555 685.275L348.88 683.282L348.33 682.25L349.753 681.53L349.629 679.849L347.906 677.568L338.794 670.269L337.396 669.215L330.456 666.622H326.761L324.265 665.971L322.642 666.932L319.172 666.5L316.027 667.028L311.034 665.563L303.994 665.875L299.875 666.718L299.425 666.814L297.378 668.276L295.855 670.365L296.08 671.301L295.431 672.958L291.312 675.047L291.412 676.632L290.538 677.256L286.094 675.791L285.021 676.199L284.372 677.976L281.551 678.384L276.458 680.593H273.837L266.048 677.76L264.75 677.88L263.002 678.915L262.253 680.785L261.055 680.065L261.155 679.227L260.081 678.696L259.632 678.915L256.711 680.569L253.141 679.849L249.671 680.257L248.248 681.22L246.426 681.097L245.328 684.243L244.129 684.339L242.282 682.346L242.407 675.671L240.559 673.582V672.238L238.487 671.926L236.765 674.855L234.818 675.671L230.898 676.295L227.977 677.856L226.03 677.976L223.434 681.193L223.309 682.25L223.958 685.059L224.507 687.052L226.454 687.772L226.13 689.237L226.579 691.016L223.758 690.173L219.739 694.855L219.514 696.536L220.813 698.312L219.739 699.561L219.315 701.532L220.064 702.37L219.415 704.243L222.984 706.548L222.56 708.517L219.315 710.606L218.441 712.694L220.064 713.633L219.839 714.687L217.243 715.311L216.494 716.56L216.044 720.209L215.196 720.932L213.223 719.465L212.375 716.968L211.401 716.248L209.429 716.656L206.508 715.407L206.084 714.687L201.64 714.783L198.819 717.088L198.17 718.649L196.198 719.777L195.873 720.932L194.575 721.674L193.726 723.141L192.528 723.333L191.554 724.579L191.979 725.638L190.356 726.572L190.131 728.231L188.833 729.477L187.76 729.693L187.435 728.039L186.786 727.508L185.039 725.734L183.84 725.638L181.019 726.572L179.297 727.917L177.549 730.222L176.9 731.686L177.025 733.441L175.502 733.967L175.178 735.746L176.051 736.584L175.927 741.17L173.006 744.603L173.555 746.908L170.185 748.157L169.76 748.685L167.813 751.182L166.615 751.494L165.417 750.344L164.992 748.157L167.264 746.068L168.013 747.1L169.76 743.571L170.834 743.045L170.285 742.106L170.509 740.954L169.76 740.858H168.987L168.462 744.723L165.192 744.915L163.894 745.854L163.245 745.228L163.145 744.195L163.02 743.259L164.118 741.482L164.768 735.528L165.741 734.903L165.841 732.406L164.668 734.591L163.669 735.434L163.02 734.903L162.171 728.757L161.397 726.98L161.722 726.572L160.648 724.579L160.524 725.638L159.675 726.572L158.801 726.356L158.477 727.292L157.503 727.821L156.529 730.317L155.431 730.536V730.005L154.782 731.566L156.529 732.815L156.854 735.216L156.305 736.056L154.907 736.152L152.285 734.375L151.636 734.591L151.961 735.434L154.133 736.896L158.252 737.304L159.026 738.457L158.701 740.114L156.529 742.949L154.582 743.259L153.059 742.731L151.761 740.954L148.166 739.921L147.417 740.33L149.04 741.89L149.265 742.106L150.438 741.578L151.761 742.202L154.357 746.164L155.656 745.756L156.305 744.507L157.603 744.915L158.152 745.228V745.66L157.927 746.476L159.675 748.255L159.775 749.717H158.477L156.854 748.685L154.782 749.093L151.761 750.966V753.057L150.663 754.615L148.066 756.608L148.391 757.233L148.066 760.26L148.616 761.506L150.138 761.914L148.291 764.94L146.119 766.284L142.974 764.846L140.377 766.62L140.253 768.181L144.172 768.589L147.842 770.582L147.193 770.99L145.795 770.582L144.497 771.614L146.768 771.927L148.391 771.398L150.238 772.767L150.887 771.83L151.536 771.71L151.861 772.457L151.112 774.64L150.788 777.977L151.312 778.601L153.708 778.817L153.933 780.068L155.231 780.906L154.457 782.779L155.88 784.244L153.808 785.9L154.033 787.677L153.159 788.829L153.259 790.702L152.186 791.422L151.437 791.639L149.365 791.857L147.967 792.983L147.193 794.448L147.642 795.6L147.193 796.753L147.967 798.313L146.993 798.721L145.57 802.277L143.298 803.211L141.351 801.218L138.855 801.122L138.206 802.061L136.358 801.218L134.835 801.651L132.988 801.339L130.716 802.587L129.418 804.988L129.193 807.917L125.848 813.007L125.948 816.467V818.217L123.227 818.433L122.703 819.684L121.504 819.898L118.908 819.586L118.034 814.474L117.161 814.784L115.638 813.752L112.168 813.223L111.643 812.481L111.968 810.414L111.194 809.358L109.247 808.517L110.77 807.485L109.347 805.492L108.173 804.988L106.975 804.556L106.75 802.469L108.822 798.721L108.373 797.689L109.022 797.067L109.472 795.696L108.173 793.727L107.175 792.361L108.049 791.422L105.777 788.805L103.705 787.871L104.803 784.966L102.631 780.882L95.7911 772.961L93.744 772.457L91.672 769.934L89.0757 769.309L86.1548 769.934L85.5058 770.464L84.4073 770.056L83.9829 769.093L82.3602 768.469L81.5863 766.908L79.9637 765.876L78.1163 764.724L76.2939 765.78L73.6726 764.411L70.3274 767.029L69.0293 767.221L69.229 764.94L66.9572 762.227L63.9116 761.074L62.0892 758.265L60.9908 757.643L58.6191 757.833L57.296 756.392L54.5 755.432L47.6598 756.392L46.4615 756.488L45.1633 758.361L45.8124 759.201L45.7126 760.548L41.0442 763.571L41.3688 765.036L42.4422 766.5L44.6142 769.405L44.739 770.774L43.8652 772.865L43.2161 776.296L41.0442 780.356L39.9708 781.314L38.6477 780.57L37.7989 780.882L37.3495 782.443L35.1776 784.124L29.7603 784.436L27.4886 785.684L24.0185 785.47L20.9729 788.805L19.0257 787.463L17.9522 787.773L17.7275 787.871L16.9786 789.334L13.933 789.742L11.5364 791.11L9.81384 790.272L10.0385 789.334Z" stroke="white" stroke-width="2"></path>
</svg>
