<svg width="795" height="639" viewBox="0 0 795 639" fill="none" xmlns="http://www.w3.org/2000/svg">
<path opacity="0.5" d="M74.1562 577.895L64.1872 576.115L63.0878 576.211H63.0129V576.139L65.6113 570.153L50.4954 571.69L51.6946 565.605L49.396 559.76L40.4764 565.292L40.0516 559.977L36.7786 554.854L38.2277 553.219L35.9291 548.769L38.0028 546.821L37.9029 540.544L41.051 538.163L38.2277 535.782L36.8036 527.532L31.5817 530.996L26.5847 529.817L25.8101 526.883L28.1088 519.09L27.1094 518.008V517.888L28.6334 515.29L32.781 515.844L34.7298 512.693L36.1539 503.797L28.6334 502.062L21.013 507.594L9.69479 490.807L1.32481 484.409L1 480.08L2.74895 482.99L7.97082 477.148L17.8649 476.376L20.8131 473.779V482.124L25.8101 474.551L30.0576 472.6L34.9547 481.595L38.5525 479.527L49.7458 484.626L58.0158 484.938L65.2115 493.286L68.3597 495.136L71.9575 496.867L78.4786 491.552L81.202 493.286L82.0764 491.675L85.8991 484.193L81.9765 482.463L79.6779 476.376L85.2245 475.198L83.1758 473.466L84.5749 472.263L87.2983 472.913L85.4494 469.45L86.7486 467.069L78.8034 463.605L78.2787 460.334L79.8028 446.483L77.6041 441.046L80.2275 431.521L71.3079 427.844L73.3816 416.995L72.707 415.696L69.0093 408.433L69.8837 403.767L63.7874 398.908L64.8867 394.774L78.2787 393.593L84.3501 380.151L91.5458 379.187L99.1662 383.179L101.44 381.784L102.864 377.215L100.365 377.118L99.8158 369.425L104.613 367.137L105.263 363.674L101.765 356.1L103.189 347.632L110.26 351.095L113.083 344.171L109.61 340.802L110.809 335.823L106.462 334.957L96.3429 326.083L97.0924 320.551L94.8188 321.2L92.745 318.605L94.1692 316.008L103.189 315.139L103.838 306.337L95.4684 298.328L89.5969 288.13L89.2471 276.971L84.8997 279.568L74.2311 259.317L72.3822 257.588L67.2853 260.186L63.7874 254.988L64.0123 254.652V246.643L69.5589 242.506L68.0348 240.125L71.083 235.363L63.2377 228.436L61.5138 221.389L64.8867 215.09L70.6583 218.239L73.7065 216.844L71.6327 212.18L64.8867 206.985L62.3882 201.98L64.5619 195.703L61.1889 184.11L56.8416 179.445L65.5363 171.436L66.7356 166.433L64.5619 159.819L66.9605 153.879L64.3371 148.227L69.0093 143.681L70.9831 136.201L77.0794 135.239L74.1312 126.557L81.102 120.595L77.0794 113.884L79.7278 111.357L81.7516 113.305L86.6487 107.509L84.5749 105.103L89.2471 106.619L96.3429 103.444L94.5939 99.4034L98.2917 97.5539L101.565 99.2832L102.639 97.311L108.511 73.5729L107.536 68.6424L113.083 57.2688L120.279 58.6854L118.655 52.8891L125.276 50.7967L134.645 59.8879L141.166 57.0259L138.018 50.917L132.796 50.3638L138.992 43.7979L143.24 44.1106L146.338 35.2142L146.513 35.2599L146.313 35.8852L164.652 62.8221L159.005 62.6057L147.687 66.8627L148.337 69.4866L153.234 70.1576L149.536 80.5476L157.906 94.5692L160.504 108.783L162.029 112.824L171.623 109.986L182.291 113.379L187.064 111.405L184.89 102.217L191.861 100.678L196.208 93.2464L191.211 91.1781L194.484 82.3995L208.401 75.4031L216.796 74.7513L213.098 71.0235L230.513 72.1298L234.21 67.8488L236.909 70.0374L239.532 82.3995L244.754 90.5046L249.001 86.7768L251.275 87.8831L253.349 83.5082L257.696 79.2248L255.198 75.4031L260.644 74.2006L262.593 71.0235L258.696 63.688L253.349 60.5132L252.799 56.0398L249.101 55.1523L250.526 50.5562H250.75L262.943 47.9371L262.069 43.7739L266.191 44.0865L267.615 38.5067L271.313 40.5992L273.162 35.0218L277.409 32.8307L278.284 35.8852L281.007 34.4662L291.326 24.8218L300.046 23.4028L307.017 10.8242L307.716 0.867188L311.689 15.6344L304.743 28.213L310.615 30.5219L314.312 33.1434L313.763 43.3169L311.264 44.2068L312.888 49.7866L319.309 51.3258L323.132 60.0803L319.959 67.2956L314.087 71.6728L305.593 84.035L311.064 88.4363L311.739 93.6793L309.34 95.6515L311.064 98.6098L306.842 102.867L309.615 113.379L307.866 114.582L305.917 119.847L303.519 119.63L304.068 124.32L301.12 125.09L295.524 137.692L297.922 141.18L302.469 140.533L307.491 146.11L314.987 146.449L317.71 150.175L323.707 152.027L334.175 166.796L332.776 169.439L330.578 168.67L329.728 166.914L323.957 176.438L311.864 171.51L308.391 174.129L303.719 173.264L296.948 163.739L298.797 160.661L296.623 157.272L291.726 157.606L285.105 163.619L290.327 172.713L293.8 171.628L299.571 179.397L298.497 182.355L302.719 191.422L315.836 199.214L321.933 197.461L325.431 203.592L327.604 201.932L329.778 204.025L330.653 208.284L327.929 212.659L332.376 218.263L332.052 224.614L337.274 223.842L337.174 225.045L340.447 224.614L341.846 227.234L339.797 230.192L338.148 229.302L337.823 232.91L334.575 232.044L335.874 236.421L334.026 240.798L338.373 253.283L341.896 255.036V255.253L344.519 263.601L347.592 271.126L343.395 278.702L344.444 286.904L346.618 290.728L345.044 295.538L342.046 300.805L340.771 305.255L352.464 309.968L353.139 316.895L355.388 316.15L356.962 319.589L361.684 318.988L367.83 322.234L369.179 323.581L368.43 327.502L375.476 326.515L382.896 334.116L385.145 333.202L387.693 338.926L382.671 350.711L382.896 358.602L384.32 358.912L388.443 355.521L392.191 345.011L398.262 338.228L401.86 338.012V342.894L407.107 346.646L408.606 351.913L405.758 354.559L407.931 357.18L413.103 351.697L415.277 352.589L422.697 359.874L423.072 367.69H427.27L430.343 372.958L437.838 367.089L440.537 360.114L446.683 358.912L446.908 355.064L449.756 352.589L453.204 352.827L455.078 355.761L455.903 354.318L458.976 355.978L462.274 370.096L466.171 363.939L468.42 369.494L478.464 369.206L477.939 360.475L485.51 355.064L485.36 349.364L489.632 349.292L492.93 339.431L491.506 330.869L494.879 330.652L491.656 324.399L493.005 315.981L494.954 316.895L496.678 311.101L503.574 306.674L506.572 296.524L505.073 293.301L521.388 304.028L525.211 300.661L531.382 299.699L534.405 305.76L538.803 306.361L539.053 306.409L542.775 307.106L545.249 307.636L548.072 307.419L548.947 307.539H551.445L559.266 305.978L561.114 304.391L563.063 304.196L564.462 303.138L564.687 302.104L564.038 301.577L563.813 299.915L564.787 298.857L565.662 294.792L566.736 293.734L566.861 292.7L569.559 291.016L580.628 291.666L584.101 291.016L584.875 290.824L585.85 291.016L587.149 292.604L588.548 291.978L589.972 292.075L591.596 292.387L592.995 293.325L593.995 293.013L594.195 292.171L595.719 292.387L599.292 293.542L600.941 295.201L603.089 294.169L606.887 294.047L612.209 295.418L613.308 296.671L614.508 295.61L615.682 295.418L620.354 296.885L622.528 298.448L624.701 301.577L625.026 302.008L625.351 303.573L625.251 305.543L625.126 306.601L625.026 307.01L624.252 309.006L624.052 309.415L623.927 309.511L622.853 310.666L620.129 311.606L614.932 311.294H614.508L614.283 311.075L614.058 310.666L613.833 310.257L614.508 309.415L612.759 308.261L612.983 306.387L611.459 307.01L611.035 307.227L609.186 306.698L608.411 307.323L610.485 309.944L608.536 310.666L606.787 309.006L603.864 308.357L603.214 309.824L601.365 310.666L600.066 313.795L599.516 315.163L600.166 315.26L601.041 313.48L601.915 313.384L602.565 314.225L602.44 315.572L598.317 317.977L595.619 318.605L593.345 318.29L589.098 319.541L584.001 319.348L583.901 320.286L583.776 320.479L585.2 321.01L586.924 324.664L591.921 327.069L592.146 327.165L596.493 328.415L597.468 328.225L597.568 329.666L598.217 330.631L600.291 332.071L601.79 330.315L601.465 328.731L604.838 329.257L602.24 331.975L602.665 333.444L603.439 333.348L603.964 331.448L605.813 329.786L606.362 326.443L607.112 325.602L608.211 325.505L609.386 326.229L609.71 326.66L610.685 328.007L611.035 330.003L612.534 330.821L612.109 332.288L613.958 333.129L615.582 331.975L616.231 328.415L617.756 327.285L619.604 326.539L620.454 327.381L618.405 330.195L618.305 331.253V331.35L618.955 331.759L622.303 330.195L623.827 328.538L621.978 327.165L621.228 324.76L619.804 324.038L619.38 322.571L619.48 316.416H621.978L623.177 316.318L626.55 315.043L627.3 318.194L626.325 318.822L626.101 318.194L624.601 318.074L624.252 319.444L625.576 322.884L626.101 324.447L626.75 325.072L627.3 325.724H628.074H628.924L630.023 326.443L630.123 326.539L631.547 328.415L632.072 329.257L633.371 329.883L634.346 330.412L633.596 335.631L634.471 336.569L634.57 338.664L636.419 338.132L644.115 339.286L644.764 339.407L646.938 340.97L651.061 341.475L658.331 340.66L660.955 341.788L661.155 342.004L662.779 344L665.402 345.347L665.277 346.189L670.174 344.722H670.824H670.924L675.921 344.193L680.793 345.035L683.841 344.505L685.265 344.313L687.639 344H687.739H687.864L687.964 343.88L690.137 343.257L692.311 341.283L695.334 337.507L702.505 337.41L703.054 337.002L705.228 335.85L708.151 336.376L711.724 335.414L711.949 334.693L716.721 335.102L724.217 334.067L729.963 332.913L736.809 331.448L743.305 332.288L747.553 333.036L749.926 332.6L750.476 331.975L751.226 332.384L751.45 332.504H754.049H754.274L755.023 331.879L756.223 330.724L756.997 330.508L757.522 330.315L757.972 330.195L762.619 331.157L765.992 330.631L767.616 329.474L768.39 329.786L772.713 329.161L773.712 329.69L774.687 329.378L775.536 329.065L776.411 328.634L777.71 328.225L777.835 328.129L778.684 326.756L786.504 327.165L788.129 326.539L788.678 326.66L789.003 326.756L789.753 326.972L792.701 329.883L793.126 331.253L793.55 332.913H793.675L794 334.476V336.376L792.801 336.785L792.901 341.788L790.627 345.443L789.877 347.343L790.077 347.849L788.678 349.845L787.904 350.376L784.556 352.659L784.331 352.755L784.106 352.659L783.681 352.346H780.308L779.784 352.13L776.835 351.312L773.812 354.222L773.912 356.435L772.713 358.097L775.536 357.373L776.411 358.407L777.935 369.59L779.559 372.719L782.157 380.967L782.707 382.749L783.256 385.464V385.563L783.581 387.15L783.456 391.116L783.356 395.806L783.681 398.836L783.781 400.4L783.906 410.549L783.256 412.93L782.482 415.335L782.382 415.648L782.282 415.768L781.283 417.021L779.134 420.049L778.159 421.927L777.71 422.767L773.812 425.99L771.414 426.423L766.866 429.143L763.393 430.271L763.268 430.896L763.069 431.957L763.393 432.267L765.117 433.926L764.468 434.362L763.493 434.888L761.769 433.205L760.245 433.421L759.271 433.83L758.072 434.362L751.026 437.39L742.781 438.859L737.884 440.829L736.809 442.296L736.035 444.701L735.71 444.797L734.311 445.519L733.536 446.988L730.188 447.924H729.314L722.793 448.357L718.145 449.511L711.949 450.762L708.801 451.702L707.177 452.205L700.006 456.296L697.083 458.701L690.887 465.481L688.938 467.477L687.864 468.827L687.539 469.235L684.491 474.356L682.867 478.228V478.447L681.992 484.072L681.892 484.505L681.792 485.131L681.243 489.099L681.118 489.412L680.793 491.6L684.266 507.161L683.941 508.941L682.442 509.975H681.792L677.22 509.879L674.197 509.35L664.428 507.69L658.006 505.817L655.408 505.069L638.268 501.103L636.095 501.317L633.821 497.854L630.773 496.098L628.599 495.352L629.149 495.98L630.123 497.132L633.696 499.321L635.67 502.471L635.77 503.722L626.55 509.566L624.577 511.346L616.007 519.283L613.083 523.973L610.585 526.065L605.163 527.22L601.915 529.408L598.767 530.034L598.442 530.156L596.818 530.779L594.32 531.717L587.374 533.497L585.85 533.689L584.326 533.81L581.177 534.218L578.904 534.531L572.383 537.153L569.559 538.285L556.317 540.905L554.169 541.313L549.821 542.783L541.676 546.653L538.103 550.094L534.181 558.462L533.531 558.871L531.357 560.027L530.058 560.746L529.309 561.684L524.312 568.058L521.163 570.992H521.063L519.115 574.554L517.466 576.307L513.243 577.368L510.645 577.152L507.047 575.995L501.75 572.558L492.081 567.866L490.132 569.525L488.608 569.429L485.36 567.866L483.511 566.302L475.591 560.027L475.041 559.618L472.543 558.558L470.494 558.654L467.346 559.183L459.525 556.995L457.901 556.369L455.952 555.624L453.129 554.589L440.862 550.094L433.491 546.653H433.041L430.343 546.557H429.144L426.645 545.715L419.474 543.406L406.782 541.746L399.936 540.905L396.913 539.437L395.164 539.125H390.941H390.517L390.617 539.221V539.341L391.266 540.496L395.164 539.75L395.614 539.967L398.862 541.313L398.537 542.155L395.938 541.626L391.266 541.843L386.169 543.192L385.72 543.31L380.423 544.656L378.249 545.715L375.95 546.845L369.354 548.625L368.58 548.841L363.808 549.37L353.939 550.407L349.166 550.934L348.192 551.03L341.246 550.503L330.178 551.343L328.979 551.559L325.181 551.968L318.11 554.589L315.961 555.313L312.588 555.936L304.768 557.31L297.497 559.905L291.976 560.532L286.104 563.034L285.779 563.368L283.931 564.715L283.281 565.126L280.682 567.962L280.358 567.216L281.557 566.182L279.608 564.306L279.933 562.406L277.759 562.31L277.959 563.993L274.486 564.09L273.962 564.498L274.061 565.557L273.187 567.216L275.036 566.374L276.01 566.711L278.734 569.744L280.133 568.371L277.959 574.335L275.261 578.712L272.987 581.334L271.788 581.526L269.514 580.18L264.392 574.215L264.067 573.902L258.97 569.309H258.871L256.372 567.962L244.329 561.997L242.48 559.376L243.23 556.562L244.004 556.345L244.329 557.091L243.455 558.654L244.229 559.279L245.404 558.341L245.628 556.153L246.603 555.722L247.153 555.936L247.902 555.095L248.777 551.246L250.95 549.467L251.375 549.034H252.674L256.372 551.03L259.42 551.751L262.019 550.188L263.093 550.503L263.868 550.094L263.743 549.034L266.141 546.34V544.248L267.34 541.41L267.44 540.063L266.466 539.846L265.392 541.626L264.717 545.597L260.27 549.346L258.321 549.972L256.372 548.938L256.472 547.906L253.874 547.158L253.124 545.811L253.224 544.656L257.446 541.097L255.298 540.69L255.398 540.063L255.722 537.345V537.129H255.622L255.073 537.249H254.848H254.748H254.423L254.198 537.129L253.324 536.72L253.224 538.596L252.349 539.437L254.198 541.313L252.25 544.344L251.7 546.845L250.725 546.941L248.227 545.597L247.153 540.592L247.802 538.692L247.377 537.441L243.555 536.912L243.23 536.816L243.03 536.912L242.38 537.249L242.48 539.221L243.355 541.001L244.429 544.344L243.88 550.094L243.03 550.934L239.232 546.965L236.409 546.124L235.959 545.501L237.159 545.188L236.609 542.564L237.059 540.474L237.808 538.908L238.458 537.561L238.583 537.129L239.007 535.253L238.258 534.94L236.084 535.782L235.21 535.664L234.785 535.568L234.01 535.998L232.711 536.623L229.238 535.88L228.364 536.094L227.389 537.345L227.065 537.441H226.965L225.865 537.658L223.916 536.72L222.942 534.411H221.868L217.62 537.129L217.42 541.939H216.221L214.697 540.883L214.147 539.221L212.848 539.846L212.748 545.378L213.623 548.098L213.173 550.407L213.623 554.06L212.323 555.41L213.173 555.936L214.697 555.217L215.122 554.565V554.469L215.796 553.531L215.996 554.95L216.121 555.84L215.671 556.971L204.278 560.532L201.13 559.905L199.506 557.719L198.307 556.971L198.757 555.527V555.313L200.056 551.126L201.03 549.346L202.005 547.593V547.47L201.355 546.436H199.281L200.056 544.344L200.905 544.753L201.03 543.502L200.256 542.973L199.831 541.843L200.705 541.53L202.429 541.939L203.204 542.035L203.304 541.41L203.079 541.217L202.754 541.097L199.406 538.812L198.307 536.936L198.856 534.723L195.933 534.627L195.708 535.349L196.683 537.973L196.258 538.382L194.409 538.596L190.711 537.345L190.486 537.249L187.563 536.191V536.094L186.489 534.94L185.29 535.253L184.09 536.503L183.99 536.623L182.141 534.723L182.042 537.345L183.99 537.658L187.139 538.187L187.788 539.029V541.313L186.489 542.372L186.589 543.096L187.563 542.564L189.187 541.843L189.737 544.753L189.837 545.092L192.335 547.906L193.76 549.467L193.435 550.094L192.335 550.407L191.036 550.717L191.811 551.343L193.959 550.717L194.084 551.776L195.608 553.531L195.484 553.844L195.284 554.998L193.11 555.217V555.936L190.387 557.933L191.361 558.245L193.76 558.149L194.284 558.654L192.785 560.434L192.66 560.532L191.686 561.155L190.486 561.997L189.512 561.805L186.689 558.654L186.589 558.558L185.614 558.341L179.318 556.369L177.919 554.998L177.594 553.748L173.347 548.12L169.549 545.811L168.15 545.501L166.951 545.284L162.928 542.155L154.133 538.187L151.635 535.471L150.56 533.593L149.486 532.658L146.013 529.408L144.914 528.374L142.965 526.378L137.093 519.812L136.569 519.066L135.919 518.874L134.945 518.561L134.17 517.503L134.945 514.785L134.62 512.597L135.594 511.659L136.994 510.411L136.894 508.845L134.945 508.318L134.17 508.099L133.745 508.005L133.845 508.318V508.725L134.62 509.037L135.045 509.157L135.694 509.47L135.27 510.095L133.421 512.068L133.521 514.689L131.347 520.536L129.498 516.782L127.999 516.373L127.674 515.098L120.403 511.033L119.079 512.597L118.655 512.501H118.005L115.082 509.999L114.432 508.099L114.107 507.787L113.333 507.161L112.683 507.594H112.583L112.458 509.663L112.908 509.999L113.333 510.314L115.406 511.659L119.304 513.342L122.227 513.968L124.201 515.221L128.424 520.75L132.221 525.873L132.446 526.065L133.421 527.027L134.17 527.655L134.72 529.721L139.717 534.339L140.566 535.782L141.341 536.094L142.09 534.026L142.965 533.906L143.939 534.651L144.914 538.499V538.716V540.905L148.062 543.622L148.162 544.464L147.962 544.777L147.312 545.501L149.261 544.996L150.885 545.931L151.76 545.811L151.635 544.464L152.309 544.248L152.409 545.188V546.46L150.785 548.024L149.361 549.493L147.312 551.463L143.939 557.31L141.216 558.053H141.016L136.994 557.427L131.472 557.836L128.973 557.427L129.298 554.589L127.999 550.525L126.35 551.679L126.675 549.493L122.352 547.497L121.803 546.244L119.729 544.464L119.304 545.402L121.903 548.336L125.5 549.998L125.276 551.992L126.15 552.716L127.349 552.617L127.549 553.026L127.874 553.555L127.549 557.427L128.324 558.558L130.922 560.241L132.646 560.458L131.472 562.336L129.623 563.272L127.999 563.993L124.526 564.429L117.455 566.615L116.481 566.807L108.985 569.116L105.512 569.744L102.489 569.116L100.091 566.807L99.9907 567.339L99.8908 567.769L99.9907 568.082L100.64 569.744L101.39 571.425V572.245V572.772L100.865 573.397L99.0163 573.614L98.7914 574.554H100.316L99.8908 576.524L97.7171 579.242L96.7427 579.46L95.8682 579.025L94.7688 581.238L93.9193 581.866L92.7201 581.238L90.5464 584.148L91.5208 585.519L93.4696 586.553L95.6433 586.457L96.093 586.988L95.8682 587.611L93.0449 587.395L88.8224 583.956L87.1734 582.585L86.4238 581.962L85.1246 581.55L84.3501 581.238L74.1562 577.895ZM98.6165 602.787L97.3423 603.292L95.4934 604.016L90.0217 604.928L87.848 604.327L87.6981 603.894L91.3209 603.028L91.9205 599.372L94.7189 598.747L96.4178 597.183L97.2424 594.73L99.3911 592.47L100.216 589.511L102.364 587.635L105.637 587.59L106.162 588.287L106.462 588.718L106.762 589.944L105.937 592.301L106.287 594.827L105.587 595.933L105.762 596.007L106.187 596.2L107.111 595.259V592.662L108.061 591.293L108.261 589.656L107.286 588.383L106.987 587.948L108.161 587.373L111.034 587.277L114.582 586L125.076 579.699L127.474 580.612L127.549 582.031L126.775 583.643L124.901 585.11L124.401 587.782L126.725 584.124L127.449 584.797L127.499 585.447L127.724 587.515L128.599 586.144L128.274 585.185L129.873 585.447L128.474 583.691L128.349 582.467L129.198 581.719L129.623 582.056L129.348 583.21L130.497 583.766L131.447 582.467L131.672 583.859L134.92 584.509L135.694 585.447L136.244 585.302L136.119 583.573L136.894 582.897L136.419 582.467L134.195 583.595L132.546 582.921L133.92 581.43L132.096 580.062L128.449 580.396L136.744 576.358L141.916 574.672L142.865 573.493L143.365 570.728L144.489 569.357L145.863 568.587L147.562 567.625L147.762 567.36L149.586 565.003L151.035 564.236L151.41 564.306L153.958 564.619L154.908 566.663L155.008 567.457V567.481L155.657 572.676L155.957 573.493L156.507 575.081L157.606 578.207L157.356 581.168L156.882 582.753L155.907 586.074L155.582 587.251L155.982 587.852L156.757 585.639L157.631 583.258L159.18 578.955L156.957 573.036L156.057 570.583L156.632 567.385L156.757 566.711L156.957 565.653L157.356 565.388L157.556 565.244L158.481 564.643L161.729 565.99L166.701 571.377L167.7 573.998L169.074 573.614L172.972 575.033L174.346 576.476L175.171 576.572L179.793 577.245L182.816 577.293H186.164L189.087 578.354L189.912 579.049L190.636 579.699L191.936 580.062L195.109 580.901L196.883 581.406L200.181 588.645L199.906 591.486L198.407 591.532L197.957 592.133L199.781 593.504L200.056 593.335L202.329 591.916L204.903 593.167L206.452 594.754L206.577 596.173L204.728 597.665L201.73 600.118L200.705 600.914L200.231 603.1L194.584 603.533L190.761 605.192L189.787 605.866L187.613 607.309L185.19 609.81L183.84 612.552L182.666 618.709L182.741 620.898L182.816 622.1L182.092 623.206L181.992 626.961L181.017 628.163L180.767 628.45L177.269 630.542L173.422 631.312L166.176 634.991L159.03 636.242L154.808 637.661L153.159 637.445L151.66 636.531L150.236 633.332L145.788 628.426L142.24 625.708L139.292 624.217L136.669 621.138L134.745 618.877L129.648 615.582L119.129 610.844L117.48 608.968L115.357 607.694L112.608 603.701L110.21 602.33L105.113 601.32L104.363 601.922L98.6165 602.787Z" stroke="white" stroke-width="2"></path>
</svg>
